<?xml version="1.0" standalone="no"?><!-- Generator: Gravit.io --><svg xmlns="http://www.w3.org/2000/svg" xmlns:xlink="http://www.w3.org/1999/xlink" style="isolation:isolate" viewBox="0 0 471.839 471.838" width="471.839" height="471.838"><defs><clipPath id="_clipPath_BaUXR8ux3JFpK0SRxnIFMp8FcBFl0c6P"><rect width="471.839" height="471.838"/></clipPath></defs><g clip-path="url(#_clipPath_BaUXR8ux3JFpK0SRxnIFMp8FcBFl0c6P)"><g id="Group"><path d=" M 206.429 402.684 C 202.854 402.745 199.914 399.893 199.853 396.317 L 196.66 209.499 L 116.512 242.763 C 113.823 243.861 110.711 243.063 108.923 240.758 C 107.133 238.471 107.078 235.263 108.836 232.926 L 227.989 72.326 C 229.186 70.712 231.079 69.749 233.076 69.715 C 235.097 69.674 236.999 70.579 238.255 72.151 L 362.838 228.586 C 363.741 229.733 364.226 231.117 364.25 232.501 C 364.273 233.876 363.868 235.248 363.01 236.427 C 361.306 238.78 358.227 239.683 355.511 238.678 L 274.267 208.172 L 277.465 394.991 C 277.52 398.553 274.678 401.517 271.099 401.567 L 206.429 402.684 Z  M 239.947 471.804 C 109.882 474.027 2.258 370.017 0.035 239.949 C -2.188 109.878 101.821 2.257 231.886 0.034 C 361.959 -2.189 469.581 101.823 471.804 231.888 C 474.027 361.956 370.015 469.581 239.947 471.804 Z  M 239.505 445.936 C 355.312 443.957 447.913 348.143 445.934 232.33 C 443.955 116.532 348.135 23.919 232.328 25.898 C 116.53 27.883 23.923 123.708 25.902 239.507 C 27.881 355.314 123.706 447.915 239.505 445.936 Z " fill="rgb(0,0,0)"/></g></g></svg>