<?xml version="1.0" standalone="no"?><!-- Generator: Gravit.io --><svg xmlns="http://www.w3.org/2000/svg" xmlns:xlink="http://www.w3.org/1999/xlink" style="isolation:isolate" viewBox="0 0 471.839 471.838" width="471.839" height="471.838"><defs><clipPath id="_clipPath_zO1PsvnUw3pXOUIvicdywqOKWxCIDd7h"><rect width="471.839" height="471.838"/></clipPath></defs><g clip-path="url(#_clipPath_zO1PsvnUw3pXOUIvicdywqOKWxCIDd7h)"><path d=" M 118.27 142.807 L 118.27 142.807 L 151.57 142.807 L 151.57 142.807 Q 184.645 142.807 184.645 170.707 L 184.645 170.707 L 184.645 259.356 L 184.645 259.356 Q 184.645 287.257 151.57 287.257 L 151.57 287.257 L 118.27 287.257 L 118.27 287.257 Q 85.194 287.257 85.194 259.356 L 85.194 259.356 L 85.194 170.707 L 85.194 170.707 Q 85.194 142.807 118.27 142.807 Z  M 145.27 254.182 L 145.27 254.182 L 145.27 175.882 L 145.27 175.882 Q 145.27 170.932 139.645 170.932 L 139.645 170.932 L 130.195 170.932 L 130.195 170.932 Q 124.569 170.932 124.569 175.882 L 124.569 175.882 L 124.569 254.182 L 124.569 254.182 Q 124.569 259.132 130.195 259.132 L 130.195 259.132 L 139.645 259.132 L 139.645 259.132 Q 145.27 259.132 145.27 254.182 Z  M 288.595 142.807 L 288.595 170.932 L 241.345 170.932 L 241.345 206.032 L 282.295 206.032 L 282.295 231.907 L 241.345 231.907 L 241.345 287.257 L 201.969 287.257 L 201.969 142.807 L 288.595 142.807 Z  M 387.595 142.807 L 387.595 170.932 L 340.345 170.932 L 340.345 206.032 L 381.295 206.032 L 381.295 231.907 L 340.345 231.907 L 340.345 287.257 L 300.97 287.257 L 300.97 142.807 L 387.595 142.807 Z  M 470.839 232.922 C 470.839 363.006 365.006 468.838 234.919 468.838 C 104.829 468.838 -1 363.006 -1 232.922 C -1 102.83 104.835 -3 234.919 -3 C 365.006 -3 470.839 102.835 470.839 232.922 Z  M 444.967 232.922 C 444.967 117.098 350.749 22.874 234.919 22.874 C 119.104 22.874 24.868 117.098 24.868 232.922 C 24.874 348.737 119.103 442.967 234.919 442.967 C 350.743 442.967 444.967 348.738 444.967 232.922 Z " fill="rgb(0,0,0)"/></g></svg>