<?xml version="1.0" standalone="no"?><!-- Generator: Gravit.io --><svg xmlns="http://www.w3.org/2000/svg" xmlns:xlink="http://www.w3.org/1999/xlink" style="isolation:isolate" viewBox="0 0 471.839 471.838" width="471.839" height="471.838"><defs><clipPath id="_clipPath_SZROHUlGNYGYh2qmSVQTIK4pigvFUMnU"><rect width="471.839" height="471.838"/></clipPath></defs><g clip-path="url(#_clipPath_SZROHUlGNYGYh2qmSVQTIK4pigvFUMnU)"><g id="Group"><path d=" M 268.255 69.682 C 271.831 69.682 274.722 72.584 274.722 76.16 L 274.722 263.006 L 355.427 231.116 C 358.133 230.064 361.232 230.915 362.98 233.25 C 364.73 235.567 364.73 238.776 362.933 241.082 L 241.054 399.624 C 239.83 401.217 237.92 402.148 235.922 402.148 C 233.902 402.153 232.015 401.217 230.787 399.624 L 108.895 241.082 C 108.011 239.92 107.55 238.528 107.55 237.143 C 107.55 235.768 107.979 234.403 108.857 233.239 C 110.601 230.916 113.695 230.065 116.393 231.117 L 197.104 263.006 L 197.098 76.16 C 197.104 72.597 199.997 69.682 203.576 69.694 L 268.255 69.682 Z  M 235.923 -0.001 C 366.007 -0.001 471.838 105.833 471.838 235.919 C 471.839 366.01 366.006 471.838 235.922 471.838 C 105.83 471.838 0 366.004 0.001 235.919 C 0.001 105.832 105.836 -0.001 235.923 -0.001 Z  M 235.923 25.871 C 120.099 25.871 25.875 120.089 25.874 235.919 C 25.874 351.734 120.098 445.97 235.922 445.97 C 351.737 445.965 445.968 351.736 445.968 235.92 C 445.968 120.095 351.739 25.871 235.923 25.871 Z " fill="rgb(0,0,0)"/></g></g></svg>