<?xml version="1.0" standalone="no"?><!-- Generator: Gravit.io --><svg xmlns="http://www.w3.org/2000/svg" xmlns:xlink="http://www.w3.org/1999/xlink" style="isolation:isolate" viewBox="0 0 471.839 471.838" width="471.839" height="471.838"><defs><clipPath id="_clipPath_oojs0NnjzavDoT5tUSeEtb35PLtnQ6Ey"><rect width="471.839" height="471.838"/></clipPath></defs><g clip-path="url(#_clipPath_oojs0NnjzavDoT5tUSeEtb35PLtnQ6Ey)"><path d=" M 158.307 143.806 L 158.307 143.806 L 191.607 143.806 L 191.607 143.806 Q 224.682 143.806 224.682 171.707 L 224.682 171.707 L 224.682 260.356 L 224.682 260.356 Q 224.682 288.256 191.607 288.256 L 191.607 288.256 L 158.307 288.256 L 158.307 288.256 Q 125.232 288.256 125.232 260.356 L 125.232 260.356 L 125.232 171.707 L 125.232 171.707 Q 125.232 143.806 158.307 143.806 Z  M 185.307 255.182 L 185.307 255.182 L 185.307 176.882 L 185.307 176.882 Q 185.307 171.931 179.682 171.931 L 179.682 171.931 L 170.232 171.931 L 170.232 171.931 Q 164.607 171.931 164.607 176.882 L 164.607 176.882 L 164.607 255.182 L 164.607 255.182 Q 164.607 260.131 170.232 260.131 L 170.232 260.131 L 179.682 260.131 L 179.682 260.131 Q 185.307 260.131 185.307 255.182 Z  M 307.932 220.981 L 307.932 143.806 L 343.932 143.806 L 343.932 288.256 L 310.182 288.256 L 278.007 212.432 L 278.007 288.256 L 242.007 288.256 L 242.007 143.806 L 275.757 143.806 L 307.932 220.981 Z  M 471.839 233.922 C 471.839 364.006 366.006 469.838 235.919 469.838 C 105.829 469.838 0 364.006 0 233.922 C 0 103.83 105.835 -2 235.919 -2 C 366.006 -2 471.839 103.835 471.839 233.922 Z  M 445.967 233.922 C 445.967 118.098 351.749 23.874 235.919 23.874 C 120.104 23.874 25.868 118.098 25.868 233.922 C 25.874 349.737 120.103 443.967 235.919 443.967 C 351.743 443.967 445.967 349.738 445.967 233.922 Z " fill="rgb(0,0,0)"/></g></svg>