<?xml version="1.0" standalone="no"?><!-- Generator: Gravit.io --><svg xmlns="http://www.w3.org/2000/svg" xmlns:xlink="http://www.w3.org/1999/xlink" style="isolation:isolate" viewBox="0 0 471.839 471.838" width="471.839" height="471.838"><defs><clipPath id="_clipPath_DFmoCC2WVfRAipLDYgKpK8K8bFPC7ZZX"><rect width="471.839" height="471.838"/></clipPath></defs><g clip-path="url(#_clipPath_DFmoCC2WVfRAipLDYgKpK8K8bFPC7ZZX)"><g id="Group"><path d=" M 235.922 0 C 366.006 0 471.838 105.833 471.838 235.92 C 471.838 366.01 366.006 471.839 235.922 471.839 C 105.83 471.839 0 366.004 0 235.92 C 0 105.833 105.835 0 235.922 0 Z  M 235.922 25.872 C 120.098 25.872 25.874 120.09 25.874 235.92 C 25.874 351.735 120.098 445.971 235.922 445.971 C 351.737 445.965 445.967 351.736 445.967 235.92 C 445.967 120.096 351.738 25.872 235.922 25.872 Z " fill="rgb(0,0,0)"/><path d=" M 386.344 225.208 L 247.587 103.177 C 241.121 97.487 230.647 97.487 224.267 103.177 L 85.554 225.208 C 79.089 230.898 80.813 235.511 89.434 235.511 L 132.237 235.511 L 132.237 360.473 C 132.237 367.283 137.841 372.93 144.694 372.93 L 197.067 372.93 L 197.067 290.728 C 197.067 283.917 202.671 278.271 209.525 278.271 L 262.415 278.271 C 269.311 278.271 274.872 283.788 274.872 290.728 L 274.872 372.93 L 327.245 372.93 C 334.142 372.93 339.702 367.326 339.702 360.473 L 339.702 235.467 L 382.506 235.467 C 390.998 235.467 392.723 230.898 386.344 225.208 Z " fill="rgb(0,0,0)"/></g></g></svg>