G04 ================== begin FILE IDENTIFICATION RECORD ==================*
G04 Layout Name:  reggio_rev3.brd*
G04 Film Name:    L3-POWER*
G04 File Format:  Gerber RS274X*
G04 File Origin:  Cadence Allegro 16.6-S011*
G04 Origin Date:  Mon Jul 14 13:56:51 2014*
G04 *
G04 Layer:  VIA CLASS/L3-POWER*
G04 Layer:  PIN/L3-POWER*
G04 Layer:  ETCH/L3-POWER*
G04 *
G04 Offset:    (0.00 0.00)*
G04 Mirror:    No*
G04 Mode:      Positive*
G04 Rotation:  0*
G04 FullContactRelief:  No*
G04 UndefLineWidth:     0.00*
G04 ================== end FILE IDENTIFICATION RECORD ====================*
%FSLAX25Y25*MOIN*%
%IR0*IPPOS*OFA0.00000B0.00000*MIA0B0*SFA1.00000B1.00000*%
%ADD10C,.02*%
%ADD17C,.012*%
%ADD21C,.06*%
%ADD18C,.0315*%
%ADD26O,.16142X.05512*%
%ADD13C,.065*%
%ADD25O,.05512X.14173*%
%ADD27O,.14173X.05512*%
%ADD14R,.065X.065*%
%ADD15C,.08661*%
%ADD11C,.03937*%
%ADD19C,.0689*%
%ADD23C,.06693*%
%ADD16C,.08268*%
%ADD22C,.06299*%
%ADD20R,.0689X.0689*%
%ADD24R,.06693X.06693*%
%ADD12C,.2*%
%ADD34R,.07896X.07896*%
%ADD28C,.03404*%
%ADD33C,.02604*%
%ADD42C,.07204*%
%ADD38C,.07502*%
%ADD43C,.07404*%
%ADD39C,.07702*%
%ADD30C,.0934*%
%ADD41C,.07704*%
%ADD29C,.09342*%
%ADD40C,.07904*%
%ADD48C,.08094*%
%ADD44C,.08294*%
%ADD35C,.08096*%
%ADD37C,.09672*%
%ADD47O,.17346X.06716*%
%ADD36C,.09864*%
%ADD31C,.07885*%
%ADD32C,.21404*%
%ADD46R,.08092X.08092*%
%ADD45R,.08292X.08292*%
%ADD49R,.08096X.08096*%
G75*
%LPD*%
G75*
G36*
G01X134748Y-71396D02*
G03Y-74772I-216J-1688D01*
G02X135198Y-75168I50J-397D01*
G01Y-90728D01*
G02X134732Y-91122I-400J0D01*
G03Y-94478I-282J-1678D01*
G02X135198Y-94872I66J-394D01*
G01Y-170302D01*
X117102Y-188398D01*
X80400D01*
Y-144000D01*
X-9600D01*
Y110400D01*
X80400D01*
Y296000D01*
X416400D01*
Y211500D01*
X333000D01*
Y94500D01*
X261664D01*
G02X261382Y95183I1J400D01*
G01X264498Y98298D01*
X330702D01*
Y138702D01*
X263502D01*
X234502Y109702D01*
X135198D01*
Y-71000D01*
G02X134748Y-71396I-400J1D01*
G37*
G36*
G01X80400Y-293000D02*
Y-251902D01*
X81889D01*
G02X82276Y-252402I0J-400D01*
G03X89924I3824J-998D01*
G02X90311Y-251902I387J100D01*
G01X92148D01*
Y-257352D01*
X100052D01*
Y-251902D01*
X217798D01*
X253302Y-216398D01*
Y-160798D01*
X215300D01*
Y-151000D01*
X268298D01*
Y-228702D01*
X299202D01*
Y-227202D01*
X390000D01*
Y-255400D01*
X410100D01*
Y-293000D01*
X80400D01*
G37*
G36*
G01X233851Y-162000D02*
G02X234203Y-162590I0J-400D01*
G03X237197I1497J-810D01*
G02X237549Y-162000I352J190D01*
G01X252100D01*
Y-170086D01*
G02X251586Y-170469I-400J0D01*
G03Y-173731I-486J-1631D01*
G02X252100Y-174114I114J-383D01*
G01Y-215900D01*
X217300Y-250700D01*
X121692D01*
G02X121294Y-250262I0J400D01*
G03X117906I-1694J162D01*
G02X117508Y-250700I-398J-38D01*
G01X100052D01*
Y-249448D01*
X92148D01*
Y-250700D01*
X88986D01*
G03X83214I-2886J-2700D01*
G01X80400D01*
Y-189600D01*
X117600D01*
X136400Y-170800D01*
Y108500D01*
X220775D01*
G02X221103Y107872I-1J-400D01*
G03X223897I1397J-972D01*
G02X224225Y108500I329J228D01*
G01X235000D01*
X264000Y137500D01*
X329500D01*
Y110877D01*
G03Y108123I1000J-1377D01*
G01Y103702D01*
G03Y100698I800J-1502D01*
G01Y99500D01*
X264000D01*
X231500Y67000D01*
X212902D01*
G02X212502Y67400I0J400D01*
G03X209098I-1702J0D01*
G02X208698Y67000I-400J0D01*
G01X183746D01*
Y75646D01*
X175454D01*
Y67000D01*
X174200D01*
Y-183800D01*
X179895Y-189495D01*
G03X180605Y-190205I1505J795D01*
G01X182400Y-192000D01*
X200400D01*
X203130Y-189270D01*
G02X203734Y-189315I283J-283D01*
G03X206115Y-186934I1366J1015D01*
G02X206070Y-186330I238J321D01*
G01X208100Y-184300D01*
Y-162000D01*
X233851D01*
G37*
G36*
G01X182898Y-190798D02*
X175402Y-183302D01*
Y14000D01*
X185835D01*
G02X186118Y13317I0J-400D01*
G01X183598Y10798D01*
Y-178802D01*
X201602D01*
Y-150498D01*
X208498Y-143602D01*
X217902D01*
X217936Y-143759D01*
G03X221264I1664J359D01*
G01X221298Y-143602D01*
X224225D01*
G02X224619Y-144073I1J-400D01*
G03X226498Y-148258I3981J-727D01*
G02X226290Y-149000I-208J-342D01*
G01X213800D01*
Y-160798D01*
X206898D01*
Y-183802D01*
X199902Y-190798D01*
X182898D01*
G37*
G36*
G01X269500Y-227500D02*
Y-190782D01*
X269647Y-190742D01*
G03Y-187458I-447J1642D01*
G01X269500Y-187418D01*
Y-145851D01*
G02X270088Y-145498I400J0D01*
G03X268050Y-142009I1812J3398D01*
G02X267650Y-142400I-400J9D01*
G01X231982D01*
G03X225218I-3382J-2400D01*
G01X220977D01*
G03X218223I-1377J-1000D01*
G01X208000D01*
X200400Y-150000D01*
Y-177600D01*
X184800D01*
Y-79815D01*
G02X185314Y-79431I400J1D01*
G03Y-76169I486J1631D01*
G02X184800Y-75785I-114J383D01*
G01Y-64782D01*
X184947Y-64742D01*
G03Y-61458I-447J1642D01*
G01X184800Y-61418D01*
Y-57782D01*
X184947Y-57742D01*
G03Y-54458I-447J1642D01*
G01X184800Y-54418D01*
Y-12964D01*
G02X185276Y-12571I400J0D01*
G03Y-9229I324J1671D01*
G02X184800Y-8836I-76J393D01*
G01Y10300D01*
X241108Y66608D01*
X241114Y66613D01*
G03X241287Y66786I-1114J1287D01*
G01X241292Y66792D01*
X266500Y92000D01*
X291900D01*
G02X292300Y91581I0J-400D01*
G03X295700I1700J-81D01*
G02X296100Y92000I400J19D01*
G01X322500D01*
Y66000D01*
X308500D01*
Y37863D01*
G02X307796Y37604I-400J0D01*
G03Y35396I-1296J-1104D01*
G02X308500Y35137I304J-259D01*
G01Y20000D01*
X288500D01*
Y10515D01*
G02X287986Y10131I-400J-1D01*
G03Y6869I-486J-1631D01*
G02X288500Y6485I114J-383D01*
G01Y-20500D01*
X300867D01*
X300917Y-20626D01*
G03X304083I1583J626D01*
G01X304133Y-20500D01*
X308867D01*
X308917Y-20626D01*
G03X312083I1583J626D01*
G01X312133Y-20500D01*
X313000D01*
Y-59000D01*
X298300D01*
Y-118551D01*
G02X297710Y-118903I-400J0D01*
G03Y-121897I-810J-1497D01*
G02X298300Y-122249I190J-352D01*
G01Y-142400D01*
X298000D01*
Y-158270D01*
G02X297371Y-158598I-400J0D01*
G03Y-165402I-2371J-3402D01*
G02X298000Y-165730I229J-328D01*
G01Y-168270D01*
G02X297371Y-168598I-400J0D01*
G03X299093Y-172668I-2371J-3402D01*
G01X299120Y-172500D01*
X323854D01*
Y-176146D01*
X332146D01*
Y-172500D01*
X333880D01*
X333907Y-172668D01*
G03X342093I4093J668D01*
G01X342120Y-172500D01*
X425685D01*
G03X430515I2415J3000D01*
G01X466000D01*
Y-202500D01*
X438000D01*
Y-195500D01*
X427500D01*
Y-199900D01*
G02X427081Y-200300I-400J0D01*
G03X427891Y-203450I-81J-1700D01*
G02X428500Y-203791I209J-341D01*
G01Y-212000D01*
X466000D01*
Y-226000D01*
X400798D01*
X400744Y-225884D01*
G03X397656I-1544J-716D01*
G01X397602Y-226000D01*
X376561D01*
G02X376348Y-225261I-1J400D01*
G03X372252I-2048J3261D01*
G02X372039Y-226000I-212J-339D01*
G01X354663D01*
G02X354404Y-225296I0J400D01*
G03X352196I-1104J1296D01*
G02X351937Y-226000I-259J-304D01*
G01X341764D01*
G02X341371Y-225524I0J400D01*
G03X338029I-1671J324D01*
G02X337636Y-226000I-393J-76D01*
G01X298000D01*
Y-227500D01*
X269500D01*
G37*
G36*
G01X175402Y16000D02*
Y19188D01*
G02X176143Y19396I400J0D01*
G03Y23604I3457J2104D01*
G02X175402Y23812I-341J208D01*
G01Y29001D01*
G02X176136Y29221I400J0D01*
G03Y33779I3464J2279D01*
G02X175402Y33999I-334J220D01*
G01Y39001D01*
G02X176136Y39221I400J0D01*
G03Y43779I3464J2279D01*
G02X175402Y43999I-334J220D01*
G01Y49001D01*
G02X176136Y49221I400J0D01*
G03Y53779I3464J2279D01*
G02X175402Y53999I-334J220D01*
G01Y59001D01*
G02X176136Y59221I400J0D01*
G03X181734Y65056I3464J2279D01*
G02X181940Y65798I207J342D01*
G01X223500D01*
Y50699D01*
X188801Y16000D01*
X175402D01*
G37*
G36*
G01X230702Y-148258D02*
G03X232581Y-144073I-2102J3458D01*
G02X232975Y-143602I393J71D01*
G01X268298D01*
Y-149000D01*
X230910D01*
G02X230702Y-148258I0J400D01*
G37*
G36*
G01X226000Y54165D02*
Y65798D01*
X231998D01*
X258699Y92500D01*
X264335D01*
G02X264618Y91817I0J-400D01*
G01X241835Y69034D01*
G02X241257Y69048I-282J283D01*
G03X238852Y66643I-1257J-1148D01*
G02X238866Y66065I-269J-296D01*
G01X226683Y53882D01*
G02X226000Y54165I-283J283D01*
G37*
G36*
G01X303600Y-132000D02*
Y-118761D01*
X303737Y-118715D01*
G03Y-115485I-537J1615D01*
G01X303600Y-115439D01*
Y-112800D01*
X307976Y-108424D01*
X308086Y-108451D01*
G03X310151Y-106386I414J1651D01*
G01X310124Y-106276D01*
X328800Y-87600D01*
Y-42799D01*
G02X329219Y-42400I400J-1D01*
G03Y-39000I81J1700D01*
G02X328800Y-38601I-19J400D01*
G01Y-18500D01*
X311304D01*
G03X309696I-804J-1500D01*
G01X303304D01*
G03X301696I-804J-1500D01*
G01X290500D01*
Y18500D01*
X308186D01*
G02X308569Y17986I0J-400D01*
G03X311831I1631J-486D01*
G02X312214Y18500I383J114D01*
G01X317500D01*
Y50500D01*
X353301D01*
G02X353700Y50081I-1J-400D01*
G03X357100I1700J-81D01*
G02X357499Y50500I400J19D01*
G01X365000D01*
Y-7500D01*
X373500D01*
Y-13500D01*
X365000D01*
Y-44500D01*
X343200D01*
Y-80595D01*
G02X342442Y-80774I-400J0D01*
G03Y-84226I-3442J-1726D01*
G02X343200Y-84405I358J-179D01*
G01Y-132000D01*
X311291D01*
G02X310950Y-131391I0J400D01*
G03X308050I-1450J891D01*
G02X307709Y-132000I-341J-209D01*
G01X303600D01*
G37*
G36*
G01X362798Y-92486D02*
G03X362823Y-99529I2202J-3514D01*
G01X362842Y-99542D01*
X364533Y-101232D01*
G02X364316Y-101910I-282J-283D01*
G03X367735Y-109117I684J-4090D01*
G02X368398Y-109418I263J-301D01*
G01Y-112582D01*
G02X367735Y-112883I-400J0D01*
G03Y-119117I-2735J-3117D01*
G02X368398Y-119418I263J-301D01*
G01Y-121854D01*
X360854D01*
Y-130146D01*
X368398D01*
Y-152898D01*
X381602Y-166102D01*
X425087D01*
G02X425370Y-166784I0J-400D01*
G03X424463Y-170767I2730J-2716D01*
G02X424086Y-171298I-377J-131D01*
G01X342090D01*
X342057Y-171140D01*
G03X333943I-4057J-860D01*
G01X333910Y-171298D01*
X332146D01*
Y-167854D01*
X323854D01*
Y-171298D01*
X299202D01*
Y-143602D01*
X299502D01*
Y-60202D01*
X314202D01*
Y-19702D01*
X327598D01*
Y-87102D01*
X302398Y-112302D01*
Y-133202D01*
X344402D01*
Y-45702D01*
X366202D01*
Y-14702D01*
X367798D01*
Y-45002D01*
X362798Y-50002D01*
Y-82604D01*
G03Y-89396I2202J-3396D01*
G01Y-92486D01*
G37*
G36*
G01X413200Y-293000D02*
Y-253300D01*
X392000D01*
Y-227202D01*
X467202D01*
Y-211702D01*
X482702D01*
Y-166102D01*
X533202D01*
Y-21998D01*
X568702Y13502D01*
Y109798D01*
X580702D01*
Y119426D01*
G02X581217Y119809I400J0D01*
G03Y126991I1083J3591D01*
G02X580702Y127374I-115J383D01*
G01Y189298D01*
X650702D01*
Y211702D01*
X646146D01*
Y218646D01*
X638054D01*
Y211702D01*
X635899D01*
G02X635565Y212321I0J400D01*
G03X628635I-3465J2279D01*
G02X628301Y211702I-334J-219D01*
G01X625899D01*
G02X625565Y212321I0J400D01*
G03X618635I-3465J2279D01*
G02X618301Y211702I-334J-219D01*
G01X565202D01*
Y243151D01*
G02X565629Y243550I400J0D01*
G03Y246946I119J1698D01*
G02X565202Y247345I-27J399D01*
G01Y252798D01*
X624702D01*
Y291702D01*
X544298D01*
Y268497D01*
G03Y266303I1302J-1097D01*
G01Y203702D01*
X534383D01*
G02X534154Y204429I1J400D01*
G03X529846I-2154J3071D01*
G02X529617Y203702I-230J-327D01*
G01X431298D01*
Y133702D01*
X387341D01*
G02X386981Y134275I0J400D01*
G03X380219I-3381J1625D01*
G02X379859Y133702I-360J-173D01*
G01X367798D01*
Y81702D01*
X344298D01*
Y51702D01*
X316298D01*
Y19702D01*
X309702D01*
Y64798D01*
X323702D01*
Y92500D01*
X335000D01*
Y208800D01*
X418800D01*
Y296100D01*
X658500D01*
Y-293000D01*
X413200D01*
G37*
G36*
G01X563600Y202598D02*
G02X564000Y202198I0J-400D01*
G01Y180500D01*
X517444D01*
G02X517074Y181052I0J400D01*
G03X513926I-1574J648D01*
G02X513556Y180500I-370J-152D01*
G01X451500D01*
Y107500D01*
X391000D01*
Y90861D01*
X390863Y90815D01*
G03Y87585I537J-1615D01*
G01X391000Y87539D01*
Y-3052D01*
X389452D01*
Y-11148D01*
X391000D01*
Y-13916D01*
G03Y-20284I2500J-3184D01*
G01Y-23916D01*
G03Y-30284I2500J-3184D01*
G01Y-35500D01*
X385000Y-41500D01*
Y-130500D01*
X394500Y-140000D01*
X411000D01*
X416600Y-134400D01*
X423969D01*
X423993Y-134572D01*
G03X432207I4107J572D01*
G01X432231Y-134400D01*
X433969D01*
X433993Y-134572D01*
G03X442207I4107J572D01*
G01X442231Y-134400D01*
X498500D01*
Y31500D01*
X539500D01*
Y60000D01*
X519500D01*
Y109000D01*
X567500D01*
Y64212D01*
X567321Y64193D01*
G03Y60807I179J-1693D01*
G01X567500Y60788D01*
Y14000D01*
X532000Y-21500D01*
Y-164900D01*
X517013D01*
G02X516786Y-164171I0J400D01*
G03X512414I-2186J3171D01*
G02X512187Y-164900I-227J-329D01*
G01X499700D01*
X499668Y-164889D01*
G03X498532I-568J-1659D01*
G01X498500Y-164900D01*
X481500D01*
Y-210500D01*
X430000D01*
Y-201500D01*
X429000D01*
Y-197000D01*
X436500D01*
Y-202439D01*
X436363Y-202485D01*
G03X438600Y-204189I537J-1615D01*
G01X438610Y-204000D01*
X469000D01*
Y-170108D01*
X469168Y-170081D01*
G03Y-166719I-268J1681D01*
G01X469000Y-166692D01*
Y-164900D01*
X382100D01*
X381707Y-164507D01*
X381840Y-164366D01*
G03X379434Y-161960I-1240J1166D01*
G02X379156Y-161956I-137J146D01*
G01X369600Y-152400D01*
Y-104600D01*
X365718Y-100718D01*
G02X365913Y-100045I283J283D01*
G03X364453Y-91889I-913J4045D01*
G02X364000Y-91493I-53J396D01*
G01Y-90507D01*
G02X364453Y-90111I400J0D01*
G03Y-81889I547J4111D01*
G02X364000Y-81493I-53J396D01*
G01Y-50500D01*
X369000Y-45500D01*
Y-15000D01*
X375000D01*
Y-6000D01*
X369000D01*
Y52500D01*
X345500D01*
Y80500D01*
X369000D01*
Y132500D01*
X381792D01*
G03X385408I1808J3400D01*
G01X430498D01*
Y132300D01*
G03X432647Y133942I1702J0D01*
G01X432500Y133982D01*
Y202500D01*
X476909D01*
G02X477250Y201891I0J-400D01*
G03X480150I1450J-891D01*
G02X480491Y202500I341J209D01*
G01X545500D01*
Y232209D01*
G02X546109Y232550I400J0D01*
G03Y235450I891J1450D01*
G02X545500Y235791I-209J341D01*
G01Y245575D01*
G02X546128Y245903I400J-1D01*
G03Y248697I972J1397D01*
G02X545500Y249025I-228J329D01*
G01Y250801D01*
X545687Y250998D01*
X545762Y251005D01*
G03Y254395I-162J1695D01*
G01X545687Y254402D01*
X545500Y254599D01*
Y265501D01*
X545687Y265698D01*
X545762Y265705D01*
G03Y269095I-162J1695D01*
G01X545687Y269102D01*
X545500Y269299D01*
Y290500D01*
X597662D01*
G02X597985Y289865I0J-400D01*
G03X604215I3115J-2265D01*
G02X604538Y290500I323J235D01*
G01X623500D01*
Y254000D01*
X564000D01*
Y206402D01*
G02X563600Y206002I-400J0D01*
G03Y202598I0J-1702D01*
G37*
G36*
G01X386202Y-108181D02*
Y-41998D01*
X392202Y-35998D01*
Y-31456D01*
G02X392682Y-31065I400J0D01*
G03Y-23135I818J3965D01*
G02X392202Y-22744I-80J391D01*
G01Y-21456D01*
G02X392682Y-21065I400J0D01*
G03Y-13135I818J3965D01*
G02X392202Y-12744I-80J391D01*
G01Y-11148D01*
X397548D01*
Y-3052D01*
X392202D01*
Y106298D01*
X405798D01*
Y71298D01*
X430828D01*
G03X435572I2372J3402D01*
G01X440828D01*
G03X445572I2372J3402D01*
G01X470602D01*
X475098Y66802D01*
Y-31298D01*
X465798D01*
Y-50202D01*
X468608D01*
G02X468949Y-50811I0J-400D01*
G03X471851I1451J-889D01*
G02X472192Y-50202I341J209D01*
G01X473608D01*
G02X473949Y-50811I0J-400D01*
G03X474951Y-53342I1451J-889D01*
G01X475098Y-53382D01*
Y-92202D01*
X459502Y-107798D01*
X444252D01*
G02X443899Y-107210I0J400D01*
G03X437101I-3399J1810D01*
G02X436748Y-107798I-353J-188D01*
G01X387873D01*
G02X387498Y-108057I-374J141D01*
G03X387419Y-108065I1J-400D01*
G02X386601Y-108147I-821J4065D01*
G03X386468Y-108170I1J-400D01*
G01X386436Y-108181D01*
X386202D01*
G37*
G36*
G01X396000Y-138000D02*
X389100Y-131100D01*
Y-109000D01*
X439132D01*
G03X441868I1368J3600D01*
G01X460000D01*
X476300Y-92700D01*
Y-62463D01*
G02X477004Y-62204I400J0D01*
G03Y-59996I1296J1104D01*
G02X476300Y-59737I-304J259D01*
G01Y-53145D01*
G03Y-50255I-900J1445D01*
G01Y-49000D01*
X467000D01*
Y-32500D01*
X476300D01*
Y67300D01*
X471100Y72500D01*
X447376D01*
G02X447008Y73058I-1J400D01*
G03X439392I-3808J1642D01*
G02X439024Y72500I-367J-158D01*
G01X437376D01*
G02X437008Y73058I-1J400D01*
G03X429392I-3808J1642D01*
G02X429024Y72500I-367J-158D01*
G01X407000D01*
Y105000D01*
X454000D01*
Y128500D01*
X566000D01*
Y210500D01*
X621477D01*
X621492Y210498D01*
G03X622708I608J4102D01*
G01X622723Y210500D01*
X631477D01*
X631492Y210498D01*
G03X632708I608J4102D01*
G01X632723Y210500D01*
X637954D01*
Y210454D01*
X646246D01*
Y210500D01*
X649500D01*
Y196582D01*
X649353Y196542D01*
G03Y193258I447J-1642D01*
G01X649500Y193218D01*
Y190500D01*
X579500D01*
Y126044D01*
G03Y120756I2800J-2644D01*
G01Y111000D01*
X507500D01*
Y58500D01*
X537500D01*
Y34000D01*
X534791D01*
G02X534450Y34609I0J400D01*
G03X531550I-1450J891D01*
G02X531209Y34000I-341J-209D01*
G01X527291D01*
G02X526950Y34609I0J400D01*
G03X524050I-1450J891D01*
G02X523709Y34000I-341J-209D01*
G01X495600D01*
Y-127200D01*
X490800Y-132000D01*
X441733D01*
G03X434467I-3633J-2000D01*
G01X431733D01*
G03X424467I-3633J-2000D01*
G01X415200D01*
X409200Y-138000D01*
X396000D01*
G37*
G36*
G01X467202Y-202798D02*
Y-171298D01*
X432114D01*
G02X431737Y-170767I0J400D01*
G03X430830Y-166784I-3637J1267D01*
G02X431113Y-166102I283J282D01*
G01X467798D01*
Y-202798D01*
X467202D01*
G37*
G36*
G01X452702Y129702D02*
Y179298D01*
X564798D01*
Y129702D01*
X452702D01*
G37*
G36*
G01X508702Y59702D02*
Y109798D01*
X518298D01*
Y59702D01*
X508702D01*
G37*
%LPC*%
G75*
G36*
G01X344083Y256076D02*
G03X344045Y255543I278J-288D01*
G02X341517Y255724I-1345J-1043D01*
G03X341555Y256257I-278J288D01*
G02X344083Y256076I1345J1043D01*
G37*
G36*
G01X231998Y111798D02*
X137098D01*
Y186258D01*
G03X136604Y186647I-400J0D01*
G02Y189953I-404J1653D01*
G03X137098Y190342I94J389D01*
G01Y218902D01*
X223298D01*
Y247350D01*
G03X223104Y247550I-200J0D01*
G02X221298Y254533I96J3750D01*
G01Y278718D01*
G03X220761Y279094I-400J0D01*
G02Y286506I-1361J3706D01*
G03X221298Y286882I137J376D01*
G01Y294402D01*
X309802D01*
Y231798D01*
X246298D01*
Y248798D01*
X225995D01*
G02X224903Y247958I-2794J2503D01*
G03X225085Y247202I182J-356D01*
G01X245702D01*
Y218902D01*
X257002D01*
Y136802D01*
X231998Y111798D01*
G37*
G36*
G01X364109Y-204553D02*
G02X362561Y-204619I-709J-1547D01*
G03X362531Y-203907I-197J348D01*
G02X364079Y-203841I709J1547D01*
G03X364109Y-204553I197J-348D01*
G37*
G36*
G01X316008Y-121924D02*
G03Y-122176I155J-126D01*
G02X313992I-1008J-824D01*
G03Y-121924I-155J126D01*
G02X316008I1008J824D01*
G37*
G36*
G01X454285Y241308D02*
G03X453715I-285J-281D01*
G02Y243692I-1215J1192D01*
G03X454285I285J281D01*
G02Y241308I1215J-1192D01*
G37*
G36*
G01X444943Y259417D02*
G02X443057I-943J-1417D01*
G03Y260083I-221J333D01*
G02X444943I943J1417D01*
G03Y259417I221J-333D01*
G37*
G36*
G01X436944Y-44539D02*
G03X437249Y-45034I386J-103D01*
G02X435256Y-46261I-349J-1666D01*
G03X434951Y-45766I-386J103D01*
G02X436944Y-44539I349J1666D01*
G37*
G54D34*
X327500Y241500D03*
G54D28*
X17100Y62300D03*
X17000Y82300D03*
X316900Y248900D03*
X6200Y67300D03*
Y57300D03*
X5800Y77300D03*
X64300Y-113000D03*
Y-121000D03*
Y-104960D03*
Y-97000D03*
Y-89000D03*
Y-81000D03*
Y-65000D03*
Y-73000D03*
Y-57000D03*
Y-49000D03*
Y-41000D03*
Y-33000D03*
Y-25000D03*
Y-17000D03*
Y-9000D03*
Y-1000D03*
Y7000D03*
Y15000D03*
Y23000D03*
X79000Y15000D03*
X64300Y31000D03*
Y39000D03*
Y47000D03*
Y55000D03*
X64500Y82300D03*
X79000Y92400D03*
X84816Y-143388D03*
X102153Y-105065D03*
X90000Y-89000D03*
X89300Y-65000D03*
X102000Y-20900D03*
X84900Y-17000D03*
X91900Y7000D03*
X98000Y-9000D03*
X82600Y23000D03*
Y88200D03*
X91900Y97200D03*
X88100Y102600D03*
X98000Y111500D03*
X102100Y164300D03*
X91900Y196100D03*
X98000Y204200D03*
X117500Y-150400D03*
X112900Y-136400D03*
X108200Y-121100D03*
X107771Y-87845D03*
X117500Y-79500D03*
X112900Y-41000D03*
X117500Y107000D03*
X107800Y146900D03*
X112900Y180200D03*
X129100Y-82800D03*
Y-65000D03*
X127000Y-15900D03*
X127100Y-33000D03*
X130700Y-24750D03*
X134600Y125100D03*
X127000Y172300D03*
X190800Y224900D03*
X202200Y230000D03*
X197500Y228400D03*
X214600Y227700D03*
X319800Y266200D03*
X319700Y275600D03*
X320900Y286600D03*
X329000Y288700D03*
X352500Y223000D03*
X16900Y72300D03*
X359961Y-239861D03*
X363200Y-234400D03*
X90000Y-192600D03*
X120800Y-240000D03*
X120600Y-190800D03*
X153000Y-247500D03*
X138100Y-229800D03*
X153700Y-227600D03*
X138800Y-218400D03*
X139400Y-195400D03*
Y-162000D03*
X139500Y-131600D03*
X154499Y-120801D03*
X144485Y-48813D03*
X154499Y-43301D03*
X144500Y-25900D03*
X139500Y-900D03*
X153200Y21700D03*
X148200Y42900D03*
X139900Y67400D03*
X148600Y49200D03*
X166400Y-239800D03*
X160800Y-206400D03*
X165500Y-194000D03*
X157700Y-189300D03*
X164900Y-175400D03*
X165300Y-168400D03*
X161200Y-153400D03*
X166050Y-117050D03*
X160700Y-97800D03*
X161700Y-107800D03*
X161800Y-77800D03*
X163400Y-62900D03*
X163300Y-55900D03*
X160500Y-10900D03*
X164100Y4000D03*
X164000Y11000D03*
X162700Y57000D03*
Y65000D03*
X157100Y50200D03*
X300500Y130500D03*
X269000Y128600D03*
X272576Y104424D03*
X230400Y102600D03*
X237000Y-188200D03*
X244300Y-214700D03*
X190900Y-220800D03*
Y-228300D03*
X183400Y-237300D03*
X199892Y-239800D03*
X183400Y-245300D03*
X168200Y-219500D03*
X209600Y-148400D03*
X197900Y-153400D03*
X198500Y-123400D03*
X209600Y-138000D03*
X210500Y-124000D03*
X204800Y-138400D03*
X198600Y-107800D03*
X210500Y-100500D03*
X198300Y-40900D03*
X206100Y-20000D03*
X205500Y3500D03*
X211500Y31900D03*
X214800Y-133300D03*
X219600Y-114400D03*
X219200Y-78500D03*
X216500Y-26300D03*
X222500Y4500D03*
X216500Y-10000D03*
X217300Y-3000D03*
X236600Y-126600D03*
X248800Y-126400D03*
X244300Y-123000D03*
X253100Y-113200D03*
X248800Y-104800D03*
X244300Y-114700D03*
X254100Y-96000D03*
X248800Y-65000D03*
Y-60000D03*
X252300Y-70000D03*
X240000Y-40000D03*
X244900Y-50000D03*
X254800Y-26000D03*
X236000Y-30000D03*
X252300Y-3800D03*
X240000Y15500D03*
X236000Y12000D03*
X248800Y17300D03*
X244900Y20200D03*
X234800Y45700D03*
X248800Y49500D03*
X252300Y45400D03*
X244900Y53900D03*
X275700Y-218400D03*
X273600Y-164500D03*
X265700Y-134800D03*
X272900Y-117500D03*
X267300Y-97000D03*
X272000Y-79800D03*
X275000Y-75500D03*
X266500D03*
X260400Y-67500D03*
X266600Y-62100D03*
X275000Y-62000D03*
X257900Y-20000D03*
Y7500D03*
X275500Y77500D03*
X285100Y-132800D03*
X289000Y-129500D03*
X285100Y-117100D03*
X291400Y-115500D03*
X282000Y-17000D03*
X296000Y37500D03*
X289000D03*
X281000Y38000D03*
X292000Y58500D03*
X285000Y71400D03*
X284800Y53700D03*
X310900Y-218400D03*
X300400Y-205200D03*
X310600Y-191000D03*
X301000Y25000D03*
Y32000D03*
X330200Y-213600D03*
X339600Y-212000D03*
X353500Y-206100D03*
X354900Y-189000D03*
X361600Y-179000D03*
X368800Y-213700D03*
X383600Y-206300D03*
X376900Y-189000D03*
X411000Y-198500D03*
X451000Y-196000D03*
X444000Y-188500D03*
X460000Y-193500D03*
X345700Y33900D03*
X349500Y44000D03*
X354100Y-7100D03*
X339200Y900D03*
X335800Y-8900D03*
X332700Y-28200D03*
X331600Y-16000D03*
X337100Y-117500D03*
X336900Y-110500D03*
X337900Y-127500D03*
X318900Y-400D03*
X319100Y-115000D03*
X309852Y-115448D03*
X310000Y-144000D03*
X447900Y259400D03*
X537800Y233200D03*
X536500Y266000D03*
X544700Y-13600D03*
X569900Y286400D03*
X583200Y288200D03*
X578500Y259500D03*
X553500Y263500D03*
X560000Y254500D03*
X557748Y229748D03*
X553748Y245248D03*
X557748Y217748D03*
X548500Y216000D03*
X544700Y91900D03*
X550900Y82700D03*
X558900Y82900D03*
X553500Y48500D03*
X530500Y99000D03*
X526600Y-100900D03*
X507600Y-118500D03*
X507700Y-125500D03*
X499000Y-156500D03*
X464600Y-160600D03*
X457600D03*
X444500Y198600D03*
X439200Y132700D03*
X448300Y116600D03*
X449000Y-144200D03*
X415800Y-158200D03*
X383618Y7384D03*
X382800Y2500D03*
X382900Y-36700D03*
X348000Y74300D03*
X349500Y64700D03*
X399800Y-75500D03*
X436300Y-51600D03*
X470200Y-56700D03*
X469800Y12100D03*
X394600Y-116900D03*
X401600D03*
X399900Y-113000D03*
X420800Y-127000D03*
X420900Y-120000D03*
X410700Y85200D03*
X417700Y85300D03*
X469300Y-46600D03*
X480600Y-112700D03*
X488100Y-112900D03*
X486300Y-43600D03*
X489800Y-34600D03*
X495800Y70200D03*
X479500Y74500D03*
X477500Y82700D03*
X478000Y89700D03*
X517500Y43000D03*
X509500D03*
X503300Y70500D03*
X524000Y115500D03*
X608500Y202800D03*
G54D33*
X206100Y240300D03*
G54D42*
X224800Y-175800D03*
G54D38*
X220000Y-156000D03*
X296900Y-252600D03*
X410500Y-181000D03*
X336000Y39500D03*
X328800Y56600D03*
X499100Y-170500D03*
X576000Y32500D03*
X587500Y184000D03*
X629200Y-135600D03*
X453900Y41500D03*
X455700Y-102500D03*
G54D43*
X214800Y-175800D03*
X272600Y-107400D03*
X282600D03*
X421100Y-218400D03*
X431100D03*
X412400Y-101500D03*
X422400D03*
G54D39*
X312300Y-236700D03*
X226300Y-224000D03*
X291900Y-72000D03*
X401500Y-198500D03*
X326900Y-100400D03*
X327000Y-146900D03*
X505500Y208400D03*
X513700Y286800D03*
X581400Y-163200D03*
Y-113200D03*
X576200Y55600D03*
X574000Y101700D03*
X632100Y231900D03*
X514600Y-111000D03*
X383600Y113200D03*
X399800Y-101200D03*
X422500Y-66500D03*
X469700Y59700D03*
G54D30*
X33708Y91851D03*
G54D41*
X86100Y-203400D03*
X96100D03*
G54D29*
X21700Y-122243D03*
G54D40*
X86100Y-243400D03*
Y-233400D03*
Y-223400D03*
Y-213400D03*
X96100Y-243400D03*
Y-233400D03*
Y-223400D03*
Y-213400D03*
G54D48*
X591400Y-131400D03*
X611000Y274300D03*
Y264300D03*
X622100Y204600D03*
X632100D03*
X642100D03*
G54D44*
X228600Y-134800D03*
Y-124800D03*
Y-114800D03*
Y-104800D03*
Y-80000D03*
Y-70000D03*
Y-60000D03*
Y-50000D03*
Y-40000D03*
Y-30000D03*
Y-20000D03*
Y-10000D03*
Y0D03*
X270700Y-39300D03*
Y-29300D03*
X285000Y-172000D03*
Y-182000D03*
Y-162000D03*
X287200Y-39300D03*
Y-29300D03*
X304100Y-39300D03*
Y-29300D03*
X338000Y-182000D03*
X328000D03*
X355000Y-126000D03*
Y-106000D03*
Y-116000D03*
Y-86000D03*
Y-96000D03*
X513500Y238200D03*
X513700Y263100D03*
X523500Y248200D03*
Y238200D03*
X523700Y263100D03*
Y273100D03*
X581400Y-141400D03*
Y-131400D03*
X601000Y264300D03*
X524600Y-131000D03*
X514600D03*
Y-141000D03*
X438100Y-144000D03*
X428100D03*
Y-154000D03*
X428400Y29100D03*
Y19100D03*
X418400D03*
X433200Y64700D03*
X428100Y-124000D03*
X438100D03*
X459700Y96700D03*
X469700D03*
Y86700D03*
G54D35*
X327500Y261500D03*
Y251500D03*
X407500Y-27100D03*
Y-17100D03*
G54D37*
X165900Y-275500D03*
X240900D03*
X315900D03*
X390900D03*
X555400Y-173200D03*
Y-98200D03*
X610000Y38600D03*
Y113600D03*
X630400Y-173200D03*
Y-98200D03*
G54D36*
X155900Y-285500D03*
Y-265500D03*
X175900Y-285500D03*
Y-265500D03*
X230900Y-285500D03*
Y-265500D03*
X250900Y-285500D03*
Y-265500D03*
X305900Y-285500D03*
Y-265500D03*
X325900Y-285500D03*
Y-265500D03*
X380900Y-285500D03*
Y-265500D03*
X400900Y-285500D03*
Y-265500D03*
X545400Y-163200D03*
Y-183200D03*
Y-108200D03*
Y-88200D03*
X565400Y-163200D03*
Y-183200D03*
Y-108200D03*
Y-88200D03*
X600000Y28600D03*
Y48600D03*
Y103600D03*
Y123600D03*
X620400Y-183200D03*
Y-163200D03*
Y-108200D03*
Y-88200D03*
X620000Y28600D03*
Y48600D03*
Y103600D03*
Y123600D03*
X640400Y-183200D03*
Y-163200D03*
Y-108200D03*
Y-88200D03*
G54D31*
X152839Y275579D03*
X170161D03*
G54D32*
X107400Y282900D03*
X108700Y-280400D03*
X645500D03*
X645200Y283100D03*
G54D46*
X287200Y-49300D03*
X304100D03*
X591400Y-141400D03*
X418400Y29100D03*
X443200Y64700D03*
G54D45*
X228600Y-94800D03*
Y10000D03*
X270700Y-49300D03*
X295000Y-182000D03*
X513500Y248200D03*
X513700Y273100D03*
X601000Y274300D03*
X524600Y-141000D03*
X438100Y-154000D03*
X459700Y86700D03*
G54D49*
X407500Y-7100D03*
%LPD*%
G75*
G36*
G01X212298Y217700D02*
G02X212563Y217001I-1J-400D01*
G03X214291I864J-974D01*
G02X214556Y217700I266J299D01*
G01X224500D01*
Y246000D01*
X244500D01*
Y217700D01*
X255800D01*
Y137300D01*
X231500Y113000D01*
X138300D01*
Y217700D01*
X178037D01*
G02X178296Y216996I0J-400D01*
G03X180504I1104J-1296D01*
G02X180763Y217700I259J304D01*
G01X212298D01*
G37*
G36*
G01X247500Y233000D02*
Y249147D01*
G02X248180Y249433I400J0D01*
G03X254054Y251906I2417J2473D01*
G01Y260566D01*
G03X247138I-3458J1D01*
G01Y251906D01*
G03X247413Y250556I3458J1D01*
G02X247044Y250000I-368J-156D01*
G01X227355D01*
G02X226964Y250485I0J400D01*
G03X222928Y255141I-3764J815D01*
G02X222500Y255540I-28J399D01*
G01Y280197D01*
G03Y285403I-3100J2603D01*
G01Y293200D01*
X308600D01*
Y249807D01*
G03Y247393I1200J-1207D01*
G01Y233000D01*
X247500D01*
G37*
%LPC*%
G75*
G36*
G01X230645Y190783D02*
G03X230357Y191244I-393J75D01*
G02X231979Y192256I343J1256D01*
G03X232267Y191795I393J-75D01*
G02X230645Y190783I-343J-1256D01*
G37*
G36*
G01X217313Y207435D02*
G03X216899Y207006I-15J-400D01*
G02X215651Y208213I-1299J-94D01*
G03X216065Y208642I15J400D01*
G02X217313Y207435I1299J94D01*
G37*
G36*
G01X220837Y182126D02*
G03X220936Y181863I183J-81D01*
G02X219194Y181211I-552J-1179D01*
G03X219095Y181474I-183J81D01*
G02X220837Y182126I552J1179D01*
G37*
G36*
G01X221719Y175881D02*
G03X221716Y175619I150J-133D01*
G02X219749Y175645I-995J-840D01*
G03X219752Y175907I-150J133D01*
G02X221719Y175881I995J840D01*
G37*
G36*
G01X198971Y208082D02*
G03X199433Y207737I397J50D01*
G02X198355Y206292I214J-1284D01*
G03X197893Y206637I-397J-50D01*
G02X198971Y208082I-214J1284D01*
G37*
G36*
G01X175369Y172990D02*
G02X174039Y174001I-1269J-290D01*
G03X174410Y174489I-19J399D01*
G02X174411Y175074I1269J290D01*
G03X174168Y175536I-390J90D01*
G02X174125Y177940I479J1211D01*
G03X174352Y178402I-161J366D01*
G02X174632Y179569I1264J314D01*
G03Y179831I-151J131D01*
G02X176600I984J853D01*
G03Y179569I151J-131D01*
G02X176138Y177523I-984J-853D01*
G03X175911Y177061I161J-366D01*
G02X175915Y176452I-1264J-313D01*
G03X176158Y175990I390J-90D01*
G02X175740Y173478I-478J-1211D01*
G03X175369Y172990I19J-399D01*
G37*
G36*
G01X264770Y264590D02*
G02Y271504I-1J3457D01*
G01X273430D01*
G02Y264590I1J-3457D01*
G01X264770D01*
G37*
G54D34*
X229400Y282800D03*
G54D28*
X249700Y191700D03*
X247700Y183500D03*
X249500Y159700D03*
X248100Y176300D03*
X245200Y163300D03*
X247600Y169300D03*
X235360Y231460D03*
X242200Y234800D03*
X239100Y223800D03*
X244300Y200100D03*
X236100Y159700D03*
X234400Y169300D03*
X243700Y147700D03*
X230600Y135200D03*
X222600D03*
X226100Y136900D03*
X235600Y151700D03*
X209900Y184900D03*
X220490Y186590D03*
X220664Y194464D03*
X214600Y135200D03*
X209000Y137600D03*
X210500Y125000D03*
X187000Y140100D03*
X197500Y120100D03*
X164400Y211300D03*
X159100Y182700D03*
X164600Y193800D03*
X159000Y172700D03*
X174500Y117800D03*
X154800Y204400D03*
X154100Y180200D03*
X154600Y188300D03*
X155100Y164200D03*
X154100Y172200D03*
X253300Y238500D03*
X242600Y288600D03*
X295400Y261800D03*
X293000Y280100D03*
X305500Y266200D03*
X303100Y275600D03*
G54D33*
X230379Y184621D03*
X231490Y172810D03*
X201616Y161584D03*
X220705Y166905D03*
X220742Y170842D03*
X218400Y136400D03*
X193800Y212400D03*
X191700Y207300D03*
X187836Y207436D03*
X184505Y192495D03*
X184527Y168873D03*
X164500Y188100D03*
G54D38*
X295100Y249200D03*
G54D47*
X269100Y243638D03*
%LPD*%
G75*
G54D10*
G01X82048Y-203400D02*
X86100D01*
G01X96100Y-207452D02*
Y-203400D01*
G01D02*
Y-199348D01*
G01X92048Y-203400D02*
X96100D01*
G01D02*
X100152D01*
G01X86100Y-207452D02*
Y-203400D01*
G01D02*
Y-199348D01*
G01Y-203400D02*
X90152D01*
G01X155900Y-290633D02*
Y-285500D01*
G01D02*
Y-280367D01*
G01X150767Y-285500D02*
X155900D01*
G01D02*
X161033D01*
G01X155900Y-270633D02*
Y-265500D01*
G01D02*
Y-260367D01*
G01X150767Y-265500D02*
X155900D01*
G01D02*
X161033D01*
G01X175900Y-290633D02*
Y-285500D01*
G01D02*
Y-280367D01*
G01X170767Y-285500D02*
X175900D01*
G01D02*
X181033D01*
G01X175900Y-270633D02*
Y-265500D01*
G01D02*
Y-260367D01*
G01X170767Y-265500D02*
X175900D01*
G01D02*
X181033D01*
G01X179600Y17253D02*
Y21500D01*
G01D02*
Y25747D01*
G01Y21500D02*
X183847D01*
G01X230900Y-290633D02*
Y-285500D01*
G01D02*
Y-280367D01*
G01X225767Y-285500D02*
X230900D01*
G01D02*
X236033D01*
G01X230900Y-270633D02*
Y-265500D01*
G01D02*
Y-260367D01*
G01X225767Y-265500D02*
X230900D01*
G01D02*
X236033D01*
G01X224800Y-179602D02*
Y-175800D01*
G01D02*
Y-171998D01*
G01X220998Y-175800D02*
X224800D01*
G01D02*
X228602D01*
G01X220000Y-159952D02*
Y-156000D01*
G01D02*
Y-152048D01*
G01X216048Y-156000D02*
X220000D01*
G01D02*
X223952D01*
G01X224353Y-144800D02*
X228600D01*
G01D02*
X232847D01*
G01X223200Y247348D02*
Y251300D01*
G01X219248D02*
X223200D01*
G01X219400Y278651D02*
Y282800D01*
G01D02*
Y286949D01*
G01X215251Y282800D02*
X219400D01*
G01X229400Y278651D02*
Y282800D01*
G01D02*
Y286949D01*
G01X225251Y282800D02*
X229400D01*
G01D02*
X233549D01*
G01X250900Y-290633D02*
Y-285500D01*
G01D02*
Y-280367D01*
G01X245767Y-285500D02*
X250900D01*
G01D02*
X256033D01*
G01X250900Y-270633D02*
Y-265500D01*
G01D02*
Y-260367D01*
G01X245767Y-265500D02*
X250900D01*
G01D02*
X256033D01*
G01X269100Y240080D02*
Y243638D01*
G01D02*
Y247196D01*
G01X260227Y243638D02*
X269100D01*
G01D02*
X277973D01*
G01X296900Y-256552D02*
Y-252600D01*
G01D02*
Y-248648D01*
G01X292948Y-252600D02*
X296900D01*
G01D02*
X300852D01*
G01X299853Y-49300D02*
X304100D01*
G01X287200Y-53547D02*
Y-49300D01*
G01D02*
Y-45053D01*
G01X282953Y-49300D02*
X287200D01*
G01D02*
X291447D01*
G01X295100Y245248D02*
Y249200D01*
G01D02*
Y253152D01*
G01X291148Y249200D02*
X295100D01*
G01D02*
X299052D01*
G01X320767Y-285500D02*
X325900D01*
G01X305900Y-290633D02*
Y-285500D01*
G01D02*
Y-280367D01*
G01X300767Y-285500D02*
X305900D01*
G01D02*
X311033D01*
G01X320767Y-265500D02*
X325900D01*
G01X305900Y-270633D02*
Y-265500D01*
G01D02*
Y-260367D01*
G01X300767Y-265500D02*
X305900D01*
G01D02*
X311033D01*
G01X304100Y-53547D02*
Y-49300D01*
G01D02*
Y-45053D01*
G01Y-49300D02*
X308347D01*
G01X325900Y-290633D02*
Y-285500D01*
G01D02*
Y-280367D01*
G01Y-285500D02*
X331033D01*
G01X325900Y-270633D02*
Y-265500D01*
G01D02*
Y-260367D01*
G01Y-265500D02*
X331033D01*
G01X336000Y35548D02*
Y39500D01*
G01D02*
Y43452D01*
G01X332048Y39500D02*
X336000D01*
G01D02*
X339952D01*
G01X328800Y52648D02*
Y56600D01*
G01D02*
Y60552D01*
G01X324848Y56600D02*
X328800D01*
G01D02*
X332752D01*
G01X327500Y237351D02*
Y241500D01*
G01D02*
Y245649D01*
G01X323351Y241500D02*
X327500D01*
G01D02*
X331649D01*
G01X360753Y-86000D02*
X365000D01*
G01X380900Y-290633D02*
Y-285500D01*
G01D02*
Y-280367D01*
G01X375767Y-285500D02*
X380900D01*
G01D02*
X386033D01*
G01X380900Y-270633D02*
Y-265500D01*
G01D02*
Y-260367D01*
G01X375767Y-265500D02*
X380900D01*
G01D02*
X386033D01*
G01X383600Y135900D02*
Y139852D01*
G01X379648Y135900D02*
X383600D01*
G01D02*
X387552D01*
G01X400900Y-290633D02*
Y-285500D01*
G01D02*
Y-280367D01*
G01X395767Y-285500D02*
X400900D01*
G01D02*
X406033D01*
G01X400900Y-270633D02*
Y-265500D01*
G01D02*
Y-260367D01*
G01X395767Y-265500D02*
X400900D01*
G01D02*
X406033D01*
G01X406548Y-181000D02*
X410500D01*
G01Y-184952D02*
Y-181000D01*
G01D02*
Y-177048D01*
G01Y-181000D02*
X414452D01*
G01X418400Y24853D02*
Y29100D01*
G01D02*
Y33347D01*
G01X414153Y29100D02*
X418400D01*
G01D02*
X422647D01*
G01X451748Y-102500D02*
X455700D01*
G01X449948Y41500D02*
X453900D01*
G01X443200Y60453D02*
Y64700D01*
G01D02*
Y68947D01*
G01X438953Y64700D02*
X443200D01*
G01D02*
X447447D01*
G01X455700Y-106452D02*
Y-102500D01*
G01D02*
Y-98548D01*
G01Y-102500D02*
X459652D01*
G01X453900Y37548D02*
Y41500D01*
G01D02*
Y45452D01*
G01Y41500D02*
X457852D01*
G01X495148Y-170500D02*
X499100D01*
G01Y-174452D02*
Y-170500D01*
G01D02*
Y-166548D01*
G01Y-170500D02*
X503052D01*
G01X532000Y207500D02*
Y211452D01*
G01X528048Y207500D02*
X532000D01*
G01D02*
X535952D01*
G01X545400Y-188333D02*
Y-183200D01*
G01X560267D02*
X565400D01*
G01X545400D02*
Y-178067D01*
G01X540267Y-183200D02*
X545400D01*
G01D02*
X550533D01*
G01X545400Y-168333D02*
Y-163200D01*
G01X560267D02*
X565400D01*
G01X545400D02*
Y-158067D01*
G01X540267Y-163200D02*
X545400D01*
G01D02*
X550533D01*
G01X560267Y-108200D02*
X565400D01*
G01X545400Y-113333D02*
Y-108200D01*
G01D02*
Y-103067D01*
G01X540267Y-108200D02*
X545400D01*
G01D02*
X550533D01*
G01X560267Y-88200D02*
X565400D01*
G01X545400Y-93333D02*
Y-88200D01*
G01D02*
Y-83067D01*
G01X540267Y-88200D02*
X545400D01*
G01D02*
X550533D01*
G01X565400Y-188333D02*
Y-183200D01*
G01D02*
Y-178067D01*
G01Y-183200D02*
X570533D01*
G01X565400Y-168333D02*
Y-163200D01*
G01D02*
Y-158067D01*
G01Y-163200D02*
X570533D01*
G01X565400Y-113333D02*
Y-108200D01*
G01D02*
Y-103067D01*
G01Y-108200D02*
X570533D01*
G01X565400Y-93333D02*
Y-88200D01*
G01D02*
Y-83067D01*
G01Y-88200D02*
X570533D01*
G01X576000Y28548D02*
Y32500D01*
G01D02*
Y36452D01*
G01X572048Y32500D02*
X576000D01*
G01D02*
X579952D01*
G01X582300Y119448D02*
Y123400D01*
G01D02*
Y127352D01*
G01Y123400D02*
X586252D01*
G01X591400Y-145647D02*
Y-141400D01*
G01D02*
Y-137153D01*
G01X587153Y-141400D02*
X591400D01*
G01D02*
X595647D01*
G01X591400Y-135647D02*
Y-131400D01*
G01D02*
Y-127153D01*
G01X587153Y-131400D02*
X591400D01*
G01D02*
X595647D01*
G01X600000Y23467D02*
Y28600D01*
G01D02*
Y33733D01*
G01X594867Y28600D02*
X600000D01*
G01D02*
X605133D01*
G01X600000Y43467D02*
Y48600D01*
G01D02*
Y53733D01*
G01X594867Y48600D02*
X600000D01*
G01D02*
X605133D01*
G01X600000Y98467D02*
Y103600D01*
G01D02*
Y108733D01*
G01X594867Y103600D02*
X600000D01*
G01D02*
X605133D01*
G01X600000Y118467D02*
Y123600D01*
G01D02*
Y128733D01*
G01X594867Y123600D02*
X600000D01*
G01D02*
X605133D01*
G01X587500Y180048D02*
Y184000D01*
G01D02*
Y187952D01*
G01X583548Y184000D02*
X587500D01*
G01D02*
X591452D01*
G01X620400Y-188333D02*
Y-183200D01*
G01Y-168333D02*
Y-163200D01*
G01Y-183200D02*
Y-178067D01*
G01X615267Y-183200D02*
X620400D01*
G01D02*
X625533D01*
G01X620400Y-163200D02*
Y-158067D01*
G01X615267Y-163200D02*
X620400D01*
G01D02*
X625533D01*
G01X625248Y-135600D02*
X629200D01*
G01X620400Y-113333D02*
Y-108200D01*
G01D02*
Y-103067D01*
G01X615267Y-108200D02*
X620400D01*
G01D02*
X625533D01*
G01X620400Y-93333D02*
Y-88200D01*
G01D02*
Y-83067D01*
G01X615267Y-88200D02*
X620400D01*
G01D02*
X625533D01*
G01X620000Y23467D02*
Y28600D01*
G01D02*
Y33733D01*
G01X614867Y28600D02*
X620000D01*
G01D02*
X625133D01*
G01X620000Y43467D02*
Y48600D01*
G01D02*
Y53733D01*
G01X614867Y48600D02*
X620000D01*
G01D02*
X625133D01*
G01X620000Y98467D02*
Y103600D01*
G01D02*
Y108733D01*
G01X614867Y103600D02*
X620000D01*
G01D02*
X625133D01*
G01X620000Y118467D02*
Y123600D01*
G01D02*
Y128733D01*
G01X614867Y123600D02*
X620000D01*
G01D02*
X625133D01*
G01X622100Y200353D02*
Y204600D01*
G01D02*
Y208847D01*
G01X617853Y204600D02*
X622100D01*
G01D02*
X626347D01*
G01X611000Y260053D02*
Y264300D01*
G01D02*
Y268547D01*
G01X606753Y264300D02*
X611000D01*
G01D02*
X615247D01*
G01X611000Y270053D02*
Y274300D01*
G01D02*
Y278547D01*
G01X606753Y274300D02*
X611000D01*
G01D02*
X615247D01*
G01X640400Y-188333D02*
Y-183200D01*
G01Y-168333D02*
Y-163200D01*
G01Y-183200D02*
Y-178067D01*
G01X635267Y-183200D02*
X640400D01*
G01D02*
X645533D01*
G01X640400Y-163200D02*
Y-158067D01*
G01X635267Y-163200D02*
X640400D01*
G01D02*
X645533D01*
G01X629200Y-139552D02*
Y-135600D01*
G01D02*
Y-131648D01*
G01Y-135600D02*
X633152D01*
G01X640400Y-113333D02*
Y-108200D01*
G01D02*
Y-103067D01*
G01X635267Y-108200D02*
X640400D01*
G01D02*
X645533D01*
G01X640400Y-93333D02*
Y-88200D01*
G01D02*
Y-83067D01*
G01X635267Y-88200D02*
X640400D01*
G01D02*
X645533D01*
G01X642100Y200353D02*
Y204600D01*
G01X632100Y200353D02*
Y204600D01*
G01X642100D02*
Y208847D01*
G01X637853Y204600D02*
X642100D01*
G01D02*
X646347D01*
G01X632100D02*
Y208847D01*
G01X627853Y204600D02*
X632100D01*
G01D02*
X636347D01*
G01X642100Y214600D02*
Y218847D01*
G01X637853Y214600D02*
X642100D01*
G01D02*
X646347D01*
X6500Y-133500D03*
X-1400Y-101100D03*
X5700Y-112700D03*
X6100Y-92700D03*
Y-97700D03*
X-1400Y-60800D03*
X6200Y-57700D03*
X6600Y-72700D03*
X6200Y-77700D03*
X6500Y-37700D03*
X6300Y-52700D03*
X6200Y-17800D03*
X-400Y-16500D03*
X6300Y-32700D03*
X6000Y-12500D03*
X6300Y2300D03*
X6700Y7300D03*
X6400Y27300D03*
X6300Y22300D03*
X600Y34900D03*
X6300Y47300D03*
X6500Y42300D03*
X5500Y72300D03*
X6100Y62300D03*
X6200Y67300D03*
Y57300D03*
X16900Y72300D03*
X-2100Y81200D03*
X5300Y82300D03*
X5800Y77300D03*
X27800Y-133500D03*
X37400Y-102700D03*
X36900Y-87700D03*
X17500Y-62800D03*
X26000Y-67700D03*
X37500Y-57700D03*
X36900Y-72700D03*
X26100Y-37700D03*
X17600Y-47800D03*
X26000Y-52600D03*
X37200Y-42700D03*
X17500Y-17900D03*
X26000Y-22700D03*
X17500Y-32800D03*
X37200Y-27700D03*
X25800Y7300D03*
X26200Y-7700D03*
X37100Y2300D03*
X37700Y-12700D03*
X26000Y22300D03*
X17500Y27300D03*
X17400Y12200D03*
X36600Y17300D03*
X17500Y42200D03*
X37200Y47300D03*
X37000Y32300D03*
X26000Y67200D03*
X17500Y57300D03*
X36900Y62300D03*
X17100D03*
X26000Y77300D03*
X37300D03*
X17000Y82300D03*
X21100Y100800D03*
X54200Y101500D03*
X64300Y-113000D03*
Y-121000D03*
Y-104960D03*
Y-97000D03*
Y-89000D03*
Y-81000D03*
Y-65000D03*
Y-73000D03*
Y-57000D03*
Y-49000D03*
Y-41000D03*
Y-33000D03*
Y-25000D03*
Y-17000D03*
Y-9000D03*
Y-1000D03*
Y7000D03*
Y15000D03*
Y23000D03*
X79000Y15000D03*
X64300Y31000D03*
Y39000D03*
Y47000D03*
X63200Y67000D03*
X64300Y55000D03*
X75300Y79500D03*
X64500Y82300D03*
X79000Y92400D03*
X60800Y97100D03*
X90000Y-192600D03*
X84600Y-184800D03*
Y-156200D03*
X84816Y-143388D03*
X102153Y-105065D03*
X90000Y-89000D03*
X89300Y-65000D03*
X102000Y-20900D03*
X84900Y-17000D03*
X91900Y7000D03*
X98000Y-9000D03*
X82600Y23000D03*
Y88200D03*
X91900Y97200D03*
X88100Y102600D03*
X98000Y111500D03*
X102100Y164300D03*
X91900Y196100D03*
X98000Y204200D03*
X122400Y-271100D03*
X120800Y-240000D03*
X119600Y-250100D03*
X120600Y-190800D03*
Y-157100D03*
X117500Y-150400D03*
X112900Y-136400D03*
X108200Y-121100D03*
X107771Y-87845D03*
X117500Y-79500D03*
X112900Y-41000D03*
X117500Y107000D03*
X107800Y146900D03*
X112900Y180200D03*
X104500Y238600D03*
X104300Y263500D03*
X134000Y-283400D03*
X132100Y-257600D03*
X138800Y-218400D03*
X138100Y-229800D03*
X139400Y-195400D03*
X126300Y-169100D03*
X139400Y-162000D03*
X139500Y-131600D03*
X134450Y-92800D03*
X129100Y-82800D03*
X134532Y-73084D03*
X129100Y-65000D03*
X144485Y-48813D03*
X144500Y-25900D03*
X127000Y-15900D03*
X127100Y-33000D03*
X130700Y-24750D03*
X139500Y-900D03*
X139900Y67400D03*
X134600Y125100D03*
X143800Y167600D03*
X127000Y172300D03*
X143800Y183600D03*
X136200Y188300D03*
X133500Y237000D03*
X138543Y265500D03*
X128600Y284500D03*
X137600Y287000D03*
X153000Y-247500D03*
X166400Y-239800D03*
X168200Y-219500D03*
X153700Y-227600D03*
X157700Y-189300D03*
X165500Y-194000D03*
X160800Y-206400D03*
X165300Y-168400D03*
X164900Y-175400D03*
X155100Y-178500D03*
X161200Y-153400D03*
X155100Y-165000D03*
X154499Y-160799D03*
X160800Y-128400D03*
X161700Y-107800D03*
X154499Y-120801D03*
X166050Y-117050D03*
X160700Y-97800D03*
X163400Y-62900D03*
X161800Y-77800D03*
X153500Y-58900D03*
X160600Y-72900D03*
X163300Y-55900D03*
X154499Y-43301D03*
X164100Y4000D03*
X160500Y-10900D03*
X162800Y-5900D03*
X150000Y4000D03*
X153200Y21700D03*
X164000Y11000D03*
X149900D03*
X148600Y49200D03*
X148200Y42900D03*
X157100Y50200D03*
X161000Y30800D03*
X162700Y65000D03*
Y57000D03*
X148700D03*
Y65000D03*
X159000Y172700D03*
X155100Y164200D03*
X154100Y172200D03*
Y180200D03*
X164600Y193800D03*
X159100Y182700D03*
X154600Y188300D03*
X164400Y211300D03*
X154800Y204400D03*
X155200Y256800D03*
X158300D03*
X183400Y-237300D03*
Y-245300D03*
X190900Y-228300D03*
Y-220800D03*
X181400Y-188700D03*
X188800Y-175100D03*
X185972Y-72800D03*
X185800Y-77800D03*
X184500Y-63100D03*
Y-56100D03*
X185600Y-10900D03*
X181600Y4000D03*
X181800Y11000D03*
X174500Y117800D03*
X187000Y140100D03*
X179400Y215700D03*
X188100Y222600D03*
X190800Y224900D03*
X185800Y265600D03*
X185600Y287000D03*
X209400Y-281700D03*
X194900Y-264800D03*
X199892Y-239800D03*
X208900Y-237300D03*
X204650Y-228300D03*
X204900Y-220800D03*
X205100Y-188300D03*
X202400Y-168100D03*
Y-175100D03*
X192500Y-165200D03*
X191901Y-160901D03*
X197900Y-153400D03*
X209600Y-148400D03*
X198500Y-123400D03*
X209600Y-138000D03*
X210500Y-124000D03*
X204800Y-138400D03*
X198600Y-102800D03*
Y-107800D03*
X210500Y-100500D03*
X198000Y-63100D03*
Y-56100D03*
X199200Y-35900D03*
X198300Y-40900D03*
X206100Y-20000D03*
X191901Y-3101D03*
X196000Y4000D03*
X205500Y3500D03*
X196000Y11000D03*
X211500Y31900D03*
X210800Y67400D03*
X197500Y120100D03*
X209000Y137600D03*
X210500Y125000D03*
X209900Y184900D03*
X200000Y222500D03*
X200300Y246600D03*
X209400Y230100D03*
X202200Y230000D03*
X197500Y228400D03*
X197600Y284200D03*
X219600Y-143400D03*
X214800Y-133300D03*
X219600Y-114400D03*
X219200Y-78500D03*
X216500Y-26300D03*
X222500Y4500D03*
X216500Y-10000D03*
X217300Y-3000D03*
X234500Y67200D03*
X230400Y102600D03*
X222500Y106900D03*
X226100Y136900D03*
X226200Y124000D03*
X218000Y124100D03*
X230600Y135200D03*
X222600D03*
X214600D03*
X234400Y169300D03*
X234600Y176300D03*
X220664Y194464D03*
X220490Y186590D03*
X234400Y197300D03*
X217600Y222400D03*
X231900Y238200D03*
X214600Y227700D03*
X244300Y-214700D03*
X237000Y-188200D03*
X251100Y-172100D03*
X235700Y-178800D03*
X241500Y-172100D03*
X241160Y-175840D03*
X255400Y-156900D03*
X235700Y-163400D03*
X236600Y-126600D03*
X248800Y-126400D03*
X244300Y-123000D03*
X253100Y-113200D03*
X248800Y-104800D03*
X244300Y-114700D03*
X254100Y-96000D03*
X248800Y-65000D03*
Y-60000D03*
X252300Y-70000D03*
X240000Y-40000D03*
X244900Y-50000D03*
X254800Y-26000D03*
X236000Y-30000D03*
X252300Y-3800D03*
X240000Y15500D03*
X236000Y12000D03*
X248800Y17300D03*
X244900Y20200D03*
X234800Y45700D03*
X248800Y49500D03*
X252300Y45400D03*
X240000Y67900D03*
X244900Y53900D03*
X249900Y151700D03*
X243700Y147700D03*
X235600Y151700D03*
X236100Y159700D03*
X249500D03*
X247600Y169300D03*
X245200Y163300D03*
X248100Y176300D03*
X238100Y180500D03*
X244300Y200100D03*
X247700Y183500D03*
X249700Y191700D03*
X238100Y188000D03*
X239100Y223800D03*
X242840Y212360D03*
X235360Y231460D03*
X242200Y234800D03*
X253300Y238500D03*
X242600Y288600D03*
X269000Y-282400D03*
X265300Y-250600D03*
X275700Y-218400D03*
X269200Y-189100D03*
X273600Y-164500D03*
X264900Y-165600D03*
X265700Y-134800D03*
X272900Y-117500D03*
X271900Y-98400D03*
X267300Y-97000D03*
X272000Y-79800D03*
X275000Y-75500D03*
X266500D03*
X260400Y-67500D03*
X266600Y-62100D03*
X275000Y-62000D03*
X257900Y-20000D03*
Y7500D03*
X270900Y58600D03*
X277900Y59100D03*
X275500Y77500D03*
X272576Y104424D03*
X269000Y128600D03*
X265600Y166800D03*
X272200Y191800D03*
X263200Y226000D03*
Y227300D03*
X287900Y-282700D03*
X291300Y-131500D03*
X286700Y-127800D03*
X289000Y-129500D03*
X300100Y-141900D03*
X285100Y-132800D03*
Y-117100D03*
X296900Y-120400D03*
X291400Y-115500D03*
X282000Y-17000D03*
X299100Y-10400D03*
X299000Y-6500D03*
X293937Y-11563D03*
X280900Y25100D03*
X288700Y24200D03*
X296000Y24000D03*
X292708Y23208D03*
X299750Y10750D03*
X287500Y8500D03*
X296000Y37500D03*
X289000D03*
X281000Y38000D03*
X284900Y58400D03*
X292000Y58500D03*
X285000Y71400D03*
X284800Y53700D03*
X294000Y91500D03*
X278600Y129900D03*
X285600D03*
X297000Y184600D03*
X278400Y208500D03*
X286800Y224900D03*
X281100Y216300D03*
X295000Y230900D03*
X295400Y261800D03*
X293000Y280100D03*
X297900Y286700D03*
X310900Y-218400D03*
X300400Y-205200D03*
X310600Y-191000D03*
X314000Y-162300D03*
X321800Y-124700D03*
X317435Y-136400D03*
X310000Y-144000D03*
X309500Y-130500D03*
X303200Y-117100D03*
X308500Y-106800D03*
X309852Y-115448D03*
X319100Y-115000D03*
X310500Y-20000D03*
X302500D03*
X306500Y-10500D03*
X318900Y-400D03*
X301000Y25000D03*
X310200Y17500D03*
X310300Y36200D03*
X306500Y36500D03*
X301000Y32000D03*
X313300Y44600D03*
X313876Y82376D03*
X315600Y77100D03*
X310500Y110500D03*
X315500Y109500D03*
X315700Y102200D03*
X300500Y130500D03*
X312900Y201900D03*
X309800Y248600D03*
X305500Y266200D03*
X319800D03*
X316900Y248900D03*
X303100Y275600D03*
X319700D03*
X320900Y286600D03*
X340700Y-266100D03*
X339700Y-225200D03*
X330200Y-213600D03*
X339600Y-212000D03*
X336700Y-134500D03*
X337900Y-127500D03*
X336900Y-110500D03*
X337100Y-117500D03*
X342300Y-40700D03*
X329300D03*
X342700Y-32700D03*
X331600Y-16000D03*
X332700Y-28200D03*
X335800Y-8900D03*
X339200Y900D03*
X331600Y18900D03*
X329000Y84500D03*
Y77000D03*
X330500Y109500D03*
X330300Y102200D03*
X338000Y225600D03*
X338100Y240700D03*
X342700Y254500D03*
X342900Y257300D03*
X324800Y278900D03*
X329000Y288700D03*
X351961Y-239861D03*
X346800Y-249925D03*
X359961Y-239861D03*
X363200Y-234400D03*
X353500Y-231100D03*
X353300Y-224000D03*
X353500Y-206100D03*
X363240Y-202360D03*
X363400Y-206100D03*
X354900Y-189000D03*
X361600Y-179000D03*
X349500Y-157900D03*
X364300Y-147900D03*
X345831Y-25800D03*
X344600Y-16000D03*
X348800Y-9000D03*
X354160Y-10840D03*
X354100Y-7100D03*
X355400Y41000D03*
X359140Y39860D03*
X349500Y44000D03*
X345700Y33900D03*
X355400Y50000D03*
X363300Y64700D03*
X359140Y59360D03*
X355400Y59400D03*
X349500Y64700D03*
X363700Y74300D03*
X348000D03*
X352500Y223000D03*
X344700Y233500D03*
X354000Y252800D03*
D03*
X346400Y283800D03*
X355600Y292600D03*
X366700Y-286100D03*
X383300Y-232600D03*
X368520Y-242420D03*
X368800Y-213700D03*
X383600Y-206300D03*
X376900Y-189000D03*
X380600Y-149100D03*
X373600Y-149200D03*
Y-163200D03*
X380600D03*
X375920Y-140280D03*
X382900Y-36700D03*
X365840Y-10840D03*
X382800Y2500D03*
X383618Y7384D03*
X369100Y193400D03*
X374500Y227300D03*
X403300Y-247500D03*
X399200Y-226600D03*
X394600Y-130300D03*
X401600Y-130200D03*
X399852Y-132948D03*
X394600Y-116900D03*
X401600D03*
X399900Y-113000D03*
X399800Y-75500D03*
X391400Y89200D03*
X395100Y99200D03*
X397200Y198300D03*
X426900Y-285400D03*
X430798Y-198202D03*
X427000Y-188500D03*
X411000Y-205500D03*
Y-198500D03*
X427000Y-202000D03*
X415800Y-158200D03*
X420800Y-127000D03*
X420900Y-120000D03*
X421800Y-43100D03*
X418300Y-52600D03*
X417000Y-30000D03*
X410700Y85200D03*
X417700Y85300D03*
X410700Y98800D03*
X412948Y101748D03*
X417700Y99000D03*
X445200Y-286100D03*
X450900Y-218400D03*
X447400Y-205600D03*
X446261Y-200261D03*
X451000Y-196000D03*
X436900Y-204100D03*
X444000Y-188500D03*
X441100Y-168400D03*
X449000Y-144200D03*
X437800Y-41600D03*
Y-56600D03*
X436300Y-51600D03*
X435300Y-44100D03*
X436900Y-46700D03*
X436520Y109480D03*
X448300Y116600D03*
X436200Y122600D03*
X432200Y132300D03*
X439200Y132700D03*
X444500Y198600D03*
X452500Y242500D03*
X447900Y259400D03*
X444000Y258000D03*
Y261500D03*
X455563Y-205437D03*
X460000Y-193500D03*
X468900Y-168400D03*
X461100Y-151300D03*
X457600Y-160600D03*
X464600D03*
X461380Y-137280D03*
X471800Y-42100D03*
X469300Y-46600D03*
X470200Y-56700D03*
X470400Y-51700D03*
X469800Y12100D03*
X455500Y242500D03*
X480600Y-126300D03*
X488100Y-126100D03*
X484852Y-129552D03*
X480600Y-112700D03*
X488100Y-112900D03*
X478300Y-61100D03*
X476263Y-39563D03*
X486300Y-43600D03*
X475400Y-51700D03*
X489800Y-34600D03*
X495800Y70200D03*
Y83400D03*
X479500Y74500D03*
X477500Y82700D03*
X478000Y89700D03*
X478700Y201000D03*
X482900Y253500D03*
X497600Y-284400D03*
X499000Y-156500D03*
X507700Y-125500D03*
X507600Y-118500D03*
X517500Y43000D03*
X509500D03*
X511000Y64500D03*
X503300Y70500D03*
Y83500D03*
X514500Y106000D03*
X515500Y181700D03*
X496900Y169500D03*
X498000Y225000D03*
X499900Y282000D03*
X524000Y-287100D03*
X528600Y-171400D03*
X526600Y-100900D03*
X525700Y48700D03*
X533100Y48400D03*
X533000Y35500D03*
X525500D03*
X527548Y52752D03*
X533300Y104800D03*
X529500Y95500D03*
X530500Y99000D03*
X524000Y115500D03*
X518051Y219200D03*
X537800Y233200D03*
Y249195D03*
X536500Y253000D03*
Y266000D03*
X557800Y-283700D03*
X559900Y-257700D03*
X558200Y-235700D03*
X550400Y-205600D03*
X556800Y-136900D03*
X544700Y-13600D03*
X553500Y48500D03*
X558800Y69300D03*
X550900Y69200D03*
X550620Y60280D03*
X558900Y82900D03*
X550900Y82700D03*
X544700Y91900D03*
X540300Y104600D03*
X555500Y138400D03*
X548500Y216000D03*
X557748Y217748D03*
X547100Y247300D03*
X553748Y245248D03*
X557748Y229748D03*
X547000Y234000D03*
X560000Y254500D03*
X553500Y263500D03*
X545600Y252700D03*
Y267400D03*
X540900Y288600D03*
X579800Y-284400D03*
X564300Y-219500D03*
X567600Y-60800D03*
X567500Y62500D03*
X567000Y224000D03*
X563600Y204300D03*
X581000Y228000D03*
X565748Y245248D03*
X578500Y259500D03*
X583200Y288200D03*
X569900Y286400D03*
X584500Y-186300D03*
X596900Y-173100D03*
X596300Y-103200D03*
X588600Y-88700D03*
X619700Y-283000D03*
X613600Y-200200D03*
X608500Y202800D03*
X607000Y234500D03*
X632900Y-265800D03*
X644400Y-246500D03*
X642700Y-216100D03*
X645100Y143500D03*
X635300Y174900D03*
X627500Y288200D03*
X651200Y-133900D03*
Y-62900D03*
X649800Y194900D03*
X653200Y226000D03*
X648800Y261800D03*
G54D20*
X179600Y71500D03*
X228600Y-94800D03*
Y10000D03*
X270700Y-49300D03*
X295000Y-182000D03*
X287200Y-49300D03*
X304100D03*
X328000Y-172000D03*
X365000Y-126000D03*
X418400Y29100D03*
X438100Y-154000D03*
X443200Y64700D03*
X459700Y86700D03*
X513500Y248200D03*
X513700Y273100D03*
X524600Y-141000D03*
X591400Y-141400D03*
X601000Y274300D03*
X642100Y214600D03*
G54D11*
X21700Y-122243D03*
X33708Y91851D03*
G54D12*
X108700Y-280400D03*
X107400Y282900D03*
X645500Y-280400D03*
X645200Y283100D03*
G54D21*
X214800Y-175800D03*
X224800D03*
X272600Y-107400D03*
X282600D03*
X421100Y-218400D03*
X431100D03*
X412400Y-101500D03*
X422400D03*
G54D22*
X226300Y-224000D03*
X220000Y-156000D03*
X223200Y251300D03*
X271900Y-142100D03*
X296900Y-252600D03*
X291900Y-72000D03*
X295100Y249200D03*
X312300Y-236700D03*
X327000Y-146900D03*
X326900Y-100400D03*
X339000Y-82500D03*
X336000Y39500D03*
X328800Y56600D03*
X374300Y-222000D03*
X383600Y113200D03*
Y135900D03*
X401500Y-198500D03*
X410500Y-181000D03*
X399800Y-101200D03*
X428100Y-169500D03*
X422500Y-66500D03*
X440500Y-105400D03*
X453900Y41500D03*
X455700Y-102500D03*
X469700Y59700D03*
X499100Y-170500D03*
X514600Y-161000D03*
Y-111000D03*
X505500Y208400D03*
X513700Y286800D03*
X532000Y207500D03*
X581400Y-163200D03*
Y-113200D03*
X576000Y32500D03*
X576200Y55600D03*
X574000Y101700D03*
X582300Y123400D03*
X587500Y184000D03*
X601100Y287600D03*
X629200Y-135600D03*
X632100Y231900D03*
G54D13*
X86100Y-253400D03*
Y-233400D03*
X96100D03*
X86100Y-243400D03*
X96100D03*
X86100Y-213400D03*
X96100D03*
X86100Y-223400D03*
X96100D03*
X86100Y-203400D03*
X96100D03*
G54D23*
X219400Y282800D03*
X327500Y261500D03*
Y251500D03*
X393500Y-27100D03*
Y-17100D03*
X407500Y-27100D03*
Y-17100D03*
G54D14*
X96100Y-253400D03*
G54D24*
X229400Y282800D03*
X327500Y241500D03*
X393500Y-7100D03*
X407500D03*
G54D15*
X155900Y-285500D03*
Y-265500D03*
X175900Y-285500D03*
Y-265500D03*
X230900Y-285500D03*
Y-265500D03*
X250900Y-285500D03*
Y-265500D03*
X305900Y-285500D03*
Y-265500D03*
X325900Y-285500D03*
Y-265500D03*
X380900Y-285500D03*
Y-265500D03*
X400900Y-285500D03*
Y-265500D03*
X545400Y-163200D03*
Y-183200D03*
Y-108200D03*
Y-88200D03*
X565400Y-163200D03*
Y-183200D03*
Y-108200D03*
Y-88200D03*
X600000Y28600D03*
Y48600D03*
Y103600D03*
Y123600D03*
X620400Y-183200D03*
Y-163200D03*
Y-108200D03*
Y-88200D03*
X620000Y28600D03*
Y48600D03*
Y103600D03*
Y123600D03*
X640400Y-183200D03*
Y-163200D03*
Y-108200D03*
Y-88200D03*
G54D16*
X165900Y-275500D03*
X240900D03*
X315900D03*
X390900D03*
X555400Y-173200D03*
Y-98200D03*
X610000Y38600D03*
Y113600D03*
X630400Y-173200D03*
Y-98200D03*
G54D25*
X250596Y256236D03*
G54D26*
X269100Y243638D03*
G54D17*
X164500Y188100D03*
X189805Y151405D03*
X184527Y168873D03*
X174100Y172700D03*
X175679Y174779D03*
X174647Y176747D03*
X175616Y178716D03*
Y180684D03*
X184505Y192495D03*
X189805Y197405D03*
X174147Y182653D03*
X187836Y207436D03*
X211300Y151900D03*
X201616Y161584D03*
X191700Y207300D03*
X201400Y208300D03*
X193800Y212400D03*
X197679Y207921D03*
X199647Y206453D03*
X206100Y240300D03*
X218400Y136400D03*
X220747Y176747D03*
X220721Y174779D03*
X220742Y170842D03*
X220705Y166905D03*
X231490Y172810D03*
X230516Y178716D03*
X220384Y180684D03*
X230658Y188558D03*
X219647Y182653D03*
X231924Y190539D03*
X230700Y192500D03*
X230379Y184621D03*
X217364Y208736D03*
X213427Y216027D03*
X215600Y206912D03*
X305100Y-125000D03*
X315000Y-123000D03*
Y-121100D03*
G54D27*
X269100Y268047D03*
G54D18*
X152839Y275579D03*
X170161D03*
G54D19*
X179600Y21500D03*
Y31500D03*
Y41500D03*
Y51500D03*
Y61500D03*
X228600Y-144800D03*
Y-134800D03*
Y-124800D03*
Y-114800D03*
Y-104800D03*
Y-80000D03*
Y-70000D03*
Y-60000D03*
Y-50000D03*
Y-40000D03*
Y-30000D03*
Y-20000D03*
Y-10000D03*
Y0D03*
X270700Y-39300D03*
Y-29300D03*
X285000Y-172000D03*
X295000D03*
X285000Y-182000D03*
Y-162000D03*
X295000D03*
X287200Y-39300D03*
Y-29300D03*
X304100Y-39300D03*
Y-29300D03*
X338000Y-172000D03*
Y-182000D03*
X328000D03*
X355000Y-126000D03*
Y-106000D03*
Y-116000D03*
X365000Y-106000D03*
Y-116000D03*
X355000Y-86000D03*
X365000D03*
X355000Y-96000D03*
X365000D03*
X428100Y-154000D03*
Y-144000D03*
Y-124000D03*
Y-134000D03*
X428400Y29100D03*
Y19100D03*
X418400D03*
X433200Y64700D03*
Y74700D03*
X438100Y-144000D03*
Y-124000D03*
Y-134000D03*
X443200Y74700D03*
X459700Y96700D03*
X469700D03*
Y86700D03*
X514600Y-141000D03*
Y-131000D03*
X513500Y238200D03*
X513700Y263100D03*
X524600Y-131000D03*
X523500Y248200D03*
Y238200D03*
X523700Y263100D03*
Y273100D03*
X581400Y-141400D03*
Y-131400D03*
X591400D03*
X601000Y264300D03*
X622100Y204600D03*
Y214600D03*
X611000Y264300D03*
Y274300D03*
X632100Y204600D03*
X642100D03*
X632100Y214600D03*
M02*
