G04 ================== begin FILE IDENTIFICATION RECORD ==================*
G04 Layout Name:  reggio_rev3.brd*
G04 Film Name:    L4-POWER*
G04 File Format:  Gerber RS274X*
G04 File Origin:  Cadence Allegro 16.6-S011*
G04 Origin Date:  Mon Jul 14 13:56:51 2014*
G04 *
G04 Layer:  VIA CLASS/L4-POWER*
G04 Layer:  PIN/L4-POWER*
G04 Layer:  ETCH/L4-POWER*
G04 *
G04 Offset:    (0.00 0.00)*
G04 Mirror:    No*
G04 Mode:      Positive*
G04 Rotation:  0*
G04 FullContactRelief:  No*
G04 UndefLineWidth:     0.00*
G04 ================== end FILE IDENTIFICATION RECORD ====================*
%FSLAX25Y25*MOIN*%
%IR0*IPPOS*OFA0.00000B0.00000*MIA0B0*SFA1.00000B1.00000*%
%ADD10C,.02*%
%ADD17C,.012*%
%ADD21C,.06*%
%ADD18C,.0315*%
%ADD26O,.16142X.05512*%
%ADD13C,.065*%
%ADD25O,.05512X.14173*%
%ADD27O,.14173X.05512*%
%ADD14R,.065X.065*%
%ADD15C,.08661*%
%ADD11C,.03937*%
%ADD19C,.0689*%
%ADD23C,.06693*%
%ADD16C,.08268*%
%ADD22C,.06299*%
%ADD20R,.0689X.0689*%
%ADD24R,.06693X.06693*%
%ADD12C,.2*%
%ADD28C,.006*%
%ADD34R,.13204X.06004*%
%ADD32C,.03404*%
%ADD37C,.02604*%
%ADD48C,.07204*%
%ADD33C,.07502*%
%ADD49C,.07404*%
%ADD31C,.07702*%
%ADD46C,.09342*%
%ADD43C,.07704*%
%ADD42C,.07904*%
%ADD40C,.08094*%
%ADD50C,.08096*%
%ADD39C,.08294*%
%ADD30C,.09672*%
%ADD29C,.09864*%
%ADD45C,.07885*%
%ADD47O,.17546X.06916*%
%ADD36C,.07896*%
%ADD41C,.21404*%
%ADD38R,.08092X.08092*%
%ADD44R,.07904X.07904*%
%ADD51R,.08292X.08292*%
%ADD35R,.08096X.08096*%
G75*
%LPD*%
G75*
G36*
G01X146802Y-197702D02*
X169000D01*
Y-198100D01*
X215300D01*
Y-197702D01*
X262398D01*
X281298Y-178802D01*
X281417D01*
G02X281732Y-179448I0J-400D01*
G03X287188Y-185523I3269J-2552D01*
G02X287798Y-185863I210J-340D01*
G01Y-195602D01*
X288500D01*
Y-198100D01*
X341498D01*
Y-253702D01*
X390000D01*
Y-255400D01*
X410100D01*
Y-293000D01*
X80400D01*
Y-144000D01*
X-9600D01*
Y110400D01*
X80400D01*
Y296000D01*
X416400D01*
Y211500D01*
X348164D01*
G02X347882Y212183I1J400D01*
G01X361202Y225502D01*
Y286098D01*
X355698Y291602D01*
X311998D01*
Y225698D01*
X255598Y169298D01*
Y94500D01*
X254402D01*
Y165702D01*
X240798D01*
Y94500D01*
X223702D01*
Y105695D01*
G03Y108105I-1202J1205D01*
G01Y114798D01*
X235202D01*
Y136702D01*
X231401D01*
G03X229799I-801J-1502D01*
G01X223401D01*
G03X221799I-801J-1502D01*
G01X215401D01*
G03X213799I-801J-1502D01*
G01X207998D01*
Y16000D01*
X169000D01*
Y-182298D01*
X158798D01*
X156391Y-179892D01*
G02X156382Y-179619I142J141D01*
G03X153981Y-177218I-1282J1119D01*
G01X153840Y-177341D01*
X114103Y-137604D01*
G03X111829Y-135077I-1203J1204D01*
G01X111689Y-135190D01*
X97202Y-120702D01*
Y-11063D01*
G02X97677Y-10671I400J-1D01*
G03Y-7329I323J1671D01*
G02X97202Y-6937I-75J393D01*
G01Y32898D01*
X72898Y57202D01*
X12702D01*
Y60734D01*
G02X13384Y61017I400J0D01*
G01X16102Y58298D01*
X33102D01*
Y86786D01*
G02X33518Y87185I400J0D01*
G03X29672Y89503I191J4666D01*
G02X29327Y88902I-346J-201D01*
G01X398D01*
Y73298D01*
X11398D01*
Y72002D01*
X498D01*
Y43198D01*
X61902D01*
X63848Y41252D01*
G02X63705Y40595I-283J-283D01*
G03X65895Y38405I595J-1595D01*
G02X66552Y38548I374J-140D01*
G01X80398Y24702D01*
Y16850D01*
G02X79809Y16498I-400J0D01*
G03Y13502I-809J-1498D01*
G02X80398Y13150I189J-352D01*
G01Y-131298D01*
X146802Y-197702D01*
G37*
G36*
G01X11398Y70800D02*
Y63002D01*
X11500Y62901D01*
Y56000D01*
X16401D01*
G03X18599I1099J1300D01*
G01X62286D01*
G02X62669Y55486I0J-400D01*
G03X65931I1631J-486D01*
G02X66314Y56000I383J114D01*
G01X72400D01*
X96000Y32400D01*
Y-121200D01*
X111196Y-136396D01*
X111200Y-136474D01*
G03X112826Y-138100I1700J74D01*
G01X112904Y-138104D01*
X153399Y-178599D01*
X153407Y-178670D01*
G03X154930Y-180193I1693J170D01*
G01X155001Y-180201D01*
X158300Y-183500D01*
X253300D01*
X269979Y-166821D01*
X334000Y-167100D01*
Y-170905D01*
X333993Y-170931D01*
G03Y-173069I4007J-1069D01*
G01X334000Y-173095D01*
Y-177600D01*
X280800D01*
X270592Y-187808D01*
G02X270319Y-187817I-141J141D01*
G03X267917Y-190219I-1119J-1283D01*
G01X268040Y-190360D01*
X261900Y-196500D01*
X147300D01*
X81600Y-130800D01*
Y20986D01*
G02X82114Y21369I400J0D01*
G03Y24631I486J1631D01*
G02X81600Y25014I-114J383D01*
G01Y25200D01*
X62400Y44400D01*
X1700D01*
Y70800D01*
X4696D01*
G03X6304I804J1500D01*
G01X11398D01*
G37*
G36*
G01X31900Y59500D02*
X16600D01*
X12600Y63500D01*
Y74500D01*
X1600D01*
Y87700D01*
X31569D01*
G03X31900Y87546I2134J4154D01*
G01Y59500D01*
G37*
G36*
G01X171000Y-182298D02*
Y14000D01*
X207998D01*
Y-18526D01*
G02X207313Y-18806I-400J0D01*
G03Y-21194I-1213J-1194D01*
G02X207998Y-21474I285J-280D01*
G01Y-137423D01*
X207988Y-137454D01*
G03Y-138546I1612J-546D01*
G01X207998Y-138577D01*
Y-147823D01*
X207988Y-147854D01*
G03Y-148946I1612J-546D01*
G01X207998Y-148977D01*
Y-182298D01*
X171000D01*
G37*
G36*
G01X209200Y-181500D02*
Y-150502D01*
G02X209600Y-150102I400J0D01*
G03Y-146698I0J1702D01*
G02X209200Y-146298I0J400D01*
G01Y-140102D01*
G02X209600Y-139702I400J0D01*
G03Y-136298I0J1702D01*
G02X209200Y-135898I0J400D01*
G01Y-125899D01*
G02X209771Y-125538I400J-1D01*
G03Y-122462I729J1538D01*
G02X209200Y-122101I-171J362D01*
G01Y-102399D01*
G02X209771Y-102038I400J-1D01*
G03Y-98962I729J1538D01*
G02X209200Y-98601I-171J362D01*
G01Y65675D01*
G02X209828Y66003I400J-1D01*
G03Y68797I972J1397D01*
G02X209200Y69125I-228J329D01*
G01Y123101D01*
G02X209771Y123462I400J-1D01*
G03Y126538I729J1538D01*
G02X209200Y126899I-171J362D01*
G01Y135500D01*
X212501D01*
G02X212900Y135119I-1J-400D01*
G03X216300I1700J81D01*
G02X216699Y135500I400J-19D01*
G01X217459D01*
G03X219341I941J900D01*
G01X220501D01*
G02X220900Y135119I-1J-400D01*
G03X224300I1700J81D01*
G02X224699Y135500I400J-19D01*
G01X225130D01*
X225180Y135468D01*
G03X227068Y135500I920J1432D01*
G01X228501D01*
G02X228900Y135119I-1J-400D01*
G03X232300I1700J81D01*
G02X232699Y135500I400J-19D01*
G01X234000D01*
Y116000D01*
X222500D01*
Y108612D01*
X222321Y108593D01*
G03Y105207I179J-1693D01*
G01X222500Y105188D01*
Y6211D01*
X222321Y6193D01*
G03Y2807I179J-1693D01*
G01X222500Y2789D01*
Y-152304D01*
G02X221902Y-152652I-400J0D01*
G03Y-159348I-1902J-3348D01*
G02X222500Y-159696I198J-348D01*
G01Y-172899D01*
G03Y-178701I2300J-2901D01*
G01Y-181500D01*
X209200D01*
G37*
G36*
G01X223702Y-182298D02*
Y-179842D01*
G02X224170Y-179448I400J0D01*
G03Y-172152I630J3648D01*
G02X223702Y-171758I-68J394D01*
G01Y-156608D01*
X223704Y-156592D01*
G03Y-155408I-3704J592D01*
G01X223702Y-155392D01*
Y-151000D01*
X248901D01*
X263102Y-165202D01*
X282364D01*
G03X282507Y-165314I2628J3208D01*
G01X282587Y-165374D01*
X282586Y-165674D01*
X269483Y-165617D01*
X252802Y-182298D01*
X223702D01*
G37*
G36*
G01Y-149000D02*
Y14000D01*
X224454D01*
Y5854D01*
X232746D01*
Y14146D01*
X226000D01*
Y92500D01*
X240798D01*
Y69964D01*
G02X240323Y69571I-400J0D01*
G03Y66229I-323J-1671D01*
G02X240798Y65836I75J-393D01*
G01Y17564D01*
G02X240323Y17171I-400J0D01*
G03Y13829I-323J-1671D01*
G02X240798Y13436I75J-393D01*
G01Y-37936D01*
G02X240323Y-38329I-400J0D01*
G03Y-41671I-323J-1671D01*
G02X240798Y-42064I75J-393D01*
G01Y-142898D01*
X246218Y-148317D01*
G02X245935Y-149000I-283J-283D01*
G01X230910D01*
G02X230702Y-148258I0J400D01*
G03X226498I-2102J3458D01*
G02X226290Y-149000I-208J-342D01*
G01X223702D01*
G37*
G36*
G01X253200Y164500D02*
Y47441D01*
G02X252705Y47053I-400J1D01*
G03Y43747I-405J-1653D01*
G02X253200Y43359I95J-389D01*
G01Y-1759D01*
G02X252705Y-2147I-400J1D01*
G03Y-5453I-405J-1653D01*
G02X253200Y-5841I95J-389D01*
G01Y-25417D01*
X253189Y-25448D01*
G03Y-26552I1611J-552D01*
G01X253200Y-26583D01*
Y-67959D01*
G02X252705Y-68347I-400J1D01*
G03Y-71653I-405J-1653D01*
G02X253200Y-72041I95J-389D01*
G01Y-94555D01*
G03Y-97445I900J-1445D01*
G01Y-111301D01*
X253013Y-111498D01*
X252938Y-111505D01*
G03Y-114895I162J-1695D01*
G01X253013Y-114902D01*
X253200Y-115099D01*
Y-132000D01*
X270200Y-149000D01*
X302000D01*
Y-164000D01*
X299149D01*
G02X298776Y-163456I0J400D01*
G03X291224I-3776J1456D01*
G02X290851Y-164000I-373J-144D01*
G01X289256D01*
G02X288882Y-163459I0J400D01*
G03X281118I-3882J1459D01*
G02X280744Y-164000I-374J-141D01*
G01X275233D01*
X275183Y-163874D01*
G03X272017I-1583J-626D01*
G01X271967Y-164000D01*
X265483D01*
X265452Y-163989D01*
G03X264348I-552J-1611D01*
G01X264317Y-164000D01*
X263600D01*
X257024Y-157424D01*
X257051Y-157314D01*
G03X254986Y-155249I-1651J414D01*
G01X254876Y-155276D01*
X242000Y-142400D01*
Y146049D01*
G02X242647Y146363I400J-1D01*
G03Y149037I1053J1337D01*
G02X242000Y149351I-247J315D01*
G01Y164500D01*
X243256D01*
G02X243626Y163948I0J-400D01*
G03X246774I1574J-648D01*
G02X247144Y164500I370J152D01*
G01X253200D01*
G37*
G36*
G01X326398Y-143093D02*
X326238Y-143125D01*
G03X327672Y-150692I762J-3775D01*
G01X327775Y-150674D01*
X343198Y-166098D01*
Y-173502D01*
X339102Y-177598D01*
X335202D01*
Y-175863D01*
G02X335812Y-175523I400J0D01*
G03Y-168477I2188J3523D01*
G02X335202Y-168137I-210J340D01*
G01Y-165904D01*
X297323Y-165739D01*
X297324Y-165436D01*
X297407Y-165377D01*
G03X297636Y-165202I-2402J3381D01*
G01X303202D01*
Y-147798D01*
X270698D01*
X254402Y-131502D01*
Y92500D01*
X255598D01*
Y-67698D01*
X276702Y-88802D01*
X307902D01*
X326398Y-107298D01*
Y-143093D01*
G37*
G36*
G01X334417Y-178802D02*
G02X334732Y-179448I0J-400D01*
G03X340423Y-178634I3269J-2552D01*
G02X340373Y-178027I233J325D01*
G01X344400Y-174000D01*
Y-165600D01*
X329333Y-150533D01*
G02X329370Y-149935I283J283D01*
G03X327760Y-143125I-2370J3035D01*
G01X327600Y-143093D01*
Y-106800D01*
X325614Y-104814D01*
G02X325991Y-104142I282J283D01*
G03X323158Y-101309I909J3742D01*
G02X322486Y-101686I-389J-95D01*
G01X308400Y-87600D01*
X277200D01*
X271784Y-82184D01*
G02X272054Y-81501I283J283D01*
G03X270299Y-79746I-54J1701D01*
G02X269616Y-80016I-400J13D01*
G01X267227Y-77627D01*
G02X267317Y-76993I282J283D01*
G03X265007Y-74683I-817J1493D01*
G02X264373Y-74773I-351J192D01*
G01X256800Y-67200D01*
Y-21982D01*
G02X257333Y-21605I400J0D01*
G03Y-18395I567J1605D01*
G02X256800Y-18018I-133J377D01*
G01Y5518D01*
G02X257333Y5895I400J0D01*
G03Y9105I567J1605D01*
G02X256800Y9482I-133J377D01*
G01Y168800D01*
X313200Y225200D01*
Y290400D01*
X355200D01*
X360000Y285600D01*
Y226000D01*
X280800Y146800D01*
Y39698D01*
X280642Y39664D01*
G03Y36336I358J-1664D01*
G01X280800Y36302D01*
Y26808D01*
X280632Y26781D01*
G03Y23419I268J-1681D01*
G01X280800Y23392D01*
Y-15793D01*
G03Y-18207I1200J-1207D01*
G01Y-61200D01*
X289028Y-69428D01*
X288914Y-69568D01*
G03X295746Y-72190I2986J-2432D01*
G01X295756Y-72000D01*
X322800D01*
X340800Y-90000D01*
Y-142800D01*
X360000Y-162000D01*
Y-178418D01*
X359989Y-178449D01*
G03Y-179551I1611J-551D01*
G01X360000Y-179582D01*
Y-189600D01*
X355200Y-194400D01*
X289000D01*
Y-183095D01*
X289007Y-183069D01*
G03Y-180931I-4007J1069D01*
G01X289000Y-180905D01*
Y-178802D01*
X290954D01*
Y-186046D01*
X299046D01*
Y-178802D01*
X324544D01*
G02X324855Y-179453I0J-400D01*
G03X331145I3145J-2547D01*
G02X331456Y-178802I311J251D01*
G01X334417D01*
G37*
G36*
G01X413200Y-293000D02*
Y-253300D01*
X392000D01*
Y-195400D01*
X390702D01*
Y-195398D01*
X356866D01*
G02X356583Y-194716I0J400D01*
G01X361202Y-190098D01*
Y-161502D01*
X342002Y-142302D01*
Y-89502D01*
X339467Y-86967D01*
G02X339679Y-86291I283J282D01*
G03X335209Y-81821I-679J3791D01*
G02X334533Y-82033I-394J71D01*
G01X323298Y-70798D01*
X295453D01*
G03X290169Y-68672I-3553J-1202D01*
G01X290039Y-68740D01*
X282002Y-60702D01*
Y23803D01*
G03Y26397I-1102J1297D01*
G01Y92500D01*
X335000D01*
Y199301D01*
X344499Y208800D01*
X418800D01*
Y296100D01*
X658500D01*
Y-293000D01*
X413200D01*
G37*
G36*
G01X282002Y94500D02*
Y146302D01*
X332317Y196618D01*
G02X333000Y196335I283J-283D01*
G01Y94500D01*
X282002D01*
G37*
G36*
G01X342700Y-252500D02*
Y-196600D01*
X389500D01*
Y-252500D01*
X342700D01*
G37*
%LPC*%
G75*
G36*
G01X235164Y195779D02*
G03X235060Y195139I179J-358D01*
G01X240002Y190198D01*
Y157798D01*
X170398D01*
Y211702D01*
X192124D01*
G03X192518Y212172I0J400D01*
G02X195082I1282J228D01*
G03X195476Y211702I394J-70D01*
G01X218498D01*
X232239Y197960D01*
G03X232879Y198064I282J283D01*
G02X235164Y195779I1521J-764D01*
G37*
G36*
G01X253954Y251906D02*
G02X247238I-3358J0D01*
G01Y260566D01*
G02X253954I3358J0D01*
G01Y251906D01*
G37*
G36*
G01X264770Y264690D02*
G02Y271404I0J3357D01*
G01X273430D01*
G02Y264690I0J-3357D01*
G01X264770D01*
G37*
G36*
G01X242059Y-174395D02*
G02X240536Y-174257I-899J-1445D01*
G03X240601Y-173545I-147J372D01*
G02X242124Y-173683I899J1445D01*
G03X242059Y-174395I147J-372D01*
G37*
G36*
G01X316008Y-121924D02*
G03Y-122176I155J-126D01*
G02X313992I-1008J-824D01*
G03Y-121924I-155J126D01*
G02X316008I1008J824D01*
G37*
G36*
G01X454285Y241308D02*
G03X453715I-285J-281D01*
G02Y243692I-1215J1192D01*
G03X454285I285J281D01*
G02Y241308I1215J-1192D01*
G37*
G36*
G01X294903Y22699D02*
G03X294277Y22548I-257J-306D01*
G02X293805Y24509I-1569J660D01*
G03X294431Y24660I257J306D01*
G02X294903Y22699I1569J-660D01*
G37*
G36*
G01X436944Y-44539D02*
G03X437249Y-45034I386J-103D01*
G02X435256Y-46261I-349J-1666D01*
G03X434951Y-45766I-386J103D01*
G02X436944Y-44539I349J1666D01*
G37*
G36*
G01X401800Y-131890D02*
G03X401468Y-132413I48J-397D01*
G02X399652Y-131258I-1616J-535D01*
G03X399984Y-130735I-48J397D01*
G02X401800Y-131890I1616J535D01*
G37*
G36*
G01X444943Y259417D02*
G02X443057I-943J-1417D01*
G03Y260083I-221J333D01*
G02X444943I943J1417D01*
G03Y259417I221J-333D01*
G37*
G36*
G01X412248Y99507D02*
G02X410972Y100480I-1548J-707D01*
G03X411400Y101041I64J395D01*
G02X412676Y100068I1548J707D01*
G03X412248Y99507I-64J-395D01*
G37*
G36*
G01X357634Y60153D02*
G02X357618Y58599I1506J-793D01*
G03X356906Y58607I-358J-179D01*
G02X356922Y60161I-1506J793D01*
G03X357634Y60153I358J179D01*
G37*
G54D34*
X266200Y235800D03*
G54D32*
X297900Y286700D03*
X253300Y238500D03*
X242200Y234800D03*
X235360Y231460D03*
X242840Y212360D03*
X235600Y151700D03*
X214600Y227700D03*
X231900Y238200D03*
X230400Y102600D03*
X197500Y228400D03*
X202200Y230000D03*
X204900Y-220800D03*
X204650Y-228300D03*
X208900Y-237300D03*
X190800Y224900D03*
X154800Y204400D03*
X154600Y188300D03*
X154100Y180200D03*
Y172200D03*
X155100Y164200D03*
X148700Y65000D03*
Y57000D03*
X161000Y30800D03*
X149900Y11000D03*
X150000Y4000D03*
X162800Y-5900D03*
X160600Y-72900D03*
X153500Y-58900D03*
X160700Y-97800D03*
X166050Y-117050D03*
X160800Y-128400D03*
X154499Y-160799D03*
X155100Y-165000D03*
X160800Y-206400D03*
X136200Y188300D03*
X143800Y183600D03*
X127000Y172300D03*
X143800Y167600D03*
X134600Y125100D03*
X139500Y-900D03*
X130700Y-24750D03*
X127100Y-33000D03*
X127000Y-15900D03*
X144500Y-25900D03*
X144485Y-48813D03*
X129100Y-65000D03*
X134532Y-73084D03*
X129100Y-82800D03*
X134450Y-92800D03*
X139500Y-131600D03*
X112900Y180200D03*
X107800Y146900D03*
X117500Y107000D03*
X112900Y-41000D03*
X117500Y-79500D03*
X107771Y-87845D03*
X108200Y-121100D03*
X98000Y204200D03*
X91900Y196100D03*
X102100Y164300D03*
X98000Y111500D03*
X88100Y102600D03*
X91900Y97200D03*
X82600Y88200D03*
X102000Y-20900D03*
X102153Y-105065D03*
X84816Y-143388D03*
X90000Y-192600D03*
X79000Y92400D03*
X64500Y82300D03*
X64300Y31000D03*
Y23000D03*
Y15000D03*
Y7000D03*
Y-1000D03*
Y-9000D03*
Y-17000D03*
Y-25000D03*
Y-33000D03*
Y-41000D03*
Y-49000D03*
Y-57000D03*
Y-73000D03*
Y-65000D03*
Y-81000D03*
Y-89000D03*
Y-97000D03*
Y-104960D03*
Y-121000D03*
Y-113000D03*
X6300Y47300D03*
X6100Y62300D03*
X37200Y47300D03*
X64300Y47000D03*
X89300Y-65000D03*
X84900Y-17000D03*
X90000Y-89000D03*
X91900Y7000D03*
X126300Y-169100D03*
X120600Y-157100D03*
X117500Y-150400D03*
X165500Y-194000D03*
X157700Y-189300D03*
X237000Y-188200D03*
X205100Y-188300D03*
X181400Y-188700D03*
X5300Y82300D03*
X26000Y67200D03*
Y77300D03*
X188800Y-175100D03*
X185972Y-72800D03*
X192500Y-165200D03*
X191901Y-160901D03*
X204800Y-138400D03*
X198600Y-102800D03*
X198000Y-63100D03*
Y-56100D03*
X199200Y-35900D03*
X191901Y-3101D03*
X196000Y4000D03*
Y11000D03*
X219600Y-143400D03*
X214800Y-133300D03*
X219600Y-114400D03*
X219200Y-78500D03*
X216500Y-26300D03*
X217300Y-3000D03*
X216500Y-10000D03*
X211500Y31900D03*
X235700Y-178800D03*
X236000Y-30000D03*
Y12000D03*
X248800Y49500D03*
Y-126400D03*
X244300Y-123000D03*
X248800Y-104800D03*
X244300Y-114700D03*
X248800Y-65000D03*
Y-60000D03*
X244900Y-50000D03*
X248800Y17300D03*
X244900Y20200D03*
Y53900D03*
X249900Y151700D03*
X265700Y-134800D03*
X272900Y-117500D03*
X271900Y-98400D03*
X291300Y-131500D03*
X286700Y-127800D03*
X291400Y-115500D03*
X321800Y-124700D03*
X310000Y-144000D03*
X309500Y-130500D03*
X346400Y283800D03*
X354000Y252800D03*
X344700Y233500D03*
X349500Y-157900D03*
X354900Y-189000D03*
X324800Y278900D03*
X338100Y240700D03*
X338000Y225600D03*
X337100Y-117500D03*
X336900Y-110500D03*
X337900Y-127500D03*
X336700Y-134500D03*
X312900Y201900D03*
X310600Y-191000D03*
X297000Y184600D03*
X278600Y129900D03*
X265600Y166800D03*
X269000Y128600D03*
X272576Y104424D03*
X275500Y77500D03*
X277900Y59100D03*
X270900Y58600D03*
X275000Y-62000D03*
X266600Y-62100D03*
X260400Y-67500D03*
X275000Y-75500D03*
X299100Y-10400D03*
X299000Y-6500D03*
X293937Y-11563D03*
X288700Y24200D03*
X299750Y10750D03*
X284900Y58400D03*
X285000Y71400D03*
X284800Y53700D03*
X306500Y-10500D03*
X310200Y17500D03*
X313876Y82376D03*
X315600Y77100D03*
X342300Y-40700D03*
X342700Y-32700D03*
X331600Y18900D03*
X344600Y-16000D03*
X345831Y-25800D03*
X348800Y-9000D03*
X354160Y-10840D03*
X355400Y41000D03*
X359140Y39860D03*
X363300Y64700D03*
X363700Y74300D03*
X380600Y-149100D03*
X373600Y-149200D03*
X375920Y-140280D03*
X365840Y-10840D03*
X383618Y7384D03*
X394600Y-130300D03*
X399900Y-113000D03*
X430798Y-198202D03*
X427000Y-188500D03*
X411000Y-205500D03*
X417700Y99000D03*
X450900Y-218400D03*
X447400Y-205600D03*
X446261Y-200261D03*
X436300Y-51600D03*
X436520Y109480D03*
X436200Y122600D03*
X447900Y259400D03*
X455563Y-205437D03*
X461100Y-151300D03*
X461380Y-137280D03*
X471800Y-42100D03*
X470400Y-51700D03*
X470200Y-56700D03*
X469800Y12100D03*
X480600Y-126300D03*
X488100Y-126100D03*
X484852Y-129552D03*
X476263Y-39563D03*
X475400Y-51700D03*
X495800Y83400D03*
X503300Y83500D03*
X525700Y48700D03*
X533100Y48400D03*
X527548Y52752D03*
X533300Y104800D03*
X529500Y95500D03*
X537800Y233200D03*
X536500Y266000D03*
X544700Y-13600D03*
X558800Y69300D03*
X550900Y69200D03*
X550620Y60280D03*
X544700Y91900D03*
X540300Y104600D03*
X557748Y217748D03*
X553748Y245248D03*
X557748Y229748D03*
X547000Y234000D03*
X545600Y267400D03*
X565748Y245248D03*
X399800Y-75500D03*
X285600Y129900D03*
X310500Y110500D03*
X315500Y109500D03*
X315700Y102200D03*
X383600Y-206300D03*
X383300Y-232600D03*
X368800Y-213700D03*
X368520Y-242420D03*
X353500Y-206100D03*
Y-231100D03*
X353300Y-224000D03*
X351961Y-239861D03*
X346800Y-249925D03*
G54D37*
X213427Y216027D03*
X206100Y240300D03*
X211300Y151900D03*
X189805Y151405D03*
X164500Y188100D03*
X305100Y-125000D03*
G54D48*
X214800Y-175800D03*
G54D33*
X296900Y-252600D03*
X223200Y251300D03*
X271900Y-142100D03*
X328800Y56600D03*
X383600Y135900D03*
X401500Y-198500D03*
X453900Y41500D03*
X455700Y-102500D03*
X499100Y-170500D03*
X532000Y207500D03*
X576000Y32500D03*
X582300Y123400D03*
X587500Y184000D03*
X629200Y-135600D03*
X374300Y-222000D03*
G54D49*
X272600Y-107400D03*
X282600D03*
X421100Y-218400D03*
X431100D03*
X412400Y-101500D03*
X422400D03*
G54D31*
X312300Y-236700D03*
X295100Y249200D03*
X226300Y-224000D03*
X422500Y-66500D03*
X336000Y39500D03*
X383600Y113200D03*
X410500Y-181000D03*
X399800Y-101200D03*
X428100Y-169500D03*
X440500Y-105400D03*
X469700Y59700D03*
X514600Y-161000D03*
Y-111000D03*
X505500Y208400D03*
X513700Y286800D03*
X581400Y-163200D03*
Y-113200D03*
X576200Y55600D03*
X574000Y101700D03*
X601100Y287600D03*
X632100Y231900D03*
G54D46*
X21700Y-122243D03*
G54D43*
X96100Y-213400D03*
X86100D03*
G54D42*
X96100Y-203400D03*
X86100D03*
X96100Y-223400D03*
X86100D03*
X96100Y-243400D03*
X86100D03*
X96100Y-233400D03*
X86100D03*
Y-253400D03*
G54D40*
X179600Y21500D03*
X295000Y-172000D03*
X228600Y-80000D03*
X287200Y-29300D03*
X304100D03*
X524600Y-131000D03*
X591400Y-131400D03*
X365000Y-86000D03*
G54D50*
X327500Y251500D03*
Y261500D03*
X393500Y-27100D03*
Y-17100D03*
X407500Y-27100D03*
Y-17100D03*
G54D39*
X179600Y61500D03*
Y51500D03*
Y41500D03*
Y31500D03*
X285000Y-172000D03*
X228600Y-134800D03*
Y-124800D03*
Y-114800D03*
Y-104800D03*
Y-70000D03*
Y-60000D03*
Y-50000D03*
Y-40000D03*
Y-30000D03*
Y-20000D03*
Y-10000D03*
Y0D03*
X270700Y-29300D03*
Y-39300D03*
X287200D03*
X304100D03*
X428100Y-154000D03*
Y-144000D03*
Y-124000D03*
Y-134000D03*
X428400Y29100D03*
Y19100D03*
X418400D03*
X433200Y64700D03*
Y74700D03*
X438100Y-144000D03*
Y-124000D03*
Y-134000D03*
X443200Y74700D03*
X459700Y96700D03*
X469700D03*
Y86700D03*
X514600Y-141000D03*
Y-131000D03*
X513500Y238200D03*
X513700Y263100D03*
X523500Y248200D03*
Y238200D03*
X523700Y263100D03*
Y273100D03*
X581400Y-141400D03*
Y-131400D03*
X601000Y264300D03*
X622100Y204600D03*
Y214600D03*
X611000Y264300D03*
Y274300D03*
X632100Y204600D03*
X642100D03*
X632100Y214600D03*
X365000Y-116000D03*
Y-106000D03*
Y-96000D03*
X355000Y-116000D03*
Y-106000D03*
Y-96000D03*
Y-126000D03*
Y-86000D03*
G54D30*
X390900Y-275500D03*
X315900D03*
X240900D03*
X165900D03*
X555400Y-173200D03*
Y-98200D03*
X610000Y38600D03*
Y113600D03*
X630400Y-173200D03*
Y-98200D03*
G54D29*
X400900Y-265500D03*
Y-285500D03*
X380900Y-265500D03*
Y-285500D03*
X325900Y-265500D03*
Y-285500D03*
X305900Y-265500D03*
Y-285500D03*
X250900Y-265500D03*
Y-285500D03*
X230900Y-265500D03*
Y-285500D03*
X175900Y-265500D03*
Y-285500D03*
X155900Y-265500D03*
Y-285500D03*
X545400Y-163200D03*
Y-183200D03*
Y-108200D03*
Y-88200D03*
X565400Y-163200D03*
Y-183200D03*
Y-108200D03*
Y-88200D03*
X600000Y28600D03*
Y48600D03*
Y103600D03*
Y123600D03*
X620400Y-183200D03*
Y-163200D03*
Y-108200D03*
Y-88200D03*
X620000Y28600D03*
Y48600D03*
Y103600D03*
Y123600D03*
X640400Y-183200D03*
Y-163200D03*
Y-108200D03*
Y-88200D03*
G54D45*
X170161Y275579D03*
X152839D03*
G54D47*
X269100Y243638D03*
G54D36*
X219400Y282800D03*
G54D41*
X107400Y282900D03*
X108700Y-280400D03*
X645500D03*
X645200Y283100D03*
G54D38*
X179600Y71500D03*
X328000Y-172000D03*
X228600Y-94800D03*
X418400Y29100D03*
X443200Y64700D03*
X459700Y86700D03*
X524600Y-141000D03*
X591400Y-141400D03*
X642100Y214600D03*
G54D44*
X96100Y-253400D03*
G54D51*
X270700Y-49300D03*
X287200D03*
X304100D03*
X438100Y-154000D03*
X513500Y248200D03*
X513700Y273100D03*
X601000Y274300D03*
X365000Y-126000D03*
G54D35*
X229400Y282800D03*
X327500Y241500D03*
X393500Y-7100D03*
X407500D03*
%LPD*%
G75*
G36*
G01X237896Y189690D02*
G03X238343Y186315I204J-1690D01*
G02X238800Y185920I57J-396D01*
G01Y182580D01*
G02X238343Y182185I-400J1D01*
G03Y178815I-243J-1685D01*
G02X238800Y178420I57J-396D01*
G01Y159000D01*
X238180D01*
G02X237785Y159457I1J400D01*
G03X234415I-1685J243D01*
G02X234020Y159000I-396J-57D01*
G01X171600D01*
Y210500D01*
X218000D01*
X238130Y190370D01*
G02X237896Y189690I-282J-283D01*
G37*
%LPC*%
G75*
G36*
G01X230645Y190783D02*
G03X230357Y191244I-393J75D01*
G02X231979Y192256I343J1256D01*
G03X232267Y191795I393J-75D01*
G02X232233Y189274I-343J-1256D01*
G03X231936Y188809I95J-388D01*
G02X230349Y189823I-1278J-251D01*
G03X230646Y190288I-95J388D01*
G02X230645Y190783I1278J250D01*
G37*
G36*
G01X220837Y182126D02*
G03X220936Y181863I183J-81D01*
G02X219194Y181211I-552J-1179D01*
G03X219095Y181474I-183J81D01*
G02X220837Y182126I552J1179D01*
G37*
G36*
G01X221719Y175881D02*
G03X221716Y175619I150J-133D01*
G02X219749Y175645I-995J-840D01*
G03X219752Y175907I-150J133D01*
G02X221719Y175881I995J840D01*
G37*
G36*
G01X201356Y206999D02*
G03X200944Y206565I-13J-400D01*
G02X198355Y206292I-1297J-112D01*
G03X197893Y206637I-397J-50D01*
G02X198971Y208082I-214J1284D01*
G03X199433Y207737I397J50D01*
G02X199691Y207754I214J-1284D01*
G03X200103Y208188I13J400D01*
G02X201356Y206999I1297J112D01*
G37*
G36*
G01X174411Y175074D02*
G03X174168Y175536I-390J90D01*
G02X174125Y177940I479J1211D01*
G03X174352Y178402I-161J366D01*
G02X174632Y179569I1264J314D01*
G03Y179831I-151J131D01*
G02X174332Y180898I984J852D01*
G03X173987Y181361I-395J66D01*
G02X175431Y182439I160J1292D01*
G03X175776Y181976I395J-66D01*
G02X176600Y179831I-160J-1292D01*
G03Y179569I151J-131D01*
G02X176138Y177523I-984J-853D01*
G03X175911Y177061I161J-366D01*
G02X175915Y176452I-1264J-313D01*
G03X176158Y175990I390J-90D01*
G02X174411Y175074I-479J-1211D01*
G37*
G54D32*
X234600Y176300D03*
X209900Y184900D03*
X220490Y186590D03*
X220664Y194464D03*
G54D37*
X230379Y184621D03*
X230516Y178716D03*
X215600Y206912D03*
X201616Y161584D03*
X220705Y166905D03*
X220742Y170842D03*
X191700Y207300D03*
X184505Y192495D03*
X189805Y197405D03*
X184527Y168873D03*
%LPD*%
G75*
G54D10*
G01X82048Y-213400D02*
X86100D01*
G01X96100Y-217452D02*
Y-213400D01*
G01D02*
Y-209348D01*
G01X92048Y-213400D02*
X96100D01*
G01D02*
X100152D01*
G01X86100Y-217452D02*
Y-213400D01*
G01D02*
Y-209348D01*
G01Y-213400D02*
X90152D01*
G01X155900Y-290633D02*
Y-285500D01*
G01D02*
Y-280367D01*
G01X150767Y-285500D02*
X155900D01*
G01D02*
X161033D01*
G01X155900Y-270633D02*
Y-265500D01*
G01D02*
Y-260367D01*
G01X150767Y-265500D02*
X155900D01*
G01D02*
X161033D01*
G01X175900Y-290633D02*
Y-285500D01*
G01D02*
Y-280367D01*
G01X170767Y-285500D02*
X175900D01*
G01D02*
X181033D01*
G01X175900Y-270633D02*
Y-265500D01*
G01D02*
Y-260367D01*
G01X170767Y-265500D02*
X175900D01*
G01D02*
X181033D01*
G01X179600Y17253D02*
Y21500D01*
G01D02*
Y25747D01*
G01X175353Y21500D02*
X179600D01*
G01D02*
X183847D01*
G01X179600Y67253D02*
Y71500D01*
G01D02*
Y75747D01*
G01X175353Y71500D02*
X179600D01*
G01D02*
X183847D01*
G01X210998Y-175800D02*
X214800D01*
G01X230900Y-290633D02*
Y-285500D01*
G01D02*
Y-280367D01*
G01X225767Y-285500D02*
X230900D01*
G01D02*
X236033D01*
G01X230900Y-270633D02*
Y-265500D01*
G01D02*
Y-260367D01*
G01X225767Y-265500D02*
X230900D01*
G01D02*
X236033D01*
G01X214800Y-179602D02*
Y-175800D01*
G01D02*
Y-171998D01*
G01Y-175800D02*
X218602D01*
G01X220000Y-156000D02*
X223952D01*
G01X228600Y-144800D02*
Y-140553D01*
G01X224353Y-144800D02*
X228600D01*
G01D02*
X232847D01*
G01X228600Y-84247D02*
Y-80000D01*
G01D02*
Y-75753D01*
G01X224353Y-80000D02*
X228600D01*
G01D02*
X232847D01*
G01X228600Y-99047D02*
Y-94800D01*
G01D02*
Y-90553D01*
G01X224353Y-94800D02*
X228600D01*
G01D02*
X232847D01*
G01X223200Y247348D02*
Y251300D01*
G01D02*
Y255252D01*
G01X219248Y251300D02*
X223200D01*
G01D02*
X227152D01*
G01X219400Y278651D02*
Y282800D01*
G01D02*
Y286949D01*
G01X215251Y282800D02*
X219400D01*
G01D02*
X223549D01*
G01X250900Y-290633D02*
Y-285500D01*
G01D02*
Y-280367D01*
G01X245767Y-285500D02*
X250900D01*
G01D02*
X256033D01*
G01X250900Y-270633D02*
Y-265500D01*
G01D02*
Y-260367D01*
G01X245767Y-265500D02*
X250900D01*
G01D02*
X256033D01*
G01X250596Y248347D02*
Y256236D01*
G01D02*
Y264125D01*
G01X247038Y256236D02*
X250596D01*
G01D02*
X254154D01*
G01X271900Y-146052D02*
Y-142100D01*
G01D02*
Y-138148D01*
G01X267948Y-142100D02*
X271900D01*
G01D02*
X275852D01*
G01X269100Y264489D02*
Y268047D01*
G01D02*
Y271605D01*
G01X261211Y268047D02*
X269100D01*
G01D02*
X276989D01*
G01X296900Y-256552D02*
Y-252600D01*
G01D02*
Y-248648D01*
G01X292948Y-252600D02*
X296900D01*
G01D02*
X300852D01*
G01X295000Y-176247D02*
Y-172000D01*
G01D02*
Y-167753D01*
G01X290753Y-172000D02*
X295000D01*
G01D02*
X299247D01*
G01X295000Y-186247D02*
Y-182000D01*
G01X290753D02*
X295000D01*
G01D02*
X299247D01*
G01X295000Y-162000D02*
Y-157753D01*
G01X290753Y-162000D02*
X295000D01*
G01D02*
X299247D01*
G01X291900Y-72000D02*
Y-68048D01*
G01X299853Y-29300D02*
X304100D01*
G01X287200Y-33547D02*
Y-29300D01*
G01D02*
Y-25053D01*
G01X282953Y-29300D02*
X287200D01*
G01D02*
X291447D01*
G01X320767Y-285500D02*
X325900D01*
G01X305900Y-290633D02*
Y-285500D01*
G01D02*
Y-280367D01*
G01X300767Y-285500D02*
X305900D01*
G01D02*
X311033D01*
G01X320767Y-265500D02*
X325900D01*
G01X305900Y-270633D02*
Y-265500D01*
G01D02*
Y-260367D01*
G01X300767Y-265500D02*
X305900D01*
G01D02*
X311033D01*
G01X304100Y-33547D02*
Y-29300D01*
G01D02*
Y-25053D01*
G01Y-29300D02*
X308347D01*
G01X325900Y-290633D02*
Y-285500D01*
G01D02*
Y-280367D01*
G01Y-285500D02*
X331033D01*
G01X325900Y-270633D02*
Y-265500D01*
G01D02*
Y-260367D01*
G01Y-265500D02*
X331033D01*
G01X328000Y-176247D02*
Y-172000D01*
G01D02*
Y-167753D01*
G01X323753Y-172000D02*
X328000D01*
G01D02*
X332247D01*
G01X328000Y-186247D02*
Y-182000D01*
G01X323753D02*
X328000D01*
G01D02*
X332247D01*
G01X328800Y52648D02*
Y56600D01*
G01D02*
Y60552D01*
G01X324848Y56600D02*
X328800D01*
G01D02*
X332752D01*
G01X365000Y-90247D02*
Y-86000D01*
G01D02*
Y-81753D01*
G01X360753Y-86000D02*
X365000D01*
G01D02*
X369247D01*
G01X380900Y-290633D02*
Y-285500D01*
G01D02*
Y-280367D01*
G01X375767Y-285500D02*
X380900D01*
G01D02*
X386033D01*
G01X380900Y-270633D02*
Y-265500D01*
G01D02*
Y-260367D01*
G01X375767Y-265500D02*
X380900D01*
G01D02*
X386033D01*
G01X374300Y-225952D02*
Y-222000D01*
G01D02*
Y-218048D01*
G01X370348Y-222000D02*
X374300D01*
G01D02*
X378252D01*
G01X383600Y131948D02*
Y135900D01*
G01D02*
Y139852D01*
G01X379648Y135900D02*
X383600D01*
G01D02*
X387552D01*
G01X400900Y-290633D02*
Y-285500D01*
G01D02*
Y-280367D01*
G01X395767Y-285500D02*
X400900D01*
G01D02*
X406033D01*
G01X400900Y-270633D02*
Y-265500D01*
G01D02*
Y-260367D01*
G01X395767Y-265500D02*
X400900D01*
G01D02*
X406033D01*
G01X401500Y-202452D02*
Y-198500D01*
G01D02*
Y-194548D01*
G01X397548Y-198500D02*
X401500D01*
G01D02*
X405452D01*
G01X418400Y24853D02*
Y29100D01*
G01D02*
Y33347D01*
G01X414153Y29100D02*
X418400D01*
G01D02*
X422647D01*
G01X451748Y-102500D02*
X455700D01*
G01X449948Y41500D02*
X453900D01*
G01X443200Y60453D02*
Y64700D01*
G01D02*
Y68947D01*
G01X438953Y64700D02*
X443200D01*
G01D02*
X447447D01*
G01X455700Y-106452D02*
Y-102500D01*
G01D02*
Y-98548D01*
G01Y-102500D02*
X459652D01*
G01X453900Y37548D02*
Y41500D01*
G01D02*
Y45452D01*
G01Y41500D02*
X457852D01*
G01X459700Y82453D02*
Y86700D01*
G01D02*
Y90947D01*
G01X455453Y86700D02*
X459700D01*
G01D02*
X463947D01*
G01X495148Y-170500D02*
X499100D01*
G01Y-174452D02*
Y-170500D01*
G01D02*
Y-166548D01*
G01Y-170500D02*
X503052D01*
G01X524600Y-145247D02*
Y-141000D01*
G01D02*
Y-136753D01*
G01X520353Y-141000D02*
X524600D01*
G01D02*
X528847D01*
G01X524600Y-135247D02*
Y-131000D01*
G01D02*
Y-126753D01*
G01X520353Y-131000D02*
X524600D01*
G01D02*
X528847D01*
G01X532000Y203548D02*
Y207500D01*
G01D02*
Y211452D01*
G01X528048Y207500D02*
X532000D01*
G01D02*
X535952D01*
G01X545400Y-188333D02*
Y-183200D01*
G01X560267D02*
X565400D01*
G01X545400D02*
Y-178067D01*
G01X540267Y-183200D02*
X545400D01*
G01D02*
X550533D01*
G01X545400Y-168333D02*
Y-163200D01*
G01X560267D02*
X565400D01*
G01X545400D02*
Y-158067D01*
G01X540267Y-163200D02*
X545400D01*
G01D02*
X550533D01*
G01X560267Y-108200D02*
X565400D01*
G01X545400Y-113333D02*
Y-108200D01*
G01D02*
Y-103067D01*
G01X540267Y-108200D02*
X545400D01*
G01D02*
X550533D01*
G01X560267Y-88200D02*
X565400D01*
G01X545400Y-93333D02*
Y-88200D01*
G01D02*
Y-83067D01*
G01X540267Y-88200D02*
X545400D01*
G01D02*
X550533D01*
G01X565400Y-188333D02*
Y-183200D01*
G01D02*
Y-178067D01*
G01Y-183200D02*
X570533D01*
G01X565400Y-168333D02*
Y-163200D01*
G01D02*
Y-158067D01*
G01Y-163200D02*
X570533D01*
G01X565400Y-113333D02*
Y-108200D01*
G01D02*
Y-103067D01*
G01Y-108200D02*
X570533D01*
G01X565400Y-93333D02*
Y-88200D01*
G01D02*
Y-83067D01*
G01Y-88200D02*
X570533D01*
G01X576000Y28548D02*
Y32500D01*
G01D02*
Y36452D01*
G01X572048Y32500D02*
X576000D01*
G01D02*
X579952D01*
G01X582300Y119448D02*
Y123400D01*
G01D02*
Y127352D01*
G01X578348Y123400D02*
X582300D01*
G01D02*
X586252D01*
G01X591400Y-145647D02*
Y-141400D01*
G01D02*
Y-137153D01*
G01X587153Y-141400D02*
X591400D01*
G01D02*
X595647D01*
G01X591400Y-135647D02*
Y-131400D01*
G01D02*
Y-127153D01*
G01X587153Y-131400D02*
X591400D01*
G01D02*
X595647D01*
G01X600000Y23467D02*
Y28600D01*
G01D02*
Y33733D01*
G01X594867Y28600D02*
X600000D01*
G01D02*
X605133D01*
G01X600000Y43467D02*
Y48600D01*
G01D02*
Y53733D01*
G01X594867Y48600D02*
X600000D01*
G01D02*
X605133D01*
G01X600000Y98467D02*
Y103600D01*
G01D02*
Y108733D01*
G01X594867Y103600D02*
X600000D01*
G01D02*
X605133D01*
G01X600000Y118467D02*
Y123600D01*
G01D02*
Y128733D01*
G01X594867Y123600D02*
X600000D01*
G01D02*
X605133D01*
G01X587500Y180048D02*
Y184000D01*
G01D02*
Y187952D01*
G01X583548Y184000D02*
X587500D01*
G01D02*
X591452D01*
G01X620400Y-188333D02*
Y-183200D01*
G01Y-168333D02*
Y-163200D01*
G01Y-183200D02*
Y-178067D01*
G01X615267Y-183200D02*
X620400D01*
G01D02*
X625533D01*
G01X620400Y-163200D02*
Y-158067D01*
G01X615267Y-163200D02*
X620400D01*
G01D02*
X625533D01*
G01X625248Y-135600D02*
X629200D01*
G01X620400Y-113333D02*
Y-108200D01*
G01D02*
Y-103067D01*
G01X615267Y-108200D02*
X620400D01*
G01D02*
X625533D01*
G01X620400Y-93333D02*
Y-88200D01*
G01D02*
Y-83067D01*
G01X615267Y-88200D02*
X620400D01*
G01D02*
X625533D01*
G01X620000Y23467D02*
Y28600D01*
G01D02*
Y33733D01*
G01X614867Y28600D02*
X620000D01*
G01D02*
X625133D01*
G01X620000Y43467D02*
Y48600D01*
G01D02*
Y53733D01*
G01X614867Y48600D02*
X620000D01*
G01D02*
X625133D01*
G01X620000Y98467D02*
Y103600D01*
G01D02*
Y108733D01*
G01X614867Y103600D02*
X620000D01*
G01D02*
X625133D01*
G01X620000Y118467D02*
Y123600D01*
G01D02*
Y128733D01*
G01X614867Y123600D02*
X620000D01*
G01D02*
X625133D01*
G01X640400Y-188333D02*
Y-183200D01*
G01Y-168333D02*
Y-163200D01*
G01Y-183200D02*
Y-178067D01*
G01X635267Y-183200D02*
X640400D01*
G01D02*
X645533D01*
G01X640400Y-163200D02*
Y-158067D01*
G01X635267Y-163200D02*
X640400D01*
G01D02*
X645533D01*
G01X629200Y-139552D02*
Y-135600D01*
G01D02*
Y-131648D01*
G01Y-135600D02*
X633152D01*
G01X640400Y-113333D02*
Y-108200D01*
G01D02*
Y-103067D01*
G01X635267Y-108200D02*
X640400D01*
G01D02*
X645533D01*
G01X640400Y-93333D02*
Y-88200D01*
G01D02*
Y-83067D01*
G01X635267Y-88200D02*
X640400D01*
G01D02*
X645533D01*
G01X642100Y210353D02*
Y214600D01*
G01D02*
Y218847D01*
G01X637853Y214600D02*
X642100D01*
G01D02*
X646347D01*
X6500Y-133500D03*
X-1400Y-101100D03*
X5700Y-112700D03*
X6100Y-92700D03*
Y-97700D03*
X-1400Y-60800D03*
X6200Y-57700D03*
X6600Y-72700D03*
X6200Y-77700D03*
X6500Y-37700D03*
X6300Y-52700D03*
X6200Y-17800D03*
X-400Y-16500D03*
X6300Y-32700D03*
X6000Y-12500D03*
X6300Y2300D03*
X6700Y7300D03*
X6400Y27300D03*
X6300Y22300D03*
X600Y34900D03*
X6300Y47300D03*
X6500Y42300D03*
X5500Y72300D03*
X6100Y62300D03*
X6200Y67300D03*
Y57300D03*
X16900Y72300D03*
X-2100Y81200D03*
X5300Y82300D03*
X5800Y77300D03*
X27800Y-133500D03*
X37400Y-102700D03*
X36900Y-87700D03*
X17500Y-62800D03*
X26000Y-67700D03*
X37500Y-57700D03*
X36900Y-72700D03*
X26100Y-37700D03*
X17600Y-47800D03*
X26000Y-52600D03*
X37200Y-42700D03*
X17500Y-17900D03*
X26000Y-22700D03*
X17500Y-32800D03*
X37200Y-27700D03*
X25800Y7300D03*
X26200Y-7700D03*
X37100Y2300D03*
X37700Y-12700D03*
X26000Y22300D03*
X17500Y27300D03*
X17400Y12200D03*
X36600Y17300D03*
X17500Y42200D03*
X37200Y47300D03*
X37000Y32300D03*
X26000Y67200D03*
X17500Y57300D03*
X36900Y62300D03*
X17100D03*
X26000Y77300D03*
X37300D03*
X17000Y82300D03*
X21100Y100800D03*
X54200Y101500D03*
X64300Y-113000D03*
Y-121000D03*
Y-104960D03*
Y-97000D03*
Y-89000D03*
Y-81000D03*
Y-65000D03*
Y-73000D03*
Y-57000D03*
Y-49000D03*
Y-41000D03*
Y-33000D03*
Y-25000D03*
Y-17000D03*
Y-9000D03*
Y-1000D03*
Y7000D03*
Y15000D03*
Y23000D03*
X79000Y15000D03*
X64300Y31000D03*
Y39000D03*
Y47000D03*
X63200Y67000D03*
X64300Y55000D03*
X75300Y79500D03*
X64500Y82300D03*
X79000Y92400D03*
X60800Y97100D03*
X90000Y-192600D03*
X84600Y-184800D03*
Y-156200D03*
X84816Y-143388D03*
X102153Y-105065D03*
X90000Y-89000D03*
X89300Y-65000D03*
X102000Y-20900D03*
X84900Y-17000D03*
X91900Y7000D03*
X98000Y-9000D03*
X82600Y23000D03*
Y88200D03*
X91900Y97200D03*
X88100Y102600D03*
X98000Y111500D03*
X102100Y164300D03*
X91900Y196100D03*
X98000Y204200D03*
X122400Y-271100D03*
X120800Y-240000D03*
X119600Y-250100D03*
X120600Y-190800D03*
Y-157100D03*
X117500Y-150400D03*
X112900Y-136400D03*
X108200Y-121100D03*
X107771Y-87845D03*
X117500Y-79500D03*
X112900Y-41000D03*
X117500Y107000D03*
X107800Y146900D03*
X112900Y180200D03*
X104500Y238600D03*
X104300Y263500D03*
X134000Y-283400D03*
X132100Y-257600D03*
X138800Y-218400D03*
X138100Y-229800D03*
X139400Y-195400D03*
X126300Y-169100D03*
X139400Y-162000D03*
X139500Y-131600D03*
X134450Y-92800D03*
X129100Y-82800D03*
X134532Y-73084D03*
X129100Y-65000D03*
X144485Y-48813D03*
X144500Y-25900D03*
X127000Y-15900D03*
X127100Y-33000D03*
X130700Y-24750D03*
X139500Y-900D03*
X139900Y67400D03*
X134600Y125100D03*
X143800Y167600D03*
X127000Y172300D03*
X143800Y183600D03*
X136200Y188300D03*
X133500Y237000D03*
X138543Y265500D03*
X128600Y284500D03*
X137600Y287000D03*
X153000Y-247500D03*
X166400Y-239800D03*
X168200Y-219500D03*
X153700Y-227600D03*
X157700Y-189300D03*
X165500Y-194000D03*
X160800Y-206400D03*
X165300Y-168400D03*
X164900Y-175400D03*
X155100Y-178500D03*
X161200Y-153400D03*
X155100Y-165000D03*
X154499Y-160799D03*
X160800Y-128400D03*
X161700Y-107800D03*
X154499Y-120801D03*
X166050Y-117050D03*
X160700Y-97800D03*
X163400Y-62900D03*
X161800Y-77800D03*
X153500Y-58900D03*
X160600Y-72900D03*
X163300Y-55900D03*
X154499Y-43301D03*
X164100Y4000D03*
X160500Y-10900D03*
X162800Y-5900D03*
X150000Y4000D03*
X153200Y21700D03*
X164000Y11000D03*
X149900D03*
X148600Y49200D03*
X148200Y42900D03*
X157100Y50200D03*
X161000Y30800D03*
X162700Y65000D03*
Y57000D03*
X148700D03*
Y65000D03*
X159000Y172700D03*
X155100Y164200D03*
X154100Y172200D03*
Y180200D03*
X164600Y193800D03*
X159100Y182700D03*
X154600Y188300D03*
X164400Y211300D03*
X154800Y204400D03*
X155200Y256800D03*
X158300D03*
X183400Y-237300D03*
Y-245300D03*
X190900Y-228300D03*
Y-220800D03*
X181400Y-188700D03*
X188800Y-175100D03*
X185972Y-72800D03*
X185800Y-77800D03*
X184500Y-63100D03*
Y-56100D03*
X185600Y-10900D03*
X181600Y4000D03*
X181800Y11000D03*
X174500Y117800D03*
X187000Y140100D03*
X179400Y215700D03*
X188100Y222600D03*
X190800Y224900D03*
X185800Y265600D03*
X185600Y287000D03*
X209400Y-281700D03*
X194900Y-264800D03*
X199892Y-239800D03*
X208900Y-237300D03*
X204650Y-228300D03*
X204900Y-220800D03*
X205100Y-188300D03*
X202400Y-168100D03*
Y-175100D03*
X192500Y-165200D03*
X191901Y-160901D03*
X197900Y-153400D03*
X209600Y-148400D03*
X198500Y-123400D03*
X209600Y-138000D03*
X210500Y-124000D03*
X204800Y-138400D03*
X198600Y-102800D03*
Y-107800D03*
X210500Y-100500D03*
X198000Y-63100D03*
Y-56100D03*
X199200Y-35900D03*
X198300Y-40900D03*
X206100Y-20000D03*
X191901Y-3101D03*
X196000Y4000D03*
X205500Y3500D03*
X196000Y11000D03*
X211500Y31900D03*
X210800Y67400D03*
X197500Y120100D03*
X209000Y137600D03*
X210500Y125000D03*
X209900Y184900D03*
X200000Y222500D03*
X200300Y246600D03*
X209400Y230100D03*
X202200Y230000D03*
X197500Y228400D03*
X197600Y284200D03*
X219600Y-143400D03*
X214800Y-133300D03*
X219600Y-114400D03*
X219200Y-78500D03*
X216500Y-26300D03*
X222500Y4500D03*
X216500Y-10000D03*
X217300Y-3000D03*
X234500Y67200D03*
X230400Y102600D03*
X222500Y106900D03*
X226100Y136900D03*
X226200Y124000D03*
X218000Y124100D03*
X230600Y135200D03*
X222600D03*
X214600D03*
X234400Y169300D03*
X234600Y176300D03*
X220664Y194464D03*
X220490Y186590D03*
X234400Y197300D03*
X217600Y222400D03*
X231900Y238200D03*
X214600Y227700D03*
X244300Y-214700D03*
X237000Y-188200D03*
X251100Y-172100D03*
X235700Y-178800D03*
X241500Y-172100D03*
X241160Y-175840D03*
X255400Y-156900D03*
X235700Y-163400D03*
X236600Y-126600D03*
X248800Y-126400D03*
X244300Y-123000D03*
X253100Y-113200D03*
X248800Y-104800D03*
X244300Y-114700D03*
X254100Y-96000D03*
X248800Y-65000D03*
Y-60000D03*
X252300Y-70000D03*
X240000Y-40000D03*
X244900Y-50000D03*
X254800Y-26000D03*
X236000Y-30000D03*
X252300Y-3800D03*
X240000Y15500D03*
X236000Y12000D03*
X248800Y17300D03*
X244900Y20200D03*
X234800Y45700D03*
X248800Y49500D03*
X252300Y45400D03*
X240000Y67900D03*
X244900Y53900D03*
X249900Y151700D03*
X243700Y147700D03*
X235600Y151700D03*
X236100Y159700D03*
X249500D03*
X247600Y169300D03*
X245200Y163300D03*
X248100Y176300D03*
X238100Y180500D03*
X244300Y200100D03*
X247700Y183500D03*
X249700Y191700D03*
X238100Y188000D03*
X239100Y223800D03*
X242840Y212360D03*
X235360Y231460D03*
X242200Y234800D03*
X253300Y238500D03*
X242600Y288600D03*
X269000Y-282400D03*
X265300Y-250600D03*
X275700Y-218400D03*
X269200Y-189100D03*
X273600Y-164500D03*
X264900Y-165600D03*
X265700Y-134800D03*
X272900Y-117500D03*
X271900Y-98400D03*
X267300Y-97000D03*
X272000Y-79800D03*
X275000Y-75500D03*
X266500D03*
X260400Y-67500D03*
X266600Y-62100D03*
X275000Y-62000D03*
X257900Y-20000D03*
Y7500D03*
X270900Y58600D03*
X277900Y59100D03*
X275500Y77500D03*
X272576Y104424D03*
X269000Y128600D03*
X265600Y166800D03*
X272200Y191800D03*
X263200Y226000D03*
Y227300D03*
X287900Y-282700D03*
X291300Y-131500D03*
X286700Y-127800D03*
X289000Y-129500D03*
X300100Y-141900D03*
X285100Y-132800D03*
Y-117100D03*
X296900Y-120400D03*
X291400Y-115500D03*
X282000Y-17000D03*
X299100Y-10400D03*
X299000Y-6500D03*
X293937Y-11563D03*
X280900Y25100D03*
X288700Y24200D03*
X296000Y24000D03*
X292708Y23208D03*
X299750Y10750D03*
X287500Y8500D03*
X296000Y37500D03*
X289000D03*
X281000Y38000D03*
X284900Y58400D03*
X292000Y58500D03*
X285000Y71400D03*
X284800Y53700D03*
X294000Y91500D03*
X278600Y129900D03*
X285600D03*
X297000Y184600D03*
X278400Y208500D03*
X286800Y224900D03*
X281100Y216300D03*
X295000Y230900D03*
X295400Y261800D03*
X293000Y280100D03*
X297900Y286700D03*
X310900Y-218400D03*
X300400Y-205200D03*
X310600Y-191000D03*
X314000Y-162300D03*
X321800Y-124700D03*
X317435Y-136400D03*
X310000Y-144000D03*
X309500Y-130500D03*
X303200Y-117100D03*
X308500Y-106800D03*
X309852Y-115448D03*
X319100Y-115000D03*
X310500Y-20000D03*
X302500D03*
X306500Y-10500D03*
X318900Y-400D03*
X301000Y25000D03*
X310200Y17500D03*
X310300Y36200D03*
X306500Y36500D03*
X301000Y32000D03*
X313300Y44600D03*
X313876Y82376D03*
X315600Y77100D03*
X310500Y110500D03*
X315500Y109500D03*
X315700Y102200D03*
X300500Y130500D03*
X312900Y201900D03*
X309800Y248600D03*
X305500Y266200D03*
X319800D03*
X316900Y248900D03*
X303100Y275600D03*
X319700D03*
X320900Y286600D03*
X340700Y-266100D03*
X339700Y-225200D03*
X330200Y-213600D03*
X339600Y-212000D03*
X336700Y-134500D03*
X337900Y-127500D03*
X336900Y-110500D03*
X337100Y-117500D03*
X342300Y-40700D03*
X329300D03*
X342700Y-32700D03*
X331600Y-16000D03*
X332700Y-28200D03*
X335800Y-8900D03*
X339200Y900D03*
X331600Y18900D03*
X329000Y84500D03*
Y77000D03*
X330500Y109500D03*
X330300Y102200D03*
X338000Y225600D03*
X338100Y240700D03*
X342700Y254500D03*
X342900Y257300D03*
X324800Y278900D03*
X329000Y288700D03*
X351961Y-239861D03*
X346800Y-249925D03*
X359961Y-239861D03*
X363200Y-234400D03*
X353500Y-231100D03*
X353300Y-224000D03*
X353500Y-206100D03*
X363240Y-202360D03*
X363400Y-206100D03*
X354900Y-189000D03*
X361600Y-179000D03*
X349500Y-157900D03*
X364300Y-147900D03*
X345831Y-25800D03*
X344600Y-16000D03*
X348800Y-9000D03*
X354160Y-10840D03*
X354100Y-7100D03*
X355400Y41000D03*
X359140Y39860D03*
X349500Y44000D03*
X345700Y33900D03*
X355400Y50000D03*
X363300Y64700D03*
X359140Y59360D03*
X355400Y59400D03*
X349500Y64700D03*
X363700Y74300D03*
X348000D03*
X352500Y223000D03*
X344700Y233500D03*
X354000Y252800D03*
D03*
X346400Y283800D03*
X355600Y292600D03*
X366700Y-286100D03*
X383300Y-232600D03*
X368520Y-242420D03*
X368800Y-213700D03*
X383600Y-206300D03*
X376900Y-189000D03*
X380600Y-149100D03*
X373600Y-149200D03*
Y-163200D03*
X380600D03*
X375920Y-140280D03*
X382900Y-36700D03*
X365840Y-10840D03*
X382800Y2500D03*
X383618Y7384D03*
X369100Y193400D03*
X374500Y227300D03*
X403300Y-247500D03*
X399200Y-226600D03*
X394600Y-130300D03*
X401600Y-130200D03*
X399852Y-132948D03*
X394600Y-116900D03*
X401600D03*
X399900Y-113000D03*
X399800Y-75500D03*
X391400Y89200D03*
X395100Y99200D03*
X397200Y198300D03*
X426900Y-285400D03*
X430798Y-198202D03*
X427000Y-188500D03*
X411000Y-205500D03*
Y-198500D03*
X427000Y-202000D03*
X415800Y-158200D03*
X420800Y-127000D03*
X420900Y-120000D03*
X421800Y-43100D03*
X418300Y-52600D03*
X417000Y-30000D03*
X410700Y85200D03*
X417700Y85300D03*
X410700Y98800D03*
X412948Y101748D03*
X417700Y99000D03*
X445200Y-286100D03*
X450900Y-218400D03*
X447400Y-205600D03*
X446261Y-200261D03*
X451000Y-196000D03*
X436900Y-204100D03*
X444000Y-188500D03*
X441100Y-168400D03*
X449000Y-144200D03*
X437800Y-41600D03*
Y-56600D03*
X436300Y-51600D03*
X435300Y-44100D03*
X436900Y-46700D03*
X436520Y109480D03*
X448300Y116600D03*
X436200Y122600D03*
X432200Y132300D03*
X439200Y132700D03*
X444500Y198600D03*
X452500Y242500D03*
X447900Y259400D03*
X444000Y258000D03*
Y261500D03*
X455563Y-205437D03*
X460000Y-193500D03*
X468900Y-168400D03*
X461100Y-151300D03*
X457600Y-160600D03*
X464600D03*
X461380Y-137280D03*
X471800Y-42100D03*
X469300Y-46600D03*
X470200Y-56700D03*
X470400Y-51700D03*
X469800Y12100D03*
X455500Y242500D03*
X480600Y-126300D03*
X488100Y-126100D03*
X484852Y-129552D03*
X480600Y-112700D03*
X488100Y-112900D03*
X478300Y-61100D03*
X476263Y-39563D03*
X486300Y-43600D03*
X475400Y-51700D03*
X489800Y-34600D03*
X495800Y70200D03*
Y83400D03*
X479500Y74500D03*
X477500Y82700D03*
X478000Y89700D03*
X478700Y201000D03*
X482900Y253500D03*
X497600Y-284400D03*
X499000Y-156500D03*
X507700Y-125500D03*
X507600Y-118500D03*
X517500Y43000D03*
X509500D03*
X511000Y64500D03*
X503300Y70500D03*
Y83500D03*
X514500Y106000D03*
X515500Y181700D03*
X496900Y169500D03*
X498000Y225000D03*
X499900Y282000D03*
X524000Y-287100D03*
X528600Y-171400D03*
X526600Y-100900D03*
X525700Y48700D03*
X533100Y48400D03*
X533000Y35500D03*
X525500D03*
X527548Y52752D03*
X533300Y104800D03*
X529500Y95500D03*
X530500Y99000D03*
X524000Y115500D03*
X518051Y219200D03*
X537800Y233200D03*
Y249195D03*
X536500Y253000D03*
Y266000D03*
X557800Y-283700D03*
X559900Y-257700D03*
X558200Y-235700D03*
X550400Y-205600D03*
X556800Y-136900D03*
X544700Y-13600D03*
X553500Y48500D03*
X558800Y69300D03*
X550900Y69200D03*
X550620Y60280D03*
X558900Y82900D03*
X550900Y82700D03*
X544700Y91900D03*
X540300Y104600D03*
X555500Y138400D03*
X548500Y216000D03*
X557748Y217748D03*
X547100Y247300D03*
X553748Y245248D03*
X557748Y229748D03*
X547000Y234000D03*
X560000Y254500D03*
X553500Y263500D03*
X545600Y252700D03*
Y267400D03*
X540900Y288600D03*
X579800Y-284400D03*
X564300Y-219500D03*
X567600Y-60800D03*
X567500Y62500D03*
X567000Y224000D03*
X563600Y204300D03*
X581000Y228000D03*
X565748Y245248D03*
X578500Y259500D03*
X583200Y288200D03*
X569900Y286400D03*
X584500Y-186300D03*
X596900Y-173100D03*
X596300Y-103200D03*
X588600Y-88700D03*
X619700Y-283000D03*
X613600Y-200200D03*
X608500Y202800D03*
X607000Y234500D03*
X632900Y-265800D03*
X644400Y-246500D03*
X642700Y-216100D03*
X645100Y143500D03*
X635300Y174900D03*
X627500Y288200D03*
X651200Y-133900D03*
Y-62900D03*
X649800Y194900D03*
X653200Y226000D03*
X648800Y261800D03*
G54D20*
X179600Y71500D03*
X228600Y-94800D03*
Y10000D03*
X270700Y-49300D03*
X295000Y-182000D03*
X287200Y-49300D03*
X304100D03*
X328000Y-172000D03*
X365000Y-126000D03*
X418400Y29100D03*
X438100Y-154000D03*
X443200Y64700D03*
X459700Y86700D03*
X513500Y248200D03*
X513700Y273100D03*
X524600Y-141000D03*
X591400Y-141400D03*
X601000Y274300D03*
X642100Y214600D03*
G54D11*
X21700Y-122243D03*
X33708Y91851D03*
G54D12*
X108700Y-280400D03*
X107400Y282900D03*
X645500Y-280400D03*
X645200Y283100D03*
G54D21*
X214800Y-175800D03*
X224800D03*
X272600Y-107400D03*
X282600D03*
X421100Y-218400D03*
X431100D03*
X412400Y-101500D03*
X422400D03*
G54D22*
X226300Y-224000D03*
X220000Y-156000D03*
X223200Y251300D03*
X271900Y-142100D03*
X296900Y-252600D03*
X291900Y-72000D03*
X295100Y249200D03*
X312300Y-236700D03*
X327000Y-146900D03*
X326900Y-100400D03*
X339000Y-82500D03*
X336000Y39500D03*
X328800Y56600D03*
X374300Y-222000D03*
X383600Y113200D03*
Y135900D03*
X401500Y-198500D03*
X410500Y-181000D03*
X399800Y-101200D03*
X428100Y-169500D03*
X422500Y-66500D03*
X440500Y-105400D03*
X453900Y41500D03*
X455700Y-102500D03*
X469700Y59700D03*
X499100Y-170500D03*
X514600Y-161000D03*
Y-111000D03*
X505500Y208400D03*
X513700Y286800D03*
X532000Y207500D03*
X581400Y-163200D03*
Y-113200D03*
X576000Y32500D03*
X576200Y55600D03*
X574000Y101700D03*
X582300Y123400D03*
X587500Y184000D03*
X601100Y287600D03*
X629200Y-135600D03*
X632100Y231900D03*
G54D13*
X86100Y-253400D03*
Y-233400D03*
X96100D03*
X86100Y-243400D03*
X96100D03*
X86100Y-213400D03*
X96100D03*
X86100Y-223400D03*
X96100D03*
X86100Y-203400D03*
X96100D03*
G54D23*
X219400Y282800D03*
X327500Y261500D03*
Y251500D03*
X393500Y-27100D03*
Y-17100D03*
X407500Y-27100D03*
Y-17100D03*
G54D14*
X96100Y-253400D03*
G54D24*
X229400Y282800D03*
X327500Y241500D03*
X393500Y-7100D03*
X407500D03*
G54D15*
X155900Y-285500D03*
Y-265500D03*
X175900Y-285500D03*
Y-265500D03*
X230900Y-285500D03*
Y-265500D03*
X250900Y-285500D03*
Y-265500D03*
X305900Y-285500D03*
Y-265500D03*
X325900Y-285500D03*
Y-265500D03*
X380900Y-285500D03*
Y-265500D03*
X400900Y-285500D03*
Y-265500D03*
X545400Y-163200D03*
Y-183200D03*
Y-108200D03*
Y-88200D03*
X565400Y-163200D03*
Y-183200D03*
Y-108200D03*
Y-88200D03*
X600000Y28600D03*
Y48600D03*
Y103600D03*
Y123600D03*
X620400Y-183200D03*
Y-163200D03*
Y-108200D03*
Y-88200D03*
X620000Y28600D03*
Y48600D03*
Y103600D03*
Y123600D03*
X640400Y-183200D03*
Y-163200D03*
Y-108200D03*
Y-88200D03*
G54D16*
X165900Y-275500D03*
X240900D03*
X315900D03*
X390900D03*
X555400Y-173200D03*
Y-98200D03*
X610000Y38600D03*
Y113600D03*
X630400Y-173200D03*
Y-98200D03*
G54D25*
X250596Y256236D03*
G54D26*
X269100Y243638D03*
G54D17*
X164500Y188100D03*
X189805Y151405D03*
X184527Y168873D03*
X174100Y172700D03*
X175679Y174779D03*
X174647Y176747D03*
X175616Y178716D03*
Y180684D03*
X184505Y192495D03*
X189805Y197405D03*
X174147Y182653D03*
X187836Y207436D03*
X211300Y151900D03*
X201616Y161584D03*
X191700Y207300D03*
X201400Y208300D03*
X193800Y212400D03*
X197679Y207921D03*
X199647Y206453D03*
X206100Y240300D03*
X218400Y136400D03*
X220747Y176747D03*
X220721Y174779D03*
X220742Y170842D03*
X220705Y166905D03*
X231490Y172810D03*
X230516Y178716D03*
X220384Y180684D03*
X230658Y188558D03*
X219647Y182653D03*
X231924Y190539D03*
X230700Y192500D03*
X230379Y184621D03*
X217364Y208736D03*
X213427Y216027D03*
X215600Y206912D03*
X305100Y-125000D03*
X315000Y-123000D03*
Y-121100D03*
G54D27*
X269100Y268047D03*
G54D18*
X152839Y275579D03*
X170161D03*
G54D28*
G01X261297Y235133D02*
X262177D01*
G01X261700Y236000D02*
Y234267D01*
G01X264003Y237133D02*
X264223Y237533D01*
X264480Y237733D01*
X264773Y237800D01*
X265140Y237667D01*
X265397Y237333D01*
X265470Y236933D01*
X265433Y236533D01*
X265287Y236200D01*
X264553Y235533D01*
X264223Y235067D01*
X264003Y234400D01*
X263930Y233800D01*
X265470D01*
G01X267700Y237800D02*
X267407Y237667D01*
X267187Y237333D01*
X267040Y236933D01*
X266930Y236400D01*
X266893Y235800D01*
X266930Y235200D01*
X267040Y234667D01*
X267187Y234267D01*
X267407Y233933D01*
X267700Y233800D01*
X267993Y233933D01*
X268213Y234267D01*
X268360Y234667D01*
X268470Y235200D01*
X268507Y235800D01*
X268470Y236400D01*
X268360Y236933D01*
X268213Y237333D01*
X267993Y237667D01*
X267700Y237800D01*
G01X269783D02*
X270700Y233800D01*
X271617Y237800D01*
G54D19*
X179600Y21500D03*
Y31500D03*
Y41500D03*
Y51500D03*
Y61500D03*
X228600Y-144800D03*
Y-134800D03*
Y-124800D03*
Y-114800D03*
Y-104800D03*
Y-80000D03*
Y-70000D03*
Y-60000D03*
Y-50000D03*
Y-40000D03*
Y-30000D03*
Y-20000D03*
Y-10000D03*
Y0D03*
X270700Y-39300D03*
Y-29300D03*
X285000Y-172000D03*
X295000D03*
X285000Y-182000D03*
Y-162000D03*
X295000D03*
X287200Y-39300D03*
Y-29300D03*
X304100Y-39300D03*
Y-29300D03*
X338000Y-172000D03*
Y-182000D03*
X328000D03*
X355000Y-126000D03*
Y-106000D03*
Y-116000D03*
X365000Y-106000D03*
Y-116000D03*
X355000Y-86000D03*
X365000D03*
X355000Y-96000D03*
X365000D03*
X428100Y-154000D03*
Y-144000D03*
Y-124000D03*
Y-134000D03*
X428400Y29100D03*
Y19100D03*
X418400D03*
X433200Y64700D03*
Y74700D03*
X438100Y-144000D03*
Y-124000D03*
Y-134000D03*
X443200Y74700D03*
X459700Y96700D03*
X469700D03*
Y86700D03*
X514600Y-141000D03*
Y-131000D03*
X513500Y238200D03*
X513700Y263100D03*
X524600Y-131000D03*
X523500Y248200D03*
Y238200D03*
X523700Y263100D03*
Y273100D03*
X581400Y-141400D03*
Y-131400D03*
X591400D03*
X601000Y264300D03*
X622100Y204600D03*
Y214600D03*
X611000Y264300D03*
Y274300D03*
X632100Y204600D03*
X642100D03*
X632100Y214600D03*
M02*
