G04 ================== begin FILE IDENTIFICATION RECORD ==================*
G04 Layout Name:  reggio_rev3.brd*
G04 Film Name:    PASTEMASK-TOP*
G04 File Format:  Gerber RS274X*
G04 File Origin:  Cadence Allegro 16.6-S011*
G04 Origin Date:  Mon Jul 14 13:56:51 2014*
G04 *
G04 Layer:  PIN/PASTEMASK_TOP*
G04 *
G04 Offset:    (0.00 0.00)*
G04 Mirror:    No*
G04 Mode:      Positive*
G04 Rotation:  0*
G04 FullContactRelief:  No*
G04 UndefLineWidth:     6.00*
G04 ================== end FILE IDENTIFICATION RECORD ====================*
%FSLAX25Y25*MOIN*%
%IR0*IPPOS*OFA0.00000B0.00000*MIA0B0*SFA1.00000B1.00000*%
%ADD34R,.06496X.09449*%
%ADD12R,.08858X.02559*%
%ADD15R,.01969X.08858*%
%ADD37R,.10236X.05906*%
%ADD21R,.08465X.10236*%
%ADD24R,.06693X.10039*%
%ADD17R,.0378X.0378*%
%ADD14R,.03X.038*%
%ADD10R,.038X.03*%
%ADD27R,.05315X.06102*%
%ADD18R,.06102X.05315*%
%ADD35O,.03346X.01181*%
%ADD28R,.04134X.02362*%
%ADD33O,.01575X.0374*%
%ADD29R,.05315X.03543*%
%ADD20O,.0374X.01575*%
%ADD40R,.04724X.04921*%
%ADD38O,.03346X.01378*%
%ADD16R,.04921X.01772*%
%ADD39R,.02953X.04921*%
%ADD26R,.03346X.09055*%
%ADD13R,.02559X.04921*%
%ADD31R,.04921X.02559*%
%ADD41R,.04528X.08661*%
%ADD25R,.02756X.01378*%
%ADD42R,.01772X.06299*%
%ADD22R,.06496X.01772*%
%ADD36R,.06299X.01772*%
%ADD23R,.02559X.0689*%
%ADD19R,.0378X.05669*%
%ADD32R,.05669X.0378*%
%ADD30R,.0689X.02559*%
%ADD43R,.09449X.07087*%
%ADD44R,.07087X.09449*%
%ADD11R,.07874X.09843*%
%LPD*%
G75*
G54D10*
X75400Y-105000D03*
X69200D03*
X75400Y-121000D03*
X69200D03*
Y-113000D03*
X75400D03*
X69200Y-81000D03*
X75400D03*
X69200Y-97000D03*
X75400D03*
X69200Y-89000D03*
X75400D03*
X69200Y-65000D03*
X75400D03*
X69200Y-57000D03*
X75400D03*
X69200Y-73000D03*
X75400D03*
X69200Y-41000D03*
X75400D03*
X69200Y-49000D03*
X75400D03*
X69200Y-17000D03*
X75400D03*
X69200Y-33000D03*
X75400D03*
X69200Y-25000D03*
X75400D03*
X69200Y-1000D03*
X75400D03*
X69200Y7000D03*
X75400D03*
X69200Y-9000D03*
X75400D03*
X69200Y31000D03*
X75400D03*
X69200Y15000D03*
X75400D03*
X69200Y23000D03*
X75400D03*
X69200Y47000D03*
X75400D03*
X69200Y39000D03*
X75400D03*
X69200Y55000D03*
X75400D03*
Y82500D03*
X69200D03*
X125400Y-900D03*
X142300Y-143400D03*
X136100D03*
X142400Y-150400D03*
X136200D03*
X142400Y-136400D03*
X136200D03*
X131600Y-900D03*
X144600Y172200D03*
Y180200D03*
Y164200D03*
X144500Y204300D03*
X144600Y188200D03*
X144700Y196200D03*
X170300Y-239800D03*
X161300Y-175400D03*
X155100D03*
X161300Y-168400D03*
X155100D03*
X159800Y-62900D03*
X153600D03*
X159800Y-55900D03*
X153600D03*
X160100Y4000D03*
X153900D03*
X160100Y11000D03*
X153900D03*
X158800Y65000D03*
X152600D03*
X158800Y57000D03*
X152600D03*
X150800Y172200D03*
Y180200D03*
Y164200D03*
X150700Y204300D03*
X150800Y188200D03*
X150900Y196200D03*
X176500Y-239800D03*
X192500Y-168100D03*
Y-175100D03*
X188200Y-63100D03*
Y-56100D03*
X185900Y4000D03*
X192100D03*
X185900Y11000D03*
X192100D03*
X194800Y-228300D03*
X201000D03*
X194800Y-220800D03*
X201000D03*
X198700Y-168100D03*
Y-175100D03*
X209000Y-78500D03*
X210500Y-97400D03*
X204300D03*
X209000Y-68500D03*
X194400Y-63100D03*
Y-56100D03*
X213100Y-26200D03*
X206900D03*
X213100Y-33500D03*
X206900D03*
X211100Y0D03*
Y10100D03*
X226500Y-249800D03*
X220300D03*
X226500Y-241800D03*
X220300D03*
X215200Y-78500D03*
Y-68500D03*
X217300Y0D03*
Y10100D03*
X236000Y238200D03*
X245700Y151700D03*
X239500D03*
Y159700D03*
X245700D03*
X243900Y184300D03*
X237700D03*
X242200Y238200D03*
X279100Y-120000D03*
X272900D03*
X276300Y-98400D03*
X285100Y-135800D03*
X291300D03*
X282500Y-98400D03*
X314500Y-200D03*
X308300D03*
X304000Y25100D03*
X310200D03*
X304000Y32100D03*
X310200D03*
X319500Y84300D03*
Y77100D03*
X319700Y109500D03*
Y102200D03*
X309600Y266200D03*
X315800D03*
X331900Y-236700D03*
X325700D03*
Y-244700D03*
X331900D03*
X332700Y-40700D03*
X338900D03*
X335000Y-16000D03*
X341200D03*
X332700Y-32700D03*
X338900D03*
X332600Y-24600D03*
X338800D03*
X339200Y-1900D03*
X345400D03*
X339200Y-9000D03*
X345400D03*
X325700Y84300D03*
Y77100D03*
X325900Y109500D03*
Y102200D03*
X341700Y240800D03*
X335200Y291700D03*
X329000D03*
X356900Y-231100D03*
X363100D03*
X356900Y-224000D03*
X363100D03*
X365100Y-144500D03*
Y-137500D03*
X353100Y64700D03*
X359300D03*
X347900Y240800D03*
X379400Y-245200D03*
X373200D03*
X371300Y-144500D03*
X388000Y-152500D03*
Y-159500D03*
X371300Y-137500D03*
X394200Y-152500D03*
Y-159500D03*
X395100Y96200D03*
X401300D03*
X407300Y81000D03*
X401100D03*
X395100Y89200D03*
X401300D03*
X395100Y113200D03*
X401300D03*
X421100Y-205500D03*
X414900D03*
Y-198500D03*
X421100D03*
X417200Y-144000D03*
X411000D03*
X417200Y-127000D03*
X411000D03*
X417200Y-134000D03*
X411000D03*
X417400Y-112000D03*
X411200D03*
X417200Y-120000D03*
X411000D03*
X425300Y-43400D03*
X431500D03*
X418600Y122200D03*
X424800D03*
X418600Y129200D03*
X424800D03*
X440800Y-218400D03*
X447000D03*
X449000Y-134000D03*
Y-141000D03*
X442100Y106700D03*
X448300D03*
X442100Y113700D03*
X448300D03*
X473000Y-149000D03*
Y-156000D03*
X455200Y-134000D03*
Y-141000D03*
X475600Y-43700D03*
X475900Y74700D03*
X469700D03*
X479200Y-149000D03*
Y-156000D03*
X497500Y-125500D03*
Y-132500D03*
Y-139500D03*
Y-118500D03*
X481800Y-43700D03*
X481500Y89700D03*
X487700D03*
X481500Y96700D03*
X487700D03*
X481500Y82700D03*
X487700D03*
X481500Y103800D03*
X487700D03*
X503700Y-125500D03*
Y-132500D03*
Y-139500D03*
Y-118500D03*
X511100Y74000D03*
X517300D03*
X511100Y81000D03*
X517300D03*
X533600Y72000D03*
X539800D03*
X533700Y91900D03*
X539900D03*
X533600Y79200D03*
X539800D03*
X533700Y99100D03*
X539900D03*
X557400Y48500D03*
Y55600D03*
Y62700D03*
X558400Y236000D03*
X559900Y287000D03*
Y280000D03*
Y273000D03*
X563600Y48500D03*
Y55600D03*
Y62700D03*
X564600Y236000D03*
X566100Y287000D03*
Y280000D03*
Y273000D03*
G54D11*
X143980Y265539D03*
Y286996D03*
X179020Y265539D03*
Y286996D03*
G54D20*
X245194Y-175840D03*
Y-172100D03*
Y-168360D03*
X257006D03*
Y-172100D03*
Y-175840D03*
X359406Y-202360D03*
Y-206100D03*
Y-209840D03*
X347594D03*
Y-206100D03*
Y-202360D03*
G54D30*
X350776Y-35900D03*
Y-30900D03*
Y-25900D03*
Y-20900D03*
X372824Y-35900D03*
Y-20900D03*
Y-25900D03*
Y-30900D03*
X442676Y-56700D03*
Y-51700D03*
Y-46700D03*
Y-41700D03*
X464724D03*
Y-46700D03*
Y-51700D03*
Y-56700D03*
G54D21*
X259800Y181657D03*
Y201343D03*
G54D12*
X154499Y-158400D03*
Y-153400D03*
Y-148400D03*
Y-143400D03*
Y-138400D03*
Y-133400D03*
Y-128400D03*
Y-123400D03*
Y-107800D03*
Y-102800D03*
Y-97800D03*
Y-92800D03*
Y-87800D03*
Y-82800D03*
Y-77800D03*
Y-72800D03*
Y-40900D03*
Y-35900D03*
Y-30900D03*
Y-25900D03*
Y-20900D03*
Y-15900D03*
Y-10900D03*
Y-5900D03*
X191901Y-148400D03*
Y-153400D03*
Y-158400D03*
Y-123400D03*
Y-128400D03*
Y-133400D03*
Y-138400D03*
Y-143400D03*
Y-102800D03*
Y-107800D03*
Y-82800D03*
Y-87800D03*
Y-92800D03*
Y-97800D03*
Y-72800D03*
Y-77800D03*
Y-35900D03*
Y-40900D03*
Y-15900D03*
Y-20900D03*
Y-25900D03*
Y-30900D03*
Y-5900D03*
Y-10900D03*
G54D22*
X268692Y-7875D03*
Y-5316D03*
Y-2757D03*
Y-198D03*
Y2361D03*
Y4920D03*
Y7480D03*
Y10039D03*
Y12598D03*
Y15157D03*
Y17716D03*
Y20275D03*
X292708Y7480D03*
Y4920D03*
Y2361D03*
Y-198D03*
Y-2757D03*
Y-5316D03*
Y-7875D03*
Y20275D03*
Y17716D03*
Y15157D03*
Y12598D03*
Y10039D03*
G54D31*
X358391Y-10840D03*
Y-7100D03*
Y-3360D03*
X369809D03*
Y-7100D03*
Y-10840D03*
G54D13*
X160940Y34791D03*
X157200D03*
X153460D03*
Y46209D03*
X157200D03*
X160940D03*
X242840Y216491D03*
X239100D03*
X235360D03*
Y227909D03*
X239100D03*
X242840D03*
G54D40*
X461240Y238909D03*
X461440Y280609D03*
G54D32*
X355400Y50000D03*
G54D23*
X275500Y82376D03*
Y104424D03*
X295500Y82376D03*
X290500D03*
X285500D03*
X280500D03*
Y104424D03*
X285500D03*
X290500D03*
X295500D03*
X310500Y82376D03*
X305500D03*
X300500D03*
Y104424D03*
X305500D03*
X310500D03*
G54D41*
X493944Y225200D03*
X488256D03*
X493944Y240900D03*
X488256D03*
X492044Y266300D03*
X486356D03*
X492044Y282000D03*
X486356D03*
G54D14*
X157000Y235900D03*
Y229700D03*
X164800Y235900D03*
Y229700D03*
X190600Y212600D03*
Y218800D03*
X172600Y235900D03*
Y229700D03*
X197600Y212600D03*
Y218800D03*
X204600Y212600D03*
Y218800D03*
X214600Y124100D03*
Y130300D03*
X222600Y124100D03*
Y130300D03*
X230600Y124100D03*
Y130300D03*
X264900Y-169000D03*
Y-175200D03*
X266600Y-72100D03*
Y-65900D03*
X275000Y-72100D03*
Y-65900D03*
X270900Y68000D03*
Y61800D03*
X277900Y68000D03*
Y61800D03*
X278600Y119900D03*
Y126100D03*
X272200Y181400D03*
Y187600D03*
Y195400D03*
Y201600D03*
X296000Y27800D03*
X288700D03*
X280900Y28200D03*
X296000Y34000D03*
X288700D03*
X280900Y34400D03*
X284900Y68000D03*
Y61800D03*
X291900D03*
Y68000D03*
X299300Y61800D03*
Y68000D03*
X300500Y119900D03*
Y126100D03*
X285600Y119900D03*
Y126100D03*
X319100Y-124700D03*
X302700Y-141900D03*
Y-135700D03*
X319100Y-118500D03*
X302500Y-16600D03*
X310300Y-16700D03*
X302500Y-10400D03*
X310300Y-10500D03*
X306900Y61900D03*
Y68100D03*
X339600Y-208600D03*
Y-202400D03*
X352500Y226400D03*
Y232600D03*
X373600Y-159100D03*
Y-152900D03*
X380600Y-159100D03*
Y-152900D03*
X383000Y-33300D03*
Y-27100D03*
X382800Y-900D03*
Y-7100D03*
X394600Y-126600D03*
X401600D03*
X394600Y-120400D03*
X401600D03*
X417700Y89100D03*
Y95300D03*
X410700Y89100D03*
Y95300D03*
X432200Y128800D03*
Y122600D03*
X451000Y-199400D03*
Y-205600D03*
X439200Y128800D03*
Y122600D03*
X464600Y-156600D03*
Y-150400D03*
X457600Y-156600D03*
Y-150400D03*
X480600Y-122600D03*
X488100D03*
X480600Y-116400D03*
X488100D03*
X478200Y-57900D03*
Y-51700D03*
X495800Y73800D03*
Y80000D03*
X517300Y46300D03*
Y52500D03*
X501400Y46300D03*
Y52500D03*
X509400Y46300D03*
Y52500D03*
X503400Y73900D03*
X517300Y66500D03*
Y60300D03*
X503400Y80100D03*
X528600Y-167200D03*
Y-161000D03*
X526600Y-104800D03*
Y-111000D03*
X533100Y39000D03*
Y45200D03*
X525700Y39000D03*
Y45200D03*
X524000Y105700D03*
Y111900D03*
X533300Y114200D03*
Y108000D03*
X540300Y114200D03*
Y108000D03*
X536500Y256900D03*
Y263100D03*
X550900Y72700D03*
X558800D03*
X550900Y78900D03*
X558800D03*
X548500Y219400D03*
Y225600D03*
X547000Y243900D03*
Y237700D03*
X596900Y-169400D03*
Y-163200D03*
X596300Y-107000D03*
Y-113200D03*
X598100Y223800D03*
Y217600D03*
X589800Y223600D03*
Y217400D03*
X607000Y224900D03*
Y231100D03*
G54D42*
X561280Y245248D03*
X558720D03*
X556161D03*
Y263752D03*
X558720D03*
X561280D03*
X563839Y245248D03*
Y263752D03*
G54D33*
X359140Y44094D03*
X355400D03*
X351660D03*
Y55906D03*
X355400D03*
X359140D03*
G54D24*
X297200Y-124000D03*
G54D15*
X155201Y265047D03*
X158350D03*
X161500D03*
X164650D03*
X167799D03*
G54D43*
X560000Y254500D03*
G54D25*
X291393Y-128921D03*
Y-126953D03*
Y-124984D03*
Y-123016D03*
Y-121047D03*
Y-119079D03*
X303007Y-123016D03*
Y-124984D03*
Y-126953D03*
Y-128921D03*
Y-119079D03*
Y-121047D03*
G54D16*
X187829Y-245139D03*
Y-242580D03*
Y-240020D03*
Y-237461D03*
X203971D03*
Y-240020D03*
Y-242580D03*
Y-245139D03*
X362871Y-239861D03*
Y-242420D03*
Y-244980D03*
Y-247539D03*
X346729D03*
Y-244980D03*
Y-242420D03*
Y-239861D03*
G54D34*
X354000Y252800D03*
G54D44*
X567000Y224000D03*
G54D26*
X309538Y-136400D03*
X314262D03*
G54D35*
X360102Y256737D03*
Y254769D03*
Y252800D03*
Y250831D03*
Y248863D03*
X347898D03*
Y250831D03*
Y252800D03*
Y254769D03*
Y256737D03*
G54D17*
X206100Y236300D03*
Y230100D03*
X335200Y278900D03*
X329000D03*
X360500Y232900D03*
Y239100D03*
G54D36*
X381348Y-135161D03*
Y-137720D03*
Y-140280D03*
Y-142839D03*
X399852D03*
Y-140280D03*
Y-137720D03*
Y-135161D03*
X412948Y112039D03*
Y109480D03*
Y106920D03*
Y104361D03*
X431452D03*
Y106920D03*
Y109480D03*
Y112039D03*
X466348Y-132161D03*
Y-134720D03*
Y-137280D03*
Y-139839D03*
X484852D03*
Y-137280D03*
Y-134720D03*
Y-132161D03*
X505448Y94480D03*
Y91920D03*
Y89361D03*
Y97039D03*
X527548Y62839D03*
Y60280D03*
Y57720D03*
Y55161D03*
X523952Y89361D03*
Y91920D03*
Y94480D03*
Y97039D03*
X546052Y55161D03*
Y57720D03*
Y60280D03*
Y62839D03*
X557748Y220161D03*
Y222720D03*
Y225280D03*
Y227839D03*
X576252Y225280D03*
Y222720D03*
Y220161D03*
Y227839D03*
G54D18*
X235700Y-175437D03*
Y-167563D03*
X273600Y-176237D03*
Y-168363D03*
X330300Y-210337D03*
Y-202463D03*
X368800Y-210137D03*
Y-202263D03*
X460000Y-205437D03*
Y-197563D03*
X473800Y237337D03*
Y229463D03*
X472500Y271363D03*
Y279237D03*
X513500Y227137D03*
Y219263D03*
X537800Y237163D03*
Y245037D03*
X545600Y263637D03*
Y255763D03*
X578500Y264563D03*
Y272437D03*
X608500Y215037D03*
Y207163D03*
G54D27*
X319363Y18900D03*
X315237Y275600D03*
X307363D03*
X327237Y18900D03*
X357737Y33900D03*
X349863D03*
X359737Y74300D03*
X351863D03*
X431563Y-188500D03*
X430637Y-52600D03*
X422763D03*
X439437Y-188500D03*
X476263Y-34700D03*
X484137D03*
X495437Y253500D03*
X487563D03*
G54D19*
X251100Y-172100D03*
X353500Y-206100D03*
X436900Y-204100D03*
G54D28*
X316112Y8700D03*
X305088D03*
G54D37*
X384010Y239400D03*
Y249400D03*
Y259400D03*
Y269400D03*
X437790Y249400D03*
Y239400D03*
Y269400D03*
Y259400D03*
G54D38*
X430798Y-207939D03*
Y-205380D03*
Y-202820D03*
Y-200261D03*
X443002D03*
Y-202820D03*
Y-205380D03*
Y-207939D03*
G54D29*
X302215Y286600D03*
X316585D03*
G54D39*
X461240Y227491D03*
X453760D03*
Y238909D03*
X461440Y269191D03*
X453960D03*
Y280609D03*
M02*
