G04 ================== begin FILE IDENTIFICATION RECORD ==================*
G04 Layout Name:  reggio_rev3.brd*
G04 Film Name:    PASTEMASK-BOTTOM*
G04 File Format:  Gerber RS274X*
G04 File Origin:  Cadence Allegro 16.6-S011*
G04 Origin Date:  Mon Jul 14 13:56:51 2014*
G04 *
G04 Layer:  PIN/PASTEMASK_BOTTOM*
G04 *
G04 Offset:    (0.00 0.00)*
G04 Mirror:    No*
G04 Mode:      Positive*
G04 Rotation:  0*
G04 FullContactRelief:  No*
G04 UndefLineWidth:     6.00*
G04 ================== end FILE IDENTIFICATION RECORD ====================*
%FSLAX25Y25*MOIN*%
%IR0*IPPOS*OFA0.00000B0.00000*MIA0B0*SFA1.00000B1.00000*%
%ADD10C,.0252*%
%ADD12R,.03X.038*%
%ADD11R,.038X.03*%
%ADD15R,.05315X.06102*%
%ADD17R,.02362X.04134*%
%ADD16R,.03346X.09055*%
%ADD13R,.01181X.06693*%
%ADD14R,.06693X.01181*%
%LPD*%
G75*
G54D10*
X9200Y-102700D03*
Y-107700D03*
Y-112700D03*
X14200Y-102700D03*
Y-107700D03*
Y-112700D03*
X9200Y-82700D03*
Y-87700D03*
Y-92700D03*
Y-97700D03*
X14200Y-82700D03*
Y-87700D03*
Y-92700D03*
Y-97700D03*
X9200Y-57700D03*
Y-62700D03*
Y-67700D03*
Y-72700D03*
Y-77700D03*
X14200Y-57700D03*
Y-62700D03*
Y-67700D03*
Y-72700D03*
Y-77700D03*
X9200Y-37700D03*
Y-42700D03*
Y-47700D03*
Y-52700D03*
X14200Y-37700D03*
Y-42700D03*
Y-47700D03*
Y-52700D03*
X9200Y-17700D03*
Y-22700D03*
Y-27700D03*
Y-32700D03*
X14200Y-17700D03*
Y-22700D03*
Y-27700D03*
Y-32700D03*
X9200Y7300D03*
Y2300D03*
Y-2700D03*
Y-7700D03*
Y-12700D03*
X14200Y7300D03*
Y2300D03*
Y-2700D03*
Y-7700D03*
Y-12700D03*
X9200Y27300D03*
Y22300D03*
Y17300D03*
Y12300D03*
X14200Y27300D03*
Y22300D03*
Y17300D03*
Y12300D03*
X9200Y47300D03*
Y42300D03*
Y37300D03*
Y32300D03*
X14200Y47300D03*
Y42300D03*
Y37300D03*
Y32300D03*
X9200Y72300D03*
Y67300D03*
Y62300D03*
Y57300D03*
Y52300D03*
X14200Y72300D03*
Y67300D03*
Y62300D03*
Y57300D03*
Y52300D03*
X9200Y82300D03*
Y77300D03*
X14200Y82300D03*
Y77300D03*
X29200Y-102700D03*
Y-107700D03*
Y-112700D03*
X34200Y-102700D03*
Y-107700D03*
Y-112700D03*
X29200Y-82700D03*
Y-87700D03*
Y-92700D03*
Y-97700D03*
X34200Y-82700D03*
Y-87700D03*
Y-92700D03*
Y-97700D03*
X29200Y-57700D03*
Y-62700D03*
Y-67700D03*
Y-72700D03*
Y-77700D03*
X34200Y-57700D03*
Y-62700D03*
Y-67700D03*
Y-72700D03*
Y-77700D03*
X29200Y-37700D03*
Y-42700D03*
Y-47700D03*
Y-52700D03*
X34200Y-37700D03*
Y-42700D03*
Y-47700D03*
Y-52700D03*
X29200Y-17700D03*
Y-22700D03*
Y-27700D03*
Y-32700D03*
X34200Y-17700D03*
Y-22700D03*
Y-27700D03*
Y-32700D03*
X29200Y7300D03*
Y2300D03*
Y-2700D03*
Y-7700D03*
Y-12700D03*
X34200Y7300D03*
Y2300D03*
Y-2700D03*
Y-7700D03*
Y-12700D03*
X29200Y27300D03*
Y22300D03*
Y17300D03*
Y12300D03*
X34200Y27300D03*
Y22300D03*
Y17300D03*
Y12300D03*
X29200Y47300D03*
Y42300D03*
Y37300D03*
Y32300D03*
X34200Y47300D03*
Y42300D03*
Y37300D03*
Y32300D03*
X29200Y72300D03*
Y67300D03*
Y62300D03*
Y57300D03*
Y52300D03*
X34200Y72300D03*
Y67300D03*
Y62300D03*
Y57300D03*
Y52300D03*
X29200Y82300D03*
Y77300D03*
X34200Y82300D03*
Y77300D03*
G54D11*
X143800Y180200D03*
Y172200D03*
Y164200D03*
X143900Y188200D03*
X150000Y180200D03*
Y172200D03*
Y164200D03*
X163000Y182700D03*
X169200D03*
X163000Y172700D03*
X169200D03*
X150100Y188200D03*
X236500Y238200D03*
X239000Y151700D03*
X245200D03*
Y159700D03*
X239000D03*
X244300Y169300D03*
X238100D03*
X244300Y183300D03*
X238100D03*
X244300Y176300D03*
X238100D03*
X244300Y190300D03*
X238100D03*
X244300Y197300D03*
X238100D03*
X242700Y238200D03*
X333200Y-127500D03*
X327000D03*
X333200Y-134500D03*
X327000D03*
X333200Y-117500D03*
X327000D03*
X333200Y-110500D03*
X327000D03*
G54D12*
X164300Y-104000D03*
Y-97800D03*
X189600Y140100D03*
Y146300D03*
X188100Y218800D03*
Y212600D03*
X209000Y141000D03*
Y147200D03*
X200000Y218800D03*
Y212600D03*
X206100Y230100D03*
Y236300D03*
X214600Y131300D03*
Y125100D03*
X222600Y131300D03*
Y125100D03*
X230600Y131300D03*
Y125100D03*
X217600Y219300D03*
Y213100D03*
X292900Y-126600D03*
Y-120400D03*
X311400Y-125000D03*
Y-118800D03*
X316900Y258200D03*
Y252000D03*
X309900D03*
Y258200D03*
G54D13*
X187836Y156865D03*
X189805D03*
Y202535D03*
X187836D03*
X191773Y156865D03*
X193742D03*
X195710D03*
X197679D03*
X199647D03*
X201616D03*
X203584D03*
X205553D03*
X207521D03*
X209490D03*
X211458D03*
Y202535D03*
X209490D03*
X207521D03*
X205553D03*
X203584D03*
X201616D03*
X199647D03*
X197679D03*
X195710D03*
X193742D03*
X191773D03*
X213427Y156865D03*
X215395D03*
X217364D03*
Y202535D03*
X215395D03*
X213427D03*
G54D14*
X179765Y180684D03*
Y178716D03*
Y176747D03*
Y174779D03*
Y172810D03*
Y170842D03*
Y168873D03*
Y166905D03*
Y164936D03*
Y194464D03*
Y192495D03*
Y190527D03*
Y188558D03*
Y186590D03*
Y184621D03*
Y182653D03*
X225435Y164936D03*
Y166905D03*
Y168873D03*
Y170842D03*
Y172810D03*
Y174779D03*
Y176747D03*
Y178716D03*
Y180684D03*
Y182653D03*
Y184621D03*
Y186590D03*
Y188558D03*
Y190527D03*
Y192495D03*
Y194464D03*
G54D15*
X293937Y-16800D03*
X286063D03*
G54D16*
X309538Y-136400D03*
X314262D03*
G54D17*
X310300Y21088D03*
Y32112D03*
M02*
