G04 ================== begin FILE IDENTIFICATION RECORD ==================*
G04 Layout Name:  reggio_rev3.brd*
G04 Film Name:    SOLDERMASK-BOTTOM*
G04 File Format:  Gerber RS274X*
G04 File Origin:  Cadence Allegro 16.6-S011*
G04 Origin Date:  Mon Jul 14 13:56:50 2014*
G04 *
G04 Layer:  VIA CLASS/SOLDERMASK_BOTTOM*
G04 Layer:  PIN/SOLDERMASK_BOTTOM*
G04 Layer:  PACKAGE GEOMETRY/SOLDERMASK_BOTTOM*
G04 Layer:  BOARD GEOMETRY/SOLDERMASK_BOTTOM*
G04 *
G04 Offset:    (0.00 0.00)*
G04 Mirror:    No*
G04 Mode:      Positive*
G04 Rotation:  0*
G04 FullContactRelief:  No*
G04 UndefLineWidth:     6.00*
G04 ================== end FILE IDENTIFICATION RECORD ====================*
%FSLAX25Y25*MOIN*%
%IR0*IPPOS*OFA0.00000B0.00000*MIA0B0*SFA1.00000B1.00000*%
%ADD11C,.05*%
%ADD13C,.07*%
%ADD10C,.0252*%
%ADD30O,.16142X.05512*%
%ADD29O,.05512X.14173*%
%ADD24C,.066*%
%ADD31O,.14173X.05512*%
%ADD14R,.07X.07*%
%ADD19C,.03543*%
%ADD26R,.066X.066*%
%ADD16C,.08661*%
%ADD20C,.0689*%
%ADD27C,.06693*%
%ADD17C,.08268*%
%ADD25C,.06299*%
%ADD21R,.0689X.0689*%
%ADD28R,.06693X.06693*%
%ADD12C,.2*%
%ADD18R,.03X.038*%
%ADD15R,.038X.03*%
%ADD32R,.05315X.06102*%
%ADD34R,.02362X.04134*%
%ADD33R,.03346X.09055*%
%ADD22R,.01181X.06693*%
%ADD23R,.06693X.01181*%
G75*
%LPD*%
G75*
G36*
G01X447000Y2100D02*
Y-200D01*
X458100D01*
Y2100D01*
X447000D01*
G37*
G54D10*
X9200Y-102700D03*
Y-107700D03*
Y-112700D03*
X14200Y-102700D03*
Y-107700D03*
Y-112700D03*
X9200Y-82700D03*
Y-87700D03*
Y-92700D03*
Y-97700D03*
X14200Y-82700D03*
Y-87700D03*
Y-92700D03*
Y-97700D03*
X9200Y-57700D03*
Y-62700D03*
Y-67700D03*
Y-72700D03*
Y-77700D03*
X14200Y-57700D03*
Y-62700D03*
Y-67700D03*
Y-72700D03*
Y-77700D03*
X9200Y-37700D03*
Y-42700D03*
Y-47700D03*
Y-52700D03*
X14200Y-37700D03*
Y-42700D03*
Y-47700D03*
Y-52700D03*
X9200Y-17700D03*
Y-22700D03*
Y-27700D03*
Y-32700D03*
X14200Y-17700D03*
Y-22700D03*
Y-27700D03*
Y-32700D03*
X9200Y7300D03*
Y2300D03*
Y-2700D03*
Y-7700D03*
Y-12700D03*
X14200Y7300D03*
Y2300D03*
Y-2700D03*
Y-7700D03*
Y-12700D03*
X9200Y27300D03*
Y22300D03*
Y17300D03*
Y12300D03*
X14200Y27300D03*
Y22300D03*
Y17300D03*
Y12300D03*
X9200Y47300D03*
Y42300D03*
Y37300D03*
Y32300D03*
X14200Y47300D03*
Y42300D03*
Y37300D03*
Y32300D03*
X9200Y72300D03*
Y67300D03*
Y62300D03*
Y57300D03*
Y52300D03*
X14200Y72300D03*
Y67300D03*
Y62300D03*
Y57300D03*
Y52300D03*
X9200Y82300D03*
Y77300D03*
X14200Y82300D03*
Y77300D03*
X29200Y-102700D03*
Y-107700D03*
Y-112700D03*
X34200Y-102700D03*
Y-107700D03*
Y-112700D03*
X29200Y-82700D03*
Y-87700D03*
Y-92700D03*
Y-97700D03*
X34200Y-82700D03*
Y-87700D03*
Y-92700D03*
Y-97700D03*
X29200Y-57700D03*
Y-62700D03*
Y-67700D03*
Y-72700D03*
Y-77700D03*
X34200Y-57700D03*
Y-62700D03*
Y-67700D03*
Y-72700D03*
Y-77700D03*
X29200Y-37700D03*
Y-42700D03*
Y-47700D03*
Y-52700D03*
X34200Y-37700D03*
Y-42700D03*
Y-47700D03*
Y-52700D03*
X29200Y-17700D03*
Y-22700D03*
Y-27700D03*
Y-32700D03*
X34200Y-17700D03*
Y-22700D03*
Y-27700D03*
Y-32700D03*
X29200Y7300D03*
Y2300D03*
Y-2700D03*
Y-7700D03*
Y-12700D03*
X34200Y7300D03*
Y2300D03*
Y-2700D03*
Y-7700D03*
Y-12700D03*
X29200Y27300D03*
Y22300D03*
Y17300D03*
Y12300D03*
X34200Y27300D03*
Y22300D03*
Y17300D03*
Y12300D03*
X29200Y47300D03*
Y42300D03*
Y37300D03*
Y32300D03*
X34200Y47300D03*
Y42300D03*
Y37300D03*
Y32300D03*
X29200Y72300D03*
Y67300D03*
Y62300D03*
Y57300D03*
Y52300D03*
X34200Y72300D03*
Y67300D03*
Y62300D03*
Y57300D03*
Y52300D03*
X29200Y82300D03*
Y77300D03*
X34200Y82300D03*
Y77300D03*
G54D20*
X179600Y21500D03*
Y31500D03*
Y41500D03*
Y51500D03*
Y61500D03*
X228600Y-144800D03*
Y-134800D03*
Y-124800D03*
Y-114800D03*
Y-104800D03*
Y-80000D03*
Y-70000D03*
Y-60000D03*
Y-50000D03*
Y-40000D03*
Y-30000D03*
Y-20000D03*
Y-10000D03*
Y0D03*
X270700Y-39300D03*
Y-29300D03*
X285000Y-172000D03*
X295000D03*
X285000Y-182000D03*
Y-162000D03*
X295000D03*
X287200Y-39300D03*
Y-29300D03*
X304100Y-39300D03*
Y-29300D03*
X338000Y-172000D03*
Y-182000D03*
X328000D03*
X355000Y-126000D03*
Y-106000D03*
Y-116000D03*
X365000Y-106000D03*
Y-116000D03*
X355000Y-86000D03*
X365000D03*
X355000Y-96000D03*
X365000D03*
X428100Y-154000D03*
Y-144000D03*
Y-124000D03*
Y-134000D03*
X428400Y29100D03*
Y19100D03*
X418400D03*
X433200Y64700D03*
Y74700D03*
X438100Y-144000D03*
Y-124000D03*
Y-134000D03*
X443200Y74700D03*
X459700Y96700D03*
X469700D03*
Y86700D03*
X514600Y-141000D03*
Y-131000D03*
X513500Y238200D03*
X513700Y263100D03*
X524600Y-131000D03*
X523500Y248200D03*
Y238200D03*
X523700Y263100D03*
Y273100D03*
X581400Y-141400D03*
Y-131400D03*
X591400D03*
X601000Y264300D03*
X622100Y204600D03*
Y214600D03*
X611000Y264300D03*
Y274300D03*
X632100Y204600D03*
X642100D03*
X632100Y214600D03*
G54D11*
X21700Y-122243D03*
X33708Y91851D03*
G54D12*
X108700Y-280400D03*
X107400Y282900D03*
X645500Y-280400D03*
X645200Y283100D03*
G54D21*
X179600Y71500D03*
X228600Y-94800D03*
Y10000D03*
X270700Y-49300D03*
X295000Y-182000D03*
X287200Y-49300D03*
X304100D03*
X328000Y-172000D03*
X365000Y-126000D03*
X418400Y29100D03*
X438100Y-154000D03*
X443200Y64700D03*
X459700Y86700D03*
X513500Y248200D03*
X513700Y273100D03*
X524600Y-141000D03*
X591400Y-141400D03*
X601000Y274300D03*
X642100Y214600D03*
G54D30*
X269100Y243638D03*
G54D22*
X187836Y156865D03*
X189805D03*
Y202535D03*
X187836D03*
X191773Y156865D03*
X193742D03*
X195710D03*
X197679D03*
X199647D03*
X201616D03*
X203584D03*
X205553D03*
X207521D03*
X209490D03*
X211458D03*
Y202535D03*
X209490D03*
X207521D03*
X205553D03*
X203584D03*
X201616D03*
X199647D03*
X197679D03*
X195710D03*
X193742D03*
X191773D03*
X213427Y156865D03*
X215395D03*
X217364D03*
Y202535D03*
X215395D03*
X213427D03*
G54D31*
X269100Y268047D03*
G54D13*
X86100Y-253400D03*
Y-233400D03*
X96100D03*
X86100Y-243400D03*
X96100D03*
X86100Y-213400D03*
X96100D03*
X86100Y-223400D03*
X96100D03*
X86100Y-203400D03*
X96100D03*
G54D23*
X179765Y180684D03*
Y178716D03*
Y176747D03*
Y174779D03*
Y172810D03*
Y170842D03*
Y168873D03*
Y166905D03*
Y164936D03*
Y194464D03*
Y192495D03*
Y190527D03*
Y188558D03*
Y186590D03*
Y184621D03*
Y182653D03*
X225435Y164936D03*
Y166905D03*
Y168873D03*
Y170842D03*
Y172810D03*
Y174779D03*
Y176747D03*
Y178716D03*
Y180684D03*
Y182653D03*
Y184621D03*
Y186590D03*
Y188558D03*
Y190527D03*
Y192495D03*
Y194464D03*
G54D32*
X293937Y-16800D03*
X286063D03*
G54D14*
X96100Y-253400D03*
G54D33*
X309538Y-136400D03*
X314262D03*
G54D15*
X143800Y180200D03*
Y172200D03*
Y164200D03*
X143900Y188200D03*
X150000Y180200D03*
Y172200D03*
Y164200D03*
X163000Y182700D03*
X169200D03*
X163000Y172700D03*
X169200D03*
X150100Y188200D03*
X236500Y238200D03*
X239000Y151700D03*
X245200D03*
Y159700D03*
X239000D03*
X244300Y169300D03*
X238100D03*
X244300Y183300D03*
X238100D03*
X244300Y176300D03*
X238100D03*
X244300Y190300D03*
X238100D03*
X244300Y197300D03*
X238100D03*
X242700Y238200D03*
X333200Y-127500D03*
X327000D03*
X333200Y-134500D03*
X327000D03*
X333200Y-117500D03*
X327000D03*
X333200Y-110500D03*
X327000D03*
G54D24*
X214800Y-175800D03*
X282600Y-107400D03*
X431100Y-218400D03*
X422400Y-101500D03*
G54D34*
X310300Y21088D03*
Y32112D03*
G54D25*
X226300Y-224000D03*
X220000Y-156000D03*
X223200Y251300D03*
X271900Y-142100D03*
X296900Y-252600D03*
X291900Y-72000D03*
X295100Y249200D03*
X312300Y-236700D03*
X327000Y-146900D03*
X326900Y-100400D03*
X339000Y-82500D03*
X336000Y39500D03*
X328800Y56600D03*
X374300Y-222000D03*
X383600Y113200D03*
Y135900D03*
X401500Y-198500D03*
X410500Y-181000D03*
X399800Y-101200D03*
X428100Y-169500D03*
X422500Y-66500D03*
X440500Y-105400D03*
X453900Y41500D03*
X455700Y-102500D03*
X469700Y59700D03*
X499100Y-170500D03*
X514600Y-161000D03*
Y-111000D03*
X505500Y208400D03*
X513700Y286800D03*
X532000Y207500D03*
X581400Y-163200D03*
Y-113200D03*
X576000Y32500D03*
X576200Y55600D03*
X574000Y101700D03*
X582300Y123400D03*
X587500Y184000D03*
X601100Y287600D03*
X629200Y-135600D03*
X632100Y231900D03*
G54D16*
X155900Y-285500D03*
Y-265500D03*
X175900Y-285500D03*
Y-265500D03*
X230900Y-285500D03*
Y-265500D03*
X250900Y-285500D03*
Y-265500D03*
X305900Y-285500D03*
Y-265500D03*
X325900Y-285500D03*
Y-265500D03*
X380900Y-285500D03*
Y-265500D03*
X400900Y-285500D03*
Y-265500D03*
X545400Y-163200D03*
Y-183200D03*
Y-108200D03*
Y-88200D03*
X565400Y-163200D03*
Y-183200D03*
Y-108200D03*
Y-88200D03*
X600000Y28600D03*
Y48600D03*
Y103600D03*
Y123600D03*
X620400Y-183200D03*
Y-163200D03*
Y-108200D03*
Y-88200D03*
X620000Y28600D03*
Y48600D03*
Y103600D03*
Y123600D03*
X640400Y-183200D03*
Y-163200D03*
Y-108200D03*
Y-88200D03*
G54D17*
X165900Y-275500D03*
X240900D03*
X315900D03*
X390900D03*
X555400Y-173200D03*
Y-98200D03*
X610000Y38600D03*
Y113600D03*
X630400Y-173200D03*
Y-98200D03*
G54D26*
X224800Y-175800D03*
X272600Y-107400D03*
X421100Y-218400D03*
X412400Y-101500D03*
G54D18*
X164300Y-104000D03*
Y-97800D03*
X189600Y140100D03*
Y146300D03*
X188100Y218800D03*
Y212600D03*
X209000Y141000D03*
Y147200D03*
X200000Y218800D03*
Y212600D03*
X206100Y230100D03*
Y236300D03*
X214600Y131300D03*
Y125100D03*
X222600Y131300D03*
Y125100D03*
X230600Y131300D03*
Y125100D03*
X217600Y219300D03*
Y213100D03*
X292900Y-126600D03*
Y-120400D03*
X311400Y-125000D03*
Y-118800D03*
X316900Y258200D03*
Y252000D03*
X309900D03*
Y258200D03*
G54D27*
X219400Y282800D03*
X327500Y261500D03*
Y251500D03*
X393500Y-27100D03*
Y-17100D03*
X407500Y-27100D03*
Y-17100D03*
G54D28*
X229400Y282800D03*
X327500Y241500D03*
X393500Y-7100D03*
X407500D03*
G54D19*
X152839Y275579D03*
X170161D03*
G54D29*
X250596Y256236D03*
M02*
