G04 ================== begin FILE IDENTIFICATION RECORD ==================*
G04 Layout Name:  reggio_rev3.brd*
G04 Film Name:    SOLDERMASK-TOP*
G04 File Format:  Gerber RS274X*
G04 File Origin:  Cadence Allegro 16.6-S011*
G04 Origin Date:  Mon Jul 14 13:56:50 2014*
G04 *
G04 Layer:  VIA CLASS/SOLDERMASK_TOP*
G04 Layer:  PIN/SOLDERMASK_TOP*
G04 Layer:  PACKAGE GEOMETRY/SOLDERMASK_TOP*
G04 Layer:  BOARD GEOMETRY/SOLDERMASK_TOP*
G04 *
G04 Offset:    (0.00 0.00)*
G04 Mirror:    No*
G04 Mode:      Positive*
G04 Rotation:  0*
G04 FullContactRelief:  No*
G04 UndefLineWidth:     6.00*
G04 ================== end FILE IDENTIFICATION RECORD ====================*
%FSLAX25Y25*MOIN*%
%IR0*IPPOS*OFA0.00000B0.00000*MIA0B0*SFA1.00000B1.00000*%
%ADD52R,.06496X.09449*%
%ADD18R,.08858X.02559*%
%ADD34R,.06299X.09449*%
%ADD50R,.09449X.06299*%
%ADD22R,.01969X.08858*%
%ADD20C,.012*%
%ADD10C,.05*%
%ADD13C,.07*%
%ADD40O,.16142X.05512*%
%ADD37O,.05512X.14173*%
%ADD27C,.066*%
%ADD41O,.14173X.05512*%
%ADD14R,.07X.07*%
%ADD23C,.03543*%
%ADD55R,.10236X.05906*%
%ADD31R,.066X.066*%
%ADD36R,.08465X.10236*%
%ADD16C,.08661*%
%ADD42R,.06693X.10039*%
%ADD25C,.0689*%
%ADD32C,.06693*%
%ADD17C,.08268*%
%ADD28R,.0378X.0378*%
%ADD29C,.06299*%
%ADD26R,.0689X.0689*%
%ADD33R,.06693X.06693*%
%ADD12C,.2*%
%ADD21R,.03X.038*%
%ADD11R,.038X.03*%
%ADD45R,.05315X.06102*%
%ADD30R,.06102X.05315*%
%ADD53O,.03346X.01181*%
%ADD46R,.04134X.02362*%
%ADD51O,.01575X.0374*%
%ADD47R,.05315X.03543*%
%ADD35O,.0374X.01575*%
%ADD58R,.04724X.04921*%
%ADD56O,.03346X.01378*%
%ADD24R,.04921X.01772*%
%ADD57R,.02953X.04921*%
%ADD44R,.03346X.09055*%
%ADD19R,.02559X.04921*%
%ADD49R,.04921X.02559*%
%ADD59R,.04528X.08661*%
%ADD43R,.02756X.01378*%
%ADD60R,.01772X.06299*%
%ADD38R,.06496X.01772*%
%ADD54R,.06299X.01772*%
%ADD39R,.02559X.0689*%
%ADD48R,.0689X.02559*%
%ADD61R,.09449X.07087*%
%ADD62R,.07087X.09449*%
%ADD15R,.07874X.09843*%
%LPD*%
G75*
G54D10*
X21700Y-122243D03*
X33708Y91851D03*
G54D11*
X75400Y-105000D03*
X69200D03*
X75400Y-121000D03*
X69200D03*
Y-113000D03*
X75400D03*
X69200Y-81000D03*
X75400D03*
X69200Y-97000D03*
X75400D03*
X69200Y-89000D03*
X75400D03*
X69200Y-65000D03*
X75400D03*
X69200Y-57000D03*
X75400D03*
X69200Y-73000D03*
X75400D03*
X69200Y-41000D03*
X75400D03*
X69200Y-49000D03*
X75400D03*
X69200Y-17000D03*
X75400D03*
X69200Y-33000D03*
X75400D03*
X69200Y-25000D03*
X75400D03*
X69200Y-1000D03*
X75400D03*
X69200Y7000D03*
X75400D03*
X69200Y-9000D03*
X75400D03*
X69200Y31000D03*
X75400D03*
X69200Y15000D03*
X75400D03*
X69200Y23000D03*
X75400D03*
X69200Y47000D03*
X75400D03*
X69200Y39000D03*
X75400D03*
X69200Y55000D03*
X75400D03*
Y82500D03*
X69200D03*
X125400Y-900D03*
X142300Y-143400D03*
X136100D03*
X142400Y-150400D03*
X136200D03*
X142400Y-136400D03*
X136200D03*
X131600Y-900D03*
X144600Y172200D03*
Y180200D03*
Y164200D03*
X144500Y204300D03*
X144600Y188200D03*
X144700Y196200D03*
X170300Y-239800D03*
X161300Y-175400D03*
X155100D03*
X161300Y-168400D03*
X155100D03*
X159800Y-62900D03*
X153600D03*
X159800Y-55900D03*
X153600D03*
X160100Y4000D03*
X153900D03*
X160100Y11000D03*
X153900D03*
X158800Y65000D03*
X152600D03*
X158800Y57000D03*
X152600D03*
X150800Y172200D03*
Y180200D03*
Y164200D03*
X150700Y204300D03*
X150800Y188200D03*
X150900Y196200D03*
X176500Y-239800D03*
X192500Y-168100D03*
Y-175100D03*
X188200Y-63100D03*
Y-56100D03*
X185900Y4000D03*
X192100D03*
X185900Y11000D03*
X192100D03*
X194800Y-228300D03*
X201000D03*
X194800Y-220800D03*
X201000D03*
X198700Y-168100D03*
Y-175100D03*
X209000Y-78500D03*
X210500Y-97400D03*
X204300D03*
X209000Y-68500D03*
X194400Y-63100D03*
Y-56100D03*
X213100Y-26200D03*
X206900D03*
X213100Y-33500D03*
X206900D03*
X211100Y0D03*
Y10100D03*
X226500Y-249800D03*
X220300D03*
X226500Y-241800D03*
X220300D03*
X215200Y-78500D03*
Y-68500D03*
X217300Y0D03*
Y10100D03*
X236000Y238200D03*
X245700Y151700D03*
X239500D03*
Y159700D03*
X245700D03*
X243900Y184300D03*
X237700D03*
X242200Y238200D03*
X279100Y-120000D03*
X272900D03*
X276300Y-98400D03*
X285100Y-135800D03*
X291300D03*
X282500Y-98400D03*
X314500Y-200D03*
X308300D03*
X304000Y25100D03*
X310200D03*
X304000Y32100D03*
X310200D03*
X319500Y84300D03*
Y77100D03*
X319700Y109500D03*
Y102200D03*
X309600Y266200D03*
X315800D03*
X331900Y-236700D03*
X325700D03*
Y-244700D03*
X331900D03*
X332700Y-40700D03*
X338900D03*
X335000Y-16000D03*
X341200D03*
X332700Y-32700D03*
X338900D03*
X332600Y-24600D03*
X338800D03*
X339200Y-1900D03*
X345400D03*
X339200Y-9000D03*
X345400D03*
X325700Y84300D03*
Y77100D03*
X325900Y109500D03*
Y102200D03*
X341700Y240800D03*
X335200Y291700D03*
X329000D03*
X356900Y-231100D03*
X363100D03*
X356900Y-224000D03*
X363100D03*
X365100Y-144500D03*
Y-137500D03*
X353100Y64700D03*
X359300D03*
X347900Y240800D03*
X379400Y-245200D03*
X373200D03*
X371300Y-144500D03*
X388000Y-152500D03*
Y-159500D03*
X371300Y-137500D03*
X394200Y-152500D03*
Y-159500D03*
X395100Y96200D03*
X401300D03*
X407300Y81000D03*
X401100D03*
X395100Y89200D03*
X401300D03*
X395100Y113200D03*
X401300D03*
X421100Y-205500D03*
X414900D03*
Y-198500D03*
X421100D03*
X417200Y-144000D03*
X411000D03*
X417200Y-127000D03*
X411000D03*
X417200Y-134000D03*
X411000D03*
X417400Y-112000D03*
X411200D03*
X417200Y-120000D03*
X411000D03*
X425300Y-43400D03*
X431500D03*
X418600Y122200D03*
X424800D03*
X418600Y129200D03*
X424800D03*
X440800Y-218400D03*
X447000D03*
X449000Y-134000D03*
Y-141000D03*
X442100Y106700D03*
X448300D03*
X442100Y113700D03*
X448300D03*
X473000Y-149000D03*
Y-156000D03*
X455200Y-134000D03*
Y-141000D03*
X475600Y-43700D03*
X475900Y74700D03*
X469700D03*
X479200Y-149000D03*
Y-156000D03*
X497500Y-125500D03*
Y-132500D03*
Y-139500D03*
Y-118500D03*
X481800Y-43700D03*
X481500Y89700D03*
X487700D03*
X481500Y96700D03*
X487700D03*
X481500Y82700D03*
X487700D03*
X481500Y103800D03*
X487700D03*
X503700Y-125500D03*
Y-132500D03*
Y-139500D03*
Y-118500D03*
X511100Y74000D03*
X517300D03*
X511100Y81000D03*
X517300D03*
X533600Y72000D03*
X539800D03*
X533700Y91900D03*
X539900D03*
X533600Y79200D03*
X539800D03*
X533700Y99100D03*
X539900D03*
X557400Y48500D03*
Y55600D03*
Y62700D03*
X558400Y236000D03*
X559900Y287000D03*
Y280000D03*
Y273000D03*
X563600Y48500D03*
Y55600D03*
Y62700D03*
X564600Y236000D03*
X566100Y287000D03*
Y280000D03*
Y273000D03*
G54D20*
X164500Y188100D03*
X189805Y151405D03*
X184527Y168873D03*
X174100Y172700D03*
X175679Y174779D03*
X174647Y176747D03*
X175616Y178716D03*
Y180684D03*
X184505Y192495D03*
X189805Y197405D03*
X174147Y182653D03*
X187836Y207436D03*
X211300Y151900D03*
X201616Y161584D03*
X191700Y207300D03*
X201400Y208300D03*
X193800Y212400D03*
X197679Y207921D03*
X199647Y206453D03*
X206100Y240300D03*
X218400Y136400D03*
X220747Y176747D03*
X220721Y174779D03*
X220742Y170842D03*
X220705Y166905D03*
X231490Y172810D03*
X230516Y178716D03*
X220384Y180684D03*
X230658Y188558D03*
X219647Y182653D03*
X231924Y190539D03*
X230700Y192500D03*
X230379Y184621D03*
X217364Y208736D03*
X213427Y216027D03*
X215600Y206912D03*
X315000Y-123000D03*
Y-121100D03*
G54D30*
X235700Y-175437D03*
Y-167563D03*
X273600Y-176237D03*
Y-168363D03*
X330300Y-210337D03*
Y-202463D03*
X368800Y-210137D03*
Y-202263D03*
X460000Y-205437D03*
Y-197563D03*
X473800Y237337D03*
Y229463D03*
X472500Y271363D03*
Y279237D03*
X513500Y227137D03*
Y219263D03*
X537800Y237163D03*
Y245037D03*
X545600Y263637D03*
Y255763D03*
X578500Y264563D03*
Y272437D03*
X608500Y215037D03*
Y207163D03*
G54D21*
X157000Y235900D03*
Y229700D03*
X164800Y235900D03*
Y229700D03*
X190600Y212600D03*
Y218800D03*
X172600Y235900D03*
Y229700D03*
X197600Y212600D03*
Y218800D03*
X204600Y212600D03*
Y218800D03*
X214600Y124100D03*
Y130300D03*
X222600Y124100D03*
Y130300D03*
X230600Y124100D03*
Y130300D03*
X264900Y-169000D03*
Y-175200D03*
X266600Y-72100D03*
Y-65900D03*
X275000Y-72100D03*
Y-65900D03*
X270900Y68000D03*
Y61800D03*
X277900Y68000D03*
Y61800D03*
X278600Y119900D03*
Y126100D03*
X272200Y181400D03*
Y187600D03*
Y195400D03*
Y201600D03*
X296000Y27800D03*
X288700D03*
X280900Y28200D03*
X296000Y34000D03*
X288700D03*
X280900Y34400D03*
X284900Y68000D03*
Y61800D03*
X291900D03*
Y68000D03*
X299300Y61800D03*
Y68000D03*
X300500Y119900D03*
Y126100D03*
X285600Y119900D03*
Y126100D03*
X319100Y-124700D03*
X302700Y-141900D03*
Y-135700D03*
X319100Y-118500D03*
X302500Y-16600D03*
X310300Y-16700D03*
X302500Y-10400D03*
X310300Y-10500D03*
X306900Y61900D03*
Y68100D03*
X339600Y-208600D03*
Y-202400D03*
X352500Y226400D03*
Y232600D03*
X373600Y-159100D03*
Y-152900D03*
X380600Y-159100D03*
Y-152900D03*
X383000Y-33300D03*
Y-27100D03*
X382800Y-900D03*
Y-7100D03*
X394600Y-126600D03*
X401600D03*
X394600Y-120400D03*
X401600D03*
X417700Y89100D03*
Y95300D03*
X410700Y89100D03*
Y95300D03*
X432200Y128800D03*
Y122600D03*
X451000Y-199400D03*
Y-205600D03*
X439200Y128800D03*
Y122600D03*
X464600Y-156600D03*
Y-150400D03*
X457600Y-156600D03*
Y-150400D03*
X480600Y-122600D03*
X488100D03*
X480600Y-116400D03*
X488100D03*
X478200Y-57900D03*
Y-51700D03*
X495800Y73800D03*
Y80000D03*
X517300Y46300D03*
Y52500D03*
X501400Y46300D03*
Y52500D03*
X509400Y46300D03*
Y52500D03*
X503400Y73900D03*
X517300Y66500D03*
Y60300D03*
X503400Y80100D03*
X528600Y-167200D03*
Y-161000D03*
X526600Y-104800D03*
Y-111000D03*
X533100Y39000D03*
Y45200D03*
X525700Y39000D03*
Y45200D03*
X524000Y105700D03*
Y111900D03*
X533300Y114200D03*
Y108000D03*
X540300Y114200D03*
Y108000D03*
X536500Y256900D03*
Y263100D03*
X550900Y72700D03*
X558800D03*
X550900Y78900D03*
X558800D03*
X548500Y219400D03*
Y225600D03*
X547000Y243900D03*
Y237700D03*
X596900Y-169400D03*
Y-163200D03*
X596300Y-107000D03*
Y-113200D03*
X598100Y223800D03*
Y217600D03*
X589800Y223600D03*
Y217400D03*
X607000Y224900D03*
Y231100D03*
G54D12*
X108700Y-280400D03*
X107400Y282900D03*
X645500Y-280400D03*
X645200Y283100D03*
G54D31*
X224800Y-175800D03*
X272600Y-107400D03*
X421100Y-218400D03*
X412400Y-101500D03*
G54D40*
X269100Y243638D03*
G54D13*
X86100Y-253400D03*
Y-233400D03*
X96100D03*
X86100Y-243400D03*
X96100D03*
X86100Y-213400D03*
X96100D03*
X86100Y-223400D03*
X96100D03*
X86100Y-203400D03*
X96100D03*
G54D22*
X155201Y265047D03*
X158350D03*
X161500D03*
X164650D03*
X167799D03*
G54D32*
X219400Y282800D03*
X327500Y261500D03*
Y251500D03*
X393500Y-27100D03*
Y-17100D03*
X407500Y-27100D03*
Y-17100D03*
G54D23*
X152839Y275579D03*
X170161D03*
G54D14*
X96100Y-253400D03*
G54D41*
X269100Y268047D03*
G54D50*
X355400Y50000D03*
G54D15*
X143980Y265539D03*
Y286996D03*
X179020Y265539D03*
Y286996D03*
G54D60*
X561280Y245248D03*
X558720D03*
X556161D03*
Y263752D03*
X558720D03*
X561280D03*
X563839Y245248D03*
Y263752D03*
G54D24*
X187829Y-245139D03*
Y-242580D03*
Y-240020D03*
Y-237461D03*
X203971D03*
Y-240020D03*
Y-242580D03*
Y-245139D03*
X362871Y-239861D03*
Y-242420D03*
Y-244980D03*
Y-247539D03*
X346729D03*
Y-244980D03*
Y-242420D03*
Y-239861D03*
G54D51*
X359140Y44094D03*
X355400D03*
X351660D03*
Y55906D03*
X355400D03*
X359140D03*
G54D33*
X229400Y282800D03*
X327500Y241500D03*
X393500Y-7100D03*
X407500D03*
G54D42*
X297200Y-124000D03*
G54D61*
X560000Y254500D03*
G54D43*
X291393Y-128921D03*
Y-126953D03*
Y-124984D03*
Y-123016D03*
Y-121047D03*
Y-119079D03*
X303007Y-123016D03*
Y-124984D03*
Y-126953D03*
Y-128921D03*
Y-119079D03*
Y-121047D03*
G54D25*
X179600Y21500D03*
Y31500D03*
Y41500D03*
Y51500D03*
Y61500D03*
X228600Y-144800D03*
Y-134800D03*
Y-124800D03*
Y-114800D03*
Y-104800D03*
Y-80000D03*
Y-70000D03*
Y-60000D03*
Y-50000D03*
Y-40000D03*
Y-30000D03*
Y-20000D03*
Y-10000D03*
Y0D03*
X270700Y-39300D03*
Y-29300D03*
X285000Y-172000D03*
X295000D03*
X285000Y-182000D03*
Y-162000D03*
X295000D03*
X287200Y-39300D03*
Y-29300D03*
X304100Y-39300D03*
Y-29300D03*
X338000Y-172000D03*
Y-182000D03*
X328000D03*
X355000Y-126000D03*
Y-106000D03*
Y-116000D03*
X365000Y-106000D03*
Y-116000D03*
X355000Y-86000D03*
X365000D03*
X355000Y-96000D03*
X365000D03*
X428100Y-154000D03*
Y-144000D03*
Y-124000D03*
Y-134000D03*
X428400Y29100D03*
Y19100D03*
X418400D03*
X433200Y64700D03*
Y74700D03*
X438100Y-144000D03*
Y-124000D03*
Y-134000D03*
X443200Y74700D03*
X459700Y96700D03*
X469700D03*
Y86700D03*
X514600Y-141000D03*
Y-131000D03*
X513500Y238200D03*
X513700Y263100D03*
X524600Y-131000D03*
X523500Y248200D03*
Y238200D03*
X523700Y263100D03*
Y273100D03*
X581400Y-141400D03*
Y-131400D03*
X591400D03*
X601000Y264300D03*
X622100Y204600D03*
Y214600D03*
X611000Y264300D03*
Y274300D03*
X632100Y204600D03*
X642100D03*
X632100Y214600D03*
G54D16*
X155900Y-285500D03*
Y-265500D03*
X175900Y-285500D03*
Y-265500D03*
X230900Y-285500D03*
Y-265500D03*
X250900Y-285500D03*
Y-265500D03*
X305900Y-285500D03*
Y-265500D03*
X325900Y-285500D03*
Y-265500D03*
X380900Y-285500D03*
Y-265500D03*
X400900Y-285500D03*
Y-265500D03*
X545400Y-163200D03*
Y-183200D03*
Y-108200D03*
Y-88200D03*
X565400Y-163200D03*
Y-183200D03*
Y-108200D03*
Y-88200D03*
X600000Y28600D03*
Y48600D03*
Y103600D03*
Y123600D03*
X620400Y-183200D03*
Y-163200D03*
Y-108200D03*
Y-88200D03*
X620000Y28600D03*
Y48600D03*
Y103600D03*
Y123600D03*
X640400Y-183200D03*
Y-163200D03*
Y-108200D03*
Y-88200D03*
G54D34*
X251100Y-172100D03*
X353500Y-206100D03*
X436900Y-204100D03*
G54D52*
X354000Y252800D03*
G54D62*
X567000Y224000D03*
G54D44*
X309538Y-136400D03*
X314262D03*
G54D35*
X245194Y-175840D03*
Y-172100D03*
Y-168360D03*
X257006D03*
Y-172100D03*
Y-175840D03*
X359406Y-202360D03*
Y-206100D03*
Y-209840D03*
X347594D03*
Y-206100D03*
Y-202360D03*
G54D53*
X360102Y256737D03*
Y254769D03*
Y252800D03*
Y250831D03*
Y248863D03*
X347898D03*
Y250831D03*
Y252800D03*
Y254769D03*
Y256737D03*
G54D26*
X179600Y71500D03*
X228600Y-94800D03*
Y10000D03*
X270700Y-49300D03*
X295000Y-182000D03*
X287200Y-49300D03*
X304100D03*
X328000Y-172000D03*
X365000Y-126000D03*
X418400Y29100D03*
X438100Y-154000D03*
X443200Y64700D03*
X459700Y86700D03*
X513500Y248200D03*
X513700Y273100D03*
X524600Y-141000D03*
X591400Y-141400D03*
X601000Y274300D03*
X642100Y214600D03*
G54D17*
X165900Y-275500D03*
X240900D03*
X315900D03*
X390900D03*
X555400Y-173200D03*
Y-98200D03*
X610000Y38600D03*
Y113600D03*
X630400Y-173200D03*
Y-98200D03*
G54D54*
X381348Y-135161D03*
Y-137720D03*
Y-140280D03*
Y-142839D03*
X399852D03*
Y-140280D03*
Y-137720D03*
Y-135161D03*
X412948Y112039D03*
Y109480D03*
Y106920D03*
Y104361D03*
X431452D03*
Y106920D03*
Y109480D03*
Y112039D03*
X466348Y-132161D03*
Y-134720D03*
Y-137280D03*
Y-139839D03*
X484852D03*
Y-137280D03*
Y-134720D03*
Y-132161D03*
X505448Y94480D03*
Y91920D03*
Y89361D03*
Y97039D03*
X527548Y62839D03*
Y60280D03*
Y57720D03*
Y55161D03*
X523952Y89361D03*
Y91920D03*
Y94480D03*
Y97039D03*
X546052Y55161D03*
Y57720D03*
Y60280D03*
Y62839D03*
X557748Y220161D03*
Y222720D03*
Y225280D03*
Y227839D03*
X576252Y225280D03*
Y222720D03*
Y220161D03*
Y227839D03*
G54D45*
X319363Y18900D03*
X315237Y275600D03*
X307363D03*
X327237Y18900D03*
X357737Y33900D03*
X349863D03*
X359737Y74300D03*
X351863D03*
X431563Y-188500D03*
X430637Y-52600D03*
X422763D03*
X439437Y-188500D03*
X476263Y-34700D03*
X484137D03*
X495437Y253500D03*
X487563D03*
G54D36*
X259800Y181657D03*
Y201343D03*
G54D27*
X214800Y-175800D03*
X282600Y-107400D03*
X431100Y-218400D03*
X422400Y-101500D03*
G54D18*
X154499Y-158400D03*
Y-153400D03*
Y-148400D03*
Y-143400D03*
Y-138400D03*
Y-133400D03*
Y-128400D03*
Y-123400D03*
Y-107800D03*
Y-102800D03*
Y-97800D03*
Y-92800D03*
Y-87800D03*
Y-82800D03*
Y-77800D03*
Y-72800D03*
Y-40900D03*
Y-35900D03*
Y-30900D03*
Y-25900D03*
Y-20900D03*
Y-15900D03*
Y-10900D03*
Y-5900D03*
X191901Y-148400D03*
Y-153400D03*
Y-158400D03*
Y-123400D03*
Y-128400D03*
Y-133400D03*
Y-138400D03*
Y-143400D03*
Y-102800D03*
Y-107800D03*
Y-82800D03*
Y-87800D03*
Y-92800D03*
Y-97800D03*
Y-72800D03*
Y-77800D03*
Y-35900D03*
Y-40900D03*
Y-15900D03*
Y-20900D03*
Y-25900D03*
Y-30900D03*
Y-5900D03*
Y-10900D03*
G54D19*
X160940Y34791D03*
X157200D03*
X153460D03*
Y46209D03*
X157200D03*
X160940D03*
X242840Y216491D03*
X239100D03*
X235360D03*
Y227909D03*
X239100D03*
X242840D03*
G54D46*
X316112Y8700D03*
X305088D03*
G54D28*
X206100Y236300D03*
Y230100D03*
X335200Y278900D03*
X329000D03*
X360500Y232900D03*
Y239100D03*
G54D55*
X384010Y239400D03*
Y249400D03*
Y259400D03*
Y269400D03*
X437790Y249400D03*
Y239400D03*
Y269400D03*
Y259400D03*
G54D37*
X250596Y256236D03*
G54D38*
X268692Y-7875D03*
Y-5316D03*
Y-2757D03*
Y-198D03*
Y2361D03*
Y4920D03*
Y7480D03*
Y10039D03*
Y12598D03*
Y15157D03*
Y17716D03*
Y20275D03*
X292708Y7480D03*
Y4920D03*
Y2361D03*
Y-198D03*
Y-2757D03*
Y-5316D03*
Y-7875D03*
Y20275D03*
Y17716D03*
Y15157D03*
Y12598D03*
Y10039D03*
G54D56*
X430798Y-207939D03*
Y-205380D03*
Y-202820D03*
Y-200261D03*
X443002D03*
Y-202820D03*
Y-205380D03*
Y-207939D03*
G54D47*
X302215Y286600D03*
X316585D03*
G54D29*
X226300Y-224000D03*
X220000Y-156000D03*
X223200Y251300D03*
X271900Y-142100D03*
X296900Y-252600D03*
X291900Y-72000D03*
X295100Y249200D03*
X312300Y-236700D03*
X327000Y-146900D03*
X326900Y-100400D03*
X339000Y-82500D03*
X336000Y39500D03*
X328800Y56600D03*
X374300Y-222000D03*
X383600Y113200D03*
Y135900D03*
X401500Y-198500D03*
X410500Y-181000D03*
X399800Y-101200D03*
X428100Y-169500D03*
X422500Y-66500D03*
X440500Y-105400D03*
X453900Y41500D03*
X455700Y-102500D03*
X469700Y59700D03*
X499100Y-170500D03*
X514600Y-161000D03*
Y-111000D03*
X505500Y208400D03*
X513700Y286800D03*
X532000Y207500D03*
X581400Y-163200D03*
Y-113200D03*
X576000Y32500D03*
X576200Y55600D03*
X574000Y101700D03*
X582300Y123400D03*
X587500Y184000D03*
X601100Y287600D03*
X629200Y-135600D03*
X632100Y231900D03*
G54D48*
X350776Y-35900D03*
Y-30900D03*
Y-25900D03*
Y-20900D03*
X372824Y-35900D03*
Y-20900D03*
Y-25900D03*
Y-30900D03*
X442676Y-56700D03*
Y-51700D03*
Y-46700D03*
Y-41700D03*
X464724D03*
Y-46700D03*
Y-51700D03*
Y-56700D03*
G54D39*
X275500Y82376D03*
Y104424D03*
X295500Y82376D03*
X290500D03*
X285500D03*
X280500D03*
Y104424D03*
X285500D03*
X290500D03*
X295500D03*
X310500Y82376D03*
X305500D03*
X300500D03*
Y104424D03*
X305500D03*
X310500D03*
G54D57*
X461240Y227491D03*
X453760D03*
Y238909D03*
X461440Y269191D03*
X453960D03*
Y280609D03*
G54D49*
X358391Y-10840D03*
Y-7100D03*
Y-3360D03*
X369809D03*
Y-7100D03*
Y-10840D03*
G54D58*
X461240Y238909D03*
X461440Y280609D03*
G54D59*
X493944Y225200D03*
X488256D03*
X493944Y240900D03*
X488256D03*
X492044Y266300D03*
X486356D03*
X492044Y282000D03*
X486356D03*
M02*
