G04 ================== begin FILE IDENTIFICATION RECORD ==================*
G04 Layout Name:  reggio_rev3.brd*
G04 Film Name:    TOP*
G04 File Format:  Gerber RS274X*
G04 File Origin:  Cadence Allegro 16.6-S011*
G04 Origin Date:  Mon Jul 14 13:56:50 2014*
G04 *
G04 Layer:  ETCH/TOP*
G04 Layer:  PIN/TOP*
G04 Layer:  VIA CLASS/TOP*
G04 *
G04 Offset:    (0.00 0.00)*
G04 Mirror:    No*
G04 Mode:      Positive*
G04 Rotation:  0*
G04 FullContactRelief:  No*
G04 UndefLineWidth:     6.00*
G04 ================== end FILE IDENTIFICATION RECORD ====================*
%FSLAX25Y25*MOIN*%
%IR0*IPPOS*OFA0.00000B0.00000*MIA0B0*SFA1.00000B1.00000*%
%ADD53R,.06496X.09449*%
%ADD19R,.08858X.02559*%
%ADD35R,.06299X.09449*%
%ADD51R,.09449X.06299*%
%ADD23R,.01969X.08858*%
%ADD10C,.02*%
%ADD21C,.012*%
%ADD28C,.06*%
%ADD24C,.0315*%
%ADD41O,.16142X.05512*%
%ADD14C,.065*%
%ADD38O,.05512X.14173*%
%ADD42O,.14173X.05512*%
%ADD32R,.06X.06*%
%ADD56R,.10236X.05906*%
%ADD15R,.065X.065*%
%ADD37R,.08465X.10236*%
%ADD17C,.08661*%
%ADD11C,.03937*%
%ADD43R,.06693X.10039*%
%ADD26C,.0689*%
%ADD33C,.06693*%
%ADD18C,.08268*%
%ADD29R,.0378X.0378*%
%ADD30C,.06299*%
%ADD27R,.0689X.0689*%
%ADD34R,.06693X.06693*%
%ADD13C,.2*%
%ADD22R,.03X.038*%
%ADD12R,.038X.03*%
%ADD46R,.05315X.06102*%
%ADD31R,.06102X.05315*%
%ADD54O,.03346X.01181*%
%ADD47R,.04134X.02362*%
%ADD52O,.01575X.0374*%
%ADD48R,.05315X.03543*%
%ADD36O,.0374X.01575*%
%ADD59R,.04724X.04921*%
%ADD57O,.03346X.01378*%
%ADD25R,.04921X.01772*%
%ADD58R,.02953X.04921*%
%ADD45R,.03346X.09055*%
%ADD20R,.02559X.04921*%
%ADD50R,.04921X.02559*%
%ADD60R,.04528X.08661*%
%ADD44R,.02756X.01378*%
%ADD61R,.01772X.06299*%
%ADD39R,.06496X.01772*%
%ADD55R,.06299X.01772*%
%ADD40R,.02559X.0689*%
%ADD49R,.0689X.02559*%
%ADD62R,.09449X.07087*%
%ADD63R,.07087X.09449*%
%ADD16R,.07874X.09843*%
%ADD64C,.01*%
%ADD65C,.04*%
%ADD66C,.015*%
%ADD67C,.025*%
%ADD68C,.018*%
%ADD89R,.07896X.07896*%
%ADD73C,.03404*%
%ADD82C,.02604*%
%ADD84C,.07502*%
%ADD88C,.07702*%
%ADD71C,.0934*%
%ADD79R,.10262X.03962*%
%ADD77C,.07704*%
%ADD70C,.09342*%
%ADD75C,.07904*%
%ADD80C,.08094*%
%ADD91C,.08294*%
%ADD90C,.08096*%
%ADD78C,.09864*%
%ADD72C,.07885*%
%ADD69O,.17546X.06916*%
%ADD85C,.07896*%
%ADD74C,.21404*%
%ADD83R,.07404X.07404*%
%ADD81R,.08092X.08092*%
%ADD76R,.07904X.07904*%
%ADD93R,.08292X.03962*%
%ADD87R,.03962X.08292*%
%ADD92R,.08292X.08292*%
%ADD86R,.08096X.08096*%
G75*
%LPD*%
G75*
G36*
G01X80400Y-293000D02*
Y-144000D01*
X-9600D01*
Y110400D01*
X80400D01*
Y296000D01*
X416400D01*
Y211500D01*
X333000D01*
Y94500D01*
X305306D01*
G02X305023Y95183I0J400D01*
G01X306902Y97061D01*
Y100278D01*
X307481D01*
Y108570D01*
X303519D01*
Y100278D01*
X304198D01*
Y99340D01*
X304298Y99240D01*
Y98139D01*
X300659Y94500D01*
X293706D01*
G02X293423Y95183I0J400D01*
G01X296702Y98461D01*
Y99240D01*
X296802Y99340D01*
Y100278D01*
X297481D01*
Y108570D01*
X293519D01*
Y100278D01*
X294098D01*
Y99539D01*
X289061Y94502D01*
X81361D01*
X80561Y93702D01*
X80099D01*
X80045Y93744D01*
G03X80097Y91098I-1045J-1344D01*
G01X81639D01*
X82439Y91898D01*
X223500D01*
Y90302D01*
X84961D01*
X84161Y89502D01*
X83699D01*
X83645Y89544D01*
G03X83697Y86898I-1045J-1344D01*
G01X85239D01*
X86039Y87698D01*
X223500D01*
Y16000D01*
X169000D01*
Y-198100D01*
X215300D01*
Y-179472D01*
X215464Y-179442D01*
G03Y-172158I-664J3642D01*
G01X215300Y-172128D01*
Y-151000D01*
X288500D01*
Y-155200D01*
X278000D01*
Y-169900D01*
X259595D01*
G02X259276Y-169259I0J400D01*
G03X258088Y-166871I-1187J899D01*
G01X255924D01*
G03X254736Y-169259I-1J-1489D01*
G02X254500Y-169891I-319J-241D01*
G01Y-171662D01*
X254492Y-171689D01*
G03Y-172511I1431J-411D01*
G01X254500Y-172538D01*
Y-175402D01*
X254492Y-175429D01*
G03Y-176251I1431J-411D01*
G01X254500Y-176278D01*
Y-183500D01*
X271600D01*
X278600Y-190500D01*
X288500D01*
Y-198100D01*
X328598D01*
Y-199104D01*
X326548D01*
Y-205822D01*
X327048D01*
Y-207878D01*
X333552D01*
Y-205822D01*
X334052D01*
Y-204164D01*
X337398D01*
Y-205002D01*
X337898D01*
Y-206902D01*
X341302D01*
Y-205002D01*
X341802D01*
Y-203852D01*
X342951D01*
X342991Y-203812D01*
X346142D01*
Y-204651D01*
X346010Y-204698D01*
G03X346512Y-207589I502J-1402D01*
G01X348676D01*
G03X349178Y-204698I0J1489D01*
G01X349046Y-204651D01*
Y-203809D01*
X349178Y-203762D01*
G03X348676Y-200871I-502J1402D01*
G01X346512D01*
G03X346199Y-200904I-1J-1489D01*
G01X346179Y-200908D01*
X341802D01*
Y-199798D01*
X337398D01*
Y-200698D01*
X335895D01*
X335832Y-200762D01*
X334052D01*
Y-199104D01*
X332002D01*
Y-198100D01*
X390000D01*
Y-255400D01*
X410100D01*
Y-293000D01*
X80400D01*
G37*
G36*
G01X263593Y-6424D02*
X260848Y-9168D01*
Y-37001D01*
X264699Y-40852D01*
X266854D01*
G03X266779Y-37948I3846J1552D01*
G01X265901D01*
X263752Y-35799D01*
Y-10370D01*
X264659Y-9463D01*
X272642D01*
Y-6852D01*
X273499D01*
X276848Y-10201D01*
Y-36501D01*
X281099Y-40752D01*
X283315D01*
G03Y-37848I3885J1452D01*
G01X282301D01*
X279752Y-35299D01*
Y-8999D01*
X274701Y-3948D01*
X273875D01*
X273791Y-3864D01*
X272642D01*
Y13706D01*
X276742D01*
X281048Y9399D01*
Y-10701D01*
X294348Y-24001D01*
Y-36501D01*
X298599Y-40752D01*
X300215D01*
G03Y-37848I3885J1452D01*
G01X299801D01*
X297252Y-35299D01*
Y-22799D01*
X283952Y-9499D01*
Y10601D01*
X277944Y16608D01*
X272642D01*
Y21863D01*
X264742D01*
Y21576D01*
X263805D01*
X263730Y21502D01*
X245997D01*
G03Y18898I-1097J-1302D01*
G01X247074D01*
G02X247402Y18270I-1J-400D01*
G03X247681Y16018I1398J-970D01*
G02X247418Y15316I-263J-302D01*
G01X244124D01*
X242639Y16802D01*
X241097D01*
G03X241045Y14156I-1097J-1302D01*
G01X241099Y14198D01*
X241561D01*
X241975Y13784D01*
G02X241692Y13102I-283J-282D01*
G01X238839D01*
X238639Y13302D01*
X237097D01*
G03X237045Y10656I-1097J-1302D01*
G01X237099Y10698D01*
X237561D01*
X237761Y10498D01*
X256761D01*
X257492Y9768D01*
G02X257340Y9107I-283J-283D01*
G03X256354Y6789I560J-1607D01*
G02X255991Y6222I-363J-167D01*
G01X238764D01*
X233684Y11302D01*
X232746D01*
Y14146D01*
X226000D01*
Y87698D01*
X297539D01*
X302341Y92500D01*
X335000D01*
Y208800D01*
X418800D01*
Y296100D01*
X658500D01*
Y-293000D01*
X413200D01*
Y-253300D01*
X392000D01*
Y-195400D01*
X332918D01*
G02X332635Y-194717I0J400D01*
G01X339702Y-187651D01*
Y-185782D01*
G03X339952Y-178341I-1702J3782D01*
G01Y-175659D01*
G03X336048I-1952J3659D01*
G01Y-178341D01*
G03X336298Y-185782I1952J-3659D01*
G01Y-186241D01*
X328598Y-193941D01*
Y-195400D01*
X293400D01*
Y-186146D01*
X299146D01*
Y-177854D01*
X293400D01*
Y-176385D01*
G02X293906Y-176000I400J-1D01*
G03Y-168000I1094J4000D01*
G02X293400Y-167615I-106J386D01*
G01Y-166385D01*
G02X293906Y-166000I400J-1D01*
G03Y-158000I1094J4000D01*
G02X293400Y-157615I-106J386D01*
G01Y-149000D01*
X230909D01*
G02X230702Y-148258I1J400D01*
G03X226498I-2102J3458D01*
G02X226291Y-149000I-208J-342D01*
G01X213800D01*
Y-172232D01*
X213662Y-172277D01*
G03Y-179323I1138J-3523D01*
G01X213800Y-179368D01*
Y-195400D01*
X171000D01*
Y14000D01*
X224454D01*
Y11552D01*
X219902D01*
Y12302D01*
X214698D01*
Y11802D01*
X213702D01*
Y12302D01*
X208498D01*
Y11552D01*
X205374D01*
X198348Y3659D01*
Y-13599D01*
X197499Y-14448D01*
X197032D01*
Y-13919D01*
X186770D01*
Y-17881D01*
X197032D01*
Y-17352D01*
X198701D01*
X200266Y-15787D01*
G02X200948Y-16070I282J-283D01*
G01Y-17099D01*
X198599Y-19448D01*
X197032D01*
Y-18919D01*
X186770D01*
Y-22881D01*
X197032D01*
Y-22352D01*
X199801D01*
X203852Y-18301D01*
Y-6301D01*
X208157Y-1996D01*
G02X208498Y-2138I141J-142D01*
G01Y-2202D01*
X213702D01*
Y-1702D01*
X214698D01*
Y-2202D01*
X215237D01*
G02X215629Y-2677I-1J-400D01*
G03X218971I1671J-323D01*
G02X219363Y-2202I393J75D01*
G01X219902D01*
Y-1302D01*
X224663D01*
G03X232537I3937J1302D01*
G01X244839D01*
X247200Y1060D01*
X249153D01*
G02X249436Y377I0J-400D01*
G01X240361Y-8698D01*
X232537D01*
G03X224663I-3937J-1302D01*
G01X217597D01*
G03Y-11302I-1097J-1302D01*
G01X224663D01*
G03X232537I3937J1302D01*
G01X241439D01*
X251239Y-1502D01*
X262793D01*
G02X263076Y-2184I0J-400D01*
G01X262762Y-2498D01*
X253397D01*
G03Y-5102I-1097J-1302D01*
G01X263840D01*
X264059Y-4882D01*
G02X264742Y-5165I283J-283D01*
G01Y-6424D01*
X263593D01*
G37*
G36*
G01X201252Y-3830D02*
Y2555D01*
X206676Y8648D01*
X208498D01*
Y7898D01*
X213702D01*
Y8398D01*
X214698D01*
Y7898D01*
X219902D01*
Y8648D01*
X223204D01*
X223304Y8548D01*
X224454D01*
Y5854D01*
X232746D01*
Y7592D01*
G02X233429Y7875I400J0D01*
G01X237686Y3618D01*
X245112D01*
G02X245395Y2936I0J-400D01*
G01X243761Y1302D01*
X232537D01*
G03X224663I-3937J-1302D01*
G01X219902D01*
Y2202D01*
X214698D01*
Y1702D01*
X213702D01*
Y2202D01*
X208498D01*
Y1352D01*
X207399D01*
X201934Y-4113D01*
G02X201252Y-3830I-282J283D01*
G37*
G36*
G01X226000Y90302D02*
Y91898D01*
X290139D01*
X290741Y92500D01*
X297694D01*
G02X297977Y91817I0J-400D01*
G01X296461Y90302D01*
X226000D01*
G37*
G36*
G01X291000Y-188800D02*
X280300D01*
X273600Y-181900D01*
X255702D01*
Y-171300D01*
X260900D01*
Y-173800D01*
X280300D01*
Y-156500D01*
X291000D01*
Y-160905D01*
X290993Y-160931D01*
G03Y-163069I4007J-1069D01*
G01X291000Y-163095D01*
Y-170905D01*
X290993Y-170931D01*
G03Y-173069I4007J-1069D01*
G01X291000Y-173095D01*
Y-177854D01*
X290854D01*
Y-186146D01*
X291000D01*
Y-188800D01*
G37*
%LPC*%
G75*
G36*
G01X346512Y-211329D02*
G02Y-208351I0J1489D01*
G01X348676D01*
G02Y-211329I0J-1489D01*
G01X346512D01*
G37*
G36*
G01X264770Y264690D02*
G02Y271404I0J3357D01*
G01X273430D01*
G02Y264690I0J-3357D01*
G01X264770D01*
G37*
G36*
G01X253954Y251906D02*
G02X247238I-3358J0D01*
G01Y260566D01*
G02X253954I3358J0D01*
G01Y251906D01*
G37*
G36*
G01X319944Y284898D02*
Y284127D01*
X313226D01*
Y289073D01*
X319944D01*
Y288302D01*
X320900D01*
G02Y284898I0J-1702D01*
G01X319944D01*
G37*
G36*
G01X305574Y289073D02*
Y284127D01*
X298856D01*
Y284998D01*
X297900D01*
G02Y288402I0J1702D01*
G01X298856D01*
Y289073D01*
X305574D01*
G37*
G36*
G01X337792Y281492D02*
Y276308D01*
X332608D01*
Y276808D01*
X330698D01*
Y280992D01*
X332608D01*
Y281492D01*
X333498D01*
Y289498D01*
X332598D01*
Y289998D01*
X331602D01*
Y289498D01*
X330702D01*
Y288700D01*
G02X327298I-1702J0D01*
G01Y289498D01*
X326398D01*
Y293902D01*
X331602D01*
Y293402D01*
X332598D01*
Y293902D01*
X337802D01*
Y289498D01*
X336902D01*
Y281492D01*
X337792D01*
G37*
G36*
G01X318596Y273898D02*
Y271848D01*
X311878D01*
Y272348D01*
X309822D01*
Y278852D01*
X311878D01*
Y279352D01*
X318596D01*
Y277302D01*
X319700D01*
G02Y273898I0J-1702D01*
G01X318596D01*
G37*
G36*
G01X318402Y264498D02*
Y263998D01*
X313198D01*
Y264498D01*
X311298D01*
Y267902D01*
X313198D01*
Y268402D01*
X318402D01*
Y267902D01*
X319800D01*
G02Y264498I0J-1702D01*
G01X318402D01*
G37*
G36*
G01X345454Y253298D02*
X343905D01*
G02X341517Y255724I-1205J1202D01*
G03X341555Y256257I-278J288D01*
G02X344105Y258502I1345J1043D01*
G01X344898D01*
X345461Y257938D01*
X346339D01*
X346372Y257951D01*
G02X346816Y258029I442J-1214D01*
G01X348980D01*
G02X349952Y255885I1J-1292D01*
G03Y255621I150J-132D01*
G02X348980Y253477I-971J-852D01*
G01X346816D01*
G02X346372Y253555I-2J1292D01*
G01X346339Y253568D01*
X345723D01*
X345454Y253298D01*
G37*
G36*
G01X350502Y243002D02*
Y238598D01*
X345298D01*
Y239098D01*
X343398D01*
Y242502D01*
X345298D01*
Y243002D01*
X346596D01*
Y247581D01*
X346453Y247623D01*
G02X345540Y249067I363J1240D01*
G03X345145Y249530I-395J63D01*
G01X334629D01*
X333960Y250198D01*
X331333D01*
G02Y252802I-3833J1302D01*
G01X335038D01*
X335707Y252132D01*
X347898D01*
G02X348044Y252124I2J-1301D01*
G01X348055Y252123D01*
X348980D01*
G02X349952Y249979I1J-1292D01*
G03Y249715I150J-132D01*
G02X349343Y247623I-971J-852D01*
G01X349200Y247581D01*
Y243941D01*
X349202Y243939D01*
Y243002D01*
X350502D01*
G37*
G36*
G01X244821Y231071D02*
Y224747D01*
X240859D01*
Y231071D01*
X241388D01*
Y231859D01*
X240748Y232499D01*
Y233911D01*
G02X240722Y235644I1452J888D01*
G01X240748Y235690D01*
Y235998D01*
X239598D01*
Y236498D01*
X238602D01*
Y235998D01*
X233398D01*
Y236498D01*
X231900D01*
G02Y239902I0J1702D01*
G01X233398D01*
Y240402D01*
X238602D01*
Y239902D01*
X239598D01*
Y240402D01*
X244802D01*
Y235998D01*
X243652D01*
Y235690D01*
X243678Y235644D01*
G02Y233956I-1478J-844D01*
G01X243652Y233910D01*
Y233701D01*
X244292Y233061D01*
Y231071D01*
X244821D01*
G37*
G36*
G01X237341Y231090D02*
Y224747D01*
X233379D01*
Y226248D01*
X215489D01*
G02Y229152I-889J1452D01*
G01X232270D01*
X232479Y229360D01*
X233379D01*
Y231090D01*
G03X233658Y231469I-121J381D01*
G02X237062I1702J-9D01*
G03X237341Y231090I400J2D01*
G37*
G36*
G01X355116Y234151D02*
X357908Y234255D01*
Y235492D01*
X358408D01*
Y236508D01*
X357908D01*
Y241692D01*
X358800D01*
Y247581D01*
X358657Y247623D01*
G02X359020Y250155I363J1240D01*
G01X359945D01*
X359956Y250156D01*
G02X360248I146J-1293D01*
G01X360259Y250155D01*
X361184D01*
G02X361547Y247623I0J-1292D01*
G01X361404Y247581D01*
Y243027D01*
X361802Y242629D01*
Y241692D01*
X363092D01*
Y236508D01*
X362592D01*
Y235492D01*
X363092D01*
Y230308D01*
X357908D01*
Y230935D01*
G03X357494Y231335I-400J0D01*
G01X354702Y231230D01*
Y229998D01*
X354202D01*
Y229002D01*
X354702D01*
Y223798D01*
X354202D01*
Y223000D01*
G02X350798I-1702J0D01*
G01Y223798D01*
X350298D01*
Y229002D01*
X350798D01*
Y229998D01*
X350298D01*
Y235202D01*
X354702D01*
Y234550D01*
G03X355116Y234151I400J0D01*
G37*
G36*
G01X217698Y206867D02*
X217913Y206652D01*
X231499D01*
X237648Y212801D01*
Y213328D01*
X233378D01*
Y215040D01*
X228201D01*
X227737Y214576D01*
X213427D01*
G02Y217478I0J1451D01*
G01X226535D01*
X226999Y217942D01*
X233378D01*
Y219654D01*
X244822D01*
Y213328D01*
X244542D01*
Y212360D01*
G02X241138I-1702J0D01*
G01Y213328D01*
X240552D01*
Y211599D01*
X232701Y203748D01*
X216711D01*
X214574Y205886D01*
G02X215649Y208363I1026J1026D01*
G03X216062Y208756I13J400D01*
G02X217836Y207522I1302J-20D01*
G03X217698Y206867I145J-373D01*
G37*
G36*
G01X147102Y202598D02*
Y202098D01*
X141898D01*
Y202748D01*
X98889D01*
G02Y205652I-889J1452D01*
G01X141898D01*
Y206502D01*
X147102D01*
Y206002D01*
X148098D01*
Y206502D01*
X153302D01*
Y205702D01*
X153701D01*
X153755Y205744D01*
G02Y203056I1045J-1344D01*
G01X153701Y203098D01*
X153302D01*
Y202098D01*
X148098D01*
Y202598D01*
X147102D01*
G37*
G36*
G01X164642Y190010D02*
X165526Y189126D01*
G02X163474Y187074I-1026J-1026D01*
G01X161740Y188808D01*
Y188908D01*
X155899Y194748D01*
X153502D01*
Y193998D01*
X148298D01*
Y194498D01*
X147302D01*
Y193998D01*
X142098D01*
Y194648D01*
X92789D01*
G02Y197552I-889J1452D01*
G01X142098D01*
Y198402D01*
X147302D01*
Y197902D01*
X148298D01*
Y198402D01*
X153502D01*
Y197652D01*
X157101D01*
X164642Y190110D01*
Y190010D01*
G37*
G36*
G01X264734Y180206D02*
Y175838D01*
X254866D01*
Y180356D01*
X254005D01*
X245123Y189238D01*
X240028D01*
G03X239661Y188678I0J-400D01*
G02X239551Y187111I-1561J-678D01*
G03X239892Y186502I341J-209D01*
G01X240302D01*
Y186002D01*
X242202D01*
Y182598D01*
X240302D01*
Y182098D01*
X239827D01*
G03X239498Y181470I0J-400D01*
G02X236702I-1398J-970D01*
G03X236373Y182098I-329J228D01*
G01X235098D01*
Y183098D01*
X234302D01*
X233981Y183420D01*
X230882D01*
X230847Y183406D01*
G02Y185836I-468J1215D01*
G01X230882Y185822D01*
X235098D01*
Y186502D01*
X236308D01*
G03X236649Y187111I0J400D01*
G02X236539Y188678I1451J889D01*
G03X236172Y189238I-367J160D01*
G01X232337D01*
G03X231942Y188772I0J-400D01*
G02X230349Y189823I-1284J-214D01*
G03X230647Y190288I-95J389D01*
G02X230646Y190783I1277J250D01*
G03X230358Y191244I-393J75D01*
G02X230700Y193802I342J1256D01*
G01X244261D01*
X253061Y202602D01*
X253985D01*
X254028Y202644D01*
X254866D01*
Y207162D01*
X264734D01*
Y202794D01*
X268842D01*
X269099Y203052D01*
X269998D01*
Y204202D01*
X274402D01*
Y198998D01*
X273902D01*
Y197098D01*
X270498D01*
Y198998D01*
X269998D01*
Y199892D01*
X264734D01*
Y195524D01*
X254866D01*
Y199998D01*
X254139D01*
X246091Y191950D01*
X254183Y183858D01*
G03X254866Y184141I283J283D01*
G01Y187476D01*
X264734D01*
Y183108D01*
X269998D01*
Y184002D01*
X270498D01*
Y185902D01*
X273902D01*
Y184002D01*
X274402D01*
Y178798D01*
X269998D01*
Y179948D01*
X269099D01*
X268842Y180206D01*
X264734D01*
G37*
G36*
G01X148198Y182402D02*
X153401D01*
Y182281D01*
G03X153858Y181885I400J0D01*
G02X155197Y181502I242J-1685D01*
G01X161739D01*
X163223Y180018D01*
X164276D01*
G03X164559Y180700I0J400D01*
G01X158361Y186898D01*
X155566D01*
G02X153756Y186822I-965J1402D01*
G01X153710Y186848D01*
X153402D01*
Y185998D01*
X148198D01*
Y186498D01*
X147202D01*
Y185998D01*
X141998D01*
Y186748D01*
X136901D01*
X136864Y186733D01*
G02X137089Y189752I-664J1567D01*
G01X141998D01*
Y190402D01*
X147202D01*
Y189902D01*
X148198D01*
Y190402D01*
X153402D01*
Y189752D01*
X153710D01*
X153756Y189778D01*
G02X155805Y189502I844J-1478D01*
G01X159439D01*
X166955Y181986D01*
X172466D01*
G03X172861Y182448I0J400D01*
G02X175384Y182248I1286J205D01*
G01X175374Y182217D01*
Y181986D01*
X175616D01*
G02X176599Y179831I0J-1302D01*
G03Y179569I151J-131D01*
G02X176138Y177524I-983J-853D01*
G03X175910Y177061I160J-367D01*
G02X175915Y176452I-1263J-315D01*
G03X176157Y175989I389J-91D01*
G02X175679Y173478I-478J-1210D01*
G01X175287D01*
Y173238D01*
X175302Y173201D01*
G02X172830Y172989I-1202J-501D01*
G03X172440Y173478I-390J89D01*
G01X169518D01*
X159039Y162998D01*
X156305D01*
G02X154256Y162722I-1205J1202D01*
G01X154210Y162748D01*
X153402D01*
Y161998D01*
X148198D01*
Y162498D01*
X147202D01*
Y161998D01*
X141998D01*
Y162848D01*
X102989D01*
G02Y165752I-889J1452D01*
G01X141998D01*
Y166428D01*
G03X142226Y166953I-142J374D01*
G02X145374I1574J647D01*
G03X145744Y166402I370J-151D01*
G01X147202D01*
Y165902D01*
X148198D01*
Y166402D01*
X153402D01*
Y165652D01*
X154210D01*
X154256Y165678D01*
G02X156066Y165602I845J-1478D01*
G01X157961D01*
X167122Y174763D01*
G03X166839Y175446I-283J283D01*
G01X159186D01*
X155797Y172057D01*
X155789Y171989D01*
G02X153858Y170515I-1689J211D01*
G03X153402Y170119I-56J-396D01*
G01Y169998D01*
X148198D01*
Y170498D01*
X147202D01*
Y169998D01*
X141998D01*
Y170998D01*
X128097D01*
G02Y173602I-1097J1302D01*
G01X141998D01*
Y174402D01*
X147202D01*
Y173902D01*
X148198D01*
Y174402D01*
X153401D01*
Y174281D01*
G03X153858Y173885I400J0D01*
G02X153889Y173889I233J-1686D01*
G01X153957Y173897D01*
X158108Y178048D01*
X160545D01*
G03X160828Y178731I0J400D01*
G01X160661Y178898D01*
X155197D01*
G02X153858Y178515I-1097J1302D01*
G03X153402Y178119I-56J-396D01*
G01Y177998D01*
X148198D01*
Y178498D01*
X147202D01*
Y177998D01*
X141998D01*
Y178748D01*
X113789D01*
G02Y181652I-889J1452D01*
G01X141998D01*
Y182428D01*
G03X142226Y182953I-142J374D01*
G02X145374I1574J647D01*
G03X145744Y182402I370J-151D01*
G01X147202D01*
Y181902D01*
X148198D01*
Y182402D01*
G37*
G36*
G01X242102Y157998D02*
Y157498D01*
X236898D01*
Y157636D01*
G03X236423Y158029I-400J0D01*
G02Y161371I-323J1671D01*
G03X236898Y161764I75J393D01*
G01Y161902D01*
X242102D01*
Y161402D01*
X243098D01*
Y161902D01*
X248302D01*
Y161402D01*
X249500D01*
G02Y157998I0J-1702D01*
G01X248302D01*
Y157498D01*
X243098D01*
Y157998D01*
X242102D01*
G37*
G36*
G01X322302Y107798D02*
Y107298D01*
X317098D01*
Y108048D01*
X316390D01*
X316344Y108022D01*
G02Y110978I-844J1478D01*
G01X316390Y110952D01*
X317098D01*
Y111702D01*
X322302D01*
Y111202D01*
X324202D01*
Y107798D01*
X322302D01*
G37*
G36*
G01X207901Y108352D02*
X221611D01*
G02Y105448I889J-1452D01*
G01X206699D01*
X206599Y105548D01*
X118389D01*
G02Y108452I-889J1452D01*
G01X207801D01*
X207901Y108352D01*
G37*
G36*
G01X229511Y101148D02*
X88989D01*
G02Y104052I-889J1452D01*
G01X229511D01*
G02Y101148I889J-1452D01*
G37*
G36*
G01X312481Y108570D02*
Y100278D01*
X308519D01*
Y108570D01*
X309048D01*
Y109611D01*
G02X311952I1452J889D01*
G01Y108570D01*
X312481D01*
G37*
G36*
G01X302481D02*
Y100278D01*
X298519D01*
Y108570D01*
X299198D01*
Y117298D01*
X298298D01*
Y122502D01*
X298798D01*
Y124402D01*
X302202D01*
Y122502D01*
X302702D01*
Y117298D01*
X301802D01*
Y108570D01*
X302481D01*
G37*
G36*
G01X277725Y113634D02*
X277498Y113861D01*
Y116161D01*
X277298Y116361D01*
Y117298D01*
X276398D01*
Y122502D01*
X276898D01*
Y123498D01*
X276398D01*
Y128702D01*
X277148D01*
Y129010D01*
X277122Y129056D01*
G02X280078I1478J844D01*
G01X280052Y129010D01*
Y128702D01*
X280802D01*
Y123498D01*
X280302D01*
Y122502D01*
X280802D01*
Y117298D01*
X280102D01*
Y114939D01*
X281802Y113239D01*
Y112144D01*
X281820Y112104D01*
G02Y110896I-1320J-604D01*
G01X281802Y110856D01*
Y108570D01*
X282481D01*
Y100278D01*
X278519D01*
Y108570D01*
X279198D01*
Y110048D01*
X98889D01*
G02Y112952I-889J1452D01*
G01X277442D01*
G03X277725Y113634I0J400D01*
G37*
G36*
G01X322302Y100498D02*
Y99998D01*
X317098D01*
Y100748D01*
X316590D01*
X316544Y100722D01*
G02Y103678I-844J1478D01*
G01X316590Y103652D01*
X317098D01*
Y104402D01*
X322302D01*
Y103902D01*
X324202D01*
Y100498D01*
X322302D01*
G37*
G36*
G01X282646Y98486D02*
X283998Y99839D01*
Y100278D01*
X283519D01*
Y108570D01*
X284198D01*
Y117298D01*
X283398D01*
Y122502D01*
X283898D01*
Y123498D01*
X283398D01*
Y128702D01*
X284148D01*
Y129010D01*
X284122Y129056D01*
G02X287078I1478J844D01*
G01X287052Y129010D01*
Y128702D01*
X287802D01*
Y123498D01*
X287302D01*
Y122502D01*
X287802D01*
Y117298D01*
X286902D01*
Y116361D01*
X286802Y116261D01*
Y108570D01*
X287481D01*
Y100278D01*
X286802D01*
Y99340D01*
X286602Y99140D01*
Y98761D01*
X283724Y95884D01*
X93476D01*
X93461Y95898D01*
X92999D01*
X92945Y95856D01*
G02X92997Y98502I-1045J1344D01*
G01X94539D01*
X94554Y98486D01*
X282646D01*
G37*
G36*
G01X71802Y80798D02*
Y80298D01*
X66598D01*
Y81098D01*
X65705D01*
G02Y83502I-1205J1202D01*
G01X66598D01*
Y84702D01*
X71802D01*
Y84202D01*
X73702D01*
Y80798D01*
X71802D01*
G37*
G36*
G01X155202Y63298D02*
Y62798D01*
X149998D01*
Y63548D01*
X149590D01*
X149544Y63522D01*
G02Y66478I-844J1478D01*
G01X149590Y66452D01*
X149998D01*
Y67202D01*
X155202D01*
Y66702D01*
X157102D01*
Y63298D01*
X155202D01*
G37*
G36*
G01Y55298D02*
Y54798D01*
X149998D01*
Y55548D01*
X149590D01*
X149544Y55522D01*
G02Y58478I-844J1478D01*
G01X149590Y58452D01*
X149998D01*
Y59202D01*
X155202D01*
Y58702D01*
X157102D01*
Y55298D01*
X155202D01*
G37*
G36*
G01X162565Y49712D02*
G03X162707Y49371I142J-141D01*
G01X162921D01*
Y43352D01*
X169399D01*
X175825Y49778D01*
X175773Y49902D01*
G02X178002Y47673I3827J1598D01*
G01X177878Y47725D01*
X171787Y41634D01*
G03X172070Y40952I283J-282D01*
G01X172553D01*
X174553Y42952D01*
X175715D01*
G02X175955Y39522I3885J-1452D01*
G03X175321Y39614I-351J-191D01*
G01X173755Y38048D01*
X162922D01*
Y31605D01*
G03X162666Y31147I136J-376D01*
G02X162425Y29870I-1666J-347D01*
G03X162760Y29252I335J-218D01*
G01X175299D01*
X175825Y29778D01*
X175773Y29902D01*
G02X178002Y27673I3827J1598D01*
G01X177878Y27725D01*
X176501Y26348D01*
X157119D01*
X152008Y31459D01*
Y31628D01*
X151478D01*
Y33340D01*
X142092D01*
X138301Y29548D01*
X78002D01*
Y28798D01*
X72798D01*
Y29298D01*
X71802D01*
Y28798D01*
X66598D01*
Y29798D01*
X65505D01*
G02Y32202I-1205J1202D01*
G01X66598D01*
Y33202D01*
X71802D01*
Y32702D01*
X72798D01*
Y33202D01*
X78002D01*
Y32452D01*
X137099D01*
X140890Y36242D01*
X151478D01*
Y38248D01*
X108101D01*
X107401Y37548D01*
X78002D01*
Y36798D01*
X72798D01*
Y37298D01*
X71802D01*
Y36798D01*
X66598D01*
Y37798D01*
X65505D01*
G02Y40202I-1205J1202D01*
G01X66598D01*
Y41202D01*
X71802D01*
Y40702D01*
X72798D01*
Y41202D01*
X78002D01*
Y40452D01*
X106199D01*
X106899Y41152D01*
X152038D01*
G03X152321Y41834I0J400D01*
G01X152008Y42147D01*
Y43047D01*
X151479D01*
Y44758D01*
X107091D01*
X106300Y45548D01*
X78002D01*
Y44798D01*
X72798D01*
Y45298D01*
X71802D01*
Y44798D01*
X66598D01*
Y45798D01*
X65505D01*
G02Y48202I-1205J1202D01*
G01X66598D01*
Y49202D01*
X71802D01*
Y48702D01*
X72798D01*
Y49202D01*
X78002D01*
Y48452D01*
X107502D01*
X108293Y47660D01*
X151479D01*
Y49371D01*
X155441D01*
Y43352D01*
X158959D01*
Y49371D01*
X159448D01*
Y49799D01*
X157999Y51248D01*
X109299D01*
X106999Y53548D01*
X78002D01*
Y52798D01*
X72798D01*
Y53298D01*
X71802D01*
Y52798D01*
X66598D01*
Y53798D01*
X65505D01*
G02Y56202I-1205J1202D01*
G01X66598D01*
Y57202D01*
X71802D01*
Y56702D01*
X72798D01*
Y57202D01*
X78002D01*
Y56452D01*
X108201D01*
X110501Y54152D01*
X159201D01*
X161050Y52303D01*
X162999Y54252D01*
X170299D01*
X175825Y59778D01*
X175773Y59902D01*
G02X178002Y57673I3827J1598D01*
G01X177878Y57725D01*
X171501Y51348D01*
X164201D01*
X162565Y49712D01*
G37*
G36*
G01X71802Y21298D02*
Y20798D01*
X66598D01*
Y21798D01*
X65505D01*
G02Y24202I-1205J1202D01*
G01X66598D01*
Y25202D01*
X71802D01*
Y24702D01*
X72798D01*
Y25202D01*
X78002D01*
Y24302D01*
X80641D01*
X80661Y24282D01*
X81480D01*
G02X81527Y21678I1120J-1282D01*
G01X79583D01*
X79563Y21698D01*
X78002D01*
Y20798D01*
X72798D01*
Y21298D01*
X71802D01*
G37*
G36*
G01Y13298D02*
Y12798D01*
X66598D01*
Y13798D01*
X65505D01*
G02Y16202I-1205J1202D01*
G01X66598D01*
Y17202D01*
X71802D01*
Y16702D01*
X72798D01*
Y17202D01*
X78002D01*
Y17015D01*
G03X78515Y16632I400J0D01*
G02Y13368I485J-1632D01*
G03X78002Y12985I-113J-383D01*
G01Y12798D01*
X72798D01*
Y13298D01*
X71802D01*
G37*
G36*
G01X156502Y9298D02*
Y8798D01*
X151298D01*
Y9298D01*
X149900D01*
G02Y12702I0J1702D01*
G01X151298D01*
Y13202D01*
X156502D01*
Y12702D01*
X158402D01*
Y9298D01*
X156502D01*
G37*
G36*
G01X71802Y5298D02*
Y4798D01*
X66598D01*
Y5798D01*
X65505D01*
G02Y8202I-1205J1202D01*
G01X66598D01*
Y9202D01*
X71802D01*
Y8702D01*
X72798D01*
Y9202D01*
X78002D01*
Y8452D01*
X91011D01*
G02Y5548I889J-1452D01*
G01X78002D01*
Y4798D01*
X72798D01*
Y5298D01*
X71802D01*
G37*
G36*
G01X156502Y2298D02*
Y1798D01*
X151298D01*
Y2298D01*
X150000D01*
G02Y5702I0J1702D01*
G01X151298D01*
Y6202D01*
X156502D01*
Y5702D01*
X158402D01*
Y2298D01*
X156502D01*
G37*
G36*
G01X71802Y-2702D02*
Y-3202D01*
X66598D01*
Y-2202D01*
X65505D01*
G02Y202I-1205J1202D01*
G01X66598D01*
Y1202D01*
X71802D01*
Y702D01*
X72798D01*
Y1202D01*
X78002D01*
Y452D01*
X112799D01*
X112899Y552D01*
X122798D01*
Y1302D01*
X128002D01*
Y802D01*
X128998D01*
Y1302D01*
X134202D01*
Y552D01*
X138611D01*
G02Y-2352I889J-1452D01*
G01X134202D01*
Y-3102D01*
X128998D01*
Y-2602D01*
X128002D01*
Y-3102D01*
X122798D01*
Y-2352D01*
X114101D01*
X114001Y-2452D01*
X78002D01*
Y-3202D01*
X72798D01*
Y-2702D01*
X71802D01*
G37*
G36*
G01X159630Y-7602D02*
Y-7881D01*
X149368D01*
Y-3919D01*
X159630D01*
Y-4198D01*
X162800D01*
G02Y-7602I0J-1702D01*
G01X159630D01*
G37*
G36*
G01X71802Y-10702D02*
Y-11202D01*
X66598D01*
Y-10202D01*
X65505D01*
G02Y-7798I-1205J1202D01*
G01X66598D01*
Y-6798D01*
X71802D01*
Y-7298D01*
X72798D01*
Y-6798D01*
X78002D01*
Y-7698D01*
X96903D01*
G02Y-10302I1097J-1302D01*
G01X78002D01*
Y-11202D01*
X72798D01*
Y-10702D01*
X71802D01*
G37*
G36*
G01X159630Y-13919D02*
Y-17881D01*
X149368D01*
Y-17352D01*
X127889D01*
G02Y-14448I-889J1452D01*
G01X149368D01*
Y-13919D01*
X159630D01*
G37*
G36*
G01X71802Y-18702D02*
Y-19202D01*
X66598D01*
Y-18202D01*
X65505D01*
G02Y-15798I-1205J1202D01*
G01X66598D01*
Y-14798D01*
X71802D01*
Y-15298D01*
X72798D01*
Y-14798D01*
X78002D01*
Y-15548D01*
X84011D01*
G02Y-18452I889J-1452D01*
G01X78002D01*
Y-19202D01*
X72798D01*
Y-18702D01*
X71802D01*
G37*
G36*
G01X159630Y-18919D02*
Y-22881D01*
X149368D01*
Y-22352D01*
X102889D01*
G02Y-19448I-889J1452D01*
G01X149368D01*
Y-18919D01*
X159630D01*
G37*
G36*
G01Y-23919D02*
Y-27881D01*
X149368D01*
Y-27352D01*
X145389D01*
G02Y-24448I-889J1452D01*
G01X149368D01*
Y-23919D01*
X159630D01*
G37*
G36*
G01Y-28919D02*
Y-32881D01*
X149368D01*
Y-32352D01*
X141464D01*
X135314Y-26202D01*
X131589D01*
G02X129811I-889J1452D01*
G01X120486D01*
X120236Y-26452D01*
X78002D01*
Y-27202D01*
X72798D01*
Y-26702D01*
X71802D01*
Y-27202D01*
X66598D01*
Y-26202D01*
X65505D01*
G02Y-23798I-1205J1202D01*
G01X66598D01*
Y-22798D01*
X71802D01*
Y-23298D01*
X72798D01*
Y-22798D01*
X78002D01*
Y-23548D01*
X119034D01*
X119284Y-23298D01*
X129811D01*
G02X131589I889J-1452D01*
G01X136516D01*
X142666Y-29448D01*
X149368D01*
Y-28919D01*
X159630D01*
G37*
G36*
G01X71802Y-34702D02*
Y-35202D01*
X66598D01*
Y-34202D01*
X65505D01*
G02Y-31798I-1205J1202D01*
G01X66598D01*
Y-30798D01*
X71802D01*
Y-31298D01*
X72798D01*
Y-30798D01*
X78002D01*
Y-31548D01*
X126211D01*
G02Y-34452I889J-1452D01*
G01X78002D01*
Y-35202D01*
X72798D01*
Y-34702D01*
X71802D01*
G37*
G36*
G01Y-42702D02*
Y-43202D01*
X66598D01*
Y-42202D01*
X65505D01*
G02Y-39798I-1205J1202D01*
G01X66598D01*
Y-38798D01*
X71802D01*
Y-39298D01*
X72798D01*
Y-38798D01*
X78002D01*
Y-39548D01*
X112011D01*
G02Y-42452I889J-1452D01*
G01X78002D01*
Y-43202D01*
X72798D01*
Y-42702D01*
X71802D01*
G37*
G36*
G01Y-50702D02*
Y-51202D01*
X66598D01*
Y-50202D01*
X65505D01*
G02Y-47798I-1205J1202D01*
G01X66598D01*
Y-46798D01*
X71802D01*
Y-47298D01*
X72798D01*
Y-46798D01*
X78002D01*
Y-47348D01*
X143618D01*
G02X143575Y-50252I867J-1465D01*
G01X78002D01*
Y-51202D01*
X72798D01*
Y-50702D01*
X71802D01*
G37*
G36*
G01Y-58702D02*
Y-59202D01*
X66598D01*
Y-58202D01*
X65505D01*
G02Y-55798I-1205J1202D01*
G01X66598D01*
Y-54798D01*
X71802D01*
Y-55298D01*
X72798D01*
Y-54798D01*
X78002D01*
Y-59202D01*
X72798D01*
Y-58702D01*
X71802D01*
G37*
G36*
G01X156202Y-64602D02*
Y-65102D01*
X150998D01*
Y-60698D01*
X151798D01*
Y-58102D01*
X150998D01*
Y-53698D01*
X156202D01*
Y-54198D01*
X158102D01*
Y-57602D01*
X156202D01*
Y-58102D01*
X155202D01*
Y-60698D01*
X156202D01*
Y-61198D01*
X158102D01*
Y-64602D01*
X156202D01*
G37*
G36*
G01X71802Y-66702D02*
Y-67202D01*
X66598D01*
Y-66202D01*
X65505D01*
G02Y-63798I-1205J1202D01*
G01X66598D01*
Y-62798D01*
X71802D01*
Y-63298D01*
X72798D01*
Y-62798D01*
X78002D01*
Y-63548D01*
X86177D01*
X86191Y-63534D01*
X87469D01*
X87483Y-63548D01*
X88411D01*
G02X90144Y-63522I888J-1452D01*
G01X90190Y-63548D01*
X90949D01*
X91049Y-63448D01*
X114201D01*
X114301Y-63548D01*
X128211D01*
G02Y-66452I889J-1452D01*
G01X113099D01*
X112999Y-66352D01*
X92251D01*
X92151Y-66452D01*
X90189D01*
G02X88411I-889J1452D01*
G01X78002D01*
Y-67202D01*
X72798D01*
Y-66702D01*
X71802D01*
G37*
G36*
G01X160138Y-74538D02*
G03X159656Y-74781I-108J-385D01*
G01X149368D01*
Y-70819D01*
X159630D01*
Y-71348D01*
X159899D01*
X159936Y-71333D01*
G02X160138Y-74538I664J-1567D01*
G37*
G36*
G01X71802Y-74702D02*
Y-75202D01*
X66598D01*
Y-74202D01*
X65505D01*
G02Y-71798I-1205J1202D01*
G01X66598D01*
Y-70798D01*
X71802D01*
Y-71298D01*
X72798D01*
Y-70798D01*
X78002D01*
Y-71548D01*
X132799D01*
X132883Y-71632D01*
X133642D01*
X133688Y-71606D01*
G02X133643Y-74536I844J-1478D01*
G01X131681D01*
X131597Y-74452D01*
X78002D01*
Y-75202D01*
X72798D01*
Y-74702D01*
X71802D01*
G37*
G36*
G01Y-82702D02*
Y-83202D01*
X66598D01*
Y-82202D01*
X65505D01*
G02Y-79798I-1205J1202D01*
G01X66598D01*
Y-78798D01*
X71802D01*
Y-79298D01*
X72798D01*
Y-78798D01*
X78002D01*
Y-79548D01*
X95549D01*
X95558Y-79540D01*
X111808D01*
X113299Y-78048D01*
X116611D01*
G02Y-80952I889J-1452D01*
G01X114501D01*
X113010Y-82442D01*
X96760D01*
X96751Y-82452D01*
X78002D01*
Y-83202D01*
X72798D01*
Y-82702D01*
X71802D01*
G37*
G36*
G01X159630Y-80819D02*
Y-84781D01*
X149368D01*
Y-84252D01*
X129989D01*
G02Y-81348I-889J1452D01*
G01X149368D01*
Y-80819D01*
X159630D01*
G37*
G36*
G01Y-85819D02*
Y-89781D01*
X149368D01*
Y-89252D01*
X110667D01*
X110622Y-89296D01*
X108660D01*
G02X108615Y-86367I-889J1451D01*
G01X108661Y-86394D01*
X109420D01*
X109465Y-86348D01*
X149368D01*
Y-85819D01*
X159630D01*
G37*
G36*
G01X71802Y-90702D02*
Y-91202D01*
X66598D01*
Y-90202D01*
X65505D01*
G02Y-87798I-1205J1202D01*
G01X66598D01*
Y-86798D01*
X71802D01*
Y-87298D01*
X72798D01*
Y-86798D01*
X78002D01*
Y-87548D01*
X89111D01*
G02Y-90452I889J-1452D01*
G01X78002D01*
Y-91202D01*
X72798D01*
Y-90702D01*
X71802D01*
G37*
G36*
G01X159630Y-90819D02*
Y-94781D01*
X149368D01*
Y-94252D01*
X135339D01*
G02Y-91348I-889J1452D01*
G01X149368D01*
Y-90819D01*
X159630D01*
G37*
G36*
G01X160157Y-99413D02*
G03X159630Y-99781I-127J-379D01*
G01X149368D01*
Y-95819D01*
X159630D01*
G03X160157Y-96187I400J11D01*
G02Y-99413I543J-1613D01*
G37*
G36*
G01X71802Y-106702D02*
Y-107202D01*
X66598D01*
Y-106162D01*
X65505D01*
G02Y-103758I-1205J1202D01*
G01X66598D01*
Y-102798D01*
X71802D01*
Y-103298D01*
X72798D01*
Y-102798D01*
X78002D01*
Y-103548D01*
X101379D01*
X101420Y-103529D01*
G02X101166Y-106452I733J-1536D01*
G01X78002D01*
Y-107202D01*
X72798D01*
Y-106702D01*
X71802D01*
G37*
G36*
G01Y-114702D02*
Y-115202D01*
X66598D01*
Y-114202D01*
X65505D01*
G02Y-111798I-1205J1202D01*
G01X66598D01*
Y-110798D01*
X71802D01*
Y-111298D01*
X72798D01*
Y-110798D01*
X78002D01*
Y-115202D01*
X72798D01*
Y-114702D01*
X71802D01*
G37*
G36*
G01X143651Y-115598D02*
X165161D01*
G02Y-118502I889J-1452D01*
G01X142449D01*
X122399Y-98452D01*
X78002D01*
Y-99202D01*
X72798D01*
Y-98702D01*
X71802D01*
Y-99202D01*
X66598D01*
Y-98202D01*
X65505D01*
G02Y-95798I-1205J1202D01*
G01X66598D01*
Y-94798D01*
X71802D01*
Y-95298D01*
X72798D01*
Y-94798D01*
X78002D01*
Y-95548D01*
X123601D01*
X143651Y-115598D01*
G37*
G36*
G01X71802Y-122702D02*
Y-123202D01*
X66598D01*
Y-122202D01*
X65505D01*
G02Y-119798I-1205J1202D01*
G01X66598D01*
Y-118798D01*
X71802D01*
Y-119298D01*
X72798D01*
Y-118798D01*
X78002D01*
Y-119548D01*
X104751D01*
X104851Y-119648D01*
X107311D01*
G02Y-122552I889J-1452D01*
G01X103649D01*
X103549Y-122452D01*
X78002D01*
Y-123202D01*
X72798D01*
Y-122702D01*
X71802D01*
G37*
G36*
G01X159630Y-130102D02*
Y-130381D01*
X149368D01*
Y-126419D01*
X159630D01*
Y-126698D01*
X160800D01*
G02Y-130102I0J-1702D01*
G01X159630D01*
G37*
G36*
G01Y-131419D02*
Y-135381D01*
X149368D01*
Y-134852D01*
X148149D01*
X146349Y-133052D01*
X140389D01*
G02Y-130148I-889J1452D01*
G01X147551D01*
X149027Y-131624D01*
G03X149368Y-131483I141J141D01*
G01Y-131419D01*
X159630D01*
G37*
G36*
G01Y-136419D02*
Y-140381D01*
X149368D01*
Y-139852D01*
X146599D01*
X145247Y-138500D01*
X145002Y-138602D01*
X139798D01*
Y-138102D01*
X138802D01*
Y-138602D01*
X133598D01*
Y-137852D01*
X113789D01*
G02Y-134948I-889J1452D01*
G01X133598D01*
Y-134198D01*
X138802D01*
Y-134698D01*
X139798D01*
Y-134198D01*
X145002D01*
Y-134848D01*
X145701D01*
X147801Y-136948D01*
X149368D01*
Y-136419D01*
X159630D01*
G37*
G36*
G01X138702Y-145102D02*
Y-145602D01*
X133498D01*
Y-144852D01*
X86477D01*
X86465Y-144840D01*
X85706D01*
X85660Y-144866D01*
G02X85705Y-141936I-844J1478D01*
G01X87667D01*
X87679Y-141948D01*
X133498D01*
Y-141198D01*
X138702D01*
Y-141698D01*
X139698D01*
Y-141198D01*
X144902D01*
Y-141948D01*
X149368D01*
Y-141419D01*
X159630D01*
Y-145381D01*
X149368D01*
Y-144852D01*
X144902D01*
Y-145602D01*
X139698D01*
Y-145102D01*
X138702D01*
G37*
G36*
G01X138802Y-152102D02*
Y-152602D01*
X133598D01*
Y-151852D01*
X118389D01*
G02Y-148948I-889J1452D01*
G01X133598D01*
Y-148198D01*
X138802D01*
Y-148698D01*
X139798D01*
Y-148198D01*
X145019D01*
G03X145684Y-148363I382J118D01*
G01X147099Y-146948D01*
X149368D01*
Y-146419D01*
X159630D01*
Y-150381D01*
X149368D01*
Y-149852D01*
X148301D01*
X146401Y-151752D01*
X146001D01*
X145901Y-151852D01*
X145002D01*
Y-152602D01*
X139798D01*
Y-152102D01*
X138802D01*
G37*
G36*
G01X156601Y-160381D02*
G03X156201Y-160784I0J-400D01*
G02X152797I-1702J-15D01*
G03X152397Y-160381I-400J3D01*
G01X149368D01*
Y-156419D01*
X159630D01*
Y-160381D01*
X156601D01*
G37*
G36*
G01X157702Y-170102D02*
Y-170602D01*
X152498D01*
Y-166198D01*
X153648D01*
Y-165890D01*
X153622Y-165844D01*
G02X156578I1478J844D01*
G01X156552Y-165890D01*
Y-166198D01*
X157702D01*
Y-166698D01*
X159602D01*
Y-170102D01*
X157702D01*
G37*
G36*
G01X157142Y-177602D02*
G03X156753Y-178096I0J-400D01*
G02X153447I-1653J-404D01*
G03X153058Y-177602I-389J94D01*
G01X152498D01*
Y-173198D01*
X157702D01*
Y-173698D01*
X159602D01*
Y-177102D01*
X157702D01*
Y-177602D01*
X157142D01*
G37*
G36*
G01X203602Y-222700D02*
Y-223002D01*
X198398D01*
Y-222502D01*
X196498D01*
Y-219098D01*
X198398D01*
Y-218598D01*
X203602D01*
Y-218900D01*
G03X204172Y-219261I400J1D01*
G02Y-222339I728J-1539D01*
G03X203602Y-222700I-170J-362D01*
G37*
G36*
G01X365702Y-225702D02*
Y-226202D01*
X360498D01*
Y-225702D01*
X358598D01*
Y-222298D01*
X360498D01*
Y-221798D01*
X365702D01*
Y-222298D01*
X366945D01*
X368945Y-220298D01*
X370845D01*
G02Y-223702I3455J-1702D01*
G01X370355D01*
X368355Y-225702D01*
X365702D01*
G37*
G36*
G01X203602Y-230299D02*
Y-230502D01*
X198398D01*
Y-230002D01*
X196498D01*
Y-226598D01*
X198398D01*
Y-226098D01*
X203602D01*
Y-226301D01*
G03X204125Y-226681I400J0D01*
G02Y-229919I525J-1619D01*
G03X203602Y-230299I-123J-380D01*
G37*
G36*
G01X364902Y-233302D02*
Y-234400D01*
G02X361498I-1702J0D01*
G01Y-233302D01*
X360498D01*
Y-232802D01*
X358598D01*
Y-229398D01*
X360498D01*
Y-228898D01*
X365702D01*
Y-233302D01*
X364902D01*
G37*
G36*
G01X207133Y-238662D02*
Y-239048D01*
X200809D01*
Y-235874D01*
X207133D01*
Y-236260D01*
X207550D01*
X207610Y-236190D01*
G02X207930Y-238698I1290J-1110D01*
G01X207878Y-238662D01*
X207133D01*
G37*
G36*
G01X366033Y-241448D02*
X360576D01*
X360543Y-241461D01*
G02Y-238261I-582J1600D01*
G01X360576Y-238274D01*
X366033D01*
Y-241448D01*
G37*
G36*
G01X308750Y-235202D02*
X275399Y-201852D01*
X103799D01*
X95999Y-194052D01*
X90889D01*
G02Y-191148I-889J1452D01*
G01X97201D01*
X105001Y-198948D01*
X276601D01*
X310802Y-233150D01*
X310924Y-233103D01*
G02X315867Y-235248I1376J-3597D01*
G01X323098D01*
Y-234498D01*
X328302D01*
Y-234998D01*
X329298D01*
Y-234498D01*
X334502D01*
Y-235248D01*
X338401D01*
X343985Y-240832D01*
X349892D01*
Y-240968D01*
X355621D01*
X359026Y-244373D01*
G03X359708Y-244090I282J283D01*
G01Y-243392D01*
X366034D01*
Y-243528D01*
X366933D01*
X367153Y-243748D01*
X370598D01*
Y-242998D01*
X375802D01*
Y-243498D01*
X376798D01*
Y-242998D01*
X382002D01*
Y-247402D01*
X381870D01*
G03X381587Y-248084I0J-400D01*
G01X392152Y-258649D01*
Y-269315D01*
X392352Y-269515D01*
Y-270887D01*
G02X389273Y-270946I-1452J-4613D01*
G03X389347Y-270616I-67J188D01*
G01X389248Y-270517D01*
Y-259851D01*
X377948Y-248551D01*
Y-247402D01*
X376798D01*
Y-246902D01*
X375802D01*
Y-247402D01*
X370598D01*
Y-246652D01*
X366034D01*
Y-249127D01*
X359708D01*
Y-248990D01*
X359538D01*
X354419Y-243872D01*
X349892D01*
Y-246568D01*
X343566D01*
Y-246432D01*
X338479D01*
X338199Y-246152D01*
X334502D01*
Y-246902D01*
X329298D01*
Y-246402D01*
X328302D01*
Y-246902D01*
X323098D01*
G03X322416Y-246637I-399J-18D01*
G01X317252Y-251801D01*
Y-269665D01*
X317352Y-269765D01*
Y-270887D01*
G02X314348Y-270920I-1452J-4613D01*
G01Y-250599D01*
X321699Y-243248D01*
X323098D01*
Y-242498D01*
X328302D01*
Y-242998D01*
X329298D01*
Y-242498D01*
X334502D01*
Y-243248D01*
X339401D01*
X339681Y-243528D01*
X341610D01*
G03X341893Y-242846I0J400D01*
G01X337199Y-238152D01*
X334502D01*
Y-238902D01*
X329298D01*
Y-238402D01*
X328302D01*
Y-238902D01*
X323098D01*
Y-238152D01*
X315867D01*
G02X308703Y-235324I-3567J1452D01*
G01X308750Y-235202D01*
G37*
G36*
G01X225024Y-239598D02*
X224889Y-227585D01*
X224770Y-227534D01*
G02X222751Y-222504I1530J3534D01*
G01X208099Y-207852D01*
X161689D01*
G02Y-204948I-889J1452D01*
G01X209301D01*
X224804Y-220451D01*
G02X227909Y-227499I1496J-3549D01*
G01X227792Y-227553D01*
X227927Y-239598D01*
X229102D01*
Y-244002D01*
X223898D01*
Y-243502D01*
X222902D01*
Y-244002D01*
X217698D01*
Y-243252D01*
X216501D01*
X215721Y-244032D01*
X207134D01*
Y-246727D01*
X200808D01*
Y-246590D01*
X199138D01*
X194019Y-241472D01*
X193450D01*
G03X193167Y-242154I0J-400D01*
G01X199361Y-248348D01*
X217698D01*
Y-247598D01*
X222902D01*
Y-248098D01*
X223898D01*
Y-247598D01*
X229102D01*
Y-248348D01*
X232001D01*
X242252Y-258599D01*
Y-269665D01*
X242352Y-269765D01*
Y-270887D01*
G02X239348Y-270920I-1452J-4613D01*
G01Y-259801D01*
X230799Y-251252D01*
X229102D01*
Y-252002D01*
X223898D01*
Y-251502D01*
X222902D01*
Y-252002D01*
X217698D01*
Y-251252D01*
X198159D01*
X191075Y-244168D01*
X184666D01*
Y-241252D01*
X179102D01*
Y-242002D01*
X177952D01*
Y-248701D01*
X167252Y-259401D01*
Y-269665D01*
X167352Y-269765D01*
Y-270887D01*
G02X164348Y-270920I-1452J-4613D01*
G01Y-258199D01*
X175048Y-247499D01*
Y-242002D01*
X173898D01*
Y-241502D01*
X171998D01*
Y-238098D01*
X173898D01*
Y-237598D01*
X179102D01*
Y-238348D01*
X186249D01*
X186333Y-238432D01*
X190992D01*
Y-238568D01*
X195221D01*
X200340Y-243688D01*
X200808D01*
Y-240992D01*
X207134D01*
Y-241128D01*
X214519D01*
X215299Y-240348D01*
X217698D01*
Y-239598D01*
X222902D01*
Y-240098D01*
X223898D01*
Y-239598D01*
X225024D01*
G37*
G36*
G01X365082Y-205622D02*
Y-205837D01*
X365084Y-205851D01*
G02X362511Y-207552I-1684J-249D01*
G01X360821D01*
X360801Y-207556D01*
G02X360488Y-207589I-312J1456D01*
G01X358324D01*
G02Y-204611I0J1489D01*
G01X360488D01*
G02X360801Y-204644I1J-1489D01*
G01X360821Y-204648D01*
X362511D01*
G02X362561Y-204619I879J-1458D01*
G03X362531Y-203907I-197J348D01*
G02X362351Y-203812I703J1550D01*
G01X360821D01*
X360801Y-203816D01*
G02X360488Y-203849I-312J1456D01*
G01X358324D01*
G02Y-200871I0J1489D01*
G01X360488D01*
G02X360801Y-200904I1J-1489D01*
G01X360821Y-200908D01*
X362351D01*
G02X364084Y-200882I888J-1452D01*
G01X364130Y-200908D01*
X365048D01*
Y-198904D01*
X372552D01*
Y-205622D01*
X372052D01*
Y-207678D01*
X365548D01*
Y-205622D01*
X365082D01*
G37*
G36*
G01X237411Y-178796D02*
X237392Y-178975D01*
G02X234008I-1692J175D01*
G01X233989Y-178796D01*
X231948D01*
Y-172078D01*
X232448D01*
Y-170022D01*
X238952D01*
Y-172078D01*
X239789D01*
X239810Y-171901D01*
G02X242389Y-170648I1690J-199D01*
G01X243779D01*
X243799Y-170644D01*
G02X244112Y-170611I312J-1456D01*
G01X246276D01*
G02Y-173589I1J-1489D01*
G01X244112D01*
G02X243799Y-173556I-1J1489D01*
G01X243779Y-173552D01*
X242389D01*
G02X241618Y-173798I-888J1452D01*
G03X241582Y-174191I14J-199D01*
G02X242049Y-174388I-421J-1649D01*
G01X243779D01*
X243799Y-174384D01*
G02X244112Y-174351I312J-1456D01*
G01X246276D01*
G02Y-177329I1J-1489D01*
G01X244112D01*
G02X243799Y-177296I-1J1489D01*
G01X243779Y-177292D01*
X242049D01*
G02X240101Y-177173I-889J1452D01*
G03X239452Y-177486I-249J-313D01*
G01Y-178796D01*
X237411D01*
G37*
G36*
G01X218400Y121887D02*
Y120823D01*
G02X218059Y120681I-200J0D01*
G01X217048Y121692D01*
X216802Y121590D01*
Y121498D01*
X212398D01*
Y123526D01*
G03X211713Y123806I-400J0D01*
G02X209403Y123698I-1213J1194D01*
G01X207861D01*
X207761Y123798D01*
X135697D01*
G02Y126402I-1097J1302D01*
G01X208839D01*
X208939Y126302D01*
X209401D01*
X209455Y126344D01*
G02X211713Y126194I1045J-1344D01*
G03X212398Y126474I285J280D01*
G01Y126702D01*
X212898D01*
Y127698D01*
X212398D01*
Y132902D01*
X213148D01*
Y134311D01*
G02X216052I1452J889D01*
G01Y132902D01*
X216802D01*
Y127698D01*
X216302D01*
Y126702D01*
X216802D01*
Y125802D01*
X220398D01*
Y126702D01*
X220898D01*
Y127698D01*
X220398D01*
Y132902D01*
X221148D01*
Y134311D01*
G02X224052I1452J889D01*
G01Y132902D01*
X224802D01*
Y127698D01*
X224302D01*
Y126702D01*
X224802D01*
Y125702D01*
X228398D01*
Y126702D01*
X228898D01*
Y127698D01*
X228398D01*
Y132902D01*
X229148D01*
Y134311D01*
G02X232052I1452J889D01*
G01Y132902D01*
X232802D01*
Y127698D01*
X232302D01*
Y126702D01*
X232802D01*
Y121498D01*
X228398D01*
Y122298D01*
X224802D01*
Y121498D01*
X220398D01*
Y122398D01*
X218371D01*
G03X218230Y122057I0J-200D01*
G01X218400Y121887D01*
G37*
G36*
G01X108689Y145448D02*
G02Y148352I-889J1452D01*
G01X122555D01*
X122699Y148496D01*
X128207D01*
X128251Y148452D01*
X240149D01*
X240513Y148816D01*
G03X240230Y149498I-283J282D01*
G01X236898D01*
Y150248D01*
X236490D01*
X236444Y150222D01*
G02Y153178I-844J1478D01*
G01X236490Y153152D01*
X236898D01*
Y153902D01*
X242102D01*
Y153402D01*
X243098D01*
Y153902D01*
X248302D01*
Y153402D01*
X249900D01*
G02Y149998I0J-1702D01*
G01X248302D01*
Y149498D01*
X245269D01*
G03X244971Y148832I0J-400D01*
G02X242856Y146222I-1271J-1132D01*
G01X242810Y146248D01*
X242051D01*
X241351Y145548D01*
X127049D01*
X127005Y145592D01*
X123901D01*
X123757Y145448D01*
X108689D01*
G37*
G36*
G01X200150Y205252D02*
X200115Y205238D01*
G02X198355Y206292I-468J1215D01*
G03X197892Y206637I-397J-49D01*
G02X196378Y207921I-213J1284D01*
G01Y209998D01*
X195398D01*
Y211192D01*
G03X194717Y211476I-400J0D01*
G02X193332Y211185I-917J924D01*
G01X193297Y211198D01*
X192802D01*
Y209998D01*
X188398D01*
Y215202D01*
X188898D01*
Y216198D01*
X188398D01*
Y221402D01*
X189298D01*
Y222339D01*
X189498Y222539D01*
Y223803D01*
G02X192102I1302J1097D01*
G01Y221402D01*
X192802D01*
Y216198D01*
X192302D01*
Y215202D01*
X192802D01*
Y213602D01*
X193297D01*
X193332Y213615D01*
G02X194717Y213324I468J-1215D01*
G03X195398Y213608I281J284D01*
G01Y215202D01*
X195898D01*
Y216198D01*
X195398D01*
Y221402D01*
X196198D01*
Y227303D01*
G02X198802I1302J1097D01*
G01Y222439D01*
X198902Y222339D01*
Y221402D01*
X199802D01*
Y216198D01*
X199302D01*
Y215202D01*
X199802D01*
Y209998D01*
X198980D01*
Y207921D01*
Y207886D01*
G03X199242Y207690I200J-6D01*
G02X199691Y207754I405J-1237D01*
G03X200103Y208188I13J400D01*
G02X202440Y209084I1297J112D01*
G03X203042Y209042I319J241D01*
G01X203398Y209399D01*
Y209998D01*
X202398D01*
Y215202D01*
X202898D01*
Y216198D01*
X202398D01*
Y221402D01*
X202492D01*
G03X202775Y222084I0J400D01*
G01X200898Y223961D01*
Y228903D01*
G02X203502I1302J1097D01*
G01Y225039D01*
X205802Y222739D01*
Y222439D01*
X205902Y222339D01*
Y221402D01*
X206802D01*
Y216198D01*
X206302D01*
Y215202D01*
X206802D01*
Y209998D01*
X205802D01*
Y208403D01*
X202650Y205252D01*
X200150D01*
G37*
G36*
G01X390202Y234298D02*
X364798D01*
Y250798D01*
X356798D01*
Y254702D01*
X357298D01*
Y261202D01*
X364298D01*
Y273702D01*
X390702D01*
Y254798D01*
X390202D01*
Y234298D01*
G37*
G36*
G01X220384Y179382D02*
X209577D01*
X204161Y184798D01*
X176461D01*
X159998Y201261D01*
Y220261D01*
X155598Y224661D01*
Y227098D01*
X154798D01*
Y232302D01*
X155298D01*
Y233298D01*
X154798D01*
Y238502D01*
X155548D01*
Y244401D01*
X160048Y248901D01*
Y259916D01*
X159814D01*
Y270178D01*
X165598D01*
Y271202D01*
X172802D01*
Y260898D01*
X176402Y257298D01*
Y232898D01*
X174302D01*
Y232302D01*
X174802D01*
Y231002D01*
X176661D01*
X190161Y244502D01*
X249139D01*
X253443Y240197D01*
X253511Y240189D01*
G02X251611Y238289I-211J-1689D01*
G01X251603Y238357D01*
X248061Y241898D01*
X207511D01*
G03X207206Y241240I0J-400D01*
G02X207552Y240300I-1106J-941D01*
G01Y238892D01*
X208692D01*
Y233708D01*
X208192D01*
Y231798D01*
X204008D01*
Y233708D01*
X203508D01*
Y238892D01*
X204648D01*
Y240300D01*
G02X204994Y241240I1452J-1D01*
G03X204689Y241898I-305J258D01*
G01X191239D01*
X177739Y228398D01*
X174802D01*
Y227098D01*
X170398D01*
Y232302D01*
X170898D01*
Y232898D01*
X167998D01*
Y244586D01*
X166834Y246333D01*
G03X166102Y246111I-332J-222D01*
G01Y240051D01*
X166252Y239901D01*
Y238502D01*
X167002D01*
Y233298D01*
X166502D01*
Y232302D01*
X167002D01*
Y227098D01*
X166102D01*
Y225739D01*
X169102Y222739D01*
Y202839D01*
X180139Y191802D01*
X209039D01*
X216886Y183954D01*
X219647D01*
G02X220837Y182125I0J-1302D01*
G03X220935Y181863I183J-81D01*
G02X220384Y179382I-551J-1179D01*
G37*
G36*
G01X347399Y-124548D02*
X351115D01*
G02Y-127452I3885J-1452D01*
G01X348601D01*
X347101Y-128952D01*
X338789D01*
G02Y-126048I-889J1452D01*
G01X345899D01*
X347399Y-124548D01*
G37*
G36*
G01X339951Y-118952D02*
X337989D01*
G02X337944Y-116022I-889J1452D01*
G01X337990Y-116048D01*
X338749D01*
X339548Y-115249D01*
Y-100899D01*
X345899Y-94548D01*
X351115D01*
G02X353548Y-92115I3885J-1452D01*
G01Y-89885D01*
G02X356452I1452J3885D01*
G01Y-92115D01*
G02X351115Y-97452I-1452J-3885D01*
G01X347101D01*
X342452Y-102101D01*
Y-116451D01*
X339951Y-118952D01*
G37*
G36*
G01X390602Y-161702D02*
X385398D01*
Y-157298D01*
X386548D01*
Y-154702D01*
X385398D01*
Y-150298D01*
X386548D01*
Y-140823D01*
X385882Y-140157D01*
G03X385200Y-140440I-282J-283D01*
G01Y-144427D01*
X377496D01*
Y-144290D01*
X375362D01*
X374325Y-145328D01*
X373902Y-145420D01*
Y-146702D01*
X368698D01*
Y-146202D01*
X366798D01*
Y-142798D01*
X368698D01*
Y-142298D01*
X373249D01*
X374160Y-141388D01*
X374248D01*
G03X374424Y-141092I0J200D01*
G02X374224Y-140135I1496J812D01*
G03X374183Y-139923I-398J33D01*
G01X374249D01*
X374293Y-139781D01*
G02X374523Y-139308I1627J-499D01*
G01X374618Y-139171D01*
X374399Y-138952D01*
X373902D01*
Y-139709D01*
G03X373826Y-139702I-74J-393D01*
G01X368698D01*
Y-139202D01*
X367702D01*
Y-139702D01*
X362498D01*
Y-135298D01*
X363648D01*
Y-131396D01*
X363548Y-131296D01*
Y-130146D01*
X360854D01*
Y-121854D01*
X369146D01*
Y-130146D01*
X366552D01*
Y-135298D01*
X367702D01*
Y-135798D01*
X368698D01*
Y-135298D01*
X373902D01*
Y-136048D01*
X375601D01*
X375821Y-136268D01*
X377496D01*
Y-133573D01*
X385200D01*
Y-136268D01*
X386099D01*
X389452Y-139621D01*
Y-150298D01*
X390602D01*
Y-150798D01*
X391598D01*
Y-150298D01*
X392748D01*
Y-141181D01*
X395101Y-138828D01*
X396000D01*
Y-133573D01*
X397762D01*
G03X398160Y-133130I0J400D01*
G02X399652Y-131258I1692J182D01*
G03X399985Y-130735I-47J397D01*
G02X399898Y-130200I1615J537D01*
G01Y-129202D01*
X399398D01*
Y-123998D01*
X399898D01*
Y-122098D01*
X403302D01*
Y-123998D01*
X403802D01*
Y-129202D01*
X403302D01*
Y-130200D01*
G02X401800Y-131890I-1702J0D01*
G03X401468Y-132413I47J-397D01*
G02X401544Y-133130I-1616J-534D01*
G03X401942Y-133573I398J-43D01*
G01X403704D01*
Y-135378D01*
G03X404386Y-135661I400J0D01*
G01X407499Y-132548D01*
X408398D01*
Y-131798D01*
X409548D01*
Y-129202D01*
X408398D01*
Y-124798D01*
X409548D01*
Y-122202D01*
X408398D01*
Y-117798D01*
X409548D01*
Y-115099D01*
X409748Y-114899D01*
Y-114202D01*
X408598D01*
Y-109798D01*
X413802D01*
Y-110298D01*
X414798D01*
Y-109798D01*
X417949D01*
X421248Y-106499D01*
Y-105018D01*
G02X424152Y-104761I1152J3518D01*
G01Y-107701D01*
X420002Y-111851D01*
Y-114202D01*
X414798D01*
Y-113702D01*
X413802D01*
Y-114202D01*
X412652D01*
Y-116101D01*
X412452Y-116301D01*
Y-117798D01*
X413602D01*
Y-118298D01*
X415502D01*
Y-121702D01*
X413602D01*
Y-122202D01*
X412452D01*
Y-124798D01*
X413602D01*
Y-125298D01*
X415502D01*
Y-128702D01*
X413602D01*
Y-129202D01*
X412452D01*
Y-131798D01*
X413602D01*
Y-132298D01*
X414598D01*
Y-131798D01*
X419802D01*
Y-132548D01*
X424215D01*
G02Y-135452I3885J-1452D01*
G01X419802D01*
Y-136202D01*
X414598D01*
Y-135702D01*
X413602D01*
Y-136202D01*
X408398D01*
Y-136103D01*
X408152Y-136001D01*
X405403Y-138750D01*
X408451Y-141798D01*
X413602D01*
Y-142298D01*
X414598D01*
Y-141798D01*
X419802D01*
Y-142548D01*
X424215D01*
G02Y-145452I3885J-1452D01*
G01X419802D01*
Y-146202D01*
X414598D01*
Y-145702D01*
X413602D01*
Y-146202D01*
X408398D01*
Y-144952D01*
X407499D01*
X404279Y-141732D01*
X403704D01*
Y-144427D01*
X395652D01*
Y-150298D01*
X396802D01*
Y-154702D01*
X395652D01*
Y-157298D01*
X396802D01*
Y-161702D01*
X391598D01*
Y-161202D01*
X390602D01*
Y-161702D01*
G37*
G36*
G01X479902Y-54302D02*
Y-56202D01*
X476498D01*
Y-54302D01*
X475998D01*
Y-53793D01*
G03X475561Y-53394I-400J1D01*
G02Y-50006I-161J1694D01*
G03X475998Y-49607I37J398D01*
G01Y-49098D01*
X480402D01*
Y-54302D01*
X479902D01*
G37*
G36*
G01X433996Y-54052D02*
Y-56352D01*
X427278D01*
Y-55852D01*
X425222D01*
Y-49348D01*
X427278D01*
Y-48848D01*
X433996D01*
Y-51148D01*
X434653D01*
X434701Y-51017D01*
G02X437189Y-50148I1599J-583D01*
G01X438530D01*
Y-49719D01*
X446822D01*
Y-53681D01*
X438530D01*
Y-53052D01*
X437189D01*
G02X436748Y-53242I-887J1453D01*
G01X436697Y-53256D01*
X435901Y-54052D01*
X433996D01*
G37*
G36*
G01X435201Y-41948D02*
X435697Y-42444D01*
X435748Y-42458D01*
G02X436944Y-44539I-448J-1642D01*
G03X437249Y-45034I386J-103D01*
G02X437744Y-45222I-349J-1666D01*
G01X437790Y-45248D01*
X438530D01*
Y-44719D01*
X446822D01*
Y-48681D01*
X438530D01*
Y-48152D01*
X437790D01*
X437744Y-48178D01*
G02X435256Y-46261I-844J1478D01*
G03X434951Y-45766I-386J103D01*
G02X434499Y-45602I349J1666D01*
G01X428898D01*
Y-45102D01*
X426998D01*
Y-41698D01*
X428898D01*
Y-41198D01*
X434102D01*
Y-41948D01*
X435201D01*
G37*
G36*
G01X416102Y-97798D02*
Y-105202D01*
X408698D01*
Y-102952D01*
X407549D01*
X407249Y-102652D01*
X403367D01*
G02Y-99748I-3567J1452D01*
G01X408698D01*
Y-97798D01*
X416102D01*
G37*
G36*
G01X341502Y-42764D02*
Y-42902D01*
X336298D01*
Y-42402D01*
X334398D01*
Y-38998D01*
X336298D01*
Y-38498D01*
X341502D01*
Y-38636D01*
G03X341977Y-39029I400J0D01*
G02Y-42371I323J-1671D01*
G03X341502Y-42764I-75J-393D01*
G37*
G36*
G01X343802Y-18064D02*
Y-18202D01*
X338598D01*
Y-17702D01*
X336698D01*
Y-14298D01*
X338598D01*
Y-13798D01*
X343802D01*
Y-13936D01*
G03X344277Y-14329I400J0D01*
G02Y-17671I323J-1671D01*
G03X343802Y-18064I-75J-393D01*
G37*
G36*
G01X354922Y-27881D02*
X346630D01*
Y-27864D01*
G03X346154Y-27471I-400J0D01*
G02X344130Y-25856I-323J1671D01*
G03X343447Y-25586I-400J-13D01*
G01X342982Y-26052D01*
X341402D01*
Y-26802D01*
X336198D01*
Y-26302D01*
X334298D01*
Y-22898D01*
X336198D01*
Y-22398D01*
X341402D01*
Y-23148D01*
X341780D01*
X345480Y-19448D01*
X346630D01*
Y-18919D01*
X354922D01*
Y-22881D01*
X346630D01*
Y-22753D01*
X346383Y-22651D01*
X345617Y-23416D01*
G03X345887Y-24099I283J-283D01*
G02X346154Y-24129I-56J-1701D01*
G03X346585Y-23919I75J393D01*
G01X354922D01*
Y-27881D01*
G37*
G36*
G01X635923Y202991D02*
G02X628852Y207180I-3823J1609D01*
G03X628517Y207798I-335J218D01*
G01X625683D01*
G03X625368Y207152I0J-400D01*
G02X618832I-3268J-2552D01*
G03X618517Y207798I-315J246D01*
G01X611798D01*
Y209622D01*
X605248D01*
Y211298D01*
X585798D01*
Y215298D01*
X571798D01*
Y220809D01*
X571498Y220810D01*
Y224702D01*
X572400D01*
Y226868D01*
X580104D01*
Y224702D01*
X581798D01*
Y227702D01*
X605298D01*
Y229402D01*
X608702D01*
Y227702D01*
X609702D01*
Y220707D01*
X599802Y220734D01*
Y220202D01*
X613298D01*
Y222702D01*
X629398D01*
Y229156D01*
G02X634802I2702J2744D01*
G01Y217746D01*
G02X629821Y211135I-2701J-3147D01*
G03X629202Y210801I-219J-334D01*
G01Y208399D01*
G03X629802Y208053I400J0D01*
G02X630802Y208540I2300J-3452D01*
G02X635923Y202991I1300J-3938D01*
G37*
G36*
G01X353149Y54823D02*
G02X350171I-1489J0D01*
G01Y56989D01*
G02X353149I1489J0D01*
G01Y54823D01*
G37*
G36*
G01X538599Y265702D02*
X538702D01*
Y260498D01*
X538202D01*
Y258598D01*
X534798D01*
Y260498D01*
X534298D01*
Y265702D01*
X534401D01*
G03X534800Y266082I0J400D01*
G02X538200I1700J-82D01*
G03X538599Y265702I399J20D01*
G37*
G36*
G01X547702Y266996D02*
X549352D01*
Y260278D01*
X548852D01*
Y258222D01*
X542348D01*
Y260278D01*
X541848D01*
Y266996D01*
X543498D01*
G03X543898Y267397I0J400D01*
G02X547302I1702J3D01*
G03X547702Y266996I400J-1D01*
G37*
G36*
G01X605146Y271202D02*
X607341D01*
G03X607662Y271839I-1J400D01*
G02X608995Y270670I3338J2461D01*
G03X608402Y270320I-193J-350D01*
G01Y268280D01*
G03X608995Y267930I400J0D01*
G02Y260670I2005J-3630D01*
G03X608402Y260320I-193J-350D01*
G01Y256798D01*
X584298D01*
Y268798D01*
X581752D01*
Y267022D01*
X575248D01*
Y268798D01*
X569702D01*
Y259298D01*
X559298D01*
Y259900D01*
X557132D01*
Y267604D01*
X559298D01*
Y268298D01*
X556298D01*
Y289702D01*
X562702D01*
Y288702D01*
X564402D01*
Y285298D01*
X562702D01*
Y281702D01*
X563298D01*
Y282302D01*
X572302D01*
Y278402D01*
X595702D01*
Y271202D01*
X596854D01*
Y278446D01*
X605146D01*
Y271202D01*
G37*
G36*
G01X554573Y241396D02*
Y243190D01*
G03X554092Y243581I-400J-1D01*
G02Y246915I-344J1667D01*
G03X554573Y247306I81J392D01*
G01Y249100D01*
X565427D01*
Y247348D01*
G03X565812Y246949I400J1D01*
G02Y243547I-64J-1701D01*
G03X565427Y243148I15J-400D01*
G01Y241396D01*
X560172D01*
Y238202D01*
X561002D01*
Y237702D01*
X562902D01*
Y234298D01*
X561002D01*
Y233798D01*
X555798D01*
Y238202D01*
X556948D01*
Y239351D01*
X557268Y239671D01*
Y241396D01*
X554573D01*
G37*
G36*
G01X545018Y235098D02*
X544798D01*
Y240302D01*
X545298D01*
Y242202D01*
X548702D01*
Y240302D01*
X549202D01*
Y235098D01*
X548982D01*
G03X548605Y234566I0J-400D01*
G02X545395I-1605J-566D01*
G03X545018Y235098I-377J132D01*
G37*
G36*
G01X539494Y233365D02*
G02X536106I-1694J-165D01*
G03X535708Y233804I-398J39D01*
G01X534048D01*
Y240522D01*
X534548D01*
Y242578D01*
X541052D01*
Y240522D01*
X541552D01*
Y233804D01*
X539892D01*
G03X539494Y233365I0J-400D01*
G37*
G36*
G01X444202Y237498D02*
X449898Y231802D01*
X456202D01*
Y222498D01*
X431398D01*
Y243002D01*
X431970D01*
Y243054D01*
X443610D01*
Y243002D01*
X444202D01*
Y237498D01*
G37*
G36*
G01X521202Y267134D02*
G03X521786Y266779I400J0D01*
G02Y259421I1914J-3679D01*
G03X521202Y259066I-184J-355D01*
G01Y255698D01*
X502602D01*
Y249098D01*
X491998D01*
Y250248D01*
X490022D01*
Y256752D01*
X491998D01*
Y259398D01*
X488998D01*
Y261268D01*
X487602D01*
Y260198D01*
X457202D01*
Y249002D01*
X491402D01*
Y247702D01*
X508702D01*
Y245102D01*
X509354D01*
Y252346D01*
X517646D01*
Y245102D01*
X519202D01*
Y240540D01*
G03X519944Y240334I400J1D01*
G02Y236066I3556J-2134D01*
G03X519202Y235860I-342J-207D01*
G01Y223798D01*
X517252D01*
Y223778D01*
X516752D01*
Y221722D01*
X510248D01*
Y223778D01*
X509748D01*
Y223798D01*
X506398D01*
Y234198D01*
X490898D01*
Y234398D01*
X477552D01*
Y233978D01*
X477052D01*
Y232822D01*
X477552D01*
Y232802D01*
X491302D01*
Y217598D01*
X458398D01*
Y232802D01*
X470048D01*
Y232822D01*
X470548D01*
Y233978D01*
X470048D01*
Y234398D01*
X457598D01*
Y234798D01*
X449298D01*
Y244798D01*
X431298D01*
Y254202D01*
X450798D01*
Y255298D01*
X430798D01*
Y264702D01*
X450798D01*
Y271834D01*
G03X450116Y272117I-400J0D01*
G01X443598Y265598D01*
X430898D01*
Y285002D01*
X456402D01*
Y275398D01*
X453398D01*
X451883Y273884D01*
G03X452166Y273202I283J-282D01*
G01X456998D01*
Y274802D01*
X469248D01*
Y275878D01*
X468748D01*
Y275998D01*
X457498D01*
Y290602D01*
X488102D01*
Y287032D01*
X489322D01*
Y276968D01*
X488102D01*
Y275998D01*
X476252D01*
Y275878D01*
X475752D01*
Y274802D01*
X487602D01*
Y271332D01*
X488998D01*
Y273202D01*
X502602D01*
Y270702D01*
X509554D01*
Y277246D01*
X510998D01*
Y284056D01*
G02X516402I2702J2744D01*
G01Y277246D01*
X517846D01*
Y270702D01*
X519616D01*
G03X519975Y271277I0J400D01*
G02X521786Y269421I3725J1823D01*
G03X521202Y269066I-184J-355D01*
G01Y267134D01*
G37*
G36*
G01X555690Y218573D02*
X553896D01*
Y223828D01*
X550702D01*
Y222998D01*
X550202D01*
Y221098D01*
X546798D01*
Y222998D01*
X546298D01*
Y228202D01*
X550702D01*
Y227052D01*
X551851D01*
X552171Y226732D01*
X553896D01*
Y229427D01*
X555648D01*
G03X556047Y229812I-1J400D01*
G02X559449I1701J-64D01*
G03X559848Y229427I400J15D01*
G01X561600D01*
Y218573D01*
X559806D01*
G03X559415Y218092I1J-400D01*
G02X556081I-1667J-344D01*
G03X555690Y218573I-392J81D01*
G37*
G36*
G01X436998Y119998D02*
Y120898D01*
X434402D01*
Y119998D01*
X429998D01*
Y125202D01*
X430498D01*
Y127102D01*
X433902D01*
Y125202D01*
X434402D01*
Y124302D01*
X436998D01*
Y125202D01*
X437498D01*
Y127102D01*
X440902D01*
Y125202D01*
X441402D01*
Y119998D01*
X436998D01*
G37*
G36*
G01X531598Y104800D02*
Y105398D01*
X531098D01*
Y110602D01*
X531598D01*
Y112502D01*
X535002D01*
Y110602D01*
X535502D01*
Y105398D01*
X535002D01*
Y104800D01*
G02X531598I-1702J0D01*
G37*
G36*
G01X538598Y104600D02*
Y105398D01*
X538098D01*
Y110602D01*
X538598D01*
Y112502D01*
X542002D01*
Y110602D01*
X542502D01*
Y105398D01*
X542002D01*
Y104600D01*
G02X538598I-1702J0D01*
G37*
G36*
G01X419402Y99000D02*
Y97902D01*
X419902D01*
Y92698D01*
X419402D01*
Y90798D01*
X415998D01*
Y92698D01*
X415498D01*
Y97902D01*
X415998D01*
Y99000D01*
G02X419402I1702J0D01*
G37*
G36*
G01X313032Y80898D02*
X312986Y80924D01*
X312481D01*
Y78230D01*
X308519D01*
Y86522D01*
X312481D01*
Y83828D01*
X312986D01*
X313032Y83854D01*
G02X313428Y84018I844J-1478D01*
G01X313479Y84032D01*
X315199Y85752D01*
X316898D01*
Y86502D01*
X322102D01*
Y86002D01*
X324002D01*
Y82598D01*
X322102D01*
Y82098D01*
X316898D01*
Y82848D01*
X316401D01*
X315532Y81979D01*
X315518Y81928D01*
G02X313032Y80898I-1642J448D01*
G37*
G36*
G01X316444Y78578D02*
X316490Y78552D01*
X316898D01*
Y79302D01*
X322102D01*
Y78802D01*
X324002D01*
Y75398D01*
X322102D01*
Y74898D01*
X316898D01*
Y75648D01*
X316490D01*
X316444Y75622D01*
G02Y78578I-844J1478D01*
G37*
G36*
G01X363096Y72208D02*
Y70548D01*
X356378D01*
Y71048D01*
X354322D01*
Y77552D01*
X356378D01*
Y78052D01*
X363096D01*
Y76392D01*
G03X363535Y75994I400J0D01*
G02Y72606I165J-1694D01*
G03X363096Y72208I-39J-398D01*
G37*
G36*
G01X556737Y70098D02*
X556598D01*
Y75302D01*
X557098D01*
Y77202D01*
X560502D01*
Y75302D01*
X561002D01*
Y70098D01*
X560863D01*
G03X560471Y69623I1J-400D01*
G02X557129I-1671J-323D01*
G03X556737Y70098I-393J75D01*
G37*
G36*
G01X548859D02*
X548698D01*
Y75302D01*
X549198D01*
Y77202D01*
X552602D01*
Y75302D01*
X553102D01*
Y70098D01*
X552941D01*
G03X552553Y69604I1J-400D01*
G02X549247I-1653J-404D01*
G03X548859Y70098I-389J94D01*
G37*
G36*
G01X292481Y78230D02*
X291802D01*
Y75239D01*
X293402Y73639D01*
Y70602D01*
X294102D01*
Y65398D01*
X293602D01*
Y63498D01*
X290198D01*
Y65398D01*
X289698D01*
Y70602D01*
X290598D01*
Y71539D01*
X290798Y71739D01*
Y72561D01*
X289198Y74161D01*
Y78230D01*
X288519D01*
Y86522D01*
X292481D01*
Y78230D01*
G37*
G36*
G01X362456Y63222D02*
X362410Y63248D01*
X361902D01*
Y62498D01*
X356698D01*
Y62998D01*
X354798D01*
Y66402D01*
X356698D01*
Y66902D01*
X361902D01*
Y66152D01*
X362410D01*
X362456Y66178D01*
G02Y63222I844J-1478D01*
G37*
G36*
G01X276200Y59009D02*
X276190Y59198D01*
X275698D01*
Y64402D01*
X276198D01*
Y65398D01*
X275698D01*
Y66698D01*
X273102D01*
Y65398D01*
X272602D01*
Y64402D01*
X273102D01*
Y59198D01*
X272993D01*
G03X272594Y58761I-1J-400D01*
G02X269206I-1694J-161D01*
G03X268807Y59198I-398J37D01*
G01X268698D01*
Y64402D01*
X269198D01*
Y65398D01*
X268698D01*
Y66598D01*
X241097D01*
G02Y69202I-1097J1302D01*
G01X267661D01*
X267761Y69302D01*
X268698D01*
Y70602D01*
X273102D01*
Y69302D01*
X275698D01*
Y70602D01*
X276598D01*
Y72955D01*
X279198Y75555D01*
Y78230D01*
X278519D01*
Y86522D01*
X282481D01*
Y78230D01*
X281802D01*
Y74477D01*
X279202Y71877D01*
Y70602D01*
X280102D01*
Y65398D01*
X279602D01*
Y64402D01*
X280102D01*
Y59198D01*
X279610D01*
X279600Y59009D01*
G02X276200I-1700J91D01*
G37*
G36*
G01X287063Y70602D02*
X287102D01*
Y65398D01*
X286602D01*
Y64402D01*
X287102D01*
Y59198D01*
X286963D01*
G03X286571Y58723I1J-400D01*
G02X283229I-1671J-323D01*
G03X282837Y59198I-393J75D01*
G01X282698D01*
Y64402D01*
X283198D01*
Y65398D01*
X282698D01*
Y70602D01*
X282937D01*
G03X283329Y71077I-1J400D01*
G02X283698Y72497I1671J324D01*
G01Y74039D01*
X284198Y74539D01*
Y78230D01*
X283519D01*
Y86522D01*
X287481D01*
Y78230D01*
X286802D01*
Y73461D01*
X286302Y72961D01*
Y72499D01*
X286344Y72445D01*
G02X286671Y71077I-1344J-1044D01*
G03X287063Y70602I393J-75D01*
G37*
G36*
G01X468248Y63267D02*
Y72498D01*
X467098D01*
Y73279D01*
X461694Y73341D01*
X461601Y73248D01*
X447085D01*
G02Y76152I-3885J1452D01*
G01X460399D01*
X460506Y76259D01*
X467098Y76182D01*
Y76902D01*
X468248D01*
Y82815D01*
G02X471152I1452J3885D01*
G01Y76902D01*
X472302D01*
Y76402D01*
X474202D01*
Y72998D01*
X472302D01*
Y72498D01*
X471152D01*
Y63267D01*
G02X468248I-1452J-3567D01*
G37*
G36*
G01X283703Y52398D02*
X282161D01*
X281961Y52598D01*
X245997D01*
G02Y55202I-1097J1302D01*
G01X283039D01*
X283239Y55002D01*
X283701D01*
X283755Y55044D01*
G02X283703Y52398I1045J-1344D01*
G37*
G36*
G01X249845Y50844D02*
X249899Y50802D01*
X250361D01*
X250376Y50816D01*
X289676D01*
X297375Y58516D01*
G03X297098Y59198I-283J282D01*
G01Y64402D01*
X297598D01*
Y65398D01*
X297098D01*
Y70602D01*
X297898D01*
Y71761D01*
X294198Y75461D01*
Y78230D01*
X293519D01*
Y86522D01*
X297481D01*
Y78230D01*
X296802D01*
Y76539D01*
X300502Y72839D01*
Y71639D01*
X300602Y71539D01*
Y70602D01*
X301502D01*
Y65398D01*
X301002D01*
Y64402D01*
X301502D01*
Y59198D01*
X300702D01*
Y58161D01*
X290754Y48214D01*
X251454D01*
X251439Y48198D01*
X249897D01*
G02X249845Y50844I-1097J1302D01*
G37*
G36*
G01X253397Y46702D02*
X299061D01*
X305298Y52939D01*
Y59298D01*
X304698D01*
Y64502D01*
X305198D01*
Y65498D01*
X304698D01*
Y70702D01*
X305598D01*
Y73261D01*
X304198Y74661D01*
Y78230D01*
X303519D01*
Y86522D01*
X307481D01*
Y78230D01*
X306802D01*
Y75739D01*
X308202Y74339D01*
Y70702D01*
X309102D01*
Y65498D01*
X308602D01*
Y64502D01*
X309102D01*
Y59298D01*
X308202D01*
Y58361D01*
X307902Y58061D01*
Y51861D01*
X300139Y44098D01*
X253397D01*
G02Y46702I-1097J1302D01*
G37*
G36*
G01X531406Y48239D02*
G02X534794I1694J161D01*
G03X535193Y47802I398J-37D01*
G01X535302D01*
Y42598D01*
X534802D01*
Y40698D01*
X531398D01*
Y42598D01*
X530898D01*
Y47802D01*
X531007D01*
G03X531406Y48239I1J400D01*
G37*
G36*
G01X527741Y47802D02*
X527902D01*
Y42598D01*
X527402D01*
Y40698D01*
X523998D01*
Y42598D01*
X523498D01*
Y47802D01*
X523659D01*
G03X524047Y48296I-1J400D01*
G02X527353I1653J404D01*
G03X527741Y47802I389J-94D01*
G37*
G36*
G01X282600Y25180D02*
G02X279200I-1700J-80D01*
G03X278800Y25598I-399J18D01*
G01X278698D01*
Y30802D01*
X279198D01*
Y32702D01*
X282602D01*
Y30802D01*
X283102D01*
Y25598D01*
X283000D01*
G03X282600Y25180I-1J-400D01*
G37*
G36*
G01X290332Y24685D02*
G02X287068I-1632J-485D01*
G03X286685Y25198I-383J113D01*
G01X286498D01*
Y30402D01*
X286998D01*
Y32302D01*
X290402D01*
Y30402D01*
X290902D01*
Y25198D01*
X290715D01*
G03X290332Y24685I0J-400D01*
G37*
G36*
G01X293805Y24509D02*
G03X294431Y24660I257J306D01*
G02X294522Y24844I1568J-661D01*
G01X294548Y24890D01*
Y25198D01*
X293798D01*
Y30402D01*
X294298D01*
Y32302D01*
X297702D01*
Y30402D01*
X298202D01*
Y25198D01*
X297452D01*
Y24890D01*
X297478Y24844D01*
G02X294903Y22699I-1478J-844D01*
G03X294277Y22548I-257J-306D01*
G02X294186Y22364I-1568J661D01*
G01X294160Y22318D01*
Y21862D01*
X296658D01*
Y18688D01*
X288758D01*
Y21862D01*
X291256D01*
Y22318D01*
X291230Y22364D01*
G02X293805Y24509I1478J844D01*
G37*
G36*
G01X196000Y9298D02*
X194702D01*
Y8798D01*
X189498D01*
Y9298D01*
X187598D01*
Y12702D01*
X189498D01*
Y13202D01*
X194702D01*
Y12702D01*
X196000D01*
G02Y9298I0J-1702D01*
G37*
G36*
G01X301439Y10961D02*
X301447Y10893D01*
X301978Y10362D01*
G03X302320Y10503I142J142D01*
G01Y10582D01*
X307856D01*
Y6818D01*
X302320D01*
Y7398D01*
X301261D01*
X299607Y9053D01*
X299539Y9061D01*
G02X298061Y10539I211J1689D01*
G01X298053Y10607D01*
X297363Y11296D01*
X296658D01*
Y11010D01*
X288758D01*
Y16745D01*
X296658D01*
Y16458D01*
X297718D01*
X300061Y18802D01*
X308898D01*
Y22898D01*
X307598D01*
Y23398D01*
X305698D01*
Y26802D01*
X307598D01*
Y27302D01*
X308898D01*
Y29898D01*
X307598D01*
Y30398D01*
X305698D01*
Y33802D01*
X307598D01*
Y34302D01*
X312802D01*
Y29898D01*
X311502D01*
Y27302D01*
X312802D01*
Y22898D01*
X311502D01*
Y18952D01*
X313099D01*
X314499Y20352D01*
X316004D01*
Y22652D01*
X322722D01*
Y22152D01*
X323878D01*
Y22652D01*
X330596D01*
Y20913D01*
G03X331111Y20530I400J0D01*
G02Y17270I489J-1630D01*
G03X330596Y16887I-115J-383D01*
G01Y15148D01*
X323878D01*
Y15648D01*
X322722D01*
Y15148D01*
X316004D01*
Y17448D01*
X315701D01*
X314301Y16048D01*
X311089D01*
G02X309103Y16198I-889J1452D01*
G01X301139D01*
X298641Y13700D01*
X299893Y12447D01*
X299961Y12439D01*
G02X301439Y10961I-211J-1689D01*
G37*
G36*
G01X196000Y2298D02*
X194702D01*
Y1798D01*
X189498D01*
Y2298D01*
X187598D01*
Y5702D01*
X189498D01*
Y6202D01*
X194702D01*
Y5702D01*
X196000D01*
G02Y2298I0J-1702D01*
G37*
G36*
G01X355229Y-1658D02*
Y-1379D01*
X361553D01*
Y-5341D01*
X355229D01*
Y-5062D01*
X351755D01*
X350195Y-3502D01*
X349605D01*
X349505Y-3602D01*
X348002D01*
Y-4102D01*
X342798D01*
Y-3602D01*
X340898D01*
Y-198D01*
X342798D01*
Y302D01*
X348002D01*
Y-98D01*
X351605D01*
X353165Y-1658D01*
X355229D01*
G37*
G36*
G01X193602Y-3101D02*
Y-3919D01*
X197032D01*
Y-7881D01*
X186770D01*
Y-3919D01*
X190200D01*
Y-3101D01*
G02X193602I1701J0D01*
G37*
G36*
G01X354702Y-12453D02*
G02Y-9227I-542J1613D01*
G03X355229Y-8859I127J379D01*
G01X361553D01*
Y-12821D01*
X355229D01*
G03X354702Y-12453I-400J-11D01*
G37*
G36*
G01X366169Y-12510D02*
G02Y-9170I-329J1670D01*
G03X366646Y-8778I77J392D01*
G01Y-1378D01*
X372972D01*
Y-5398D01*
X380598D01*
Y-4498D01*
X381098D01*
Y-2598D01*
X384502D01*
Y-4498D01*
X385002D01*
Y-5398D01*
X389452D01*
Y-3052D01*
X397548D01*
Y-5398D01*
X403452D01*
Y-3052D01*
X411548D01*
Y-11148D01*
X403452D01*
Y-8802D01*
X397548D01*
Y-11148D01*
X389452D01*
Y-8802D01*
X385002D01*
Y-9702D01*
X380598D01*
Y-8802D01*
X372972D01*
Y-12822D01*
X366638D01*
G03X366169Y-12510I-392J-80D01*
G37*
G36*
G01X256803Y-21302D02*
X232537D01*
G02X224663I-3937J1302D01*
G01X207197D01*
G02Y-18698I-1097J1302D01*
G01X224663D01*
G02X232537I3937J-1302D01*
G01X256803D01*
G02Y-21302I1097J-1302D01*
G37*
G36*
G01X215702Y-23998D02*
Y-24237D01*
G03X216177Y-24629I400J1D01*
G02Y-27971I323J-1671D01*
G03X215702Y-28363I-75J-393D01*
G01Y-28402D01*
X210498D01*
Y-27902D01*
X209502D01*
Y-28402D01*
X204298D01*
Y-27502D01*
X203361D01*
X203061Y-27202D01*
X197032D01*
Y-27881D01*
X186770D01*
Y-23919D01*
X197032D01*
Y-24598D01*
X204298D01*
Y-23998D01*
X209502D01*
Y-24498D01*
X210498D01*
Y-23998D01*
X215702D01*
G37*
G36*
G01X341856Y-34178D02*
X341810Y-34152D01*
X341502D01*
Y-34902D01*
X336298D01*
Y-34402D01*
X334398D01*
Y-30998D01*
X336298D01*
Y-30498D01*
X341502D01*
Y-31248D01*
X341810D01*
X341856Y-31222D01*
G02Y-34178I844J-1478D01*
G37*
G36*
G01X232537Y-28698D02*
X234903D01*
G02Y-31302I1097J-1302D01*
G01X232537D01*
G02X224663I-3937J1302D01*
G01X224139D01*
X220639Y-34802D01*
X215702D01*
Y-35702D01*
X210498D01*
Y-35202D01*
X209502D01*
Y-35702D01*
X204298D01*
Y-34802D01*
X202061D01*
X199461Y-32202D01*
X197032D01*
Y-32881D01*
X186770D01*
Y-28919D01*
X197032D01*
Y-29598D01*
X200539D01*
X203139Y-32198D01*
X204298D01*
Y-31298D01*
X209502D01*
Y-31798D01*
X210498D01*
Y-31298D01*
X215702D01*
Y-32198D01*
X219561D01*
X223061Y-28698D01*
X224663D01*
G02X232537I3937J-1302D01*
G37*
G36*
G01X199200Y-37602D02*
X197032D01*
Y-37881D01*
X186770D01*
Y-33919D01*
X197032D01*
Y-34198D01*
X199200D01*
G02Y-37602I0J-1702D01*
G37*
G36*
G01X238903Y-41302D02*
X232537D01*
G02Y-38698I-3937J1302D01*
G01X238903D01*
G02Y-41302I1097J-1302D01*
G37*
G36*
G01X243803Y-51302D02*
X232537D01*
G02Y-48698I-3937J1302D01*
G01X243803D01*
G02Y-51302I1097J-1302D01*
G37*
G36*
G01X198000Y-57802D02*
X197002D01*
Y-58302D01*
X191798D01*
Y-57802D01*
X189898D01*
Y-54398D01*
X191798D01*
Y-53898D01*
X197002D01*
Y-54398D01*
X198000D01*
G02Y-57802I0J-1702D01*
G37*
G36*
G01Y-64802D02*
X197002D01*
Y-65302D01*
X191798D01*
Y-64802D01*
X189898D01*
Y-61398D01*
X191798D01*
Y-60898D01*
X197002D01*
Y-61398D01*
X198000D01*
G02Y-64802I0J-1702D01*
G37*
G36*
G01X276478Y-62844D02*
X276452Y-62890D01*
Y-63298D01*
X277202D01*
Y-68502D01*
X276702D01*
Y-70402D01*
X273298D01*
Y-68502D01*
X272798D01*
Y-63298D01*
X273548D01*
Y-62890D01*
X273522Y-62844D01*
G02X276478I1478J844D01*
G37*
G36*
G01X268078Y-62944D02*
X268052Y-62990D01*
Y-63298D01*
X268802D01*
Y-68502D01*
X268302D01*
Y-70402D01*
X264898D01*
Y-68502D01*
X264398D01*
Y-63298D01*
X265148D01*
Y-62990D01*
X265122Y-62944D01*
G02X268078I1478J844D01*
G37*
G36*
G01X185972Y-71098D02*
X186770D01*
Y-70819D01*
X197032D01*
Y-74781D01*
X186770D01*
Y-74502D01*
X185972D01*
G02Y-71098I0J1702D01*
G37*
G36*
G01X231729Y-63698D02*
X247703D01*
G02Y-66302I1097J-1302D01*
G01X231729D01*
G03X231454Y-66992I0J-400D01*
G02X232537Y-68698I-2854J-3008D01*
G01X251203D01*
G02Y-71302I1097J-1302D01*
G01X232537D01*
G02X225746Y-66992I-3937J1301D01*
G03X225471Y-66302I-275J290D01*
G01X225340D01*
X221840Y-69802D01*
X217802D01*
Y-70702D01*
X212598D01*
Y-70202D01*
X211602D01*
Y-70702D01*
X206398D01*
Y-69952D01*
X205701D01*
X201352Y-74301D01*
Y-81081D01*
X198181Y-84252D01*
X197032D01*
Y-84781D01*
X186770D01*
Y-80819D01*
X197032D01*
Y-80947D01*
X197278Y-81049D01*
X198448Y-79879D01*
Y-73099D01*
X204499Y-67048D01*
X206398D01*
Y-66298D01*
X211602D01*
Y-66798D01*
X212598D01*
Y-66298D01*
X217802D01*
Y-67198D01*
X220762D01*
X224262Y-63698D01*
X225471D01*
G03X225746Y-63008I0J400D01*
G02X232537Y-58698I2854J3009D01*
G01X247703D01*
G02Y-61302I1097J-1302D01*
G01X232537D01*
G02X231454Y-63008I-3937J1302D01*
G03X231729Y-63698I275J-290D01*
G37*
G36*
G01X218155Y-79844D02*
X218101Y-79802D01*
X217802D01*
Y-80702D01*
X212598D01*
Y-80202D01*
X211602D01*
Y-80702D01*
X206398D01*
Y-80487D01*
G03X206057Y-80346I-200J0D01*
G01X205652Y-80751D01*
Y-83901D01*
X200301Y-89252D01*
X197032D01*
Y-89781D01*
X186770D01*
Y-85819D01*
X197032D01*
Y-86348D01*
X199099D01*
X202748Y-82699D01*
Y-79549D01*
X205249Y-77048D01*
X206398D01*
Y-76298D01*
X211602D01*
Y-76798D01*
X212598D01*
Y-76298D01*
X217802D01*
Y-77198D01*
X218101D01*
X218155Y-77156D01*
G02Y-79844I1045J-1344D01*
G37*
G36*
G01X208459Y-99602D02*
X207898D01*
Y-99102D01*
X206902D01*
Y-99602D01*
X201698D01*
Y-95198D01*
X201792D01*
G03X202075Y-94516I0J400D01*
G01X201661Y-94102D01*
X197032D01*
Y-94781D01*
X186770D01*
Y-90819D01*
X197032D01*
Y-91498D01*
X202739D01*
X205602Y-94361D01*
Y-95198D01*
X206902D01*
Y-95698D01*
X207898D01*
Y-95198D01*
X213102D01*
Y-99602D01*
X212541D01*
G03X212153Y-100096I1J-400D01*
G02X208847I-1653J-404D01*
G03X208459Y-99602I-389J94D01*
G37*
G36*
G01X198600Y-104502D02*
X197032D01*
Y-104781D01*
X186770D01*
Y-100819D01*
X197032D01*
Y-101098D01*
X198600D01*
G02Y-104502I0J-1702D01*
G37*
G36*
G01X247703Y-106102D02*
X232537D01*
G02Y-103498I-3937J1302D01*
G01X247703D01*
G02Y-106102I1097J-1302D01*
G37*
G36*
G01X224663Y-116102D02*
X223515D01*
X223115Y-115702D01*
X220697D01*
G02Y-113098I-1097J1302D01*
G01X224193D01*
X224215Y-113121D01*
G03X224859Y-113011I283J283D01*
G02X232503Y-113398I3741J-1789D01*
G01X243203D01*
G02Y-116002I1097J-1302D01*
G01X233785D01*
X233685Y-116102D01*
X232537D01*
G02X224663I-3937J1302D01*
G37*
G36*
G01X321800Y-126402D02*
X321302D01*
Y-127302D01*
X316898D01*
Y-122098D01*
X317398D01*
Y-120198D01*
X320802D01*
Y-122098D01*
X321302D01*
Y-122998D01*
X321800D01*
G02Y-126402I0J-1702D01*
G37*
G36*
G01X486398Y-126100D02*
Y-125202D01*
X485898D01*
Y-119998D01*
X486398D01*
Y-118098D01*
X489802D01*
Y-119998D01*
X490302D01*
Y-125202D01*
X489802D01*
Y-126100D01*
G02X486398I-1702J0D01*
G37*
G36*
G01X478898Y-126300D02*
Y-125202D01*
X478398D01*
Y-119998D01*
X478898D01*
Y-118098D01*
X482302D01*
Y-119998D01*
X482802D01*
Y-125202D01*
X482302D01*
Y-126300D01*
G02X478898I-1702J0D01*
G37*
G36*
G01X242727Y-121206D02*
X234034D01*
X232306Y-122934D01*
X232365Y-123061D01*
G02X224663Y-126102I-3765J-1739D01*
G01X223515D01*
X222715Y-125302D01*
X211597D01*
G02Y-122698I-1097J1302D01*
G01X223793D01*
X224215Y-123121D01*
G03X224859Y-123011I283J283D01*
G02X230339Y-121035I3741J-1789D01*
G01X230466Y-121094D01*
X232956Y-118604D01*
X263056D01*
X268946Y-112714D01*
X290454D01*
X291543Y-113803D01*
X291611Y-113811D01*
G02X292694Y-116605I-211J-1689D01*
G01Y-117688D01*
X293473D01*
Y-128344D01*
X289313D01*
Y-128254D01*
X288346D01*
X288298Y-128386D01*
G02X285257Y-126898I-1598J586D01*
G03X284918Y-126286I-339J212D01*
G01X283155D01*
X281739Y-127702D01*
X249897D01*
G02X247797Y-125025I-1097J1302D01*
G03X247562Y-124302I-235J323D01*
G01X245397D01*
G02X243026Y-121872I-1097J1301D01*
G03X242727Y-121206I-299J266D01*
G37*
G36*
G01X392898Y-130300D02*
Y-129202D01*
X392398D01*
Y-123998D01*
X392898D01*
Y-122098D01*
X396302D01*
Y-123998D01*
X396802D01*
Y-129202D01*
X396302D01*
Y-130300D01*
G02X392898I-1702J0D01*
G37*
G36*
G01X213755Y-134644D02*
X213701Y-134602D01*
X213089D01*
X213086Y-134604D01*
X212616D01*
X212519Y-134702D01*
X197032D01*
Y-135381D01*
X186770D01*
Y-131419D01*
X197032D01*
Y-132098D01*
X211441D01*
X211538Y-132002D01*
X212008D01*
X212011Y-131998D01*
X213703D01*
G02X213755Y-134644I1097J-1302D01*
G37*
G36*
G01X583102Y-116655D02*
Y-127618D01*
G02X579698I-1702J-3782D01*
G01Y-116655D01*
G02X584855Y-111498I1702J3455D01*
G01X594098D01*
Y-110598D01*
X594598D01*
Y-108698D01*
X598002D01*
Y-110598D01*
X598502D01*
Y-111498D01*
X604595D01*
X619495Y-96598D01*
X624461D01*
X624561Y-96498D01*
X625873D01*
G02X625912Y-100002I4527J-1702D01*
G01X620905D01*
X606005Y-114902D01*
X598502D01*
Y-115802D01*
X594098D01*
Y-114902D01*
X584855D01*
G02X583102Y-116655I-3455J1702D01*
G37*
G36*
G01X293002Y-131500D02*
Y-133598D01*
X293902D01*
Y-138002D01*
X288698D01*
Y-137502D01*
X286798D01*
Y-134098D01*
X288698D01*
Y-133598D01*
X289598D01*
Y-131500D01*
G02X293002I1702J0D01*
G37*
G36*
G01X210697Y-136698D02*
X220315D01*
X223515Y-133498D01*
X224663D01*
G02X232537I3937J-1302D01*
G01X264603D01*
G02Y-136102I1097J-1302D01*
G01X232537D01*
G02X224859Y-136589I-3937J1302D01*
G03X224215Y-136479I-361J-173D01*
G01X221393Y-139302D01*
X210697D01*
G02Y-136698I-1097J1302D01*
G37*
G36*
G01X203703Y-139702D02*
X197032D01*
Y-140381D01*
X186770D01*
Y-136419D01*
X197032D01*
Y-137098D01*
X203703D01*
G02Y-139702I1097J-1302D01*
G37*
G36*
G01X218503Y-144702D02*
X197032D01*
Y-145381D01*
X186770D01*
Y-141419D01*
X197032D01*
Y-142098D01*
X218503D01*
G02Y-144702I1097J-1302D01*
G37*
G36*
G01X311188Y-130719D02*
G03X311584Y-131171I397J-52D01*
G01X311912D01*
Y-141629D01*
X311452D01*
Y-143111D01*
G02X308548I-1452J-889D01*
G01Y-141629D01*
X307164D01*
Y-131171D01*
X307416D01*
G03X307812Y-130719I-1J400D01*
G02X307800Y-130573I1689J212D01*
G01X307796Y-130495D01*
X305455Y-128154D01*
X305087D01*
Y-130312D01*
X304208D01*
Y-133098D01*
X304902D01*
Y-138302D01*
X304402D01*
Y-140202D01*
X300998D01*
Y-138302D01*
X300498D01*
Y-133098D01*
X301498D01*
Y-132302D01*
X301806Y-131995D01*
Y-130312D01*
X300927D01*
Y-119656D01*
X305087D01*
Y-119846D01*
X309662D01*
X309677Y-119843D01*
G02X310027I175J-1189D01*
G01X310042Y-119846D01*
X311345D01*
X311398Y-119898D01*
X314497D01*
X314532Y-119885D01*
G02X316008Y-121924I468J-1215D01*
G03Y-122176I155J-126D01*
G02X314532Y-124215I-1008J-824D01*
G01X314497Y-124202D01*
X313898D01*
X313882Y-124218D01*
X306758D01*
G03X306369Y-124707I1J-400D01*
G02X306320Y-125455I-1269J-292D01*
G01X306275Y-125576D01*
X309495Y-128796D01*
X309573Y-128800D01*
G02X311188Y-130719I-73J-1700D01*
G37*
G36*
G01X208711Y-149852D02*
X197032D01*
Y-150381D01*
X186770D01*
Y-146419D01*
X197032D01*
Y-146948D01*
X208261D01*
X208269Y-146940D01*
X208723D01*
X208768Y-146915D01*
G02X208711Y-149852I832J-1485D01*
G37*
G36*
G01X461828Y-152838D02*
G02X460372I-728J1538D01*
G03X459854Y-153002I-170J-362D01*
G01X459302D01*
Y-154902D01*
X455898D01*
Y-153002D01*
X455398D01*
Y-147798D01*
X459802D01*
Y-148698D01*
X460905D01*
X461100Y-148894D01*
X461295Y-148698D01*
X462398D01*
Y-147798D01*
X466802D01*
Y-153002D01*
X466302D01*
Y-154902D01*
X462898D01*
Y-153002D01*
X462346D01*
G03X461828Y-152838I-348J-198D01*
G37*
G36*
G01X382302Y-149100D02*
Y-150298D01*
X382802D01*
Y-155502D01*
X382302D01*
Y-157402D01*
X378898D01*
Y-155502D01*
X378398D01*
Y-150298D01*
X378898D01*
Y-149100D01*
G02X382302I1702J0D01*
G37*
G36*
G01X375302Y-149200D02*
Y-150298D01*
X375802D01*
Y-155502D01*
X375302D01*
Y-157402D01*
X371898D01*
Y-155502D01*
X371398D01*
Y-150298D01*
X371898D01*
Y-149200D01*
G02X375302I1702J0D01*
G37*
G36*
G01X189803Y-160381D02*
X186770D01*
Y-156419D01*
X197032D01*
Y-160381D01*
X193999D01*
G03X193600Y-160804I0J-400D01*
G02X190202I-1699J-97D01*
G03X189803Y-160381I-399J23D01*
G37*
G36*
G01X194580Y-165898D02*
X195102D01*
Y-166398D01*
X197002D01*
Y-169802D01*
X195102D01*
Y-170302D01*
X189898D01*
Y-165898D01*
X190420D01*
G03X190815Y-165442I-1J400D01*
G02X194185I1685J242D01*
G03X194580Y-165898I396J-56D01*
G37*
G36*
G01X189898Y-177302D02*
Y-177082D01*
G03X189366Y-176705I-400J0D01*
G02Y-173495I-566J1605D01*
G03X189898Y-173118I132J377D01*
G01Y-172898D01*
X195102D01*
Y-173398D01*
X197002D01*
Y-176802D01*
X195102D01*
Y-177302D01*
X189898D01*
G37*
G36*
G01X625873Y-174902D02*
X613295D01*
X603295Y-164902D01*
X599102D01*
Y-165802D01*
X598602D01*
Y-167702D01*
X595198D01*
Y-165802D01*
X594698D01*
Y-164902D01*
X584855D01*
G02X579698Y-159745I-3455J1702D01*
G01Y-145182D01*
G02X583102I1702J3782D01*
G01Y-159745D01*
G02X584855Y-161498I-1702J-3455D01*
G01X594698D01*
Y-160598D01*
X599102D01*
Y-161498D01*
X604705D01*
X614705Y-171498D01*
X625873D01*
G02Y-174902I4527J-1702D01*
G37*
G36*
G01X459402Y-136172D02*
X458219D01*
X458048Y-136001D01*
X457802Y-136103D01*
Y-136202D01*
X452598D01*
Y-135702D01*
X451602D01*
Y-136202D01*
X446398D01*
Y-135452D01*
X441985D01*
G02X441873Y-135721I-3882J1459D01*
G01X446052Y-139899D01*
Y-148101D01*
X442246Y-151906D01*
Y-158146D01*
X433954D01*
Y-149854D01*
X440194D01*
X443148Y-146899D01*
Y-141101D01*
X439822Y-137775D01*
X439698Y-137827D01*
G02X441985Y-132548I-1598J3827D01*
G01X446398D01*
Y-131798D01*
X451602D01*
Y-132298D01*
X452598D01*
Y-131798D01*
X457802D01*
Y-132548D01*
X458701D01*
X459421Y-133268D01*
X462496D01*
Y-130573D01*
X470200D01*
Y-133268D01*
X471349D01*
X474452Y-136371D01*
Y-146798D01*
X475602D01*
Y-147298D01*
X476598D01*
Y-146798D01*
X477748D01*
Y-138181D01*
X480101Y-135828D01*
X481000D01*
Y-130573D01*
X483250D01*
Y-130129D01*
X483240Y-130098D01*
G02X486464I1612J546D01*
G01X486454Y-130129D01*
Y-130573D01*
X488704D01*
Y-133268D01*
X490779D01*
X492999Y-131048D01*
X494898D01*
Y-130298D01*
X495798D01*
Y-127702D01*
X494898D01*
Y-123298D01*
X495798D01*
Y-120702D01*
X494898D01*
Y-116298D01*
X500102D01*
Y-116798D01*
X502002D01*
Y-120202D01*
X500102D01*
Y-120702D01*
X499202D01*
Y-123298D01*
X500102D01*
Y-123798D01*
X502002D01*
Y-127202D01*
X500102D01*
Y-127702D01*
X499202D01*
Y-130298D01*
X500102D01*
Y-130798D01*
X501098D01*
Y-130298D01*
X506302D01*
Y-130798D01*
X507949D01*
X509449Y-129298D01*
X510818D01*
G02X512898Y-127218I3782J-1702D01*
G01Y-114455D01*
G02X518055Y-109298I1702J3455D01*
G01X524398D01*
Y-108398D01*
X524898D01*
Y-106498D01*
X528302D01*
Y-108398D01*
X528802D01*
Y-109298D01*
X530495D01*
X543295Y-96498D01*
X550873D01*
G02Y-99902I4527J-1702D01*
G01X544705D01*
X531905Y-112702D01*
X528802D01*
Y-113602D01*
X524398D01*
Y-112702D01*
X518055D01*
G02X516302Y-114455I-3455J1702D01*
G01Y-127218D01*
G02X511074Y-133182I-1702J-3782D01*
G03X510451Y-133110I-340J-211D01*
G01X509359Y-134202D01*
X506302D01*
Y-134702D01*
X501098D01*
Y-134202D01*
X500102D01*
Y-134702D01*
X494898D01*
Y-133952D01*
X494201D01*
X492403Y-135750D01*
X494216Y-137563D01*
G03X494898Y-137298I283J283D01*
G01X500102D01*
Y-137798D01*
X501098D01*
Y-137298D01*
X506302D01*
Y-137798D01*
X509359D01*
X510451Y-138890D01*
G03X511074Y-138818I283J283D01*
G02X516302Y-144782I3526J-2182D01*
G01Y-157545D01*
G02X518055Y-159298I-1702J-3455D01*
G01X526398D01*
Y-158398D01*
X530802D01*
Y-159298D01*
X532805D01*
X545005Y-171498D01*
X550873D01*
G02Y-174902I4527J-1702D01*
G01X543595D01*
X531395Y-162702D01*
X530802D01*
Y-163602D01*
X530302D01*
Y-165502D01*
X526898D01*
Y-163602D01*
X526398D01*
Y-162702D01*
X518055D01*
G02X512898Y-157545I-3455J1702D01*
G01Y-144782D01*
G02X510818Y-142702I1702J3782D01*
G01X509449D01*
X507949Y-141202D01*
X506302D01*
Y-141702D01*
X501098D01*
Y-141202D01*
X500102D01*
Y-141702D01*
X494898D01*
Y-140952D01*
X493499D01*
X491279Y-138732D01*
X488704D01*
Y-141427D01*
X480652D01*
Y-146798D01*
X481802D01*
Y-151202D01*
X480652D01*
Y-153798D01*
X481802D01*
Y-158202D01*
X476598D01*
Y-157702D01*
X475602D01*
Y-158202D01*
X470398D01*
Y-153798D01*
X471548D01*
Y-151202D01*
X470398D01*
Y-146798D01*
X471548D01*
Y-137573D01*
X470882Y-136907D01*
G03X470200Y-137190I-282J-283D01*
G01Y-141427D01*
X462496D01*
Y-141290D01*
X459862D01*
X458701Y-142452D01*
X457802D01*
Y-143202D01*
X452598D01*
Y-142702D01*
X450698D01*
Y-139298D01*
X452598D01*
Y-138798D01*
X457802D01*
Y-138897D01*
X458048Y-138999D01*
X458660Y-138388D01*
X459401D01*
G03X459777Y-137853I-1J400D01*
G02X459778Y-136706I1603J572D01*
G03X459402Y-136172I-377J134D01*
G37*
G36*
G01X427844Y-187022D02*
X427890Y-187048D01*
X428204D01*
Y-184748D01*
X434922D01*
Y-185248D01*
X436978D01*
Y-191752D01*
X434922D01*
Y-192252D01*
X428204D01*
Y-189952D01*
X427890D01*
X427844Y-189978D01*
G02Y-187022I-844J1478D01*
G37*
G36*
G01X432475Y-199055D02*
G02X431782Y-201652I-693J-1206D01*
G01X429814D01*
G02X429121Y-199055I0J1391D01*
G03X429208Y-198810I-99J173D01*
G02X432388I1590J608D01*
G03X432475Y-199055I186J-72D01*
G37*
G36*
G01X456248Y-208796D02*
Y-207519D01*
G03X455793Y-207123I-400J-1D01*
G02Y-203751I-230J1686D01*
G03X456248Y-203355I55J397D01*
G01Y-202078D01*
X456748D01*
Y-200022D01*
X463252D01*
Y-202078D01*
X463752D01*
Y-208796D01*
X456248D01*
G37*
G36*
G01X446086Y-206682D02*
X445558D01*
G03X445207Y-207273I0J-400D01*
G02X443986Y-209330I-1221J-666D01*
G01X442018D01*
G02X441045Y-206945I0J1391D01*
G03Y-206374I-279J285D01*
G02X441046Y-204386I973J994D01*
G03Y-203814I-280J286D01*
G02X441045Y-201826I972J994D01*
G03Y-201255I-279J286D01*
G02X442018Y-198870I973J994D01*
G01X443986D01*
G02X444445Y-198948I0J-1391D01*
G01X444477Y-198960D01*
X445164D01*
G02X445802Y-201900I1097J-1301D01*
G03X445313Y-202405I-107J-385D01*
G02X445206Y-203487I-1327J-415D01*
G03X445557Y-204078I351J-191D01*
G01X446636D01*
X446676Y-204060D01*
G02X448445Y-204256I725J-1540D01*
G01X448499Y-204298D01*
X448798D01*
Y-202998D01*
X449298D01*
Y-201098D01*
X452702D01*
Y-202998D01*
X453202D01*
Y-208202D01*
X448798D01*
Y-206902D01*
X448499D01*
X448445Y-206944D01*
G02X446086Y-206682I-1045J1344D01*
G37*
G36*
G01X428242D02*
X424759D01*
X424639Y-206802D01*
X423702D01*
Y-207702D01*
X422402D01*
Y-214698D01*
X424802D01*
Y-222102D01*
X417398D01*
Y-214698D01*
X419798D01*
Y-207702D01*
X418498D01*
Y-207202D01*
X417502D01*
Y-207702D01*
X412298D01*
Y-207400D01*
G03X411728Y-207039I-400J-1D01*
G02Y-203961I-728J1539D01*
G03X412298Y-203600I170J362D01*
G01Y-203298D01*
X417502D01*
Y-203798D01*
X418498D01*
Y-203298D01*
X419648D01*
Y-200702D01*
X418498D01*
Y-200202D01*
X416598D01*
Y-196798D01*
X418498D01*
Y-196298D01*
X423702D01*
Y-200702D01*
X422552D01*
Y-203298D01*
X423702D01*
Y-204078D01*
X429323D01*
X429355Y-204067D01*
G02X429814Y-203990I456J-1313D01*
G01X431782D01*
G02X432755Y-206374I0J-1391D01*
G03Y-206945I279J-286D01*
G02X431782Y-209330I-973J-994D01*
G01X429814D01*
G02X428593Y-207273I0J1391D01*
G03X428242Y-206682I-351J191D01*
G37*
G36*
G01X434506Y-216948D02*
X438198D01*
Y-216198D01*
X443402D01*
Y-216698D01*
X444398D01*
Y-216198D01*
X449602D01*
Y-216948D01*
X450010D01*
X450056Y-216922D01*
G02Y-219878I844J-1478D01*
G01X450010Y-219852D01*
X449602D01*
Y-220602D01*
X444398D01*
Y-220102D01*
X443402D01*
Y-220602D01*
X438198D01*
Y-219852D01*
X434506D01*
G02Y-216948I-3406J1452D01*
G37*
G36*
G01X360629Y54823D02*
G02X357651I-1489J0D01*
G01Y56990D01*
G02X357684Y57301I1489J-1D01*
G01X357688Y57321D01*
Y58471D01*
G02X357618Y58599I1457J880D01*
G03X356906Y58607I-358J-179D01*
G02X356852Y58511I-1510J786D01*
G01Y57321D01*
X356856Y57301D01*
G02X356889Y56990I-1456J-312D01*
G01Y54823D01*
G02X353911I-1489J0D01*
G01Y56990D01*
G02X353944Y57301I1489J-1D01*
G01X353948Y57321D01*
Y58511D01*
G02X356922Y60161I1452J888D01*
G03X357634Y60153I358J179D01*
G02X360592Y58471I1506J-793D01*
G01Y57321D01*
X360596Y57301D01*
G02X360629Y56990I-1456J-312D01*
G01Y54823D01*
G37*
G36*
G01X353911Y45177D02*
G02X356889I1489J0D01*
G01Y43010D01*
G02X356856Y42699I-1489J1D01*
G01X356852Y42679D01*
Y41890D01*
X356878Y41844D01*
G02X357078Y40718I-1478J-843D01*
G01X357061Y40616D01*
X357276Y40402D01*
X357688Y40815D01*
Y42679D01*
X357684Y42699D01*
G02X357651Y43010I1456J312D01*
G01Y45177D01*
G02X360629I1489J0D01*
G01Y43010D01*
G02X360596Y42699I-1489J1D01*
G01X360592Y42679D01*
Y40748D01*
G02X360343Y38657I-1452J-887D01*
G01X360022Y38335D01*
G03X360304Y37652I283J-283D01*
G01X361096D01*
Y30148D01*
X354378D01*
Y30648D01*
X352322D01*
Y37152D01*
X354378D01*
Y37652D01*
X356036D01*
Y38912D01*
G03X355591Y39309I-400J-1D01*
G02X353922Y41844I-191J1691D01*
G01X353948Y41890D01*
Y42679D01*
X353944Y42699D01*
G02X353911Y43010I1456J312D01*
G01Y45177D01*
G37*
G36*
G01X315451Y3618D02*
X303088D01*
G03X302805Y2936I0J-400D01*
G01X304639Y1102D01*
X305698D01*
Y2002D01*
X310902D01*
Y1502D01*
X312802D01*
Y-1902D01*
X310902D01*
Y-2402D01*
X305698D01*
Y-1502D01*
X303561D01*
X301000Y1060D01*
X296658D01*
Y-1456D01*
X302796D01*
X304739Y-3398D01*
X321261D01*
X329761Y5102D01*
X335960D01*
X339544Y8686D01*
X382521D01*
G02Y6082I1097J-1302D01*
G01X340622D01*
X337038Y2498D01*
X330839D01*
X322339Y-6002D01*
X303661D01*
X301718Y-4058D01*
X299577D01*
G03X299294Y-4741I0J-400D01*
G01X299397Y-4844D01*
X299448Y-4858D01*
G02X300539Y-7228I-448J-1642D01*
G03X300900Y-7798I362J-170D01*
G01X304702D01*
Y-8931D01*
G03X305368Y-9229I400J0D01*
G02X307344Y-9022I1132J-1271D01*
G01X307390Y-9048D01*
X308098D01*
Y-7898D01*
X312502D01*
Y-13102D01*
X312002D01*
Y-15002D01*
X308598D01*
Y-13102D01*
X308098D01*
Y-11952D01*
X307390D01*
X307344Y-11978D01*
G02X305368Y-11771I-844J1478D01*
G03X304702Y-12069I-266J-298D01*
G01Y-13002D01*
X304202D01*
Y-14902D01*
X300798D01*
Y-13002D01*
X300298D01*
Y-11852D01*
X299990D01*
X299944Y-11878D01*
G02Y-8922I-844J1478D01*
G01X299990Y-8948D01*
X300298D01*
Y-8400D01*
G03X299728Y-8039I-400J-1D01*
G02X297358Y-6948I-728J1539D01*
G01X297344Y-6897D01*
X297215Y-6768D01*
X296658D01*
Y-6904D01*
X288758D01*
Y6508D01*
X296658D01*
Y6222D01*
X314373D01*
X314628Y6476D01*
G03X314486Y6818I-142J142D01*
G01X313344D01*
Y10582D01*
X318880D01*
Y10002D01*
X333761D01*
X344061Y20302D01*
X413215D01*
X413315Y20402D01*
X414463D01*
G02X422165Y17361I3937J-1302D01*
G01X422106Y17234D01*
X425939Y13402D01*
X468703D01*
G02Y10798I1097J-1302D01*
G01X424861D01*
X420266Y15394D01*
X420139Y15335D01*
G02X419702Y15163I-1735J3767D01*
G01Y-11139D01*
X412339Y-18502D01*
X411298D01*
G02X411122Y-15292I-3798J1402D01*
G03X411763Y-15397I358J178D01*
G01X417098Y-10061D01*
Y15163D01*
G02X414497Y17698I1302J3937D01*
G01X345139D01*
X334839Y7398D01*
X318880D01*
Y6818D01*
X317414D01*
Y5581D01*
X315451Y3618D01*
G37*
G36*
G01X348002Y-11064D02*
Y-11202D01*
X342798D01*
Y-10702D01*
X340898D01*
Y-7298D01*
X342798D01*
Y-6798D01*
X348002D01*
Y-6936D01*
G03X348477Y-7329I400J0D01*
G02Y-10671I323J-1671D01*
G03X348002Y-11064I-75J-393D01*
G37*
G36*
G01X284052Y-102549D02*
Y-103994D01*
G02X281033Y-104046I-1451J-3406D01*
G01X281148Y-103992D01*
Y-103751D01*
X281048Y-103651D01*
Y-100602D01*
X279898D01*
Y-100102D01*
X278902D01*
Y-100602D01*
X273698D01*
Y-100102D01*
X271900D01*
G02Y-96698I0J1702D01*
G01X273698D01*
Y-96198D01*
X278902D01*
Y-96698D01*
X279898D01*
Y-96198D01*
X285102D01*
Y-100602D01*
X283952D01*
Y-102449D01*
X284052Y-102549D01*
G37*
G36*
G01X376970Y-28919D02*
Y-32881D01*
X368678D01*
Y-28919D01*
X371372D01*
Y-27881D01*
X368678D01*
Y-23919D01*
X376970D01*
Y-24448D01*
X378581D01*
X379781Y-25648D01*
X380798D01*
Y-24498D01*
X385202D01*
Y-25398D01*
X389827D01*
G02Y-28802I3673J-1702D01*
G01X385202D01*
Y-29702D01*
X384702D01*
Y-31602D01*
X381298D01*
Y-29702D01*
X380798D01*
Y-28572D01*
X378599D01*
X377379Y-27352D01*
X376970D01*
Y-27881D01*
X374276D01*
Y-28919D01*
X376970D01*
G37*
G36*
G01X398348Y-24001D02*
X395147Y-20800D01*
X395024Y-20850D01*
G02X397250Y-18624I-1524J3750D01*
G01X397200Y-18747D01*
X401252Y-22799D01*
Y-74611D01*
G02X398348I-1452J-889D01*
G01Y-24001D01*
G37*
G36*
G01X468870Y-53152D02*
Y-53681D01*
X460578D01*
Y-49719D01*
X468870D01*
Y-50248D01*
X469510D01*
X469556Y-50222D01*
G02Y-53178I844J-1478D01*
G01X469510Y-53152D01*
X468870D01*
G37*
G36*
G01Y-58152D02*
Y-58681D01*
X460578D01*
Y-54719D01*
X468870D01*
Y-55248D01*
X469310D01*
X469356Y-55222D01*
G02Y-58178I844J-1478D01*
G01X469310Y-58152D01*
X468870D01*
G37*
G36*
G01X478202Y-45902D02*
X472998D01*
Y-45002D01*
X472861D01*
X471657Y-43797D01*
X471589Y-43789D01*
G02X470703Y-43402I210J1689D01*
G01X468870D01*
Y-43681D01*
X460578D01*
Y-39719D01*
X468870D01*
Y-40398D01*
X469808D01*
X470208Y-40798D01*
X470701D01*
X470755Y-40756D01*
G02X473344Y-41383I1045J-1344D01*
G01X473397Y-41498D01*
X474828D01*
G03X475101Y-40806I0J400D01*
G02X474661Y-38988I1162J1243D01*
G03X474285Y-38452I-376J136D01*
G01X472904D01*
Y-30948D01*
X479622D01*
Y-31448D01*
X481678D01*
Y-37952D01*
X479622D01*
Y-38452D01*
X478241D01*
G03X477865Y-38988I0J-400D01*
G02X477425Y-40806I-1602J-575D01*
G03X477698Y-41498I273J-292D01*
G01X478202D01*
Y-41998D01*
X480102D01*
Y-45402D01*
X478202D01*
Y-45902D01*
G37*
G36*
G01X368885Y-117452D02*
G02Y-114548I-3885J1452D01*
G01X369299D01*
X399113Y-84734D01*
G03X398830Y-84052I-283J282D01*
G01X394101D01*
X370701Y-107452D01*
X368885D01*
G02Y-104548I-3885J1452D01*
G01X369499D01*
X392899Y-81148D01*
X463799D01*
X562148Y17201D01*
Y46298D01*
X560998D01*
Y46798D01*
X559098D01*
Y50202D01*
X560998D01*
Y50702D01*
X562148D01*
Y53398D01*
X560998D01*
Y53898D01*
X560002D01*
Y53398D01*
X554798D01*
Y54248D01*
X553699D01*
X551679Y56268D01*
X549904D01*
Y53573D01*
X542200D01*
Y56348D01*
X541599D01*
X538348Y59599D01*
Y69798D01*
X537198D01*
Y70298D01*
X536202D01*
Y69798D01*
X535052D01*
Y61331D01*
X532549Y58828D01*
X531400D01*
Y53573D01*
X529150D01*
Y53329D01*
X529160Y53298D01*
G02X525936I-1612J-546D01*
G01X525946Y53329D01*
Y53573D01*
X523696D01*
Y56268D01*
X522721D01*
X519502Y53049D01*
Y49898D01*
X519002D01*
Y47998D01*
X515598D01*
Y49898D01*
X515098D01*
Y51198D01*
X511602D01*
Y49898D01*
X511102D01*
Y47998D01*
X507698D01*
Y49898D01*
X507198D01*
Y51198D01*
X503602D01*
Y49898D01*
X503102D01*
Y48902D01*
X503602D01*
Y43698D01*
X502702D01*
Y38461D01*
X492039Y27798D01*
X432337D01*
G02Y30402I-3937J1302D01*
G01X490961D01*
X500098Y39539D01*
Y43698D01*
X499198D01*
Y48902D01*
X499698D01*
Y49898D01*
X499198D01*
Y55102D01*
X503602D01*
Y53802D01*
X507198D01*
Y55102D01*
X511602D01*
Y53802D01*
X515098D01*
Y55102D01*
X517449D01*
X519363Y57016D01*
G03X519080Y57698I-283J282D01*
G01X515098D01*
Y62902D01*
X515598D01*
Y63898D01*
X515098D01*
Y69102D01*
X515848D01*
Y71798D01*
X514698D01*
Y72298D01*
X513702D01*
Y71798D01*
X508498D01*
Y76202D01*
X509648D01*
Y78798D01*
X508498D01*
Y83202D01*
X509648D01*
Y87773D01*
X506900D01*
Y85047D01*
X505102Y83249D01*
Y82702D01*
X505602D01*
Y77498D01*
X505102D01*
Y75598D01*
X501698D01*
Y77498D01*
X501198D01*
Y82702D01*
X501237D01*
G03X501629Y83177I0J400D01*
G02X502851Y85141I1671J323D01*
G01X502903Y85155D01*
X503996Y86249D01*
Y87773D01*
X501596D01*
Y90468D01*
X501021D01*
X496217Y85664D01*
G03X496367Y85004I283J-283D01*
G02X497502Y83400I-566J-1604D01*
G01Y82602D01*
X498002D01*
Y77398D01*
X497502D01*
Y75498D01*
X494098D01*
Y77398D01*
X493598D01*
Y82080D01*
G03X492916Y82363I-400J0D01*
G01X491601Y81048D01*
X490302D01*
Y80498D01*
X485098D01*
Y80998D01*
X483198D01*
Y84402D01*
X485098D01*
Y84902D01*
X486248D01*
Y87498D01*
X485098D01*
Y87998D01*
X483198D01*
Y91402D01*
X485098D01*
Y91902D01*
X486248D01*
Y94498D01*
X485098D01*
Y94998D01*
X484102D01*
Y94498D01*
X478898D01*
Y95248D01*
X473585D01*
G02X465815I-3885J1452D01*
G01X463585D01*
G02Y98152I-3885J1452D01*
G01X465815D01*
G02X473585I3885J-1452D01*
G01X478898D01*
Y98902D01*
X484102D01*
Y98402D01*
X485098D01*
Y98902D01*
X490302D01*
Y94498D01*
X489152D01*
Y91902D01*
X490302D01*
Y87498D01*
X489152D01*
Y84902D01*
X490302D01*
Y84820D01*
G03X490984Y84537I400J0D01*
G01X499697Y93250D01*
X490599Y102348D01*
X490302D01*
Y101598D01*
X485098D01*
Y102098D01*
X484102D01*
Y101598D01*
X478898D01*
Y102348D01*
X468799D01*
X465899Y105248D01*
X450902D01*
Y104498D01*
X445698D01*
Y104998D01*
X444702D01*
Y104498D01*
X439498D01*
Y105248D01*
X438599D01*
X438379Y105468D01*
X435304D01*
Y102773D01*
X427600D01*
Y105468D01*
X426701D01*
X426421Y105748D01*
X426099D01*
X423348Y108499D01*
Y119998D01*
X422198D01*
Y120498D01*
X421202D01*
Y119998D01*
X420052D01*
Y110381D01*
X417699Y108028D01*
X416800D01*
Y102773D01*
X414550D01*
Y102325D01*
X414560Y102294D01*
G02X412676Y100068I-1612J-546D01*
G03X412248Y99507I-64J-395D01*
G02X412402Y98800I-1548J-707D01*
G01Y97902D01*
X412902D01*
Y92698D01*
X412402D01*
Y90798D01*
X408998D01*
Y92698D01*
X408498D01*
Y97902D01*
X408998D01*
Y98800D01*
G02X410972Y100480I1702J0D01*
G03X411400Y101041I64J395D01*
G02X411336Y102294I1548J707D01*
G01X411346Y102325D01*
Y102773D01*
X409096D01*
Y105468D01*
X406421D01*
X402752Y101799D01*
Y98402D01*
X403902D01*
Y93998D01*
X402752D01*
Y91402D01*
X403902D01*
Y86998D01*
X402631D01*
X402581Y83202D01*
X403702D01*
Y82702D01*
X404698D01*
Y83202D01*
X409902D01*
Y82452D01*
X427501D01*
X431478Y78475D01*
X431602Y78527D01*
G02X434652Y70815I1598J-3827D01*
G01Y68585D01*
G02X431748I-1452J-3885D01*
G01Y70815D01*
G02X429373Y76298I1452J3885D01*
G01X429425Y76422D01*
X426299Y79548D01*
X409902D01*
Y78798D01*
X404698D01*
Y79298D01*
X403702D01*
Y78798D01*
X398498D01*
Y83202D01*
X399677D01*
X399727Y86998D01*
X398698D01*
Y87498D01*
X396798D01*
Y90902D01*
X398698D01*
Y91402D01*
X399785D01*
X399819Y93998D01*
X398698D01*
Y94498D01*
X396798D01*
Y97902D01*
X398698D01*
Y98402D01*
X399848D01*
Y103001D01*
X405219Y108372D01*
X406010D01*
G03X406293Y109054I0J400D01*
G01X404148Y111199D01*
X403902Y111097D01*
Y110998D01*
X398698D01*
Y111498D01*
X397702D01*
Y110998D01*
X392498D01*
Y111898D01*
X387224D01*
G02Y114502I-3624J1302D01*
G01X392498D01*
Y115402D01*
X397702D01*
Y114902D01*
X398698D01*
Y115402D01*
X403902D01*
Y114652D01*
X404801D01*
X408521Y110932D01*
X409096D01*
Y113627D01*
X417148D01*
Y119998D01*
X415998D01*
Y124402D01*
X417148D01*
Y126998D01*
X415998D01*
Y131402D01*
X421202D01*
Y130902D01*
X422198D01*
Y131402D01*
X427402D01*
Y126998D01*
X426252D01*
Y124402D01*
X427402D01*
Y119998D01*
X426252D01*
Y109701D01*
X427301Y108652D01*
X427600D01*
Y113627D01*
X435304D01*
Y113490D01*
X436938D01*
X438599Y115152D01*
X439498D01*
Y115902D01*
X444702D01*
Y115402D01*
X446602D01*
Y111998D01*
X444702D01*
Y111498D01*
X439498D01*
Y111597D01*
X439252Y111699D01*
X437956Y110404D01*
X438025Y110273D01*
G02X438122Y108906I-1505J-794D01*
G03X438498Y108372I376J-134D01*
G01X439498D01*
Y108902D01*
X444702D01*
Y108402D01*
X445698D01*
Y108902D01*
X450902D01*
Y108152D01*
X467101D01*
X470001Y105252D01*
X478898D01*
Y106002D01*
X484102D01*
Y105502D01*
X485098D01*
Y106002D01*
X490302D01*
Y105252D01*
X491801D01*
X501121Y95932D01*
X501596D01*
Y98627D01*
X509300D01*
Y95932D01*
X510449D01*
X512552Y93829D01*
Y83202D01*
X513702D01*
Y82702D01*
X514698D01*
Y83202D01*
X515848D01*
Y90269D01*
X518951Y93372D01*
X520100D01*
Y98627D01*
X523048D01*
Y103098D01*
X521798D01*
Y108302D01*
X522298D01*
Y110202D01*
X525702D01*
Y108302D01*
X526202D01*
Y103098D01*
X525952D01*
Y98627D01*
X527804D01*
Y97154D01*
G03X528450Y96840I400J1D01*
G02X530998Y94691I1051J-1339D01*
G03X531350Y94102I352J-189D01*
G01X536302D01*
Y93602D01*
X537298D01*
Y94102D01*
X538448D01*
Y96898D01*
X537298D01*
Y97398D01*
X535398D01*
Y100802D01*
X537298D01*
Y101302D01*
X542502D01*
Y100552D01*
X552299D01*
X554899Y103152D01*
X570433D01*
G02X575376Y105297I3567J-1452D01*
G01X575498Y105250D01*
X585299Y115052D01*
X605387D01*
G02Y112148I4613J-1452D01*
G01X586501D01*
X577550Y103198D01*
X577597Y103076D01*
G02X570433Y100248I-3597J-1376D01*
G01X556101D01*
X553501Y97648D01*
X542502D01*
Y96898D01*
X541352D01*
Y94102D01*
X542502D01*
Y93352D01*
X543811D01*
G02Y90448I889J-1452D01*
G01X542502D01*
Y89698D01*
X537298D01*
Y90198D01*
X536302D01*
Y89698D01*
X531098D01*
Y90448D01*
X529949D01*
X529929Y90468D01*
X527804D01*
Y87773D01*
X520100D01*
Y89450D01*
G03X519418Y89733I-400J0D01*
G01X518752Y89067D01*
Y83202D01*
X519902D01*
Y78798D01*
X518752D01*
Y76202D01*
X519902D01*
Y71798D01*
X518752D01*
Y69102D01*
X519502D01*
Y63898D01*
X519002D01*
Y62902D01*
X519502D01*
Y61752D01*
X520651D01*
X520671Y61732D01*
X523696D01*
Y64427D01*
X531400D01*
Y62750D01*
G03X532082Y62467I400J0D01*
G01X532148Y62533D01*
Y69798D01*
X530998D01*
Y74202D01*
X532148D01*
Y76998D01*
X530998D01*
Y81402D01*
X536202D01*
Y80902D01*
X537198D01*
Y81402D01*
X542402D01*
Y76998D01*
X541252D01*
Y74202D01*
X542402D01*
Y69798D01*
X541252D01*
Y60801D01*
X541518Y60535D01*
G03X542200Y60818I282J283D01*
G01Y64427D01*
X549904D01*
Y64290D01*
X554798D01*
Y64902D01*
X560002D01*
Y64402D01*
X561902D01*
Y60998D01*
X560002D01*
Y60498D01*
X554798D01*
Y61248D01*
X553649D01*
X553510Y61388D01*
X552599D01*
G03X552222Y60853I0J-400D01*
G02Y59706I-1602J-574D01*
G03X552598Y59172I376J-134D01*
G01X552881D01*
X554457Y57596D01*
G03X554798Y57737I141J141D01*
G01Y57802D01*
X560002D01*
Y57302D01*
X560998D01*
Y57802D01*
X566202D01*
Y57052D01*
X572633D01*
G02X579797Y54224I3567J-1452D01*
G01X579750Y54102D01*
X593801Y40052D01*
X605387D01*
G02Y37148I4613J-1452D01*
G01X592599D01*
X577698Y52050D01*
X577576Y52003D01*
G02X572633Y54148I-1376J3597D01*
G01X566202D01*
Y53398D01*
X565052D01*
Y50702D01*
X566202D01*
Y46298D01*
X565052D01*
Y15999D01*
X465287Y-83766D01*
G03X465570Y-84448I283J-282D01*
G01X476999D01*
X543248Y-18199D01*
Y-14489D01*
G02X546152I1452J889D01*
G01Y-19401D01*
X478201Y-87352D01*
X400601D01*
X370501Y-117452D01*
X368885D01*
G37*
G54D89*
X327500Y241500D03*
G54D73*
X16900Y72300D03*
X6200Y67300D03*
Y57300D03*
X5800Y77300D03*
X17100Y62300D03*
X17000Y82300D03*
X234400Y169300D03*
X234600Y176300D03*
X234400Y197300D03*
X316900Y248900D03*
X293937Y-11563D03*
X399900Y-113000D03*
G54D82*
X189805Y151405D03*
Y197405D03*
X187836Y207436D03*
X211300Y151900D03*
X231490Y172810D03*
X230516Y178716D03*
G54D84*
X220000Y-156000D03*
X223200Y251300D03*
X296900Y-252600D03*
X291900Y-72000D03*
X271900Y-142100D03*
X328800Y56600D03*
X383600Y135900D03*
X401500Y-198500D03*
X453900Y41500D03*
X455700Y-102500D03*
X499100Y-170500D03*
X532000Y207500D03*
X576000Y32500D03*
X582300Y123400D03*
X587500Y184000D03*
X629200Y-135600D03*
G54D88*
X295100Y249200D03*
X422500Y-66500D03*
X327000Y-146900D03*
X336000Y39500D03*
X410500Y-181000D03*
X428100Y-169500D03*
X440500Y-105400D03*
X505500Y208400D03*
X601100Y287600D03*
X326900Y-100400D03*
X339000Y-82500D03*
G54D71*
X33708Y91851D03*
G54D79*
X154499Y-102800D03*
Y-35900D03*
X191901Y-128400D03*
Y-97800D03*
G54D77*
X86100Y-213400D03*
X96100D03*
G54D70*
X21700Y-122243D03*
G54D75*
X86100Y-253400D03*
Y-233400D03*
X96100D03*
X86100Y-243400D03*
X96100D03*
X86100Y-223400D03*
X96100D03*
X86100Y-203400D03*
X96100D03*
G54D80*
X179600Y21500D03*
X365000Y-86000D03*
X228600Y-80000D03*
X270700Y-29300D03*
X287200D03*
X304100D03*
X524600Y-131000D03*
X591400Y-131400D03*
X285000Y-182000D03*
Y-172000D03*
Y-162000D03*
G54D91*
X365000Y-96000D03*
X328000Y-182000D03*
X428100Y-154000D03*
Y-124000D03*
X428400Y19100D03*
X438100Y-144000D03*
Y-124000D03*
X523500Y248200D03*
X642100Y204600D03*
X355000Y-106000D03*
Y-116000D03*
G54D90*
X327500Y261500D03*
X407500Y-27100D03*
G54D78*
X155900Y-285500D03*
Y-265500D03*
X175900Y-285500D03*
Y-265500D03*
X230900Y-285500D03*
Y-265500D03*
X250900Y-285500D03*
Y-265500D03*
X305900Y-285500D03*
Y-265500D03*
X325900Y-285500D03*
Y-265500D03*
X380900Y-285500D03*
Y-265500D03*
X400900Y-285500D03*
Y-265500D03*
X545400Y-163200D03*
Y-183200D03*
Y-108200D03*
Y-88200D03*
X565400Y-163200D03*
Y-183200D03*
Y-108200D03*
Y-88200D03*
X600000Y28600D03*
Y48600D03*
Y103600D03*
Y123600D03*
X620400Y-183200D03*
Y-163200D03*
Y-108200D03*
Y-88200D03*
X620000Y28600D03*
Y48600D03*
Y103600D03*
Y123600D03*
X640400Y-183200D03*
Y-163200D03*
Y-108200D03*
Y-88200D03*
G54D72*
X152839Y275579D03*
X170161D03*
G54D69*
X269100Y243638D03*
G54D85*
X219400Y282800D03*
G54D74*
X108700Y-280400D03*
X107400Y282900D03*
X645500Y-280400D03*
X645200Y283100D03*
G54D83*
X224800Y-175800D03*
X272600Y-107400D03*
G54D81*
X179600Y71500D03*
X228600Y-94800D03*
X418400Y29100D03*
X443200Y64700D03*
X459700Y86700D03*
X524600Y-141000D03*
X591400Y-141400D03*
X642100Y214600D03*
G54D76*
X96100Y-253400D03*
G54D93*
X372824Y-20900D03*
Y-35900D03*
G54D87*
X290500Y104424D03*
X300500Y82376D03*
G54D92*
X270700Y-49300D03*
X287200D03*
X304100D03*
X328000Y-172000D03*
G54D86*
X229400Y282800D03*
%LPD*%
G75*
G36*
G01X210655Y181986D02*
X205239Y187402D01*
X177539D01*
X162602Y202339D01*
Y221339D01*
X158202Y225739D01*
Y227098D01*
X159202D01*
Y232302D01*
X158702D01*
Y233298D01*
X159202D01*
Y238502D01*
X158452D01*
Y243199D01*
X162516Y247263D01*
G02X163198Y246980I282J-283D01*
G01Y238849D01*
X163204Y238843D01*
G02X163063Y238502I-141J-141D01*
G01X162598D01*
Y233298D01*
X163098D01*
Y232302D01*
X162598D01*
Y227098D01*
X163498D01*
Y224661D01*
X166498Y221661D01*
Y201761D01*
X179061Y189198D01*
X207961D01*
X214491Y182668D01*
G02X214208Y181986I-283J-282D01*
G01X210655D01*
G37*
G36*
G01X169200Y234100D02*
Y244950D01*
X166800Y248550D01*
Y270000D01*
X171600D01*
Y260400D01*
X175200Y256800D01*
Y234100D01*
X174302D01*
Y234202D01*
X170898D01*
Y234100D01*
X169200D01*
G37*
G36*
G01X245397Y-121698D02*
G03X245229Y-121574I-1093J-1305D01*
G01X245338Y-121206D01*
X264134D01*
X270024Y-115316D01*
X289376D01*
X289703Y-115643D01*
X289711Y-115711D01*
G03X290046Y-116532I1689J210D01*
G01Y-117339D01*
X290092Y-117384D01*
Y-117688D01*
X289313D01*
Y-119746D01*
X283586D01*
X283376Y-119535D01*
X283361Y-119494D01*
G03X282000Y-118548I-1361J-506D01*
G01X281702D01*
Y-117798D01*
X276498D01*
Y-118298D01*
X275502D01*
Y-117798D01*
X275000D01*
G02X274600Y-117418I-1J400D01*
G03X271200I-1700J-82D01*
G02X270800Y-117798I-399J20D01*
G01X270298D01*
Y-121698D01*
X245397D01*
G37*
G36*
G01X358500Y260000D02*
X365500D01*
Y272500D01*
X389500D01*
Y256000D01*
X361606D01*
X361551Y256008D01*
X361550D01*
G03X361184Y256061I-366J-1239D01*
G01X359020D01*
G03X358928Y256058I-4J-1292D01*
G02X358500Y256457I-28J399D01*
G01Y260000D01*
G37*
G36*
G01X359020Y252123D02*
G03X358578Y252045I0J-1292D01*
G01X358544Y252032D01*
X358000D01*
Y253500D01*
X358776D01*
X358794Y253497D01*
G03X359020Y253477I226J1272D01*
G01X361184D01*
G03X361410Y253497I0J1292D01*
G01X361428Y253500D01*
X389000D01*
Y235500D01*
X366000D01*
Y252000D01*
X361734D01*
X361696Y252016D01*
G03X361184Y252123I-515J-1185D01*
G01X359020D01*
G37*
G36*
G01X449400Y230600D02*
X455000D01*
Y223700D01*
X432600D01*
Y241800D01*
X443000D01*
Y237000D01*
X449400Y230600D01*
G37*
G36*
G01X449298Y247202D02*
Y246000D01*
X432500D01*
Y253000D01*
X452000D01*
Y272000D01*
X456000D01*
Y247202D01*
X449298D01*
G37*
G36*
G01X457000Y246000D02*
Y236000D01*
X450500D01*
Y246000D01*
X457000D01*
G37*
G36*
G01X455200Y276600D02*
X452900D01*
X443100Y266800D01*
X432100D01*
Y283800D01*
X455200D01*
Y276600D01*
G37*
G36*
G01X432000Y256500D02*
Y263500D01*
X450000D01*
Y256500D01*
X432000D01*
G37*
G36*
G01X459600Y218800D02*
Y231600D01*
X490100D01*
Y218800D01*
X459600D01*
G37*
G36*
G01X458800Y235600D02*
Y247800D01*
X490200D01*
Y235600D01*
X458800D01*
G37*
G36*
G01X486400Y273600D02*
Y261400D01*
X458200D01*
Y273600D01*
X486400D01*
G37*
G36*
G01X486900Y289400D02*
Y277200D01*
X458700D01*
Y289400D01*
X486900D01*
G37*
G36*
G01X507600Y235400D02*
X492100D01*
Y246500D01*
X507500D01*
Y243900D01*
X518000D01*
Y225000D01*
X507600D01*
Y235400D01*
G37*
G36*
G01X493200Y250300D02*
Y260600D01*
X490200D01*
Y272000D01*
X501400D01*
Y269500D01*
X509554D01*
Y268954D01*
X517846D01*
Y269500D01*
X520000D01*
Y264973D01*
G03Y261227I3700J-1873D01*
G01Y256900D01*
X501400D01*
Y250300D01*
X493200D01*
G37*
G36*
G01X562000Y271000D02*
Y260500D01*
X560500D01*
Y269500D01*
X557500D01*
Y288500D01*
X561500D01*
Y271000D01*
X562000D01*
G37*
G36*
G01X599802Y221935D02*
Y222102D01*
X596398D01*
Y221944D01*
X588702Y221965D01*
Y222202D01*
X572700D01*
Y223500D01*
X583000D01*
Y226500D01*
X608500D01*
Y221912D01*
X599802Y221935D01*
G37*
G36*
G01X613000Y209000D02*
Y212500D01*
X611752D01*
Y212578D01*
X605248D01*
Y212500D01*
X587000D01*
Y216500D01*
X573000D01*
Y221000D01*
X587500D01*
Y219000D01*
X614500D01*
Y221500D01*
X628000D01*
Y215223D01*
X627998Y215208D01*
G03Y213992I4102J-608D01*
G01X628000Y213977D01*
Y209000D01*
X613000D01*
G37*
G36*
G01X585500Y258000D02*
Y270000D01*
X568500D01*
Y260500D01*
X563202D01*
Y267000D01*
X564500D01*
Y281100D01*
X571100D01*
Y277200D01*
X594500D01*
Y270000D01*
X607200D01*
Y265961D01*
G03Y262639I3800J-1661D01*
G01Y258000D01*
X585500D01*
G37*
%LPC*%
G75*
G54D80*
X513500Y238200D03*
X513700Y263100D03*
X622100Y214600D03*
X601000Y264300D03*
%LPD*%
G75*
G54D10*
G01X82048Y-213400D02*
X86100D01*
G01X96100Y-217452D02*
Y-213400D01*
G01D02*
Y-209348D01*
G01X92048Y-213400D02*
X96100D01*
G01D02*
X100152D01*
G01X86100Y-217452D02*
Y-213400D01*
G01D02*
Y-209348D01*
G01Y-213400D02*
X90152D01*
G01X143980Y265539D02*
X143941Y265500D01*
X138543D01*
G01X143980Y286996D02*
X143976Y287000D01*
X137600D01*
G01X155900Y-290633D02*
Y-285500D01*
G01D02*
Y-280367D01*
G01X150767Y-285500D02*
X155900D01*
G01D02*
X161033D01*
G01X155900Y-270633D02*
Y-265500D01*
G01D02*
Y-260367D01*
G01X150767Y-265500D02*
X155900D01*
G01D02*
X161033D01*
G01X154499Y-128400D02*
X160800D01*
G01X154499Y-107800D02*
X161700D01*
G01X153600Y-62900D02*
X153500Y-62800D01*
Y-58900D01*
G01X153600Y-55900D02*
X153500Y-56000D01*
Y-58900D01*
G01X154499Y-40900D02*
Y-43301D01*
G01Y-5900D02*
X162800D01*
G01X153900Y4000D02*
X150000D01*
G01X153900Y11000D02*
X149900D01*
G01X175900Y-290633D02*
Y-285500D01*
G01D02*
Y-280367D01*
G01X170767Y-285500D02*
X175900D01*
G01D02*
X181033D01*
G01X175900Y-270633D02*
Y-265500D01*
G01D02*
Y-260367D01*
G01X170767Y-265500D02*
X175900D01*
G01D02*
X181033D01*
G01X191901Y-72800D02*
X185972D01*
G01X179600Y17253D02*
Y21500D01*
G01D02*
Y25747D01*
G01X175353Y21500D02*
X179600D01*
G01D02*
X183847D01*
G01X179600Y67253D02*
Y71500D01*
G01D02*
Y75747D01*
G01X175353Y71500D02*
X179600D01*
G01D02*
X183847D01*
G01X179020Y265539D02*
X179081Y265600D01*
X185800D01*
G01X179020Y286996D02*
X179024Y287000D01*
X185600D01*
G01X191901Y-102800D02*
X198600D01*
G01X194400Y-63100D02*
X198000D01*
G01X194400Y-56100D02*
X198000D01*
G01X191901Y-35900D02*
X199200D01*
G01X191901Y-5900D02*
Y-3101D01*
G01X192100Y4000D02*
X196000D01*
G01X192100Y11000D02*
X196000D01*
G01X206100Y230100D02*
X209400D01*
G01X230900Y-290633D02*
Y-285500D01*
G01D02*
Y-280367D01*
G01X225767Y-285500D02*
X230900D01*
G01D02*
X236033D01*
G01X230900Y-270633D02*
Y-265500D01*
G01D02*
Y-260367D01*
G01X225767Y-265500D02*
X230900D01*
G01D02*
X236033D01*
G01X220000Y-159952D02*
Y-156000D01*
G01D02*
Y-152048D01*
G01X216048Y-156000D02*
X220000D01*
G01D02*
X223952D01*
G01X228600Y-144800D02*
Y-140553D01*
G01X224353Y-144800D02*
X228600D01*
G01D02*
X232847D01*
G01X228600Y-84247D02*
Y-80000D01*
G01D02*
Y-75753D01*
G01X224353Y-80000D02*
X228600D01*
G01D02*
X232847D01*
G01X228600Y-99047D02*
Y-94800D01*
G01D02*
Y-90553D01*
G01X224353Y-94800D02*
X228600D01*
G01D02*
X232847D01*
G01X214600Y124100D02*
X218000D01*
G01D02*
X222600D01*
G01X230600D02*
X230500Y124000D01*
X226200D01*
G01X222600Y124100D02*
X222700Y124000D01*
X226200D01*
G01X223200Y247348D02*
Y251300D01*
G01X236000Y238200D02*
X231900D01*
G01X223200Y251300D02*
Y255252D01*
G01X219248Y251300D02*
X223200D01*
G01D02*
X227152D01*
G01X219400Y278651D02*
Y282800D01*
G01D02*
Y286949D01*
G01X215251Y282800D02*
X219400D01*
G01D02*
X223549D01*
G01X250900Y-290633D02*
Y-285500D01*
G01D02*
Y-280367D01*
G01X245767Y-285500D02*
X250900D01*
G01D02*
X256033D01*
G01X250900Y-270633D02*
Y-265500D01*
G01D02*
Y-260367D01*
G01X245767Y-265500D02*
X250900D01*
G01D02*
X256033D01*
G01X235700Y-167563D02*
Y-163400D01*
G01Y-175437D02*
Y-178800D01*
G01X245700Y151700D02*
X249900D01*
G01X245700Y159700D02*
X249500D01*
G01X242840Y216491D02*
Y212360D01*
G01X250596Y248347D02*
Y256236D01*
G01D02*
Y264125D01*
G01X247038Y256236D02*
X250596D01*
G01D02*
X254154D01*
G01X273600Y-168363D02*
Y-164500D01*
G01X264900Y-169000D02*
Y-165600D01*
G01X271900Y-146052D02*
Y-142100D01*
G01D02*
Y-138148D01*
G01X267948Y-142100D02*
X271900D01*
G01D02*
X275852D01*
G01X276300Y-98400D02*
X271900D01*
G01X270700Y-33547D02*
Y-29300D01*
G01D02*
Y-25053D01*
G01X266453Y-29300D02*
X270700D01*
G01D02*
X274947D01*
G01X269100Y264489D02*
Y268047D01*
G01D02*
Y271605D01*
G01X261211Y268047D02*
X269100D01*
G01D02*
X276989D01*
G01X296900Y-256552D02*
Y-252600D01*
G01D02*
Y-248648D01*
G01X292948Y-252600D02*
X296900D01*
G01D02*
X300852D01*
G01X285000Y-172000D02*
Y-162000D01*
G01Y-182000D02*
Y-172000D01*
G01X280753D02*
X285000D01*
G01D02*
X289247D01*
G01X285000Y-186247D02*
Y-182000D01*
G01X280753D02*
X285000D01*
G01D02*
X289247D01*
G01X285000Y-162000D02*
Y-157753D01*
G01X280753Y-162000D02*
X285000D01*
G01D02*
X289247D01*
G01X291300Y-135800D02*
Y-131500D01*
G01X291900Y-75952D02*
Y-72000D01*
G01D02*
Y-68048D01*
G01X287948Y-72000D02*
X291900D01*
G01D02*
X295852D01*
G01X299853Y-29300D02*
X304100D01*
G01X287200Y-33547D02*
Y-29300D01*
G01D02*
Y-25053D01*
G01X282953Y-29300D02*
X287200D01*
G01D02*
X291447D01*
G01X302215Y286600D02*
X302115Y286700D01*
X297900D01*
G01X320767Y-285500D02*
X325900D01*
G01X305900Y-290633D02*
Y-285500D01*
G01D02*
Y-280367D01*
G01X300767Y-285500D02*
X305900D01*
G01D02*
X311033D01*
G01X320767Y-265500D02*
X325900D01*
G01X305900Y-270633D02*
Y-265500D01*
G01D02*
Y-260367D01*
G01X300767Y-265500D02*
X305900D01*
G01D02*
X311033D01*
G01X319100Y-124700D02*
X321800D01*
G01X304100Y-33547D02*
Y-29300D01*
G01D02*
Y-25053D01*
G01Y-29300D02*
X308347D01*
G01X309600Y266200D02*
X305500D01*
G01X315800D02*
X319800D01*
G01X307363Y275600D02*
X303100D01*
G01X315237D02*
X319700D01*
G01X316585Y286600D02*
X320900D01*
G01X325900Y-290633D02*
Y-285500D01*
G01D02*
Y-280367D01*
G01Y-285500D02*
X331033D01*
G01X325900Y-270633D02*
Y-265500D01*
G01D02*
Y-260367D01*
G01Y-265500D02*
X331033D01*
G01X330300Y-210337D02*
X330200Y-213600D01*
G01X339600Y-208600D02*
Y-212000D01*
G01Y-202400D02*
X336600D01*
X336537Y-202463D01*
X330300D01*
G01X338000Y-182000D02*
Y-186946D01*
X330300Y-194646D01*
Y-202463D01*
G01X328800Y52648D02*
Y56600D01*
G01D02*
Y60552D01*
G01X324848Y56600D02*
X328800D01*
G01D02*
X332752D01*
G01X327500Y237351D02*
Y241500D01*
G01D02*
Y245649D01*
G01X323351Y241500D02*
X327500D01*
G01D02*
X331649D01*
G01X329000Y278900D02*
X324800D01*
G01X329000Y291700D02*
Y288700D01*
G01X335200Y291700D02*
Y278900D01*
G01X363100Y-231100D02*
X363200Y-231200D01*
Y-234400D01*
G01X356900Y-224000D02*
X353300D01*
G01X356900Y-231100D02*
X353500D01*
G01X374300Y-222000D02*
X369650D01*
X367650Y-224000D01*
X363100D01*
G01X365000Y-90247D02*
Y-86000D01*
G01D02*
Y-81753D01*
G01X360753Y-86000D02*
X365000D01*
G01D02*
X369247D01*
G01X345400Y-1900D02*
X348800D01*
X348900Y-1800D01*
X350900D01*
X352460Y-3360D01*
X358391D01*
G01X357737Y33900D02*
Y38457D01*
X359140Y39860D01*
G01X349863Y33900D02*
X345700D01*
G01X353100Y64700D02*
X349500D01*
G01X351863Y74300D02*
X348000D01*
G01X352500Y226400D02*
Y223000D01*
G01X380900Y-290633D02*
Y-285500D01*
G01D02*
Y-280367D01*
G01X375767Y-285500D02*
X380900D01*
G01D02*
X386033D01*
G01X380900Y-270633D02*
Y-265500D01*
G01D02*
Y-260367D01*
G01X375767Y-265500D02*
X380900D01*
G01D02*
X386033D01*
G01X368800Y-210137D02*
Y-213700D01*
G01X380600Y-152900D02*
Y-149100D01*
G01X373600Y-152900D02*
Y-149200D01*
G01X383000Y-27100D02*
X393500D01*
G01X369809Y-7100D02*
X382800D01*
G01D02*
X393500D01*
G01X383600Y131948D02*
Y135900D01*
G01D02*
Y139852D01*
G01X379648Y135900D02*
X383600D01*
G01D02*
X387552D01*
G01X400900Y-290633D02*
Y-285500D01*
G01D02*
Y-280367D01*
G01X395767Y-285500D02*
X400900D01*
G01D02*
X406033D01*
G01X400900Y-270633D02*
Y-265500D01*
G01D02*
Y-260367D01*
G01X395767Y-265500D02*
X400900D01*
G01D02*
X406033D01*
G01X401500Y-202452D02*
Y-198500D01*
G01D02*
Y-194548D01*
G01X397548Y-198500D02*
X401500D01*
G01D02*
X405452D01*
G01X394600Y-126600D02*
Y-130300D01*
G01X401600Y-126600D02*
Y-130200D01*
G01X393500Y-7100D02*
X407500D01*
G01X418400Y24853D02*
Y29100D01*
G01D02*
Y33347D01*
G01X414153Y29100D02*
X418400D01*
G01D02*
X422647D01*
G01X410700Y95300D02*
Y98800D01*
G01X417700Y95300D02*
Y99000D01*
G01X451748Y-102500D02*
X455700D01*
G01X449948Y41500D02*
X453900D01*
G01X443200Y60453D02*
Y64700D01*
G01D02*
Y68947D01*
G01X438953Y64700D02*
X443200D01*
G01D02*
X447447D01*
G01X431452Y109480D02*
X436520D01*
G01X432200Y122600D02*
X436200D01*
G01X439200D02*
X436200D01*
G01X457600Y-150400D02*
X460200D01*
X461100Y-151300D01*
G01X464600Y-150400D02*
X462000D01*
X461100Y-151300D01*
G01X455700Y-106452D02*
Y-102500D01*
G01D02*
Y-98548D01*
G01Y-102500D02*
X459652D01*
G01X453900Y37548D02*
Y41500D01*
G01D02*
Y45452D01*
G01Y41500D02*
X457852D01*
G01X459700Y82453D02*
Y86700D01*
G01D02*
Y90947D01*
G01X455453Y86700D02*
X459700D01*
G01D02*
X463947D01*
G01X495148Y-170500D02*
X499100D01*
G01X480600Y-122600D02*
Y-126300D01*
G01X488100Y-122600D02*
Y-126100D01*
G01X495800Y80000D02*
Y83400D01*
G01X499100Y-174452D02*
Y-170500D01*
G01D02*
Y-166548D01*
G01Y-170500D02*
X503052D01*
G01X514600Y-161000D02*
Y-141000D01*
G01Y-161000D02*
X528600D01*
G01X497500Y-118500D02*
Y-125500D01*
G01Y-132500D02*
Y-125500D01*
G01X514600Y-141000D02*
X510154D01*
X508654Y-139500D01*
X503700D01*
G01X514600Y-111000D02*
Y-131000D01*
G01D02*
X510154D01*
X508654Y-132500D01*
X503700D01*
G01X514600Y-111000D02*
X526600D01*
G01X503400Y80100D02*
Y83400D01*
X503300Y83500D01*
G01X513500Y238200D02*
Y242447D01*
G01Y238200D02*
X517747D01*
G01X513700Y258853D02*
Y263100D01*
G01D02*
Y267347D01*
G01Y263100D02*
X517947D01*
G01X555400Y-173200D02*
X544300D01*
X532100Y-161000D01*
X528600D01*
G01X524600Y-145247D02*
Y-141000D01*
G01D02*
Y-136753D01*
G01X520353Y-141000D02*
X524600D01*
G01D02*
X528847D01*
G01X524600Y-135247D02*
Y-131000D01*
G01D02*
Y-126753D01*
G01X520353Y-131000D02*
X524600D01*
G01D02*
X528847D01*
G01X555400Y-98200D02*
X544000D01*
X531200Y-111000D01*
X526600D01*
G01X533300Y108000D02*
Y104800D01*
G01X532000Y203548D02*
Y207500D01*
G01D02*
Y211452D01*
G01X528048Y207500D02*
X532000D01*
G01D02*
X535952D01*
G01X536500Y256900D02*
Y256500D01*
G01X545400Y-188333D02*
Y-183200D01*
G01X560267D02*
X565400D01*
G01X545400D02*
Y-178067D01*
G01X540267Y-183200D02*
X545400D01*
G01D02*
X550533D01*
G01X545400Y-168333D02*
Y-163200D01*
G01X560267D02*
X565400D01*
G01X545400D02*
Y-158067D01*
G01X540267Y-163200D02*
X545400D01*
G01D02*
X550533D01*
G01X560267Y-108200D02*
X565400D01*
G01X545400Y-113333D02*
Y-108200D01*
G01D02*
Y-103067D01*
G01X540267Y-108200D02*
X545400D01*
G01D02*
X550533D01*
G01X560267Y-88200D02*
X565400D01*
G01X545400Y-93333D02*
Y-88200D01*
G01D02*
Y-83067D01*
G01X540267Y-88200D02*
X545400D01*
G01D02*
X550533D01*
G01X546052Y60280D02*
X550620D01*
G01X540300Y108000D02*
Y104600D01*
G01X545600Y256600D02*
Y255763D01*
G01X565400Y-188333D02*
Y-183200D01*
G01D02*
Y-178067D01*
G01Y-183200D02*
X570533D01*
G01X565400Y-168333D02*
Y-163200D01*
G01D02*
Y-158067D01*
G01Y-163200D02*
X570533D01*
G01X581400Y-141400D02*
Y-163200D01*
G01D02*
X596900D01*
G01X581400Y-131400D02*
Y-113200D01*
G01X565400Y-113333D02*
Y-108200D01*
G01D02*
Y-103067D01*
G01Y-108200D02*
X570533D01*
G01X581400Y-113200D02*
X596300D01*
G01X565400Y-93333D02*
Y-88200D01*
G01D02*
Y-83067D01*
G01Y-88200D02*
X570533D01*
G01X576000Y28548D02*
Y32500D01*
G01D02*
Y36452D01*
G01X572048Y32500D02*
X576000D01*
G01D02*
X579952D01*
G01X582300Y119448D02*
Y123400D01*
G01D02*
Y127352D01*
G01X578348Y123400D02*
X582300D01*
G01D02*
X586252D01*
G01X596900Y-169400D02*
Y-173100D01*
G01X591400Y-145647D02*
Y-141400D01*
G01X630400Y-173200D02*
X614000D01*
X604000Y-163200D01*
X596900D01*
G01X591400Y-141400D02*
Y-137153D01*
G01X587153Y-141400D02*
X591400D01*
G01D02*
X595647D01*
G01X591400Y-135647D02*
Y-131400D01*
G01D02*
Y-127153D01*
G01X587153Y-131400D02*
X591400D01*
G01D02*
X595647D01*
G01X596300Y-107000D02*
Y-103200D01*
G01X630400Y-98200D02*
X625266D01*
X625166Y-98300D01*
X620200D01*
X605300Y-113200D01*
X596300D01*
G01X600000Y23467D02*
Y28600D01*
G01D02*
Y33733D01*
G01X594867Y28600D02*
X600000D01*
G01D02*
X605133D01*
G01X600000Y43467D02*
Y48600D01*
G01D02*
Y53733D01*
G01X594867Y48600D02*
X600000D01*
G01D02*
X605133D01*
G01X600000Y98467D02*
Y103600D01*
G01D02*
Y108733D01*
G01X594867Y103600D02*
X600000D01*
G01D02*
X605133D01*
G01X600000Y118467D02*
Y123600D01*
G01D02*
Y128733D01*
G01X594867Y123600D02*
X600000D01*
G01D02*
X605133D01*
G01X587500Y180048D02*
Y184000D01*
G01D02*
Y187952D01*
G01X583548Y184000D02*
X587500D01*
G01D02*
X591452D01*
G01X601000Y260053D02*
Y264300D01*
G01D02*
Y268547D01*
G01X596753Y264300D02*
X601000D01*
G01D02*
X605247D01*
G01X620400Y-188333D02*
Y-183200D01*
G01Y-168333D02*
Y-163200D01*
G01Y-183200D02*
Y-178067D01*
G01X615267Y-183200D02*
X620400D01*
G01D02*
X625533D01*
G01X620400Y-163200D02*
Y-158067D01*
G01X615267Y-163200D02*
X620400D01*
G01D02*
X625533D01*
G01X625248Y-135600D02*
X629200D01*
G01X620400Y-113333D02*
Y-108200D01*
G01D02*
Y-103067D01*
G01X615267Y-108200D02*
X620400D01*
G01D02*
X625533D01*
G01X620400Y-93333D02*
Y-88200D01*
G01D02*
Y-83067D01*
G01X615267Y-88200D02*
X620400D01*
G01D02*
X625533D01*
G01X620000Y23467D02*
Y28600D01*
G01D02*
Y33733D01*
G01X614867Y28600D02*
X620000D01*
G01D02*
X625133D01*
G01X620000Y43467D02*
Y48600D01*
G01D02*
Y53733D01*
G01X614867Y48600D02*
X620000D01*
G01D02*
X625133D01*
G01X620000Y98467D02*
Y103600D01*
G01D02*
Y108733D01*
G01X614867Y103600D02*
X620000D01*
G01D02*
X625133D01*
G01X620000Y118467D02*
Y123600D01*
G01D02*
Y128733D01*
G01X614867Y123600D02*
X620000D01*
G01D02*
X625133D01*
G01X622100Y210353D02*
Y214600D01*
G01D02*
Y218847D01*
G01X617853Y214600D02*
X622100D01*
G01D02*
X626347D01*
G01X640400Y-188333D02*
Y-183200D01*
G01Y-168333D02*
Y-163200D01*
G01Y-183200D02*
Y-178067D01*
G01X635267Y-183200D02*
X640400D01*
G01D02*
X645533D01*
G01X640400Y-163200D02*
Y-158067D01*
G01X635267Y-163200D02*
X640400D01*
G01D02*
X645533D01*
G01X629200Y-139552D02*
Y-135600D01*
G01D02*
Y-131648D01*
G01Y-135600D02*
X633152D01*
G01X640400Y-113333D02*
Y-108200D01*
G01D02*
Y-103067D01*
G01X635267Y-108200D02*
X640400D01*
G01D02*
X645533D01*
G01X640400Y-93333D02*
Y-88200D01*
G01D02*
Y-83067D01*
G01X635267Y-88200D02*
X640400D01*
G01D02*
X645533D01*
G01X642100Y210353D02*
Y214600D01*
G01D02*
Y218847D01*
G01X637853Y214600D02*
X642100D01*
G01D02*
X646347D01*
X6500Y-133500D03*
X-1400Y-101100D03*
X5700Y-112700D03*
X6100Y-92700D03*
Y-97700D03*
X-1400Y-60800D03*
X6200Y-57700D03*
X6600Y-72700D03*
X6200Y-77700D03*
X6500Y-37700D03*
X6300Y-52700D03*
X6200Y-17800D03*
X-400Y-16500D03*
X6300Y-32700D03*
X6000Y-12500D03*
X6300Y2300D03*
X6700Y7300D03*
X6400Y27300D03*
X6300Y22300D03*
X600Y34900D03*
X6300Y47300D03*
X6500Y42300D03*
X5500Y72300D03*
X6100Y62300D03*
X6200Y67300D03*
Y57300D03*
X16900Y72300D03*
X-2100Y81200D03*
X5300Y82300D03*
X5800Y77300D03*
X27800Y-133500D03*
X37400Y-102700D03*
X36900Y-87700D03*
X17500Y-62800D03*
X26000Y-67700D03*
X37500Y-57700D03*
X36900Y-72700D03*
X26100Y-37700D03*
X17600Y-47800D03*
X26000Y-52600D03*
X37200Y-42700D03*
X17500Y-17900D03*
X26000Y-22700D03*
X17500Y-32800D03*
X37200Y-27700D03*
X25800Y7300D03*
X26200Y-7700D03*
X37100Y2300D03*
X37700Y-12700D03*
X26000Y22300D03*
X17500Y27300D03*
X17400Y12200D03*
X36600Y17300D03*
X17500Y42200D03*
X37200Y47300D03*
X37000Y32300D03*
X26000Y67200D03*
X17500Y57300D03*
X36900Y62300D03*
X17100D03*
X26000Y77300D03*
X37300D03*
X17000Y82300D03*
X21100Y100800D03*
X54200Y101500D03*
X64300Y-113000D03*
Y-121000D03*
Y-104960D03*
Y-97000D03*
Y-89000D03*
Y-81000D03*
Y-65000D03*
Y-73000D03*
Y-57000D03*
Y-49000D03*
Y-41000D03*
Y-33000D03*
Y-25000D03*
Y-17000D03*
Y-9000D03*
Y-1000D03*
Y7000D03*
Y15000D03*
Y23000D03*
X79000Y15000D03*
X64300Y31000D03*
Y39000D03*
Y47000D03*
X63200Y67000D03*
X64300Y55000D03*
X75300Y79500D03*
X64500Y82300D03*
X79000Y92400D03*
X60800Y97100D03*
X90000Y-192600D03*
X84600Y-184800D03*
Y-156200D03*
X84816Y-143388D03*
X102153Y-105065D03*
X90000Y-89000D03*
X89300Y-65000D03*
X102000Y-20900D03*
X84900Y-17000D03*
X91900Y7000D03*
X98000Y-9000D03*
X82600Y23000D03*
Y88200D03*
X91900Y97200D03*
X88100Y102600D03*
X98000Y111500D03*
X102100Y164300D03*
X91900Y196100D03*
X98000Y204200D03*
X122400Y-271100D03*
X120800Y-240000D03*
X119600Y-250100D03*
X120600Y-190800D03*
Y-157100D03*
X117500Y-150400D03*
X112900Y-136400D03*
X108200Y-121100D03*
X107771Y-87845D03*
X117500Y-79500D03*
X112900Y-41000D03*
X117500Y107000D03*
X107800Y146900D03*
X112900Y180200D03*
X104500Y238600D03*
X104300Y263500D03*
X134000Y-283400D03*
X132100Y-257600D03*
X138800Y-218400D03*
X138100Y-229800D03*
X139400Y-195400D03*
X126300Y-169100D03*
X139400Y-162000D03*
X139500Y-131600D03*
X134450Y-92800D03*
X129100Y-82800D03*
X134532Y-73084D03*
X129100Y-65000D03*
X144485Y-48813D03*
X144500Y-25900D03*
X127000Y-15900D03*
X127100Y-33000D03*
X130700Y-24750D03*
X139500Y-900D03*
X139900Y67400D03*
X134600Y125100D03*
X143800Y167600D03*
X127000Y172300D03*
X143800Y183600D03*
X136200Y188300D03*
X133500Y237000D03*
X138543Y265500D03*
X128600Y284500D03*
X137600Y287000D03*
X153000Y-247500D03*
X166400Y-239800D03*
X168200Y-219500D03*
X153700Y-227600D03*
X157700Y-189300D03*
X165500Y-194000D03*
X160800Y-206400D03*
X165300Y-168400D03*
X164900Y-175400D03*
X155100Y-178500D03*
X161200Y-153400D03*
X155100Y-165000D03*
X154499Y-160799D03*
X160800Y-128400D03*
X161700Y-107800D03*
X154499Y-120801D03*
X166050Y-117050D03*
X160700Y-97800D03*
X163400Y-62900D03*
X161800Y-77800D03*
X153500Y-58900D03*
X160600Y-72900D03*
X163300Y-55900D03*
X154499Y-43301D03*
X164100Y4000D03*
X160500Y-10900D03*
X162800Y-5900D03*
X150000Y4000D03*
X153200Y21700D03*
X164000Y11000D03*
X149900D03*
X148600Y49200D03*
X148200Y42900D03*
X157100Y50200D03*
X161000Y30800D03*
X162700Y65000D03*
Y57000D03*
X148700D03*
Y65000D03*
X159000Y172700D03*
X155100Y164200D03*
X154100Y172200D03*
Y180200D03*
X164600Y193800D03*
X159100Y182700D03*
X154600Y188300D03*
X164400Y211300D03*
X154800Y204400D03*
X155200Y256800D03*
X158300D03*
X183400Y-237300D03*
Y-245300D03*
X190900Y-228300D03*
Y-220800D03*
X181400Y-188700D03*
X188800Y-175100D03*
X185972Y-72800D03*
X185800Y-77800D03*
X184500Y-63100D03*
Y-56100D03*
X185600Y-10900D03*
X181600Y4000D03*
X181800Y11000D03*
X174500Y117800D03*
X187000Y140100D03*
X179400Y215700D03*
X188100Y222600D03*
X190800Y224900D03*
X185800Y265600D03*
X185600Y287000D03*
X209400Y-281700D03*
X194900Y-264800D03*
X199892Y-239800D03*
X208900Y-237300D03*
X204650Y-228300D03*
X204900Y-220800D03*
X205100Y-188300D03*
X202400Y-168100D03*
Y-175100D03*
X192500Y-165200D03*
X191901Y-160901D03*
X197900Y-153400D03*
X209600Y-148400D03*
X198500Y-123400D03*
X209600Y-138000D03*
X210500Y-124000D03*
X204800Y-138400D03*
X198600Y-102800D03*
Y-107800D03*
X210500Y-100500D03*
X198000Y-63100D03*
Y-56100D03*
X199200Y-35900D03*
X198300Y-40900D03*
X206100Y-20000D03*
X191901Y-3101D03*
X196000Y4000D03*
X205500Y3500D03*
X196000Y11000D03*
X211500Y31900D03*
X210800Y67400D03*
X197500Y120100D03*
X209000Y137600D03*
X210500Y125000D03*
X209900Y184900D03*
X200000Y222500D03*
X200300Y246600D03*
X209400Y230100D03*
X202200Y230000D03*
X197500Y228400D03*
X197600Y284200D03*
X219600Y-143400D03*
X214800Y-133300D03*
X219600Y-114400D03*
X219200Y-78500D03*
X216500Y-26300D03*
X222500Y4500D03*
X216500Y-10000D03*
X217300Y-3000D03*
X234500Y67200D03*
X230400Y102600D03*
X222500Y106900D03*
X226100Y136900D03*
X226200Y124000D03*
X218000Y124100D03*
X230600Y135200D03*
X222600D03*
X214600D03*
X234400Y169300D03*
X234600Y176300D03*
X220664Y194464D03*
X220490Y186590D03*
X234400Y197300D03*
X217600Y222400D03*
X231900Y238200D03*
X214600Y227700D03*
X244300Y-214700D03*
X237000Y-188200D03*
X251100Y-172100D03*
X235700Y-178800D03*
X241500Y-172100D03*
X241160Y-175840D03*
X255400Y-156900D03*
X235700Y-163400D03*
X236600Y-126600D03*
X248800Y-126400D03*
X244300Y-123000D03*
X253100Y-113200D03*
X248800Y-104800D03*
X244300Y-114700D03*
X254100Y-96000D03*
X248800Y-65000D03*
Y-60000D03*
X252300Y-70000D03*
X240000Y-40000D03*
X244900Y-50000D03*
X254800Y-26000D03*
X236000Y-30000D03*
X252300Y-3800D03*
X240000Y15500D03*
X236000Y12000D03*
X248800Y17300D03*
X244900Y20200D03*
X234800Y45700D03*
X248800Y49500D03*
X252300Y45400D03*
X240000Y67900D03*
X244900Y53900D03*
X249900Y151700D03*
X243700Y147700D03*
X235600Y151700D03*
X236100Y159700D03*
X249500D03*
X247600Y169300D03*
X245200Y163300D03*
X248100Y176300D03*
X238100Y180500D03*
X244300Y200100D03*
X247700Y183500D03*
X249700Y191700D03*
X238100Y188000D03*
X239100Y223800D03*
X242840Y212360D03*
X235360Y231460D03*
X242200Y234800D03*
X253300Y238500D03*
X242600Y288600D03*
X269000Y-282400D03*
X265300Y-250600D03*
X275700Y-218400D03*
X269200Y-189100D03*
X273600Y-164500D03*
X264900Y-165600D03*
X265700Y-134800D03*
X272900Y-117500D03*
X271900Y-98400D03*
X267300Y-97000D03*
X272000Y-79800D03*
X275000Y-75500D03*
X266500D03*
X260400Y-67500D03*
X266600Y-62100D03*
X275000Y-62000D03*
X257900Y-20000D03*
Y7500D03*
X270900Y58600D03*
X277900Y59100D03*
X275500Y77500D03*
X272576Y104424D03*
X269000Y128600D03*
X265600Y166800D03*
X272200Y191800D03*
X263200Y226000D03*
Y227300D03*
X287900Y-282700D03*
X291300Y-131500D03*
X286700Y-127800D03*
X289000Y-129500D03*
X300100Y-141900D03*
X285100Y-132800D03*
Y-117100D03*
X296900Y-120400D03*
X291400Y-115500D03*
X282000Y-17000D03*
X299100Y-10400D03*
X299000Y-6500D03*
X293937Y-11563D03*
X280900Y25100D03*
X288700Y24200D03*
X296000Y24000D03*
X292708Y23208D03*
X299750Y10750D03*
X287500Y8500D03*
X296000Y37500D03*
X289000D03*
X281000Y38000D03*
X284900Y58400D03*
X292000Y58500D03*
X285000Y71400D03*
X284800Y53700D03*
X294000Y91500D03*
X278600Y129900D03*
X285600D03*
X297000Y184600D03*
X278400Y208500D03*
X286800Y224900D03*
X281100Y216300D03*
X295000Y230900D03*
X295400Y261800D03*
X293000Y280100D03*
X297900Y286700D03*
X310900Y-218400D03*
X300400Y-205200D03*
X310600Y-191000D03*
X314000Y-162300D03*
X321800Y-124700D03*
X317435Y-136400D03*
X310000Y-144000D03*
X309500Y-130500D03*
X303200Y-117100D03*
X308500Y-106800D03*
X309852Y-115448D03*
X319100Y-115000D03*
X310500Y-20000D03*
X302500D03*
X306500Y-10500D03*
X318900Y-400D03*
X301000Y25000D03*
X310200Y17500D03*
X310300Y36200D03*
X306500Y36500D03*
X301000Y32000D03*
X313300Y44600D03*
X313876Y82376D03*
X315600Y77100D03*
X310500Y110500D03*
X315500Y109500D03*
X315700Y102200D03*
X300500Y130500D03*
X312900Y201900D03*
X309800Y248600D03*
X305500Y266200D03*
X319800D03*
X316900Y248900D03*
X303100Y275600D03*
X319700D03*
X320900Y286600D03*
X340700Y-266100D03*
X339700Y-225200D03*
X330200Y-213600D03*
X339600Y-212000D03*
X336700Y-134500D03*
X337900Y-127500D03*
X336900Y-110500D03*
X337100Y-117500D03*
X342300Y-40700D03*
X329300D03*
X342700Y-32700D03*
X331600Y-16000D03*
X332700Y-28200D03*
X335800Y-8900D03*
X339200Y900D03*
X331600Y18900D03*
X329000Y84500D03*
Y77000D03*
X330500Y109500D03*
X330300Y102200D03*
X338000Y225600D03*
X338100Y240700D03*
X342700Y254500D03*
X342900Y257300D03*
X324800Y278900D03*
X329000Y288700D03*
X351961Y-239861D03*
X346800Y-249925D03*
X359961Y-239861D03*
X363200Y-234400D03*
X353500Y-231100D03*
X353300Y-224000D03*
X353500Y-206100D03*
X363240Y-202360D03*
X363400Y-206100D03*
X354900Y-189000D03*
X361600Y-179000D03*
X349500Y-157900D03*
X364300Y-147900D03*
X345831Y-25800D03*
X344600Y-16000D03*
X348800Y-9000D03*
X354160Y-10840D03*
X354100Y-7100D03*
X355400Y41000D03*
X359140Y39860D03*
X349500Y44000D03*
X345700Y33900D03*
X355400Y50000D03*
X363300Y64700D03*
X359140Y59360D03*
X355400Y59400D03*
X349500Y64700D03*
X363700Y74300D03*
X348000D03*
X352500Y223000D03*
X344700Y233500D03*
X354000Y252800D03*
D03*
X346400Y283800D03*
X355600Y292600D03*
X366700Y-286100D03*
X383300Y-232600D03*
X368520Y-242420D03*
X368800Y-213700D03*
X383600Y-206300D03*
X376900Y-189000D03*
X380600Y-149100D03*
X373600Y-149200D03*
Y-163200D03*
X380600D03*
X375920Y-140280D03*
X382900Y-36700D03*
X365840Y-10840D03*
X382800Y2500D03*
X383618Y7384D03*
X369100Y193400D03*
X374500Y227300D03*
X403300Y-247500D03*
X399200Y-226600D03*
X394600Y-130300D03*
X401600Y-130200D03*
X399852Y-132948D03*
X394600Y-116900D03*
X401600D03*
X399900Y-113000D03*
X399800Y-75500D03*
X391400Y89200D03*
X395100Y99200D03*
X397200Y198300D03*
X426900Y-285400D03*
X430798Y-198202D03*
X427000Y-188500D03*
X411000Y-205500D03*
Y-198500D03*
X427000Y-202000D03*
X415800Y-158200D03*
X420800Y-127000D03*
X420900Y-120000D03*
X421800Y-43100D03*
X418300Y-52600D03*
X417000Y-30000D03*
X410700Y85200D03*
X417700Y85300D03*
X410700Y98800D03*
X412948Y101748D03*
X417700Y99000D03*
X445200Y-286100D03*
X450900Y-218400D03*
X447400Y-205600D03*
X446261Y-200261D03*
X451000Y-196000D03*
X436900Y-204100D03*
X444000Y-188500D03*
X441100Y-168400D03*
X449000Y-144200D03*
X437800Y-41600D03*
Y-56600D03*
X436300Y-51600D03*
X435300Y-44100D03*
X436900Y-46700D03*
X436520Y109480D03*
X448300Y116600D03*
X436200Y122600D03*
X432200Y132300D03*
X439200Y132700D03*
X444500Y198600D03*
X452500Y242500D03*
X447900Y259400D03*
X444000Y258000D03*
Y261500D03*
X455563Y-205437D03*
X460000Y-193500D03*
X468900Y-168400D03*
X461100Y-151300D03*
X457600Y-160600D03*
X464600D03*
X461380Y-137280D03*
X471800Y-42100D03*
X469300Y-46600D03*
X470200Y-56700D03*
X470400Y-51700D03*
X469800Y12100D03*
X455500Y242500D03*
X480600Y-126300D03*
X488100Y-126100D03*
X484852Y-129552D03*
X480600Y-112700D03*
X488100Y-112900D03*
X478300Y-61100D03*
X476263Y-39563D03*
X486300Y-43600D03*
X475400Y-51700D03*
X489800Y-34600D03*
X495800Y70200D03*
Y83400D03*
X479500Y74500D03*
X477500Y82700D03*
X478000Y89700D03*
X478700Y201000D03*
X482900Y253500D03*
X497600Y-284400D03*
X499000Y-156500D03*
X507700Y-125500D03*
X507600Y-118500D03*
X517500Y43000D03*
X509500D03*
X511000Y64500D03*
X503300Y70500D03*
Y83500D03*
X514500Y106000D03*
X515500Y181700D03*
X496900Y169500D03*
X498000Y225000D03*
X499900Y282000D03*
X524000Y-287100D03*
X528600Y-171400D03*
X526600Y-100900D03*
X525700Y48700D03*
X533100Y48400D03*
X533000Y35500D03*
X525500D03*
X527548Y52752D03*
X533300Y104800D03*
X529500Y95500D03*
X530500Y99000D03*
X524000Y115500D03*
X518051Y219200D03*
X537800Y233200D03*
Y249195D03*
X536500Y253000D03*
Y266000D03*
X557800Y-283700D03*
X559900Y-257700D03*
X558200Y-235700D03*
X550400Y-205600D03*
X556800Y-136900D03*
X544700Y-13600D03*
X553500Y48500D03*
X558800Y69300D03*
X550900Y69200D03*
X550620Y60280D03*
X558900Y82900D03*
X550900Y82700D03*
X544700Y91900D03*
X540300Y104600D03*
X555500Y138400D03*
X548500Y216000D03*
X557748Y217748D03*
X547100Y247300D03*
X553748Y245248D03*
X557748Y229748D03*
X547000Y234000D03*
X560000Y254500D03*
X553500Y263500D03*
X545600Y252700D03*
Y267400D03*
X540900Y288600D03*
X579800Y-284400D03*
X564300Y-219500D03*
X567600Y-60800D03*
X567500Y62500D03*
X567000Y224000D03*
X563600Y204300D03*
X581000Y228000D03*
X565748Y245248D03*
X578500Y259500D03*
X583200Y288200D03*
X569900Y286400D03*
X584500Y-186300D03*
X596900Y-173100D03*
X596300Y-103200D03*
X588600Y-88700D03*
X619700Y-283000D03*
X613600Y-200200D03*
X608500Y202800D03*
X607000Y234500D03*
X632900Y-265800D03*
X644400Y-246500D03*
X642700Y-216100D03*
X645100Y143500D03*
X635300Y174900D03*
X627500Y288200D03*
X651200Y-133900D03*
Y-62900D03*
X649800Y194900D03*
X653200Y226000D03*
X648800Y261800D03*
G54D20*
X160940Y34791D03*
X157200D03*
X153460D03*
Y46209D03*
X157200D03*
X160940D03*
X242840Y216491D03*
X239100D03*
X235360D03*
Y227909D03*
X239100D03*
X242840D03*
G54D11*
X21700Y-122243D03*
X33708Y91851D03*
G54D12*
X75400Y-105000D03*
X69200D03*
X75400Y-121000D03*
X69200D03*
Y-113000D03*
X75400D03*
X69200Y-81000D03*
X75400D03*
X69200Y-97000D03*
X75400D03*
X69200Y-89000D03*
X75400D03*
X69200Y-65000D03*
X75400D03*
X69200Y-57000D03*
X75400D03*
X69200Y-73000D03*
X75400D03*
X69200Y-41000D03*
X75400D03*
X69200Y-49000D03*
X75400D03*
X69200Y-17000D03*
X75400D03*
X69200Y-33000D03*
X75400D03*
X69200Y-25000D03*
X75400D03*
X69200Y-1000D03*
X75400D03*
X69200Y7000D03*
X75400D03*
X69200Y-9000D03*
X75400D03*
X69200Y31000D03*
X75400D03*
X69200Y15000D03*
X75400D03*
X69200Y23000D03*
X75400D03*
X69200Y47000D03*
X75400D03*
X69200Y39000D03*
X75400D03*
X69200Y55000D03*
X75400D03*
Y82500D03*
X69200D03*
X125400Y-900D03*
X142300Y-143400D03*
X136100D03*
X142400Y-150400D03*
X136200D03*
X142400Y-136400D03*
X136200D03*
X131600Y-900D03*
X144600Y172200D03*
Y180200D03*
Y164200D03*
X144500Y204300D03*
X144600Y188200D03*
X144700Y196200D03*
X170300Y-239800D03*
X161300Y-175400D03*
X155100D03*
X161300Y-168400D03*
X155100D03*
X159800Y-62900D03*
X153600D03*
X159800Y-55900D03*
X153600D03*
X160100Y4000D03*
X153900D03*
X160100Y11000D03*
X153900D03*
X158800Y65000D03*
X152600D03*
X158800Y57000D03*
X152600D03*
X150800Y172200D03*
Y180200D03*
Y164200D03*
X150700Y204300D03*
X150800Y188200D03*
X150900Y196200D03*
X176500Y-239800D03*
X192500Y-168100D03*
Y-175100D03*
X188200Y-63100D03*
Y-56100D03*
X185900Y4000D03*
X192100D03*
X185900Y11000D03*
X192100D03*
X194800Y-228300D03*
X201000D03*
X194800Y-220800D03*
X201000D03*
X198700Y-168100D03*
Y-175100D03*
X209000Y-78500D03*
X210500Y-97400D03*
X204300D03*
X209000Y-68500D03*
X194400Y-63100D03*
Y-56100D03*
X213100Y-26200D03*
X206900D03*
X213100Y-33500D03*
X206900D03*
X211100Y0D03*
Y10100D03*
X226500Y-249800D03*
X220300D03*
X226500Y-241800D03*
X220300D03*
X215200Y-78500D03*
Y-68500D03*
X217300Y0D03*
Y10100D03*
X236000Y238200D03*
X245700Y151700D03*
X239500D03*
Y159700D03*
X245700D03*
X243900Y184300D03*
X237700D03*
X242200Y238200D03*
X279100Y-120000D03*
X272900D03*
X276300Y-98400D03*
X285100Y-135800D03*
X291300D03*
X282500Y-98400D03*
X314500Y-200D03*
X308300D03*
X304000Y25100D03*
X310200D03*
X304000Y32100D03*
X310200D03*
X319500Y84300D03*
Y77100D03*
X319700Y109500D03*
Y102200D03*
X309600Y266200D03*
X315800D03*
X331900Y-236700D03*
X325700D03*
Y-244700D03*
X331900D03*
X332700Y-40700D03*
X338900D03*
X335000Y-16000D03*
X341200D03*
X332700Y-32700D03*
X338900D03*
X332600Y-24600D03*
X338800D03*
X339200Y-1900D03*
X345400D03*
X339200Y-9000D03*
X345400D03*
X325700Y84300D03*
Y77100D03*
X325900Y109500D03*
Y102200D03*
X341700Y240800D03*
X335200Y291700D03*
X329000D03*
X356900Y-231100D03*
X363100D03*
X356900Y-224000D03*
X363100D03*
X365100Y-144500D03*
Y-137500D03*
X353100Y64700D03*
X359300D03*
X347900Y240800D03*
X379400Y-245200D03*
X373200D03*
X371300Y-144500D03*
X388000Y-152500D03*
Y-159500D03*
X371300Y-137500D03*
X394200Y-152500D03*
Y-159500D03*
X395100Y96200D03*
X401300D03*
X407300Y81000D03*
X401100D03*
X395100Y89200D03*
X401300D03*
X395100Y113200D03*
X401300D03*
X421100Y-205500D03*
X414900D03*
Y-198500D03*
X421100D03*
X417200Y-144000D03*
X411000D03*
X417200Y-127000D03*
X411000D03*
X417200Y-134000D03*
X411000D03*
X417400Y-112000D03*
X411200D03*
X417200Y-120000D03*
X411000D03*
X425300Y-43400D03*
X431500D03*
X418600Y122200D03*
X424800D03*
X418600Y129200D03*
X424800D03*
X440800Y-218400D03*
X447000D03*
X449000Y-134000D03*
Y-141000D03*
X442100Y106700D03*
X448300D03*
X442100Y113700D03*
X448300D03*
X473000Y-149000D03*
Y-156000D03*
X455200Y-134000D03*
Y-141000D03*
X475600Y-43700D03*
X475900Y74700D03*
X469700D03*
X479200Y-149000D03*
Y-156000D03*
X497500Y-125500D03*
Y-132500D03*
Y-139500D03*
Y-118500D03*
X481800Y-43700D03*
X481500Y89700D03*
X487700D03*
X481500Y96700D03*
X487700D03*
X481500Y82700D03*
X487700D03*
X481500Y103800D03*
X487700D03*
X503700Y-125500D03*
Y-132500D03*
Y-139500D03*
Y-118500D03*
X511100Y74000D03*
X517300D03*
X511100Y81000D03*
X517300D03*
X533600Y72000D03*
X539800D03*
X533700Y91900D03*
X539900D03*
X533600Y79200D03*
X539800D03*
X533700Y99100D03*
X539900D03*
X557400Y48500D03*
Y55600D03*
Y62700D03*
X558400Y236000D03*
X559900Y287000D03*
Y280000D03*
Y273000D03*
X563600Y48500D03*
Y55600D03*
Y62700D03*
X564600Y236000D03*
X566100Y287000D03*
Y280000D03*
Y273000D03*
G54D30*
X226300Y-224000D03*
X220000Y-156000D03*
X223200Y251300D03*
X271900Y-142100D03*
X296900Y-252600D03*
X291900Y-72000D03*
X295100Y249200D03*
X312300Y-236700D03*
X327000Y-146900D03*
X326900Y-100400D03*
X339000Y-82500D03*
X336000Y39500D03*
X328800Y56600D03*
X374300Y-222000D03*
X383600Y113200D03*
Y135900D03*
X401500Y-198500D03*
X410500Y-181000D03*
X399800Y-101200D03*
X428100Y-169500D03*
X422500Y-66500D03*
X440500Y-105400D03*
X453900Y41500D03*
X455700Y-102500D03*
X469700Y59700D03*
X499100Y-170500D03*
X514600Y-161000D03*
Y-111000D03*
X505500Y208400D03*
X513700Y286800D03*
X532000Y207500D03*
X581400Y-163200D03*
Y-113200D03*
X576000Y32500D03*
X576200Y55600D03*
X574000Y101700D03*
X582300Y123400D03*
X587500Y184000D03*
X601100Y287600D03*
X629200Y-135600D03*
X632100Y231900D03*
G54D21*
G01X75400Y-9000D02*
X98000D01*
G01X75400Y15000D02*
X79000D01*
G01X82600Y23000D02*
X82580Y22980D01*
X80122D01*
X80102Y23000D01*
X75400D01*
G01X79000Y92400D02*
X81100D01*
X81900Y93200D01*
X289600D01*
X295400Y99000D01*
Y99779D01*
X295500Y99879D01*
Y104424D01*
G01X82600Y88200D02*
X84700D01*
X85500Y89000D01*
X297000D01*
X305600Y97600D01*
Y99779D01*
X305500Y99879D01*
Y104424D01*
G01X91900Y97200D02*
X94000D01*
X94015Y97185D01*
X283185D01*
X285300Y99300D01*
Y99679D01*
X285500Y99879D01*
Y104424D01*
G01X98000Y204300D02*
X144500D01*
G01X210500Y125000D02*
X208400D01*
X208300Y125100D01*
X134600D01*
G01X144600Y172200D02*
X144500Y172300D01*
X127000D01*
G01X155400Y164300D02*
X158500D01*
X168979Y174779D01*
X175679D01*
G01X154100Y172200D02*
X158647Y176747D01*
X174647D01*
G01X154100Y180200D02*
X161200D01*
X162684Y178716D01*
X175616D01*
G01X154700Y188200D02*
X158900D01*
X166416Y180684D01*
X175616D01*
G01X164800Y229700D02*
Y225200D01*
X167800Y222200D01*
Y202300D01*
X179600Y190500D01*
X208500D01*
X216347Y182653D01*
X219647D01*
G01X157000Y229700D02*
X156900Y229600D01*
Y225200D01*
X161300Y220800D01*
Y201800D01*
X177000Y186100D01*
X204700D01*
X210116Y180684D01*
X220384D01*
G01X154800Y204400D02*
X150800D01*
X150700Y204300D01*
G01X190800Y224900D02*
Y222000D01*
X190600Y221800D01*
Y218800D01*
G01X172600Y229700D02*
X177200D01*
X190700Y243200D01*
X248600D01*
X253300Y238500D01*
G01X209600Y-138000D02*
X220854D01*
X224054Y-134800D01*
X228600D01*
G01X210500Y-124000D02*
X223254D01*
X224054Y-124800D01*
X228600D01*
G01X191901Y-138400D02*
X204800D01*
G01X191901Y-143400D02*
X219600D01*
G01X191901Y-133400D02*
X211980D01*
X212077Y-133303D01*
X212547D01*
X212550Y-133300D01*
X214800D01*
G01X204300Y-97400D02*
Y-94900D01*
X202200Y-92800D01*
X191901D01*
G01X210500Y-97400D02*
Y-100500D01*
G01X191901Y-25900D02*
X203600D01*
X203900Y-26200D01*
X206900D01*
G01X206100Y-20000D02*
X228600D01*
G01X206900Y-33500D02*
X202600D01*
X200000Y-30900D01*
X191901D01*
G01X204600Y218800D02*
Y221800D01*
X204500Y221900D01*
Y222200D01*
X202200Y224500D01*
Y230000D01*
G01X197500Y228400D02*
Y221900D01*
X197600Y221800D01*
Y218800D01*
G01X197679Y207921D02*
Y212521D01*
X197600Y212600D01*
G01X228600Y-134800D02*
X265700D01*
G01X291400Y-115500D02*
X289915Y-114015D01*
X269485D01*
X263595Y-119905D01*
X233495D01*
X228600Y-124800D01*
G01Y-104800D02*
X248800D01*
G01X219600Y-114400D02*
X223654D01*
X224054Y-114800D01*
X228600D01*
G01X244300Y-114700D02*
X233246D01*
X233146Y-114800D01*
X228600D01*
G01X248800Y-65000D02*
X224801D01*
X221301Y-68500D01*
X215200D01*
G01X228600Y-60000D02*
X248800D01*
G01X215200Y-78500D02*
X219200D01*
G01X228600Y-70000D02*
X252300D01*
G01X228600Y-40000D02*
X240000D01*
G01X228600Y-50000D02*
X244900D01*
G01X213100Y-26200D02*
X215500D01*
X215600Y-26300D01*
X216500D01*
G01X228600Y-20000D02*
X257900D01*
G01X213100Y-33500D02*
X220100D01*
X223600Y-30000D01*
X228600D01*
G01D02*
X236000D01*
G01X268692Y-198D02*
X264344D01*
X264342Y-200D01*
X250700D01*
X240900Y-10000D01*
X228600D01*
G01X216500D02*
X228600D01*
G01X268692Y2361D02*
X246661D01*
X244300Y0D01*
X228600D01*
G01X217300D02*
X228600D01*
G01X217300D02*
Y-3000D01*
G01X268692Y4920D02*
X238225D01*
X233145Y10000D01*
X228600D01*
G01X231924Y190539D02*
X245662D01*
X254544Y181657D01*
X259800D01*
G01Y201343D02*
X254567D01*
X254524Y201300D01*
X253600D01*
X244800Y192500D01*
X230700D01*
G01X291393Y-124984D02*
X282616D01*
X281200Y-126400D01*
X248800D01*
G01X291393Y-123016D02*
X283816D01*
X283800Y-123000D01*
X244300D01*
G01X252300Y-3800D02*
X263301D01*
X264344Y-2757D01*
X268692D01*
G01X240000Y15500D02*
X242100D01*
X243585Y14015D01*
X261685D01*
X262700Y13000D01*
X263942D01*
X264344Y12598D01*
X268692D01*
G01X236000Y12000D02*
X238100D01*
X238300Y11800D01*
X257300D01*
X259061Y10039D01*
X268692D01*
G01X248800Y17300D02*
X263928D01*
X264344Y17716D01*
X268692D01*
G01X244900Y20200D02*
X264269D01*
X264344Y20275D01*
X268692D01*
G01X248800Y49500D02*
X250900D01*
X250915Y49515D01*
X290215D01*
X299400Y58700D01*
Y61700D01*
X299300Y61800D01*
G01X252300Y45400D02*
X299600D01*
X306600Y52400D01*
Y58600D01*
X306900Y58900D01*
Y61900D01*
G01X240000Y67900D02*
X268200D01*
X268300Y68000D01*
X270900D01*
G01X284800Y53700D02*
X282700D01*
X282500Y53900D01*
X244900D01*
G01X272900Y-120000D02*
Y-117500D01*
G01X257900Y7500D02*
X260000D01*
X260020Y7480D01*
X268692D01*
G01X277900Y68000D02*
Y72416D01*
X280500Y75016D01*
Y82376D01*
G01X270900Y68000D02*
X277900D01*
G01X291393Y-126953D02*
X287579D01*
G01D02*
X287563Y-126937D01*
G01X287547Y-126953D02*
X286700Y-127800D01*
G01X287579Y-126953D02*
X287547D01*
G01X291393Y-119079D02*
Y-116845D01*
X291348Y-116800D01*
Y-115552D01*
X291400Y-115500D01*
G01X291393Y-121047D02*
X283047D01*
X282000Y-120000D01*
G01X308300Y-200D02*
X304100D01*
X301539Y2361D01*
X292708D01*
G01X383618Y7384D02*
X340083D01*
X336499Y3800D01*
X330300D01*
X321800Y-4700D01*
X304200D01*
X302257Y-2757D01*
X292708D01*
G01Y-198D02*
Y-2757D01*
G01X316112Y8700D02*
Y6120D01*
X314912Y4920D01*
X292708D01*
G01X305088Y8700D02*
X301800D01*
X299750Y10750D01*
G01D02*
X297902Y12598D01*
X292708D01*
G01X310200Y17500D02*
X300600D01*
X298257Y15157D01*
X292708D01*
G01X285500Y82376D02*
Y74000D01*
X285000Y73500D01*
Y71400D01*
G01D02*
Y71000D01*
X284900Y70900D01*
Y68000D01*
G01X299300D02*
Y71000D01*
X299200Y71100D01*
Y72300D01*
X295500Y76000D01*
Y82376D01*
G01X291900Y68000D02*
Y71000D01*
X292100Y71200D01*
Y73100D01*
X290500Y74700D01*
Y82376D01*
G01X285500Y104424D02*
Y116800D01*
X285600Y116900D01*
Y119900D01*
G01X278600D02*
Y116900D01*
X278800Y116700D01*
Y114400D01*
X280500Y112700D01*
Y111500D01*
G01D02*
Y104424D01*
G01X310200Y25100D02*
Y17500D01*
G01Y32100D02*
Y25100D01*
G01X316112Y8700D02*
X334300D01*
X344600Y19000D01*
X413754D01*
X413854Y19100D01*
X418400D01*
G01X306900Y68100D02*
Y73800D01*
X305500Y75200D01*
Y82376D01*
G01X300500Y104424D02*
Y119900D01*
G01X327500Y251500D02*
X334499D01*
X335168Y250831D01*
X347898D01*
G01X360102Y248863D02*
Y242488D01*
X360500Y242090D01*
Y239100D01*
G01X347898Y248863D02*
Y243402D01*
X347900Y243400D01*
Y240800D01*
G01X395100Y113200D02*
X383600D01*
G01X418400Y19100D02*
Y-10600D01*
X411800Y-17200D01*
X407600D01*
X407500Y-17100D01*
G01X421100Y-205500D02*
Y-218400D01*
G01X414900Y-205500D02*
X411000D01*
G01X430798Y-205380D02*
X424220D01*
X424100Y-205500D01*
X421100D01*
G01X428400Y29100D02*
X491500D01*
X501400Y39000D01*
Y46300D01*
G01X469800Y12100D02*
X425400D01*
X418400Y19100D01*
G01X451000Y-205600D02*
X447400D01*
G01X443002Y-205380D02*
X447180D01*
X447400Y-205600D01*
G01X430798Y-200261D02*
Y-198202D01*
G01X443002Y-200261D02*
X446261D01*
G01X430798Y-205380D02*
Y-207939D01*
G01X460000Y-205437D02*
X455563D01*
G01X464724Y-41700D02*
X469269D01*
X469669Y-42100D01*
X471800D01*
G01X475600Y-43700D02*
X473400D01*
X471800Y-42100D01*
G01X476263Y-34700D02*
Y-39563D01*
G01X509400Y52500D02*
X501400D01*
G01X517300D02*
X509400D01*
X164500Y188100D03*
X189805Y151405D03*
X184527Y168873D03*
X174100Y172700D03*
X175679Y174779D03*
X174647Y176747D03*
X175616Y178716D03*
Y180684D03*
X184505Y192495D03*
X189805Y197405D03*
X174147Y182653D03*
X187836Y207436D03*
X211300Y151900D03*
X201616Y161584D03*
X191700Y207300D03*
X201400Y208300D03*
X193800Y212400D03*
X197679Y207921D03*
X199647Y206453D03*
X206100Y240300D03*
X218400Y136400D03*
X220747Y176747D03*
X220721Y174779D03*
X220742Y170842D03*
X220705Y166905D03*
X231490Y172810D03*
X230516Y178716D03*
X220384Y180684D03*
X230658Y188558D03*
X219647Y182653D03*
X231924Y190539D03*
X230700Y192500D03*
X230379Y184621D03*
X217364Y208736D03*
X213427Y216027D03*
X215600Y206912D03*
X305100Y-125000D03*
X315000Y-123000D03*
Y-121100D03*
G54D40*
X275500Y82376D03*
Y104424D03*
X295500Y82376D03*
X290500D03*
X285500D03*
X280500D03*
Y104424D03*
X285500D03*
X290500D03*
X295500D03*
X310500Y82376D03*
X305500D03*
X300500D03*
Y104424D03*
X305500D03*
X310500D03*
G54D31*
X235700Y-175437D03*
Y-167563D03*
X273600Y-176237D03*
Y-168363D03*
X330300Y-210337D03*
Y-202463D03*
X368800Y-210137D03*
Y-202263D03*
X460000Y-205437D03*
Y-197563D03*
X473800Y237337D03*
Y229463D03*
X472500Y271363D03*
Y279237D03*
X513500Y227137D03*
Y219263D03*
X537800Y237163D03*
Y245037D03*
X545600Y263637D03*
Y255763D03*
X578500Y264563D03*
Y272437D03*
X608500Y215037D03*
Y207163D03*
G54D22*
X157000Y235900D03*
Y229700D03*
X164800Y235900D03*
Y229700D03*
X190600Y212600D03*
Y218800D03*
X172600Y235900D03*
Y229700D03*
X197600Y212600D03*
Y218800D03*
X204600Y212600D03*
Y218800D03*
X214600Y124100D03*
Y130300D03*
X222600Y124100D03*
Y130300D03*
X230600Y124100D03*
Y130300D03*
X264900Y-169000D03*
Y-175200D03*
X266600Y-72100D03*
Y-65900D03*
X275000Y-72100D03*
Y-65900D03*
X270900Y68000D03*
Y61800D03*
X277900Y68000D03*
Y61800D03*
X278600Y119900D03*
Y126100D03*
X272200Y181400D03*
Y187600D03*
Y195400D03*
Y201600D03*
X296000Y27800D03*
X288700D03*
X280900Y28200D03*
X296000Y34000D03*
X288700D03*
X280900Y34400D03*
X284900Y68000D03*
Y61800D03*
X291900D03*
Y68000D03*
X299300Y61800D03*
Y68000D03*
X300500Y119900D03*
Y126100D03*
X285600Y119900D03*
Y126100D03*
X319100Y-124700D03*
X302700Y-141900D03*
Y-135700D03*
X319100Y-118500D03*
X302500Y-16600D03*
X310300Y-16700D03*
X302500Y-10400D03*
X310300Y-10500D03*
X306900Y61900D03*
Y68100D03*
X339600Y-208600D03*
Y-202400D03*
X352500Y226400D03*
Y232600D03*
X373600Y-159100D03*
Y-152900D03*
X380600Y-159100D03*
Y-152900D03*
X383000Y-33300D03*
Y-27100D03*
X382800Y-900D03*
Y-7100D03*
X394600Y-126600D03*
X401600D03*
X394600Y-120400D03*
X401600D03*
X417700Y89100D03*
Y95300D03*
X410700Y89100D03*
Y95300D03*
X432200Y128800D03*
Y122600D03*
X451000Y-199400D03*
Y-205600D03*
X439200Y128800D03*
Y122600D03*
X464600Y-156600D03*
Y-150400D03*
X457600Y-156600D03*
Y-150400D03*
X480600Y-122600D03*
X488100D03*
X480600Y-116400D03*
X488100D03*
X478200Y-57900D03*
Y-51700D03*
X495800Y73800D03*
Y80000D03*
X517300Y46300D03*
Y52500D03*
X501400Y46300D03*
Y52500D03*
X509400Y46300D03*
Y52500D03*
X503400Y73900D03*
X517300Y66500D03*
Y60300D03*
X503400Y80100D03*
X528600Y-167200D03*
Y-161000D03*
X526600Y-104800D03*
Y-111000D03*
X533100Y39000D03*
Y45200D03*
X525700Y39000D03*
Y45200D03*
X524000Y105700D03*
Y111900D03*
X533300Y114200D03*
Y108000D03*
X540300Y114200D03*
Y108000D03*
X536500Y256900D03*
Y263100D03*
X550900Y72700D03*
X558800D03*
X550900Y78900D03*
X558800D03*
X548500Y219400D03*
Y225600D03*
X547000Y243900D03*
Y237700D03*
X596900Y-169400D03*
Y-163200D03*
X596300Y-107000D03*
Y-113200D03*
X598100Y223800D03*
Y217600D03*
X589800Y223600D03*
Y217400D03*
X607000Y224900D03*
Y231100D03*
G54D13*
X108700Y-280400D03*
X107400Y282900D03*
X645500Y-280400D03*
X645200Y283100D03*
G54D50*
X358391Y-10840D03*
Y-7100D03*
Y-3360D03*
X369809D03*
Y-7100D03*
Y-10840D03*
G54D32*
X224800Y-175800D03*
X272600Y-107400D03*
X421100Y-218400D03*
X412400Y-101500D03*
G54D14*
X86100Y-253400D03*
Y-233400D03*
X96100D03*
X86100Y-243400D03*
X96100D03*
X86100Y-213400D03*
X96100D03*
X86100Y-223400D03*
X96100D03*
X86100Y-203400D03*
X96100D03*
G54D41*
X269100Y243638D03*
G54D23*
X155201Y265047D03*
X158350D03*
X161500D03*
X164650D03*
X167799D03*
G54D60*
X493944Y225200D03*
X488256D03*
X493944Y240900D03*
X488256D03*
X492044Y266300D03*
X486356D03*
X492044Y282000D03*
X486356D03*
G54D33*
X219400Y282800D03*
X327500Y261500D03*
Y251500D03*
X393500Y-27100D03*
Y-17100D03*
X407500Y-27100D03*
Y-17100D03*
G54D15*
X96100Y-253400D03*
G54D42*
X269100Y268047D03*
G54D24*
X152839Y275579D03*
X170161D03*
G54D51*
X355400Y50000D03*
G54D16*
X143980Y265539D03*
Y286996D03*
X179020Y265539D03*
Y286996D03*
G54D61*
X561280Y245248D03*
X558720D03*
X556161D03*
Y263752D03*
X558720D03*
X561280D03*
X563839Y245248D03*
Y263752D03*
G54D25*
X187829Y-245139D03*
Y-242580D03*
Y-240020D03*
Y-237461D03*
X203971D03*
Y-240020D03*
Y-242580D03*
Y-245139D03*
X362871Y-239861D03*
Y-242420D03*
Y-244980D03*
Y-247539D03*
X346729D03*
Y-244980D03*
Y-242420D03*
Y-239861D03*
G54D52*
X359140Y44094D03*
X355400D03*
X351660D03*
Y55906D03*
X355400D03*
X359140D03*
G54D34*
X229400Y282800D03*
X327500Y241500D03*
X393500Y-7100D03*
X407500D03*
G54D43*
X297200Y-124000D03*
G54D62*
X560000Y254500D03*
G54D44*
X291393Y-128921D03*
Y-126953D03*
Y-124984D03*
Y-123016D03*
Y-121047D03*
Y-119079D03*
X303007Y-123016D03*
Y-124984D03*
Y-126953D03*
Y-128921D03*
Y-119079D03*
Y-121047D03*
G54D26*
X179600Y21500D03*
Y31500D03*
Y41500D03*
Y51500D03*
Y61500D03*
X228600Y-144800D03*
Y-134800D03*
Y-124800D03*
Y-114800D03*
Y-104800D03*
Y-80000D03*
Y-70000D03*
Y-60000D03*
Y-50000D03*
Y-40000D03*
Y-30000D03*
Y-20000D03*
Y-10000D03*
Y0D03*
X270700Y-39300D03*
Y-29300D03*
X285000Y-172000D03*
X295000D03*
X285000Y-182000D03*
Y-162000D03*
X295000D03*
X287200Y-39300D03*
Y-29300D03*
X304100Y-39300D03*
Y-29300D03*
X338000Y-172000D03*
Y-182000D03*
X328000D03*
X355000Y-126000D03*
Y-106000D03*
Y-116000D03*
X365000Y-106000D03*
Y-116000D03*
X355000Y-86000D03*
X365000D03*
X355000Y-96000D03*
X365000D03*
X428100Y-154000D03*
Y-144000D03*
Y-124000D03*
Y-134000D03*
X428400Y29100D03*
Y19100D03*
X418400D03*
X433200Y64700D03*
Y74700D03*
X438100Y-144000D03*
Y-124000D03*
Y-134000D03*
X443200Y74700D03*
X459700Y96700D03*
X469700D03*
Y86700D03*
X514600Y-141000D03*
Y-131000D03*
X513500Y238200D03*
X513700Y263100D03*
X524600Y-131000D03*
X523500Y248200D03*
Y238200D03*
X523700Y263100D03*
Y273100D03*
X581400Y-141400D03*
Y-131400D03*
X591400D03*
X601000Y264300D03*
X622100Y204600D03*
Y214600D03*
X611000Y264300D03*
Y274300D03*
X632100Y204600D03*
X642100D03*
X632100Y214600D03*
G54D17*
X155900Y-285500D03*
Y-265500D03*
X175900Y-285500D03*
Y-265500D03*
X230900Y-285500D03*
Y-265500D03*
X250900Y-285500D03*
Y-265500D03*
X305900Y-285500D03*
Y-265500D03*
X325900Y-285500D03*
Y-265500D03*
X380900Y-285500D03*
Y-265500D03*
X400900Y-285500D03*
Y-265500D03*
X545400Y-163200D03*
Y-183200D03*
Y-108200D03*
Y-88200D03*
X565400Y-163200D03*
Y-183200D03*
Y-108200D03*
Y-88200D03*
X600000Y28600D03*
Y48600D03*
Y103600D03*
Y123600D03*
X620400Y-183200D03*
Y-163200D03*
Y-108200D03*
Y-88200D03*
X620000Y28600D03*
Y48600D03*
Y103600D03*
Y123600D03*
X640400Y-183200D03*
Y-163200D03*
Y-108200D03*
Y-88200D03*
G54D35*
X251100Y-172100D03*
X353500Y-206100D03*
X436900Y-204100D03*
G54D53*
X354000Y252800D03*
G54D63*
X567000Y224000D03*
G54D45*
X309538Y-136400D03*
X314262D03*
G54D36*
X245194Y-175840D03*
Y-172100D03*
Y-168360D03*
X257006D03*
Y-172100D03*
Y-175840D03*
X359406Y-202360D03*
Y-206100D03*
Y-209840D03*
X347594D03*
Y-206100D03*
Y-202360D03*
G54D54*
X360102Y256737D03*
Y254769D03*
Y252800D03*
Y250831D03*
Y248863D03*
X347898D03*
Y250831D03*
Y252800D03*
Y254769D03*
Y256737D03*
G54D27*
X179600Y71500D03*
X228600Y-94800D03*
Y10000D03*
X270700Y-49300D03*
X295000Y-182000D03*
X287200Y-49300D03*
X304100D03*
X328000Y-172000D03*
X365000Y-126000D03*
X418400Y29100D03*
X438100Y-154000D03*
X443200Y64700D03*
X459700Y86700D03*
X513500Y248200D03*
X513700Y273100D03*
X524600Y-141000D03*
X591400Y-141400D03*
X601000Y274300D03*
X642100Y214600D03*
G54D18*
X165900Y-275500D03*
X240900D03*
X315900D03*
X390900D03*
X555400Y-173200D03*
Y-98200D03*
X610000Y38600D03*
Y113600D03*
X630400Y-173200D03*
Y-98200D03*
G54D64*
G01X64300Y-113000D02*
X69200D01*
G01X64300Y-121000D02*
X69200D01*
G01Y-105000D02*
X69160Y-104960D01*
X64300D01*
G01Y-97000D02*
X69200D01*
G01X64300Y-89000D02*
X69200D01*
G01X64300Y-81000D02*
X69200D01*
G01X64300Y-65000D02*
X69200D01*
G01X64300Y-73000D02*
X69200D01*
G01X64300Y-57000D02*
X69200D01*
G01X64300Y-49000D02*
X69200D01*
G01X64300Y-41000D02*
X69200D01*
G01X64300Y-33000D02*
X69200D01*
G01X64300Y-25000D02*
X69200D01*
G01X64300Y-17000D02*
X69200D01*
G01X64300Y-9000D02*
X69200D01*
G01X64300Y-1000D02*
X69200D01*
G01X64300Y7000D02*
X69200D01*
G01X64300Y15000D02*
X69200D01*
G01X64300Y23000D02*
X69200D01*
G01X64300Y31000D02*
X69200D01*
G01X64300Y39000D02*
X69200D01*
G01X64300Y47000D02*
X69200D01*
G01X64300Y55000D02*
X69200D01*
G01Y82500D02*
X69000Y82300D01*
X64500D01*
G01X145000Y180200D02*
X144600D01*
G01X145000Y172200D02*
X144600D01*
G01X170300Y-239800D02*
X166400D01*
G01X154499Y-158400D02*
Y-160799D01*
G01X155200Y164300D02*
X155300Y164200D01*
X155400Y164300D01*
G01X155100Y164200D02*
X155200Y164300D01*
G01D02*
X155400D01*
G01X150000Y172200D02*
X150800D01*
G01X150000Y180200D02*
X150800D01*
G01X154600Y188300D02*
X154700Y188200D01*
G01X150100D02*
X154600Y188300D01*
G01X154700Y188200D02*
X151200D01*
G01X187829Y-237461D02*
X183561D01*
X183400Y-237300D01*
G01X187829Y-245139D02*
X183561D01*
X183400Y-245300D01*
G01X190600Y212600D02*
X190900Y212400D01*
X193800D01*
G01X203971Y-240020D02*
X200620D01*
X200400Y-239800D01*
X199892D01*
G01X203971Y-237461D02*
X208739D01*
X208900Y-237300D01*
G01X194800Y-228300D02*
X190900D01*
G01X194800Y-220800D02*
X190900D01*
G01X201000Y-228300D02*
X204650D01*
G01X204900Y-220800D02*
X201000D01*
G01X204600Y212600D02*
Y208901D01*
X202152Y206453D01*
X199647D01*
G01X237700Y184300D02*
X234800D01*
X234479Y184621D01*
X230379D01*
G01X235360Y231460D02*
Y227909D01*
G01X287563Y-126937D02*
X287547Y-126953D01*
G01X303007Y-124984D02*
X303023Y-125000D01*
X305100D01*
G01X300100Y-141900D02*
X300000Y-142000D01*
G01X302700Y-141900D02*
X300100D01*
G01X303007Y-123016D02*
X313384D01*
X313400Y-123000D01*
X315000D01*
G01X303007Y-126953D02*
X305953D01*
X309500Y-130500D01*
G01X303007Y-128921D02*
Y-132493D01*
X302700Y-132800D01*
Y-135700D01*
G01X310900Y-121100D02*
X310847Y-121047D01*
X303007D01*
G01X310900Y-121100D02*
X315000D01*
G01X309852Y-121032D02*
X309920Y-121100D01*
X310900D01*
G01X342600Y-16223D02*
X341200Y-16000D01*
G01X342700Y254500D02*
X344956D01*
X345225Y254769D01*
X347898D01*
G01Y256737D02*
X344963D01*
X344400Y257300D01*
X342900D01*
G01X362871Y-239861D02*
X359961D01*
G01X347898Y252800D02*
X354000D01*
G01X360102Y254769D02*
X355969D01*
G01X360102Y250831D02*
X355969D01*
G01Y254769D02*
X354000Y252800D01*
G01X355969Y250831D02*
X354000Y252800D01*
G01X369809Y-7100D02*
Y-3360D01*
G54D55*
X381348Y-135161D03*
Y-137720D03*
Y-140280D03*
Y-142839D03*
X399852D03*
Y-140280D03*
Y-137720D03*
Y-135161D03*
X412948Y112039D03*
Y109480D03*
Y106920D03*
Y104361D03*
X431452D03*
Y106920D03*
Y109480D03*
Y112039D03*
X466348Y-132161D03*
Y-134720D03*
Y-137280D03*
Y-139839D03*
X484852D03*
Y-137280D03*
Y-134720D03*
Y-132161D03*
X505448Y94480D03*
Y91920D03*
Y89361D03*
Y97039D03*
X527548Y62839D03*
Y60280D03*
Y57720D03*
Y55161D03*
X523952Y89361D03*
Y91920D03*
Y94480D03*
Y97039D03*
X546052Y55161D03*
Y57720D03*
Y60280D03*
Y62839D03*
X557748Y220161D03*
Y222720D03*
Y225280D03*
Y227839D03*
X576252Y225280D03*
Y222720D03*
Y220161D03*
Y227839D03*
G54D46*
X319363Y18900D03*
X315237Y275600D03*
X307363D03*
X327237Y18900D03*
X357737Y33900D03*
X349863D03*
X359737Y74300D03*
X351863D03*
X431563Y-188500D03*
X430637Y-52600D03*
X422763D03*
X439437Y-188500D03*
X476263Y-34700D03*
X484137D03*
X495437Y253500D03*
X487563D03*
G54D37*
X259800Y181657D03*
Y201343D03*
G54D28*
X214800Y-175800D03*
X282600Y-107400D03*
X431100Y-218400D03*
X422400Y-101500D03*
G54D19*
X154499Y-158400D03*
Y-153400D03*
Y-148400D03*
Y-143400D03*
Y-138400D03*
Y-133400D03*
Y-128400D03*
Y-123400D03*
Y-107800D03*
Y-102800D03*
Y-97800D03*
Y-92800D03*
Y-87800D03*
Y-82800D03*
Y-77800D03*
Y-72800D03*
Y-40900D03*
Y-35900D03*
Y-30900D03*
Y-25900D03*
Y-20900D03*
Y-15900D03*
Y-10900D03*
Y-5900D03*
X191901Y-148400D03*
Y-153400D03*
Y-158400D03*
Y-123400D03*
Y-128400D03*
Y-133400D03*
Y-138400D03*
Y-143400D03*
Y-102800D03*
Y-107800D03*
Y-82800D03*
Y-87800D03*
Y-92800D03*
Y-97800D03*
Y-72800D03*
Y-77800D03*
Y-35900D03*
Y-40900D03*
Y-15900D03*
Y-20900D03*
Y-25900D03*
Y-30900D03*
Y-5900D03*
Y-10900D03*
G54D65*
G01X513500Y219263D02*
X517237D01*
X517300Y219200D01*
X518051D01*
G01X508304Y238200D02*
X513500D01*
G01X508504Y263100D02*
X513700D01*
G01Y273100D02*
Y286800D01*
G01X632100Y214600D02*
Y231900D01*
G54D47*
X316112Y8700D03*
X305088D03*
G54D29*
X206100Y236300D03*
Y230100D03*
X335200Y278900D03*
X329000D03*
X360500Y232900D03*
Y239100D03*
G54D56*
X384010Y239400D03*
Y249400D03*
Y259400D03*
Y269400D03*
X437790Y249400D03*
Y239400D03*
Y269400D03*
Y259400D03*
G54D38*
X250596Y256236D03*
G54D66*
G01X75400Y-121000D02*
X104150D01*
X104250Y-121100D01*
X108200D01*
G01X75400Y-105000D02*
X102028D01*
X102042Y-105014D01*
X102102D01*
X102153Y-105065D01*
G01X75400Y-97000D02*
X123000D01*
X143050Y-117050D01*
X166050D01*
G01X75400Y-89000D02*
X90000D01*
G01X75400Y-81000D02*
X96150D01*
X96159Y-80991D01*
X112409D01*
X113900Y-79500D01*
X117500D01*
G01X134532Y-73084D02*
X132282D01*
X132198Y-73000D01*
X75400D01*
G01Y-65000D02*
X86778D01*
X86792Y-64986D01*
X86868D01*
X86882Y-65000D01*
X89300D01*
G01X75400Y-49000D02*
X75600Y-48800D01*
X144472D01*
X144485Y-48813D01*
G01X75400Y-41000D02*
X112900D01*
G01X75400Y-17000D02*
X84900D01*
G01X75400Y-33000D02*
X127100D01*
G01X130700Y-24750D02*
X119885D01*
X119635Y-25000D01*
X75400D01*
G01Y-1000D02*
X113400D01*
X113500Y-900D01*
X125400D01*
G01X75400Y7000D02*
X91900D01*
G01X153460Y34791D02*
X141491D01*
X137700Y31000D01*
X75400D01*
G01Y39000D02*
X106800D01*
X107500Y39700D01*
X156002D01*
X157200Y38502D01*
Y38200D01*
G01X153460Y46209D02*
X107692D01*
X106901Y47000D01*
X75400D01*
G01Y55000D02*
X107600D01*
X109900Y52700D01*
X158600D01*
X160900Y50400D01*
G01X75300Y79500D02*
Y80700D01*
X75400Y80800D01*
Y82500D01*
G01X312300Y-236700D02*
X276000Y-200400D01*
X104400D01*
X96600Y-192600D01*
X90000D01*
G01X136100Y-143400D02*
X87078D01*
X87066Y-143388D01*
X84816D01*
G01X129100Y-65000D02*
X113700D01*
X113600Y-64900D01*
X91650D01*
X91550Y-65000D01*
X89300D01*
G01X154499Y-20900D02*
X102000D01*
G01X230400Y102600D02*
X88100D01*
G01X280500Y111500D02*
X98000D01*
G01X144600Y164200D02*
X144500Y164300D01*
X102100D01*
G01X144700Y196200D02*
X144600Y196100D01*
X91900D01*
G01X144500Y204300D02*
X144400Y204200D01*
X98000D01*
G01X117500Y-150400D02*
X136200D01*
G01Y-136400D02*
X112900D01*
G01X154499Y-87800D02*
X110066D01*
X110021Y-87845D01*
X107771D01*
G01X117500Y107000D02*
X207200D01*
X207300Y106900D01*
X222500D01*
G01X107800Y146900D02*
X123156D01*
X123300Y147044D01*
X127606D01*
X127650Y147000D01*
X240750D01*
X241450Y147700D01*
X243700D01*
G01X144600Y180200D02*
X112900D01*
G01X154499Y-148400D02*
X147700D01*
X145800Y-150300D01*
X145400D01*
X145300Y-150400D01*
X142400D01*
G01X154499Y-143400D02*
X142300D01*
G01X154499Y-138400D02*
X147200D01*
X145100Y-136300D01*
X142500D01*
X142400Y-136400D01*
G01X154499Y-133400D02*
X148750D01*
X146950Y-131600D01*
X139500D01*
G01X134450Y-92800D02*
X154499D01*
G01X129100Y-82800D02*
X154499D01*
G01X144500Y-25900D02*
X154499D01*
G01X127000Y-15900D02*
X154499D01*
G01Y-30900D02*
X142065D01*
X135915Y-24750D01*
X130700D01*
G01X139500Y-900D02*
X131600D01*
G01X144600Y188200D02*
X144500Y188300D01*
X136200D01*
G01Y188200D02*
X144600D01*
G01X165900Y-275500D02*
Y-270366D01*
X165800Y-270266D01*
Y-258800D01*
X176500Y-248100D01*
Y-239800D01*
G01X226300Y-224000D02*
X208700Y-206400D01*
X160800D01*
G01X161300Y-168400D02*
X165300D01*
G01X161300Y-175400D02*
X164900D01*
G01X155100Y-168400D02*
Y-165000D01*
G01Y-175400D02*
Y-178500D01*
G01X154499Y-153400D02*
X161200D01*
G01X154499Y-123400D02*
Y-120801D01*
G01Y-97800D02*
X160700D01*
G01X159800Y-62900D02*
X163400D01*
G01X154499Y-77800D02*
X161800D01*
G01X154499Y-72800D02*
X160400D01*
X160500Y-72900D01*
X160600D01*
G01X159800Y-55900D02*
X163300D01*
G01X160100Y4000D02*
X164100D01*
G01X154499Y-10900D02*
X160500D01*
G01X160100Y11000D02*
X164000D01*
G01X179600Y31500D02*
X175900Y27800D01*
X157720D01*
X153460Y32060D01*
Y34791D01*
G01X157200Y46209D02*
Y50100D01*
X157100Y50200D01*
G01X179600Y61500D02*
X170900Y52800D01*
X163600D01*
X161200Y50400D01*
X160900D01*
G01X160940Y46209D02*
Y49670D01*
X160900Y49710D01*
Y50400D01*
G01X160940Y34791D02*
Y30860D01*
X161000Y30800D01*
G01X157200Y38200D02*
Y34791D01*
G01X179600Y41500D02*
X175154D01*
X173154Y39500D01*
X158100D01*
X157000Y38400D01*
X157200Y38200D01*
G01X179600Y51500D02*
X170000Y41900D01*
X154308D01*
X153460Y42748D01*
Y46209D01*
G01X158800Y65000D02*
X162700D01*
G01X158800Y57000D02*
X162700D01*
G01X152600D02*
X148700D01*
G01X152600Y65000D02*
X148700D01*
G01X150800Y164200D02*
X155100D01*
G01X150800Y172200D02*
X154100D01*
G01X150800Y180200D02*
X154100D01*
G01X150800Y188200D02*
X150900Y188300D01*
X154600D01*
G01X150900Y196200D02*
X156500D01*
X163191Y189509D01*
Y189409D01*
X164500Y188100D01*
G01X164650Y265047D02*
Y239450D01*
X164800Y239300D01*
Y235900D01*
G01X161500Y265047D02*
Y248300D01*
X157000Y243800D01*
Y235900D01*
G01X158350Y265047D02*
Y263968D01*
X158300Y263918D01*
Y256800D01*
G01X155201Y265047D02*
Y263968D01*
X155200Y256800D01*
G01X203971Y-245139D02*
X199739D01*
X194620Y-240020D01*
X187829D01*
G01D02*
X185868D01*
X185648Y-239800D01*
X176500D01*
G01X187829Y-242580D02*
X191540D01*
X198760Y-249800D01*
X220300D01*
G01X192500Y-175100D02*
X188800D01*
G01X191901Y-77800D02*
X185800D01*
G01X188200Y-63100D02*
X184500D01*
G01X188200Y-56100D02*
X184500D01*
G01X191901Y-10900D02*
X185600D01*
G01X185900Y4000D02*
X181600D01*
G01X185900Y11000D02*
X181800D01*
G01X203971Y-242580D02*
X215120D01*
X215900Y-241800D01*
X220300D01*
G01X192500Y-168100D02*
Y-165200D01*
G01X198700Y-168100D02*
X202400D01*
G01X198700Y-175100D02*
X202400D01*
G01X191901Y-158400D02*
Y-160901D01*
G01Y-153400D02*
X197900D01*
G01X191901Y-148400D02*
X208862D01*
X208870Y-148392D01*
X209392D01*
X209400Y-148400D01*
X209600D01*
G01X191901Y-123400D02*
X198500D01*
G01X191901Y-107800D02*
X198600D01*
G01X191901Y-82800D02*
X197580D01*
X199900Y-80480D01*
Y-73700D01*
X205100Y-68500D01*
X209000D01*
G01X191901Y-87800D02*
X199700D01*
X204200Y-83300D01*
Y-80150D01*
X205850Y-78500D01*
X209000D01*
G01X191901Y-40900D02*
X198300D01*
G01X211100Y10100D02*
X206025D01*
X199800Y3107D01*
Y-14200D01*
X198100Y-15900D01*
X191901D01*
G01X211100Y0D02*
X211000Y-100D01*
X208000D01*
X202400Y-5700D01*
Y-17700D01*
X199200Y-20900D01*
X191901D01*
G01X206100Y240300D02*
Y236300D01*
G01X226500Y-241800D02*
X226300Y-224000D01*
G01X240900Y-275500D02*
Y-270366D01*
X240800Y-270266D01*
Y-259200D01*
X231400Y-249800D01*
X226500D01*
G01X217300Y10100D02*
X223805D01*
X223905Y10000D01*
X228600D01*
G01X230600Y130300D02*
Y135200D01*
G01X222600Y130300D02*
Y135200D01*
G01X214600Y130300D02*
Y135200D01*
G01X235360Y216491D02*
X227600D01*
X227136Y216027D01*
X213427D01*
G01X239100Y216491D02*
Y212200D01*
X232100Y205200D01*
X217312D01*
X215600Y206912D01*
G01X235360Y227909D02*
X233080D01*
X232871Y227700D01*
X214600D01*
G01X245194Y-168360D02*
X249060D01*
X251100Y-170400D01*
Y-172100D01*
G01X245194D02*
X241500D01*
G01X245194Y-175840D02*
X241160D01*
G01X235600Y151700D02*
X239500D01*
G01X236100Y159700D02*
X239500D01*
G01X247700Y183500D02*
X246900Y184300D01*
X243900D01*
G01X239100Y227909D02*
Y223800D01*
G01X242200Y238200D02*
Y234800D01*
G01X242840Y227909D02*
Y232460D01*
X242200Y233100D01*
Y234800D01*
G01X266600Y-65900D02*
Y-62100D01*
G01X275000Y-65900D02*
Y-62000D01*
G01X270700Y-39300D02*
X270600Y-39400D01*
X265300D01*
X262300Y-36400D01*
Y-9769D01*
X264194Y-7875D01*
X268692D01*
G01X287200Y-39300D02*
X281700D01*
X278300Y-35900D01*
Y-9600D01*
X274100Y-5400D01*
X273274D01*
X273190Y-5316D01*
X268692D01*
G01X304100Y-39300D02*
X299200D01*
X295800Y-35900D01*
Y-23400D01*
X282500Y-10100D01*
Y10000D01*
X277343Y15157D01*
X268692D01*
G01X270900Y61800D02*
Y58600D01*
G01X277900Y61800D02*
Y59100D01*
G01X275500Y104424D02*
X272576D01*
G01X259800Y181657D02*
X269443D01*
X269700Y181400D01*
X272200D01*
G01Y195400D02*
Y191800D01*
G01Y187600D02*
Y191800D01*
G01Y201600D02*
X269700D01*
X269443Y201343D01*
X259800D01*
G01X285100Y-135800D02*
Y-132800D01*
G01X282500Y-98400D02*
Y-103050D01*
X282600Y-103150D01*
Y-107400D01*
G01X282000Y-120000D02*
X279100D01*
G01X302500Y-10400D02*
X299100D01*
G01X292708Y-5316D02*
X297816D01*
X299000Y-6500D01*
G01X280900Y28200D02*
Y25100D01*
G01X288700Y27800D02*
Y24200D01*
G01X296000Y27800D02*
Y24000D01*
G01X292708Y20275D02*
Y23208D01*
G01X284900Y61800D02*
Y58400D01*
G01X278600Y126100D02*
Y129900D01*
G01X285600Y126100D02*
Y129900D01*
G01X315900Y-275500D02*
Y-270366D01*
X315800Y-270266D01*
Y-251200D01*
X322300Y-244700D01*
X325700D01*
G01Y-236700D02*
X312300D01*
G01X314262Y-136400D02*
X317435D01*
G01X309500Y-130500D02*
Y-136938D01*
X309538Y-136400D01*
G01D02*
X310000Y-137438D01*
Y-144000D01*
G01X309852Y-119063D02*
Y-115448D01*
G01X319100Y-118500D02*
Y-115000D01*
G01X310300Y-10500D02*
X306500D01*
G01X310200Y17500D02*
X313700D01*
X315100Y18900D01*
X319363D01*
G01X310500Y82376D02*
X313876D01*
G01X319500Y77100D02*
X315600D01*
G01X319500Y84300D02*
X315800D01*
X313876Y82376D01*
G01X310500Y104424D02*
Y110500D01*
G01X319700Y109500D02*
X315500D01*
G01X319700Y102200D02*
X315700D01*
G01X300500Y126100D02*
Y130500D01*
G01X346729Y-242420D02*
X343520D01*
X337800Y-236700D01*
X331900D01*
G01X346729Y-244980D02*
X339080D01*
X338800Y-244700D01*
X331900D01*
G01X347594Y-202360D02*
X342390D01*
X342350Y-202400D01*
X339600D01*
G01X355000Y-126000D02*
X348000D01*
X346500Y-127500D01*
X337900D01*
G01X355000Y-96000D02*
X346500D01*
X341000Y-101500D01*
Y-115850D01*
X339350Y-117500D01*
X337100D01*
G01X338900Y-40700D02*
X342300D01*
G01X332700D02*
X329300D01*
G01X338900Y-32700D02*
X342700D01*
G01X341200Y-16000D02*
X344600D01*
G01X332600Y-24600D02*
X332700Y-28200D01*
G01Y-32700D02*
Y-28200D01*
G01X335000Y-16000D02*
X331600D01*
G01X350776Y-20900D02*
X346081D01*
X342381Y-24600D01*
X338800D01*
G01X339200Y-1900D02*
Y900D01*
G01X336300Y-8900D02*
X335800D01*
G01X339200Y-9000D02*
X336434D01*
G01D02*
X336300Y-8900D01*
G01X327237Y18900D02*
X331600D01*
G01X325900Y109500D02*
X330500D01*
G01X325900Y102200D02*
X330300D01*
G01X362871Y-242420D02*
X368520D01*
G01X346729Y-239861D02*
X351961D01*
G01X346729Y-247539D02*
X346800Y-247610D01*
Y-249925D01*
G01X362871Y-247539D02*
X360139D01*
X355020Y-242420D01*
X346729D01*
G01X362871Y-244980D02*
X366332D01*
X366552Y-245200D01*
X373200D01*
G01X359406Y-209840D02*
X355640D01*
X353500Y-207700D01*
Y-206100D01*
G01X368800Y-202263D02*
X368703Y-202360D01*
X363240D01*
G01X359406D02*
X363240D01*
G01X359406Y-206100D02*
X363400D01*
G01X347594D02*
Y-202360D01*
G01X365100Y-144500D02*
Y-147100D01*
X364300Y-147900D01*
G01X365100Y-137500D02*
Y-130795D01*
X365000Y-130695D01*
Y-126000D01*
G01Y-116000D02*
X369900D01*
X400000Y-85900D01*
X477600D01*
X544700Y-18800D01*
Y-13600D01*
G01X365000Y-106000D02*
X370100D01*
X393500Y-82600D01*
X464400D01*
X563600Y16600D01*
Y48500D01*
G01X355000Y-86000D02*
Y-96000D01*
G01X350776Y-25900D02*
X350676Y-25800D01*
X345831D01*
G01X358391Y-10840D02*
X354160D01*
G01X345400Y-9000D02*
X348800D01*
G01X358391Y-7100D02*
X354680D01*
X354542Y-7191D01*
X354100Y-7100D01*
G01X355400Y44094D02*
Y41000D01*
G01X359140Y44094D02*
Y39860D01*
G01X351660Y44094D02*
Y47560D01*
X354100Y50000D01*
X355400D01*
G01X359300Y64700D02*
X363300D01*
G01X359140Y55906D02*
Y59360D01*
G01X355400Y55906D02*
Y59400D01*
G01X359737Y74300D02*
X363700D01*
G01X360500Y232900D02*
X352500Y232600D01*
G01X390900Y-275500D02*
Y-270116D01*
X390700Y-269916D01*
Y-259250D01*
X379400Y-247950D01*
Y-245200D01*
G01X373600Y-159100D02*
Y-163200D01*
G01X380600Y-159100D02*
Y-163200D01*
G01X381348Y-142839D02*
X374761D01*
X373600Y-144000D01*
X371300Y-144500D01*
G01X388000Y-152500D02*
Y-140222D01*
X385498Y-137720D01*
X381348D01*
G01D02*
X375220D01*
X375000Y-137500D01*
X371300D01*
G01X383000Y-33300D02*
Y-36300D01*
X382900Y-36400D01*
Y-36700D01*
G01X372824Y-25900D02*
X377980D01*
X379200Y-27120D01*
X380230D01*
X380250Y-27100D01*
X383000D01*
G01X372824Y-25900D02*
Y-30900D01*
G01X369809Y-10840D02*
X365840D01*
G01X382800Y-900D02*
Y2500D01*
G01X394200Y-152500D02*
Y-141782D01*
X395702Y-140280D01*
X399852D01*
G01X394200Y-152500D02*
Y-159500D01*
G01X388000D02*
Y-152500D01*
G01X399852Y-137720D02*
X404380D01*
X408100Y-134000D01*
X411000D01*
G01X399852Y-140280D02*
X404880D01*
X408100Y-143500D01*
X410500D01*
X411000Y-144000D01*
G01X394600Y-120400D02*
Y-116900D01*
G01X401600Y-120400D02*
Y-116900D01*
G01X399800Y-101200D02*
X407850D01*
X408150Y-101500D01*
X412400D01*
G01X399800Y-75500D02*
Y-23400D01*
X393500Y-17100D01*
G01X395100Y89200D02*
X391400D01*
G01X401300Y96200D02*
Y89200D01*
G01Y96200D02*
X401100Y81000D01*
G01X407300D02*
X426900D01*
X433200Y74700D01*
G01X395100Y96200D02*
Y99200D01*
G01X401300Y96200D02*
Y102400D01*
X405820Y106920D01*
X412948D01*
G01Y109480D02*
X407920D01*
X404200Y113200D01*
X401300D01*
G01X431563Y-188500D02*
X427000D01*
G01X421100Y-198500D02*
Y-205500D01*
G01X417200Y-127000D02*
X420800D01*
G01X411000D02*
Y-134000D01*
G01Y-127000D02*
Y-120000D01*
G01X417200Y-144000D02*
X428100D01*
G01Y-134000D02*
X417200D01*
G01Y-120000D02*
X420900D01*
G01X411200Y-112000D02*
Y-115500D01*
X411000Y-115700D01*
Y-120000D01*
G01X422400Y-101500D02*
X422700Y-101800D01*
Y-107100D01*
X417800Y-112000D01*
X417400D01*
G01X410700Y89100D02*
Y85200D01*
G01X417700Y89100D02*
Y85300D01*
G01X418600Y122200D02*
Y110982D01*
X417098Y109480D01*
X412948D01*
G01X424800Y122200D02*
Y109100D01*
X426700Y107200D01*
X427022D01*
X427302Y106920D01*
X431452D01*
G01X418600Y122200D02*
Y129200D01*
G01X424800D02*
Y122200D01*
G01X447000Y-218400D02*
X450900D01*
G01X440800D02*
X431100D01*
G01X438100Y-134000D02*
X444600Y-140500D01*
Y-147500D01*
X438100Y-154000D01*
G01X449000Y-141000D02*
Y-144200D01*
G01Y-134000D02*
X438100D01*
G01X442676Y-51700D02*
X442576Y-51600D01*
X436300D01*
G01X430637Y-52600D02*
X435300D01*
X436300Y-51600D01*
G01X431500Y-43400D02*
X434600D01*
X435300Y-44100D01*
G01X442676Y-46700D02*
X436900D01*
G01X433200Y64700D02*
Y74700D01*
G01X469700D02*
X461100Y74800D01*
X461000Y74700D01*
X443200D01*
G01X448300Y113700D02*
Y116600D01*
G01X431452Y106920D02*
X438980D01*
X439200Y106700D01*
X442100D01*
G01X431452Y112039D02*
X437539D01*
X439200Y113700D01*
X442100D01*
G01X481500Y103800D02*
X469400D01*
X466500Y106700D01*
X448300D01*
G01X432200Y128800D02*
Y132300D01*
G01X439200Y128800D02*
Y132700D01*
G01X457600Y-156600D02*
Y-160600D01*
G01X464600Y-156600D02*
Y-160600D01*
G01X473000Y-156000D02*
Y-149000D01*
G01D02*
Y-136972D01*
X470748Y-134720D01*
X466348D01*
G01D02*
X458820D01*
X458100Y-134000D01*
X455200D01*
G01X466348Y-139839D02*
X459261D01*
X458100Y-141000D01*
X455200D01*
G01X464724Y-56700D02*
X470200D01*
G01X464724Y-51700D02*
X470400D01*
G01X469700Y74700D02*
Y59700D01*
G01Y74700D02*
Y86700D01*
G01Y96700D02*
X459700D01*
G01X481500D02*
X469700D01*
G01X479200Y-149000D02*
Y-156000D01*
G01Y-149000D02*
Y-138782D01*
X480702Y-137280D01*
X484852D01*
G01Y-134720D02*
X491380D01*
X493600Y-132500D01*
X497500D01*
G01X484852Y-137280D02*
X491880D01*
X494100Y-139500D01*
X497500D01*
G01X480600Y-116400D02*
Y-112700D01*
G01X488100Y-116400D02*
Y-112900D01*
G01X478200Y-51700D02*
X475400D01*
G01X495800Y73800D02*
Y70200D01*
G01X481500Y82700D02*
X477500D01*
G01X481500Y89700D02*
X478000D01*
G01X487700D02*
Y82700D01*
G01Y96700D02*
Y89700D01*
G01Y82700D02*
X487900Y82500D01*
X491000D01*
X500420Y91920D01*
X505448D01*
G01X487700Y103800D02*
X491200D01*
X500520Y94480D01*
X505448D01*
G01X503700Y-125500D02*
X507700D01*
G01X503700Y-118500D02*
X507600D01*
G01X503400Y73900D02*
Y70900D01*
X503300Y70800D01*
Y70500D01*
G01X527548Y60280D02*
X520070D01*
X520050Y60300D01*
X517300D01*
G01X527548Y57720D02*
X522120D01*
X517300Y52900D01*
Y52500D01*
G01Y66500D02*
Y74000D01*
G01X505448Y89361D02*
Y85648D01*
X503300Y83500D01*
G01X511100Y74000D02*
Y81000D01*
G01D02*
Y93228D01*
X509848Y94480D01*
X505448D01*
G01X517300Y81000D02*
Y89668D01*
X519552Y91920D01*
X523952D01*
G01X517300Y74000D02*
Y81000D01*
G01X528600Y-167200D02*
Y-171400D01*
G01X526600Y-104800D02*
Y-100900D01*
G01X525700Y45200D02*
Y48700D01*
G01X533100Y45200D02*
Y48400D01*
G01X533600Y72000D02*
Y79200D01*
G01Y72000D02*
Y61932D01*
X531948Y60280D01*
X527548D01*
G01X546052Y57720D02*
X545972Y57800D01*
X542200D01*
X539800Y60200D01*
Y72000D01*
G01X523952Y94480D02*
X528480D01*
X529500Y95500D01*
G01X523952Y91920D02*
X530530D01*
X530550Y91900D01*
X533700D01*
G01X533300Y114200D02*
Y118200D01*
G01X523952Y97039D02*
X524500Y97587D01*
Y105200D01*
X524000Y105700D01*
G01X537800Y237163D02*
Y233200D01*
G01X536500Y263100D02*
Y266000D01*
G01X550900Y72700D02*
Y69200D01*
G01X558800Y72700D02*
Y69300D01*
G01X557400Y55600D02*
X557300Y55700D01*
X554300D01*
X552280Y57720D01*
X546052D01*
G01X539800Y79200D02*
Y72000D01*
G01X546052Y62839D02*
X554111D01*
X554250Y62700D01*
X557400D01*
G01X550900Y78900D02*
Y82700D01*
G01X558900Y82900D02*
Y79000D01*
X558800Y78900D01*
G01X539900Y91900D02*
Y99100D01*
G01Y91900D02*
X544700D01*
G01X540300Y114200D02*
Y118500D01*
G01X539900Y99100D02*
X552900D01*
X555500Y101700D01*
X574000D01*
G01X557748Y225280D02*
X551570D01*
X551250Y225600D01*
X548500D01*
G01X557748Y220161D02*
Y217748D01*
G01X556161Y245248D02*
X553748D01*
G01X557748Y227839D02*
Y229748D01*
G01X547000Y237700D02*
Y234000D01*
G01X558720Y245248D02*
Y239070D01*
X558400Y238750D01*
Y236000D01*
G01X545600Y263637D02*
Y267400D01*
G01X563600Y48500D02*
Y55600D01*
G01X610000Y38600D02*
X593200D01*
X576200Y55600D01*
G01X563600D02*
X576200D01*
G01X574000Y101700D02*
X585900Y113600D01*
X610000D01*
G01X563839Y245248D02*
X565748D01*
G54D39*
X268692Y-7875D03*
Y-5316D03*
Y-2757D03*
Y-198D03*
Y2361D03*
Y4920D03*
Y7480D03*
Y10039D03*
Y12598D03*
Y15157D03*
Y17716D03*
Y20275D03*
X292708Y7480D03*
Y4920D03*
Y2361D03*
Y-198D03*
Y-2757D03*
Y-5316D03*
Y-7875D03*
Y20275D03*
Y17716D03*
Y15157D03*
Y12598D03*
Y10039D03*
G54D57*
X430798Y-207939D03*
Y-205380D03*
Y-202820D03*
Y-200261D03*
X443002D03*
Y-202820D03*
Y-205380D03*
Y-207939D03*
G54D48*
X302215Y286600D03*
X316585D03*
G54D67*
G01X338000Y-172000D02*
Y-182000D01*
G01X487563Y253500D02*
X482900D01*
G01X495499Y282000D02*
X499900D01*
G01X513500Y238200D02*
Y227137D01*
G01X548500Y219400D02*
Y216000D01*
G01X608500Y207163D02*
Y202800D01*
G01X607000Y231100D02*
Y234500D01*
G54D49*
X350776Y-35900D03*
Y-30900D03*
Y-25900D03*
Y-20900D03*
X372824Y-35900D03*
Y-20900D03*
Y-25900D03*
Y-30900D03*
X442676Y-56700D03*
Y-51700D03*
Y-46700D03*
Y-41700D03*
X464724D03*
Y-46700D03*
Y-51700D03*
Y-56700D03*
G54D58*
X461240Y227491D03*
X453760D03*
Y238909D03*
X461440Y269191D03*
X453960D03*
Y280609D03*
G54D68*
G01X381348Y-140280D02*
X375920D01*
G01X399852Y-135161D02*
Y-132948D01*
G01X412948Y104361D02*
Y101748D01*
G01X466348Y-137280D02*
X461380D01*
G01X484852Y-132161D02*
Y-129552D01*
G01X527548Y55161D02*
Y52752D01*
G54D59*
X461240Y238909D03*
X461440Y280609D03*
M02*
